<svg xmlns="http://www.w3.org/2000/svg" width="30" height="30" viewBox="0 0 30 30">
    <g fill="none" fill-rule="evenodd" stroke="#000" transform="translate(6 6)">
        <path d="M16.421 5.558V.948H13.58v2.35M12 18h4.421V7.822m-13.895.073V18h4.421"/>
        <circle cx="9.474" cy="7.579" r="1.579"/>
        <path d="M6.947 11.684H12V18H6.947v-6.316zM9.474 0L.138 7.469c-.036.028-.057.07-.06.115-.002.046.016.09.048.121l1.038 1.038c.057.057.148.062.211.011l8.099-6.543 8.1 6.542c.062.05.153.046.21-.011l1.039-1.037c.031-.031.048-.075.046-.12-.003-.045-.024-.087-.06-.115L9.475 0z"/>
    </g>
</svg>
