<svg width="180" height="180" viewBox="0 0 180 180" fill="none" xmlns="http://www.w3.org/2000/svg">
<mask id="mask0" mask-type="alpha" maskUnits="userSpaceOnUse" x="22" y="7" width="136" height="151">
<path fill-rule="evenodd" clip-rule="evenodd" d="M111.15 22.5H142.5C150.75 22.5 157.5 29.25 157.5 37.5V142.5C157.5 150.75 150.75 157.5 142.5 157.5H37.5C29.25 157.5 22.5 150.75 22.5 142.5V37.5C22.5 29.25 29.25 22.5 37.5 22.5H68.85C72 13.8 80.25 7.5 90 7.5C99.75 7.5 108 13.8 111.15 22.5ZM97.5 30C97.5 25.875 94.125 22.5 90 22.5C85.875 22.5 82.5 25.875 82.5 30C82.5 34.125 85.875 37.5 90 37.5C94.125 37.5 97.5 34.125 97.5 30ZM90 52.5C102.45 52.5 112.5 62.55 112.5 75C112.5 87.45 102.45 97.5 90 97.5C77.55 97.5 67.5 87.45 67.5 75C67.5 62.55 77.55 52.5 90 52.5ZM45 132V142.5H135V132C135 117 105 108.75 90 108.75C75 108.75 45 117 45 132Z" fill="white"/>
</mask>
<g mask="url(#mask0)">
<rect width="180" height="180" fill="black" fill-opacity="0.54"/>
</g>
</svg>
