<svg xmlns="http://www.w3.org/2000/svg" width="30" height="30" viewBox="0 0 30 30">
    <g fill="none" fill-rule="evenodd" stroke="#202020" transform="translate(6 7.2)">
        <path d="M0 0h18v3.6H0V0zm0 3.6v12h18v-12"/>
        <path d="M3 6h2.4v2.4H3V6zm4.8 0h2.4v2.4H7.8V6zm4.8 0H15v2.4h-2.4V6zM3 10.8h2.4v2.4H3v-2.4zm4.8 0h2.4v2.4H7.8v-2.4zm4.8 0H15v2.4h-2.4v-2.4z"/>
        <circle cx="1.8" cy="1.8" r="1"/>
        <circle cx="3.9" cy="1.8" r="1"/>
        <circle cx="6" cy="1.8" r="1"/>
    </g>
</svg>
