<svg xmlns="http://www.w3.org/2000/svg" width="31" height="30" viewBox="0 0 31 30">
    <g fill="none" fill-rule="evenodd" stroke="#000">
        <path d="M7.938 2.563C8.217 1.53 8.938.25 10.75.25c0 0 5-1.594 5 3.5 0 4.281.969 4.75 2 5.781-1.311.308-2.653.466-4 .469v.5c0 .5-.094 1.5 2.406 2S18.75 15 18.75 15h-6.563" transform="translate(6.031 6)"/>
        <path d="M11.281 14.75c-2.5-.344-2.5-1.25-2.5-1.75v-.281c.637-.59 1.092-1.349 1.313-2.188.75 0 .937-1.594.937-1.812 0-.219-.062-1.125-.406-1.219 1.25-4.375-2.5-6.25-5.75-4-1.375 0-1.813 2-1.313 4-.343 0-.406.938-.406 1.188s.188 1.812.938 1.812c.25.906.937 1.656 1.531 2.188V13c0 .5-.188 1.438-2.719 1.75C.375 15.063 0 17.5 0 17.5h13.75s.031-2.406-2.469-2.75z" transform="translate(6.031 6)"/>
    </g>
</svg>
