<svg xmlns="http://www.w3.org/2000/svg" width="101" height="100" viewBox="0 0 101 100">
    <g fill="none" fill-rule="nonzero">
        <g fill="#D4E1F4">
            <path d="M36.373 46.22a.66.66 0 0 0-.016-.069l-.601-2.067a.73.73 0 0 0-.595-.6 2.283 2.283 0 0 1-1.818-2.79 1.52 1.52 0 0 1 1.09-1.116 2.335 2.335 0 0 0 3.365-1.988l.166-3.632c.264.003.594.004.978-.002l-.121-.103c-1.431.103-2.59.114-3.291.105l-.165 3.632a2.33 2.33 0 0 1-3.366 1.988 1.52 1.52 0 0 0-1.09 1.117 2.282 2.282 0 0 0 1.818 2.79.73.73 0 0 1 .595.6l.601 2.066a.66.66 0 0 1 .016.069 10.41 10.41 0 0 0 11.468 8.429 10.437 10.437 0 0 1-9.034-8.429z"/>
            <path d="M45.408 21.527a11.247 11.247 0 0 0-12.462 11.179v5.651a.88.88 0 0 0 .959-.833l.198-4.348a.729.729 0 0 1 .767-.696c.007 0 .19.009.513.014a11.261 11.261 0 0 1 10.025-10.967zM42.027 58.491v-2.507a11.873 11.873 0 0 1-2.434-.726v3.233a10.563 10.563 0 0 0 5.813.981 10.469 10.469 0 0 1-3.38-.98zM28.988 66.444c.017-.07.034-.14.053-.209.485-1.765 1.854-3.168 3.663-3.754l7.104-2.304a11.826 11.826 0 0 1-1.024-.457l-8.514 2.761c-1.81.586-3.178 1.99-3.663 3.754a5.118 5.118 0 0 0-.177 1.387v5.282h2.434v-5.281a5.123 5.123 0 0 1 .124-1.18z"/>
        </g>
        <path fill="#5D3908" d="M56.897 38.207v-5.501C56.897 25.689 51.208 20 44.191 20c-7.017 0-12.706 5.689-12.706 12.706v5.5a2.968 2.968 0 0 0-1.995 2.142 3.745 3.745 0 0 0 2.522 4.464l.498 1.713a11.884 11.884 0 0 0 5.622 7.995v3.877l-8.313 2.695c-2.278.738-4.005 2.516-4.62 4.757a6.607 6.607 0 0 0-.23 1.774v6.012c0 .403.327.73.73.73h22.388v-1.46H26.43v-5.282a5.112 5.112 0 0 1 .177-1.387c.485-1.765 1.854-3.168 3.663-3.754l8.514-2.76a12.035 12.035 0 0 0 10.806 0l7.485 2.497.462-1.385-7.29-2.432V54.52a11.885 11.885 0 0 0 5.621-7.995l.499-1.714a3.745 3.745 0 0 0 2.522-4.464 2.968 2.968 0 0 0-1.992-2.14zm-11.645-5.36c.998 1.074 4.28 4.08 10.185 4.663v.584c-2.197-.043-9.108-.507-14.523-4.445l.29-.036a34.633 34.633 0 0 0 4.048-.766zm-12.306-.141c0-6.211 5.035-11.246 11.245-11.246 6.211 0 11.246 5.035 11.246 11.246v3.334c-4.474-.483-7.293-2.505-8.565-3.656 2.234-.718 4.131-1.671 5.67-2.852a.729.729 0 0 0-.156-1.265.731.731 0 0 0-.732.106c-3.11 2.386-7.488 3.377-10.613 3.788-2.045.273-4.109.38-6.171.319a.73.73 0 0 0-.767.696l-.198 4.348a.88.88 0 0 1-.96.834l.001-5.652zm15.84 25.785a10.574 10.574 0 0 1-9.193 0v-3.233a11.878 11.878 0 0 0 9.192 0v3.233zm6.864-15.006a.73.73 0 0 0-.594.6l-.601 2.066a.692.692 0 0 0-.017.069 10.43 10.43 0 0 1-20.5 0 .662.662 0 0 0-.016-.069l-.6-2.067a.73.73 0 0 0-.595-.6 2.283 2.283 0 0 1-1.818-2.79 1.52 1.52 0 0 1 1.09-1.116 2.334 2.334 0 0 0 3.365-1.988l.165-3.632c.701.009 1.86-.002 3.29-.105 3.63 3.123 8.095 4.508 11.233 5.12 3.46.675 6.035.585 6.142.58a.6.6 0 0 0 .06-.005 1.533 1.533 0 0 1 1.215 1.147 2.282 2.282 0 0 1-1.819 2.79z"/>
        <path fill="#CCA500" d="M73.703 60.034c-1.114-.758-3.215-2.263-4.772-3.82-1.654-1.655-3.48-4.164-4.187-5.166a1.438 1.438 0 0 0-2.056-.305l-8.047 6.258a1.43 1.43 0 0 0-.276 1.986 53.492 53.492 0 0 0 3.29 4.048L45.116 75.573a.729.729 0 0 0-.2.66l.51 2.549a.73.73 0 0 0 .573.573l2.549.51a.732.732 0 0 0 .66-.2l1.275-1.276 1.676.181a.73.73 0 0 0 .806-.783l-.1-1.275 1.395.027a.732.732 0 0 0 .735-.849l-.256-1.557 7.007-7.007a53.52 53.52 0 0 0 4.048 3.29 1.43 1.43 0 0 0 1.986-.276l6.247-8.035a1.438 1.438 0 0 0-.324-2.07zm-7.063 9.19a52.082 52.082 0 0 1-4.424-3.644.73.73 0 0 0-1.01.02l-7.765 7.765a.73.73 0 0 0-.205.635l.175 1.062-1.325-.025a.73.73 0 0 0-.742.788l.095 1.2-1.148-.125a.733.733 0 0 0-.594.21l-1.246 1.246-1.689-.337-.337-1.688L59.18 63.576a.73.73 0 0 0 .02-1.011 52.001 52.001 0 0 1-3.645-4.423l8.01-6.231c.91 1.287 2.671 3.673 4.333 5.335 1.632 1.63 3.8 3.189 4.962 3.981l-6.22 7.998z"/>
        <path fill="#5D3908" d="M64.96 56.657l-1.346-1.538a.73.73 0 0 0-.998-.096L60.78 56.45a.73.73 0 0 0-.199.915l2.243 4.282a.73.73 0 0 0 .308.308l4.281 2.243a.73.73 0 0 0 .916-.199l1.427-1.835a.73.73 0 0 0-.096-.998l-1.538-1.346a33.735 33.735 0 0 1-3.164-3.163zm3.22 5.155l-.629.809-3.538-1.854-1.854-3.538.81-.629.891 1.02a35.238 35.238 0 0 0 3.302 3.3l1.019.892z"/>
    </g>
</svg>
