<?xml version="1.0" encoding="UTF-8"?>
<svg width="33px" height="30px" viewBox="0 0 33 30" version="1.1" xmlns="http://www.w3.org/2000/svg" xmlns:xlink="http://www.w3.org/1999/xlink">
    <title>34261060-F8A9-4008-9C80-D24A428D5A3C</title>
    <g id="M-TAX-WEB-V2" stroke="none" stroke-width="1" fill="none" fill-rule="evenodd">
        <g id="E00_MTAX_WEB" transform="translate(-421.000000, -430.000000)" stroke="#202020">
            <g id="Group" transform="translate(410.000000, 420.000000)">
                <g id="Date-de-naissance-Copy">
                    <g id="Icon/calendar" transform="translate(11.000000, 10.000000)">
                        <g id="Orion_item-grid" transform="translate(6.600000, 7.200000)">
                            <path d="M0,0 L19.8,0 L19.8,3.6 L0,3.6 L0,0 Z M0,3.6 L0,15.6 L19.8,15.6 L19.8,3.6" id="Shape"></path>
                            <path d="M3.3,6 L5.94,6 L5.94,8.4 L3.3,8.4 L3.3,6 Z M8.58,6 L11.22,6 L11.22,8.4 L8.58,8.4 L8.58,6 Z M13.86,6 L16.5,6 L16.5,8.4 L13.86,8.4 L13.86,6 Z M3.3,10.8 L5.94,10.8 L5.94,13.2 L3.3,13.2 L3.3,10.8 Z M8.58,10.8 L11.22,10.8 L11.22,13.2 L8.58,13.2 L8.58,10.8 Z M13.86,10.8 L16.5,10.8 L16.5,13.2 L13.86,13.2 L13.86,10.8 Z" id="Shape"></path>
                            <ellipse id="Oval" cx="1.98" cy="1.8" rx="1" ry="1"></ellipse>
                            <ellipse id="Oval" cx="4.29" cy="1.8" rx="1" ry="1"></ellipse>
                            <ellipse id="Oval" cx="6.6" cy="1.8" rx="1" ry="1"></ellipse>
                        </g>
                    </g>
                </g>
            </g>
        </g>
    </g>
</svg>