<svg xmlns="http://www.w3.org/2000/svg" width="1440" height="1024" viewBox="0 0 1440 1024">
    <g fill="none" fill-rule="evenodd" stroke="#CCA500" stroke-width="8" opacity=".091">
        <path d="M695.5-16c8.56 0 15.5 7.835 15.5 17.5S704.06 19 695.5 19c-8.56 0-15.5-7.835-15.5-17.5S686.94-16 695.5-16zM689 435v-31.594c0-10.11-3.136-19.467-8.459-27.088M599 403.406c0-25.63 20.146-46.406 45-46.406 8.629 0 16.693 2.504 23.54 6.849M707 80h14.89C731.892 80 740 71.27 740 60.5S731.892 41 721.89 41h-29.78C682.108 41 674 49.73 674 60.5M483-50h-27.948c-8.944 0-17.221 3.553-23.963 9.585M455.052 52C432.379 52 414 29.166 414 1c0-9.78 2.215-18.918 6.058-26.68M567.75 473h-1.28c-9.095 0-16.47 8.508-16.47 19s7.375 19 16.47 19h38.06c9.095 0 16.47-8.508 16.47-19s-7.375-19-16.47-19h-1.28M423 512c-10.494 0-19-9.849-19-22s8.506-22 19-22M588.037 57C596.852 57 604 48.717 604 38.5S596.852 20 588.037 20H570M654 512v-70.872C654 427.25 643.927 416 631.5 416S609 427.25 609 441.128v10.968M23.5 140C44.763 140 62 120.748 62 97S44.763 54 23.5 54-15 73.252-15 97M53.767-1c0 11.046-8.007 20-17.884 20S18 10.046 18-1s8.006-20 17.883-20H71M293-3.5v-27.36c0-7.81 5.374-14.14 12-14.14s12 6.33 12 14.14v54.72c0 7.81-5.374 14.14-12 14.14s-12-6.33-12-14.14v-6.61"/>
        <path d="M268-41v70.724C268 50.864 283.222 68 302 68c18.777 0 34-17.137 34-38.276v-16.71M511-21h74.005C613.168-21 636 4.968 636 37s-22.832 58-50.995 58H562.74M709 97v38.197c0 16.46-11.818 29.803-26.397 29.803H662M199 120v25.548C199 164.023 211.984 179 228 179M153 303v-40.293c0-23.2 16.22-42.634 38-47.707M561 157h43.04c24.782 0 45.542 22.195 50.96 52"/>
        <path d="M650 102c0-12.15 8.731-22 19.5-22s19.5 9.85 19.5 22v16c0 12.15-8.731 22-19.5 22s-19.5-9.85-19.5-22v-16zM245 124V30.243C245 11.883 232.016-3 216-3M521 39c7.18 0 13 6.716 13 15 0 8.284-5.82 15-13 15s-13-6.716-13-15c0-8.284 5.82-15 13-15z"/>
        <path d="M520 95c20.986 0 38-18.804 38-42s-17.014-42-38-42-38 18.804-38 42M457-17c-8.284 0-15 7.835-15 17.5S448.716 18 457 18c8.284 0 15-7.835 15-17.5V-17M396.5 331.59c-9.664 0-17.5 9.043-17.5 20.203S386.836 372 396.5 372s17.5-9.048 17.5-20.207V290M326.813 468.5c0 10.217 7.207 18.5 16.095 18.5 8.888 0 16.092-8.283 16.092-18.5s-7.204-18.5-16.092-18.5H289M259.1 476h40.8c8.34 0 15.1 7.834 15.1 17.5s-6.76 17.5-15.1 17.5h-40.8c-8.34 0-15.1-7.834-15.1-17.5s6.76-17.5 15.1-17.5zM183 74c0 23.748-16.565 43-37 43s-37-19.252-37-43M215 95V44.061C215 34.086 207.837 26 199 26s-16 8.086-16 18.061v7.885M120 138c6.075 0 11 5.372 11 12s-4.925 12-11 12-11-5.372-11-12 4.925-12 11-12z"/>
        <path d="M130 66.85v-51.7C130 5.126 137.163-3 146-3s16 8.126 16 18.15v51.7C162 76.874 154.837 85 146 85s-16-8.126-16-18.15zM497 95h-36.348C437.649 95 419 116.043 419 142M23 114.594c8.284 0 15-7.744 15-17.297S31.284 80 23 80c-8.284 0-15 7.744-15 17.297V210M532 186c-8.836 0-16 8.283-16 18.5s7.164 18.5 16 18.5 16-8.283 16-18.5V186M632 272.752C632 298.846 650.805 320 674 320s42-21.154 42-47.248V222"/>
        <path d="M609.703 295h-2.097C595.675 295 586 283.807 586 270s9.675-25 21.606-25h65.788C685.326 245 695 256.193 695 270s-9.674 25-21.606 25h-.646M570 186h26.625C614.506 186 629 202.566 629 223M294.5 334c8.56 0 15.5 7.835 15.5 17.5s-6.94 17.5-15.5 17.5c-8.56 0-15.5-7.835-15.5-17.5s6.94-17.5 15.5-17.5z"/>
        <path d="M256.4 341.587c-5.737 24.434 6.673 49.456 27.715 55.893 21.042 6.436 42.749-8.155 48.485-32.588 5.736-24.432-6.673-49.456-27.715-55.892M285 309h-75.605c-14.57-.009-26.388-13.67-26.395-30.514-.007-16.845 11.799-30.494 26.369-30.486 14.57.008 26.388 13.67 26.394 30.514h-24.616M284 209v83M144.608 468c-6.41 0-11.608-5.82-11.608-13s5.197-13 11.608-13H157M73.5 451c9.113 0 16.5 8.506 16.5 19s-7.387 19-16.5 19S57 480.494 57 470s7.387-19 16.5-19z"/>
        <path d="M108 469c0-23.747-16.565-43-37-43s-37 19.253-37 43 16.565 43 37 43M172.5 442h15.568c10.456 0 18.932-9.177 18.932-20.5s-8.476-20.5-18.932-20.5h-31.136C146.476 401 138 410.177 138 421.5M109 413c0-21.538 15.4-39 34.396-39H204M89 374v39M261 256v35M308.688 160c0 10.493-7.54 19-16.844 19-9.304 0-16.844-8.507-16.844-19s7.54-19 16.844-19H346M368 201.5v-27.36c0-7.81 5.374-14.14 12-14.14s12 6.33 12 14.14v54.72c0 7.81-5.374 14.14-12 14.14s-12-6.33-12-14.14v-6.61"/>
        <path d="M346 161v70.724c0 21.14 15.222 38.276 34 38.276 18.777 0 34-17.137 34-38.276v-16.71M352 98h-17.755C321.407 98 311 109.64 311 124M368 78v63M470 180.775v6.254c0 8.82-6.294 15.971-14.052 15.971-7.762 0-14.055-7.15-14.055-15.97v-5.18c0-8.754-6.245-15.85-13.945-15.85-7.703 0-13.948 7.096-13.948 15.85v6.374M29 309.244c-8.284 0-15 7.782-15 17.378S20.716 344 29 344c8.284 0 15-7.782 15-17.378V299M47 273v-27.472c0-15.819 11.097-29.07 26-32.528M29 232v-67M68 263.328C68 250.997 76.955 241 88 241s20 9.997 20 22.328v52.343C108 328.003 99.045 338 88 338s-20-9.997-20-22.329v-52.343zM441 365.31c0-10.11 7.163-18.31 16-18.31s16 8.2 16 18.31V386M507.5 317c9.113 0 16.5 8.506 16.5 19s-7.387 19-16.5 19-16.5-8.506-16.5-19 7.387-19 16.5-19zM473.822 421.5c0 9.665-6.9 17.5-15.411 17.5-8.51 0-15.411-7.835-15.411-17.5s6.9-17.5 15.41-17.5H516"/>
        <path d="M455 292h55.65c21.18 0 38.35 19.7 38.35 44s-17.17 44-38.35 44h-16.74M536 403h18.036C572.243 403 587 419.62 587 440.123V478"/>
        <path d="M553 428c6.075 0 11 5.372 11 12s-4.925 12-11 12-11-5.372-11-12 4.925-12 11-12zM493.986 482l.028 14M493.986 454l.028 14M415.987 431l.026 14M415.987 404l.026 14M391.987 404l.026 14M220.987 367l.026 14M38.987 376l.026 14M94.987 187l.026 14M74.987 154l.026 14M244.987 172l.026 14M366.987 25l.026 14M366.987-2l.026 14M501.987 247l.026 14M530.987 247l.026 14M560.987 247l.026 14"/>
        <g>
            <path d="M-5.5 1040c-8.56 0-15.5-7.835-15.5-17.5s6.94-17.5 15.5-17.5c8.56 0 15.5 7.835 15.5 17.5S3.06 1040-5.5 1040zM1 589v31.594c0 10.11 3.136 19.467 8.459 27.088M91 620.594C91 646.224 70.854 667 46 667c-8.629 0-16.693-2.504-23.54-6.849M-17 944h-14.89C-41.892 944-50 952.73-50 963.5s8.108 19.5 18.11 19.5h29.78C7.892 983 16 974.27 16 963.5M207 1074h27.948c8.944 0 17.221-3.553 23.963-9.585M234.948 972c22.673 0 41.052 22.834 41.052 51 0 9.78-2.215 18.918-6.058 26.68M122.25 551h1.28c9.095 0 16.47-8.508 16.47-19s-7.375-19-16.47-19H85.47C76.376 513 69 521.508 69 532s7.375 19 16.47 19h1.28M267 512c10.494 0 19 9.849 19 22s-8.506 22-19 22M101.963 967C93.148 967 86 975.283 86 985.5s7.148 18.5 15.963 18.5H120M36 512v70.872C36 596.75 46.073 608 58.5 608S81 596.75 81 582.872v-10.968M666.5 884c-21.263 0-38.5 19.252-38.5 43s17.237 43 38.5 43 38.5-19.252 38.5-43M636.233 1025c0-11.046 8.007-20 17.884-20S672 1013.954 672 1025s-8.006 20-17.883 20H619M397 1027.5v27.36c0 7.81-5.374 14.14-12 14.14s-12-6.33-12-14.14v-54.72c0-7.81 5.374-14.14 12-14.14s12 6.33 12 14.14v6.61"/>
            <path d="M422 1065v-70.724c0-21.14-15.222-38.276-34-38.276-18.777 0-34 17.137-34 38.276v16.71M179 1045h-74.005C76.832 1045 54 1019.032 54 987s22.832-58 50.995-58h22.265M-19 927v-38.197C-19 872.343-7.182 859 7.397 859H28M491 904v-25.548C491 859.977 478.016 845 462 845M537 721v40.293c0 23.2-16.22 42.634-38 47.707M129 867H85.96c-24.782 0-45.542-22.195-50.96-52"/>
            <path d="M40 922c0 12.15-8.731 22-19.5 22S1 934.15 1 922v-16c0-12.15 8.731-22 19.5-22S40 893.85 40 906v16zM445 900v93.757c0 18.36 12.984 33.243 29 33.243M169 985c-7.18 0-13-6.716-13-15 0-8.284 5.82-15 13-15s13 6.716 13 15c0 8.284-5.82 15-13 15z"/>
            <path d="M170 929c-20.986 0-38 18.804-38 42s17.014 42 38 42 38-18.804 38-42M233 1041c8.284 0 15-7.835 15-17.5s-6.716-17.5-15-17.5c-8.284 0-15 7.835-15 17.5v17.5M293.5 692.41c9.664 0 17.5-9.043 17.5-20.203S303.164 652 293.5 652s-17.5 9.048-17.5 20.207V734M363.187 555.5c0-10.217-7.207-18.5-16.095-18.5-8.888 0-16.092 8.283-16.092 18.5s7.204 18.5 16.092 18.5H401M430.9 548h-40.8c-8.34 0-15.1-7.834-15.1-17.5s6.76-17.5 15.1-17.5h40.8c8.34 0 15.1 7.834 15.1 17.5s-6.76 17.5-15.1 17.5zM507 950c0-23.748 16.565-43 37-43s37 19.252 37 43M475 929v50.939c0 9.975 7.163 18.061 16 18.061s16-8.086 16-18.061v-7.885M570 886c-6.075 0-11-5.372-11-12s4.925-12 11-12 11 5.372 11 12-4.925 12-11 12z"/>
            <path d="M560 957.15v51.7c0 10.024-7.163 18.15-16 18.15s-16-8.126-16-18.15v-51.7c0-10.024 7.163-18.15 16-18.15s16 8.126 16 18.15zM193 929h36.348C252.351 929 271 907.957 271 882M667 909.406c-8.284 0-15 7.744-15 17.297S658.716 944 667 944c8.284 0 15-7.744 15-17.297V814M158 838c8.836 0 16-8.283 16-18.5s-7.164-18.5-16-18.5-16 8.283-16 18.5V838M58 751.248C58 725.154 39.195 704 16 704s-42 21.154-42 47.248V802"/>
            <path d="M80.297 729h2.097C94.325 729 104 740.193 104 754s-9.675 25-21.606 25H16.606C4.674 779-5 767.807-5 754s9.674-25 21.606-25h.646M120 838H93.375C75.494 838 61 821.434 61 801M395.5 690c-8.56 0-15.5-7.835-15.5-17.5s6.94-17.5 15.5-17.5c8.56 0 15.5 7.835 15.5 17.5s-6.94 17.5-15.5 17.5z"/>
            <path d="M433.6 682.413c5.737-24.434-6.673-49.456-27.715-55.893-21.042-6.436-42.749 8.155-48.485 32.588-5.736 24.432 6.673 49.456 27.715 55.892M405 715h75.605c14.57.009 26.388 13.67 26.395 30.514.007 16.845-11.799 30.494-26.369 30.486-14.57-.008-26.388-13.67-26.394-30.514h24.616M406 815v-83M545.392 556c6.41 0 11.608 5.82 11.608 13s-5.197 13-11.608 13H533M616.5 573c-9.113 0-16.5-8.506-16.5-19s7.387-19 16.5-19 16.5 8.506 16.5 19-7.387 19-16.5 19z"/>
            <path d="M582 555c0 23.747 16.565 43 37 43s37-19.253 37-43-16.565-43-37-43M517.5 582h-15.568C491.476 582 483 591.177 483 602.5s8.476 20.5 18.932 20.5h31.136c10.456 0 18.932-9.177 18.932-20.5M581 611c0 21.538-15.4 39-34.396 39H486M601 650v-39M429 768v-35M381.312 864c0-10.493 7.54-19 16.844-19 9.304 0 16.844 8.507 16.844 19s-7.54 19-16.844 19H344M322 822.5v27.36c0 7.81-5.374 14.14-12 14.14s-12-6.33-12-14.14v-54.72c0-7.81 5.374-14.14 12-14.14s12 6.33 12 14.14v6.61"/>
            <path d="M344 863v-70.724c0-21.14-15.222-38.276-34-38.276-18.777 0-34 17.137-34 38.276v16.71M338 926h17.755C368.593 926 379 914.36 379 900M322 946v-63M220 843.225v-6.254c0-8.82 6.294-15.971 14.052-15.971 7.762 0 14.055 7.15 14.055 15.97v5.18c0 8.754 6.245 15.85 13.945 15.85 7.703 0 13.948-7.096 13.948-15.85v-6.374M661 714.756c8.284 0 15-7.782 15-17.378S669.284 680 661 680c-8.284 0-15 7.782-15 17.378V725M643 751v27.472c0 15.819-11.097 29.07-26 32.528M661 792v67M622 760.672c0 12.331-8.955 22.328-20 22.328s-20-9.997-20-22.328v-52.343c0-12.332 8.955-22.329 20-22.329s20 9.997 20 22.329v52.343zM249 658.69c0 10.11-7.163 18.31-16 18.31s-16-8.2-16-18.31V638M182.5 707c-9.113 0-16.5-8.506-16.5-19s7.387-19 16.5-19 16.5 8.506 16.5 19-7.387 19-16.5 19zM216.178 602.5c0-9.665 6.9-17.5 15.411-17.5 8.51 0 15.411 7.835 15.411 17.5s-6.9 17.5-15.41 17.5H174"/>
            <path d="M235 732h-55.65c-21.18 0-38.35-19.7-38.35-44s17.17-44 38.35-44h16.74M154 621h-18.036C117.757 621 103 604.38 103 583.877V546"/>
            <path d="M137 596c-6.075 0-11-5.372-11-12s4.925-12 11-12 11 5.372 11 12-4.925 12-11 12zM196.014 542l-.028-14M196.014 570l-.028-14M274.013 593l-.026-14M274.013 620l-.026-14M298.013 620l-.026-14M469.013 657l-.026-14M651.013 648l-.026-14M595.013 837l-.026-14M615.013 870l-.026-14M445.013 852l-.026-14M323.013 999l-.026-14M323.013 1026l-.026-14M188.013 777l-.026-14M159.013 777l-.026-14M129.013 777l-.026-14"/>
        </g>
        <g>
            <path d="M744.5 478c-8.56 0-15.5-7.835-15.5-17.5s6.94-17.5 15.5-17.5c8.56 0 15.5 7.835 15.5 17.5s-6.94 17.5-15.5 17.5zM751 27v31.594c0 10.11 3.136 19.467 8.459 27.088M841 58.594C841 84.224 820.854 105 796 105c-8.629 0-16.693-2.504-23.54-6.849M733 382h-14.89c-10.002 0-18.11 8.73-18.11 19.5s8.108 19.5 18.11 19.5h29.78c10.002 0 18.11-8.73 18.11-19.5M957 512h27.948c8.944 0 17.221-3.553 23.963-9.585M984.948 410c22.673 0 41.052 22.834 41.052 51 0 9.78-2.215 18.918-6.058 26.68M851.963 405c-8.815 0-15.963 8.283-15.963 18.5s7.148 18.5 15.963 18.5H870M1366 507h91.542c17.926 0 32.458-16.566 32.458-37M786-50v70.872C786 34.75 796.073 46 808.5 46S831 34.75 831 20.872V9.904M1416.5 322c-21.263 0-38.5 19.252-38.5 43s17.237 43 38.5 43 38.5-19.252 38.5-43M1386.233 463c0-11.046 8.007-20 17.884-20S1422 451.954 1422 463s-8.006 20-17.883 20H1369M1147 465.5v27.36c0 7.81-5.374 14.14-12 14.14s-12-6.33-12-14.14v-54.72c0-7.81 5.374-14.14 12-14.14s12 6.33 12 14.14v6.61"/>
            <path d="M1172 503v-70.724c0-21.14-15.222-38.276-34-38.276-18.777 0-34 17.137-34 38.276v16.71M929 483h-74.005C826.832 483 804 457.032 804 425s22.832-58 50.995-58h22.265M731 365v-38.197c0-16.46 11.818-29.803 26.397-29.803H778M1241 342v-25.548c0-18.475-12.984-33.452-29-33.452M1287 159v40.293c0 23.2-16.22 42.634-38 47.707M879 305h-43.04c-24.782 0-45.542-22.195-50.96-52"/>
            <path d="M790 360c0 12.15-8.731 22-19.5 22s-19.5-9.85-19.5-22v-16c0-12.15 8.731-22 19.5-22s19.5 9.85 19.5 22v16zM1195 338v93.757c0 18.36 12.984 33.243 29 33.243M919 423c-7.18 0-13-6.716-13-15 0-8.284 5.82-15 13-15s13 6.716 13 15c0 8.284-5.82 15-13 15z"/>
            <path d="M920 367c-20.986 0-38 18.804-38 42s17.014 42 38 42 38-18.804 38-42M983 479c8.284 0 15-7.835 15-17.5s-6.716-17.5-15-17.5c-8.284 0-15 7.835-15 17.5V479M1043.5 130.41c9.664 0 17.5-9.043 17.5-20.203S1053.164 90 1043.5 90s-17.5 9.048-17.5 20.207V172M1113.187-6.5c0-10.217-7.207-18.5-16.095-18.5-8.888 0-16.092 8.283-16.092 18.5s7.204 18.5 16.092 18.5H1151M1257 388c0-23.748 16.565-43 37-43s37 19.252 37 43M1225 367v50.939c0 9.975 7.163 18.061 16 18.061s16-8.086 16-18.061v-7.885M1320 324c-6.075 0-11-5.372-11-12s4.925-12 11-12 11 5.372 11 12-4.925 12-11 12z"/>
            <path d="M1310 395.15v51.7c0 10.024-7.163 18.15-16 18.15s-16-8.126-16-18.15v-51.7c0-10.024 7.163-18.15 16-18.15s16 8.126 16 18.15zM943 367h36.348c23.003 0 41.652-21.043 41.652-47M1417 347.406c-8.284 0-15 7.744-15 17.297S1408.716 382 1417 382c8.284 0 15-7.744 15-17.297V252M908 276c8.836 0 16-8.283 16-18.5s-7.164-18.5-16-18.5-16 8.283-16 18.5V276M808 189.248C808 163.154 789.195 142 766 142s-42 21.154-42 47.248V240"/>
            <path d="M830.297 167h2.097C844.325 167 854 178.193 854 192s-9.675 25-21.606 25h-65.788C754.674 217 745 205.807 745 192s9.674-25 21.606-25h.646M870 276h-26.625C825.494 276 811 259.434 811 239M1145.5 128c-8.56 0-15.5-7.835-15.5-17.5s6.94-17.5 15.5-17.5c8.56 0 15.5 7.835 15.5 17.5s-6.94 17.5-15.5 17.5z"/>
            <path d="M1183.6 120.413c5.737-24.434-6.673-49.456-27.715-55.893-21.042-6.436-42.749 8.155-48.485 32.588-5.736 24.432 6.673 49.456 27.715 55.892M1155 153h75.605c14.57.009 26.388 13.67 26.395 30.514.007 16.845-11.799 30.494-26.369 30.486-14.57-.008-26.388-13.67-26.394-30.514h24.616M1156 253v-83M1295.392-6C1301.802-6 1307-.18 1307 7s-5.197 13-11.608 13H1283M1366.5 11c-9.113 0-16.5-8.506-16.5-19s7.387-19 16.5-19 16.5 8.506 16.5 19-7.387 19-16.5 19z"/>
            <path d="M1332-7c0 23.747 16.565 43 37 43s37-19.253 37-43-16.565-43-37-43M1267.5 20h-15.568C1241.476 20 1233 29.177 1233 40.5s8.476 20.5 18.932 20.5h31.136c10.456 0 18.932-9.177 18.932-20.5M1331 49c0 21.538-15.4 39-34.396 39H1236M1351 88V49M1179 206v-35M1131.312 302c0-10.493 7.54-19 16.844-19 9.304 0 16.844 8.507 16.844 19s-7.54 19-16.844 19H1094M1072 260.5v27.36c0 7.81-5.374 14.14-12 14.14s-12-6.33-12-14.14v-54.72c0-7.81 5.374-14.14 12-14.14s12 6.33 12 14.14v6.61"/>
            <path d="M1094 301v-70.724c0-21.14-15.222-38.276-34-38.276-18.777 0-34 17.137-34 38.276v16.71M1088 364h17.755c12.838 0 23.245-11.64 23.245-26M1072 384v-63M970 281.225v-6.254c0-8.82 6.294-15.971 14.052-15.971 7.762 0 14.055 7.15 14.055 15.97v5.18c0 8.754 6.245 15.85 13.945 15.85 7.703 0 13.948-7.096 13.948-15.85v-6.374M1411 152.756c8.284 0 15-7.782 15-17.378S1419.284 118 1411 118c-8.284 0-15 7.782-15 17.378V163M1393 189v27.472c0 15.819-11.097 29.07-26 32.528M1411 230v67M1372 198.672c0 12.331-8.955 22.328-20 22.328s-20-9.997-20-22.328v-52.343c0-12.332 8.955-22.329 20-22.329s20 9.997 20 22.329v52.343zM999 96.69c0 10.11-7.163 18.31-16 18.31s-16-8.2-16-18.31V76M932.5 145c-9.113 0-16.5-8.506-16.5-19s7.387-19 16.5-19 16.5 8.506 16.5 19-7.387 19-16.5 19zM966.178 40.5c0-9.665 6.9-17.5 15.411-17.5C990.1 23 997 30.835 997 40.5S990.1 58 981.59 58H924"/>
            <path d="M985 170h-55.65c-21.18 0-38.35-19.7-38.35-44s17.17-44 38.35-44h16.74M904 59h-18.036C867.757 59 853 42.38 853 21.877V-16"/>
            <path d="M887 34c-6.075 0-11-5.372-11-12s4.925-12 11-12 11 5.372 11 12-4.925 12-11 12zM946.014 8l-.028-14M1024.013 31l-.026-14M1024.013 58l-.026-14M1048.013 58l-.026-14M1219.013 95l-.026-14M1401.013 86l-.026-14M1345.013 275l-.026-14M1365.013 308l-.026-14M1195.013 290l-.026-14M1073.013 437l-.026-14M1073.013 464l-.026-14M938.013 215l-.026-14M909.013 215l-.026-14M879.013 215l-.026-14"/>
        </g>
        <g>
            <path d="M1445.5 546c8.56 0 15.5 7.835 15.5 17.5s-6.94 17.5-15.5 17.5c-8.56 0-15.5-7.835-15.5-17.5s6.94-17.5 15.5-17.5zM1439 997v-31.594c0-10.11-3.136-19.467-8.459-27.088M1349 965.406c0-25.63 20.146-46.406 45-46.406 8.629 0 16.693 2.504 23.54 6.849M1457 642h14.89c10.002 0 18.11-8.73 18.11-19.5s-8.108-19.5-18.11-19.5h-29.78c-10.002 0-18.11 8.73-18.11 19.5M1233 512h-27.948c-8.944 0-17.221 3.553-23.963 9.585M1205.052 614c-22.673 0-41.052-22.834-41.052-51 0-9.78 2.215-18.918 6.058-26.68M1338.037 619c8.815 0 15.963-8.283 15.963-18.5s-7.148-18.5-15.963-18.5H1320M824 517h-91.542C714.532 517 700 533.566 700 554M1404 1074v-70.872c0-13.878-10.073-25.128-22.5-25.128s-22.5 11.25-22.5 25.128v10.968M773.5 702c21.263 0 38.5-19.252 38.5-43s-17.237-43-38.5-43-38.5 19.252-38.5 43M803.767 561c0 11.046-8.007 20-17.884 20S768 572.046 768 561s8.006-20 17.883-20H821M1043 558.5v-27.36c0-7.81 5.374-14.14 12-14.14s12 6.33 12 14.14v54.72c0 7.81-5.374 14.14-12 14.14s-12-6.33-12-14.14v-6.61"/>
            <path d="M1018 521v70.724c0 21.14 15.222 38.276 34 38.276 18.777 0 34-17.137 34-38.276v-16.71M1261 541h74.005c28.163 0 50.995 25.968 50.995 58s-22.832 58-50.995 58h-22.265M1459 659v38.197c0 16.46-11.818 29.803-26.397 29.803H1412M949 682v25.548C949 726.023 961.984 741 978 741M903 865v-40.293c0-23.2 16.22-42.634 38-47.707M1311 719h43.04c24.782 0 45.542 22.195 50.96 52"/>
            <path d="M1400 664c0-12.15 8.731-22 19.5-22s19.5 9.85 19.5 22v16c0 12.15-8.731 22-19.5 22s-19.5-9.85-19.5-22v-16zM995 686v-93.757c0-18.36-12.984-33.243-29-33.243M1271 601c7.18 0 13 6.716 13 15 0 8.284-5.82 15-13 15s-13-6.716-13-15c0-8.284 5.82-15 13-15z"/>
            <path d="M1270 657c20.986 0 38-18.804 38-42s-17.014-42-38-42-38 18.804-38 42M1207 545c-8.284 0-15 7.835-15 17.5s6.716 17.5 15 17.5c8.284 0 15-7.835 15-17.5V545M1146.5 893.59c-9.664 0-17.5 9.043-17.5 20.203S1136.836 934 1146.5 934s17.5-9.048 17.5-20.207V852M1076.813 1030.5c0 10.217 7.207 18.5 16.095 18.5 8.888 0 16.092-8.283 16.092-18.5s-7.204-18.5-16.092-18.5H1039M933 636c0 23.748-16.565 43-37 43s-37-19.252-37-43M965 657v-50.939c0-9.975-7.163-18.061-16-18.061s-16 8.086-16 18.061v7.885M870 700c6.075 0 11 5.372 11 12s-4.925 12-11 12-11-5.372-11-12 4.925-12 11-12z"/>
            <path d="M880 628.85v-51.7c0-10.024 7.163-18.15 16-18.15s16 8.126 16 18.15v51.7c0 10.024-7.163 18.15-16 18.15s-16-8.126-16-18.15zM1247 657h-36.348c-23.003 0-41.652 21.043-41.652 47M773 676.594c8.284 0 15-7.744 15-17.297S781.284 642 773 642c-8.284 0-15 7.744-15 17.297V772M1282 748c-8.836 0-16 8.283-16 18.5s7.164 18.5 16 18.5 16-8.283 16-18.5V748M1382 834.752c0 26.094 18.805 47.248 42 47.248s42-21.154 42-47.248V784"/>
            <path d="M1359.703 857h-2.097c-11.931 0-21.606-11.193-21.606-25s9.675-25 21.606-25h65.788c11.932 0 21.606 11.193 21.606 25s-9.674 25-21.606 25h-.646M1320 748h26.625c17.881 0 32.375 16.566 32.375 37M1044.5 896c8.56 0 15.5 7.835 15.5 17.5s-6.94 17.5-15.5 17.5c-8.56 0-15.5-7.835-15.5-17.5s6.94-17.5 15.5-17.5z"/>
            <path d="M1006.4 903.587c-5.737 24.434 6.673 49.456 27.715 55.893 21.042 6.436 42.749-8.155 48.485-32.588 5.736-24.432-6.673-49.456-27.715-55.892M1035 871h-75.605c-14.57-.009-26.388-13.67-26.395-30.514-.007-16.845 11.799-30.494 26.369-30.486 14.57.008 26.388 13.67 26.394 30.514h-24.616M1034 771v83M894.608 1030c-6.41 0-11.608-5.82-11.608-13s5.197-13 11.608-13H907M823.5 1013c9.113 0 16.5 8.506 16.5 19s-7.387 19-16.5 19-16.5-8.506-16.5-19 7.387-19 16.5-19z"/>
            <path d="M858 1031c0-23.747-16.565-43-37-43s-37 19.253-37 43 16.565 43 37 43M922.5 1004h15.568c10.456 0 18.932-9.177 18.932-20.5s-8.476-20.5-18.932-20.5h-31.136C896.476 963 888 972.177 888 983.5M859 975c0-21.538 15.4-39 34.396-39H954M839 936v39M1011 818v35M1058.688 722c0 10.493-7.54 19-16.844 19-9.304 0-16.844-8.507-16.844-19s7.54-19 16.844-19H1096M1118 763.5v-27.36c0-7.81 5.374-14.14 12-14.14s12 6.33 12 14.14v54.72c0 7.81-5.374 14.14-12 14.14s-12-6.33-12-14.14v-6.61"/>
            <path d="M1096 723v70.724c0 21.14 15.222 38.276 34 38.276 18.777 0 34-17.137 34-38.276v-16.71M1102 660h-17.755c-12.838 0-23.245 11.64-23.245 26M1118 640v63M1220 742.775v6.254c0 8.82-6.294 15.971-14.052 15.971-7.762 0-14.055-7.15-14.055-15.97v-5.18c0-8.754-6.245-15.85-13.945-15.85-7.703 0-13.948 7.096-13.948 15.85v6.374M779 871.244c-8.284 0-15 7.782-15 17.378S770.716 906 779 906c8.284 0 15-7.782 15-17.378V861M797 835v-27.472c0-15.819 11.097-29.07 26-32.528M779 794v-67M818 825.328c0-12.331 8.955-22.328 20-22.328s20 9.997 20 22.328v52.343c0 12.332-8.955 22.329-20 22.329s-20-9.997-20-22.329v-52.343zM1191 927.31c0-10.11 7.163-18.31 16-18.31s16 8.2 16 18.31V948M1257.5 879c9.113 0 16.5 8.506 16.5 19s-7.387 19-16.5 19-16.5-8.506-16.5-19 7.387-19 16.5-19zM1223.822 983.5c0 9.665-6.9 17.5-15.411 17.5-8.51 0-15.411-7.835-15.411-17.5s6.9-17.5 15.41-17.5H1266"/>
            <path d="M1205 854h55.65c21.18 0 38.35 19.7 38.35 44s-17.17 44-38.35 44h-16.74M1286 965h18.036c18.207 0 32.964 16.62 32.964 37.123V1040"/>
            <path d="M1303 990c6.075 0 11 5.372 11 12s-4.925 12-11 12-11-5.372-11-12 4.925-12 11-12zM1243.986 1016l.028 14M1165.987 993l.026 14M1165.987 966l.026 14M1141.987 966l.026 14M970.987 929l.026 14M788.987 938l.026 14M844.987 749l.026 14M824.987 716l.026 14M994.987 734l.026 14M1116.987 587l.026 14M1116.987 560l.026 14M1251.987 809l.026 14M1280.987 809l.026 14M1310.987 809l.026 14"/>
        </g>
    </g>
</svg>
