<svg xmlns="http://www.w3.org/2000/svg" xmlns:xlink="http://www.w3.org/1999/xlink" width="1267" height="177" viewBox="0 0 1267 177">
    <defs>
        <path id="prefix__a" d="M0.004 0.793L39.69 0.793 39.69 23.621 0.004 23.621z"/>
        <path id="prefix__c" d="M0.798 0.987L28.578 0.987 28.578 13.981 0.798 13.981z"/>
        <path id="prefix__e" d="M0.909 0.987L31.335 0.987 31.335 1.495 0.909 1.495z"/>
        <path id="prefix__g" d="M0.096 0.987L15.972 0.987 15.972 2.882 0.096 2.882z"/>
        <path id="prefix__i" d="M0.202 0.237L15.455 0.237 15.455 40.472 0.202 40.472z"/>
        <path id="prefix__k" d="M1.133 0.987L30.237 0.987 30.237 8.432 1.133 8.432z"/>
        <path id="prefix__m" d="M0.04 0.987L54.278 0.987 54.278 20.918 0.04 20.918z"/>
        <path id="prefix__o" d="M0.122 0.987L13.35 0.987 13.35 34.792 0.122 34.792z"/>
        <path id="prefix__q" d="M0.04 0.987L10.623 0.987 10.623 9.819 0.04 9.819z"/>
        <path id="prefix__s" d="M0.134 0.987L33.206 0.987 33.206 20.918 0.134 20.918z"/>
        <path id="prefix__u" d="M1.047 0.987L15.599 0.987 15.599 20.918 1.047 20.918z"/>
        <path id="prefix__w" d="M0.158 0.987L14.709 0.987 14.709 16.757 0.158 16.757z"/>
        <path id="prefix__y" d="M0.202 0.149L4.872 0.149 4.872 59.809 0.202 59.809z"/>
        <path id="prefix__A" d="M0.526 0.228L30.953 0.228 30.953 2.245 0.526 2.245z"/>
        <path id="prefix__C" d="M0.621 0.186L41.63 0.186 41.63 16.076 0.621 16.076z"/>
        <path id="prefix__E" d="M0.361 0.185L1.561 0.185 1.561 16.076 0.361 16.076z"/>
        <path id="prefix__G" d="M0.202 0.707L7.518 0.707 7.518 21.519 0.202 21.519z"/>
        <path id="prefix__I" d="M0.936 0.229L32.686 0.229 32.686 2.245 0.936 2.245z"/>
        <path id="prefix__K" d="M1.146 0.228L22.313 0.228 22.313 2.245 1.146 2.245z"/>
        <path id="prefix__M" d="M0.431 0.228L1.631 0.228 1.631 2.245 0.431 2.245z"/>
        <path id="prefix__O" d="M0.648 0.228L1.848 0.228 1.848 2.245 0.648 2.245z"/>
        <path id="prefix__Q" d="M0.296 0.793L39.815 0.793 39.815 23.621 0.296 23.621z"/>
        <path id="prefix__S" d="M1.088 0.987L28.751 0.987 28.751 13.981 1.088 13.981z"/>
        <path id="prefix__U" d="M0.003 0.987L30.299 0.987 30.299 1.495 0.003 1.495z"/>
        <path id="prefix__W" d="M0.389 0.987L16.197 0.987 16.197 2.882 0.389 2.882z"/>
        <path id="prefix__Y" d="M0.226 0.987L29.207 0.987 29.207 8.432 0.226 8.432z"/>
        <path id="prefix__aa" d="M0.332 0.987L54.341 0.987 54.341 20.918 0.332 20.918z"/>
        <path id="prefix__ac" d="M0.413 0.987L13.586 0.987 13.586 34.792 0.413 34.792z"/>
        <path id="prefix__ae" d="M0.333 0.987L10.871 0.987 10.871 9.819 0.333 9.819z"/>
        <path id="prefix__ag" d="M0.426 0.987L33.359 0.987 33.359 20.918 0.426 20.918z"/>
        <path id="prefix__ai" d="M0.14 0.987L14.631 0.987 14.631 20.918 0.14 20.918z"/>
        <path id="prefix__ak" d="M0.45 0.987L14.94 0.987 14.94 16.757 0.45 16.757z"/>
        <path id="prefix__am" d="M0.816 0.228L31.115 0.228 31.115 2.245 0.816 2.245z"/>
        <path id="prefix__ao" d="M0.911 0.186L41.747 0.186 41.747 16.076 0.911 16.076z"/>
        <path id="prefix__aq" d="M0.652 0.185L1.847 0.185 1.847 16.076 0.652 16.076z"/>
        <path id="prefix__as" d="M0.03 0.229L31.646 0.229 31.646 2.245 0.03 2.245z"/>
        <path id="prefix__au" d="M0.239 0.228L21.315 0.228 21.315 2.245 0.239 2.245z"/>
        <path id="prefix__aw" d="M0.722 0.228L1.917 0.228 1.917 2.245 0.722 2.245z"/>
        <path id="prefix__ay" d="M0.938 0.228L2.133 0.228 2.133 2.245 0.938 2.245z"/>
        <path id="prefix__aA" d="M0.57 0.987L40.089 0.987 40.089 25.077 0.57 25.077z"/>
        <path id="prefix__aC" d="M0.881 0.575L29.861 0.575 29.861 12.302 0.881 12.302z"/>
        <path id="prefix__aE" d="M0.412 0.358L14.903 0.358 14.903 0.987 0.412 0.987z"/>
        <path id="prefix__aG" d="M0.805 0.491L33.736 0.491 33.736 39.961 0.805 39.961z"/>
        <path id="prefix__aI" d="M0.547 0.083L29.528 0.083 29.528 6.261 0.547 6.261z"/>
        <path id="prefix__aK" d="M0.261 0.171L54.27 0.171 54.27 18.833 0.261 18.833z"/>
        <path id="prefix__aM" d="M0.511 0.128L13.683 0.128 13.683 32.663 0.511 32.663z"/>
        <path id="prefix__aO" d="M0.837 0.965L11.375 0.965 11.375 8.53 0.837 8.53z"/>
        <path id="prefix__aQ" d="M1.053 0.171L33.984 0.171 33.984 18.833 1.053 18.833z"/>
        <path id="prefix__aS" d="M0.539 0.171L15.03 0.171 15.03 18.833 0.539 18.833z"/>
        <path id="prefix__aU" d="M0.352 0.315L14.842 0.315 14.842 14.817 0.352 14.817z"/>
        <path id="prefix__aW" d="M0.906 0.987L31.204 0.987 31.204 4.269 0.906 4.269z"/>
        <path id="prefix__aY" d="M1.029 0.987L41.864 0.987 41.864 18.141 1.029 18.141z"/>
        <path id="prefix__ba" d="M0.301 0.987L1.496 0.987 1.496 18.141 0.301 18.141z"/>
        <path id="prefix__bc" d="M0.376 0.987L31.99 0.987 31.99 4.268 0.376 4.268z"/>
        <path id="prefix__be" d="M1.023 0.987L23.418 0.987 23.418 4.268 1.023 4.268z"/>
        <path id="prefix__bg" d="M0.231 0.987L1.426 0.987 1.426 4.268 0.231 4.268z"/>
        <path id="prefix__bi" d="M0.015 0.987L1.21 0.987 1.21 4.268 0.015 4.268z"/>
        <path id="prefix__bk" d="M0.864 0.987L40.4 0.987 40.4 25.077 0.864 25.077z"/>
        <path id="prefix__bm" d="M1.174 0.575L30.167 0.575 30.167 12.302 1.174 12.302z"/>
        <path id="prefix__bo" d="M0.705 0.358L15.202 0.358 15.202 0.987 0.705 0.987z"/>
        <path id="prefix__bq" d="M1.099 0.491L20.524 0.491 20.524 39.961 1.099 39.961z"/>
        <path id="prefix__bs" d="M0.84 0.083L29.833 0.083 29.833 6.261 0.84 6.261z"/>
        <path id="prefix__bu" d="M0.553 0.171L54.586 0.171 54.586 18.833 0.553 18.833z"/>
        <path id="prefix__bw" d="M0.803 0.128L13.982 0.128 13.982 32.663 0.803 32.663z"/>
        <path id="prefix__by" d="M1.129 0.965L11.672 0.965 11.672 8.53 1.129 8.53z"/>
        <path id="prefix__bA" d="M0.151 0.171L33.097 0.171 33.097 18.833 0.151 18.833z"/>
        <path id="prefix__bC" d="M0.832 0.171L15.33 0.171 15.33 18.833 0.832 18.833z"/>
        <path id="prefix__bE" d="M0.645 0.315L15.142 0.315 15.142 14.817 0.645 14.817z"/>
        <path id="prefix__bG" d="M0.881 0.015L9.765 0.015 9.765 59.665 0.881 59.665z"/>
        <path id="prefix__bI" d="M0.003 0.987L30.315 0.987 30.315 4.269 0.003 4.269z"/>
        <path id="prefix__bK" d="M0.126 0.987L40.98 0.987 40.98 18.141 0.126 18.141z"/>
        <path id="prefix__bM" d="M0.594 0.987L1.789 0.987 1.789 18.141 0.594 18.141z"/>
        <path id="prefix__bO" d="M0.637 0.582L12.156 0.582 12.156 21.391 0.637 21.391z"/>
        <path id="prefix__bQ" d="M0.669 0.987L32.297 0.987 32.297 4.268 0.669 4.268z"/>
        <path id="prefix__bS" d="M0.121 0.987L22.526 0.987 22.526 4.268 0.121 4.268z"/>
        <path id="prefix__bU" d="M0.524 0.987L1.719 0.987 1.719 4.268 0.524 4.268z"/>
        <path id="prefix__bW" d="M0.307 0.987L1.502 0.987 1.502 4.268 0.307 4.268z"/>
        <path id="prefix__bY" d="M0 0L266 0 266 168 0 168z"/>
        <path id="prefix__ca" d="M0.442 0.346L202.88 0.346 202.88 118 0.442 118z"/>
        <path id="prefix__cc" d="M0.5 0.25L0.75 0.25 0.75 0.5 0.5 0.5z"/>
        <path id="prefix__ce" d="M0.5 0.25L0.75 0.25 0.75 0.5 0.5 0.5z"/>
        <path id="prefix__cg" d="M0.462 0.199L151.8 0.199 151.8 98.576 0.462 98.576z"/>
        <path id="prefix__ci" d="M0.145 0.137L128.53 0.137 128.53 65.479 0.145 65.479z"/>
    </defs>
    <g fill="none" fill-rule="evenodd">
        <path fill="#FFF" d="M0 0H1260V170H0z" transform="translate(1)"/>
        <g opacity=".066">
            <g transform="translate(1) translate(0 2) translate(249.6 140.832)">
                <mask id="prefix__b" fill="#fff">
                    <use xlink:href="#prefix__a"/>
                </mask>
                <path stroke="#CCA500" stroke-width="3.018" d="M39.69 36.866v-14.61c0-4.677-1.382-9.004-3.73-12.529M.004 22.255C.004 10.401 8.887.793 19.847.793c3.805 0 7.36 1.158 10.38 3.168" mask="url(#prefix__b)"/>
            </g>
            <g transform="translate(1) translate(0 2) translate(283.2)">
                <mask id="prefix__d" fill="#fff">
                    <use xlink:href="#prefix__c"/>
                </mask>
                <path stroke="#CCA500" stroke-width="3.018" d="M14.688 13.981h6.268c4.21 0 7.622-4.038 7.622-9.018 0-4.981-3.413-9.019-7.622-9.019H8.42C4.212-4.056.798-.018.798 4.963" mask="url(#prefix__d)"/>
            </g>
            <g transform="translate(1) translate(0 2) translate(168)">
                <mask id="prefix__f" fill="#fff">
                    <use xlink:href="#prefix__e"/>
                </mask>
                <path stroke="#CCA500" stroke-width="3.018" d="M31.335-45.679H19.01c-3.945 0-7.594 1.644-10.568 4.434m10.568 42.74C9.012 1.495.909-9.066.909-22.092c0-4.523.975-8.75 2.67-12.339" mask="url(#prefix__f)"/>
            </g>
            <g transform="translate(1) translate(0 2) translate(237.6)">
                <mask id="prefix__h" fill="#fff">
                    <use xlink:href="#prefix__g"/>
                </mask>
                <path stroke="#CCA500" stroke-width="3.018" d="M8.52 2.882c4.115 0 7.452-3.727 7.452-8.325 0-4.597-3.337-8.325-7.453-8.325H.096" mask="url(#prefix__h)"/>
            </g>
            <g transform="translate(1) translate(0 2) translate(0 1.257)">
                <mask id="prefix__j" fill="#fff">
                    <use xlink:href="#prefix__i"/>
                </mask>
                <path stroke="#CCA500" stroke-width="3.018" d="M-1.742 40.472c9.498 0 17.197-9.007 17.197-20.117 0-11.11-7.7-20.118-17.197-20.118-9.498 0-17.197 9.007-17.197 20.118" mask="url(#prefix__j)"/>
            </g>
            <g transform="translate(1) translate(0 2) translate(105.6)">
                <mask id="prefix__l" fill="#fff">
                    <use xlink:href="#prefix__k"/>
                </mask>
                <path stroke="#CCA500" stroke-width="3.018" d="M1.133-41.516v32.408c0 9.687 6.515 17.54 14.551 17.54 8.038 0 14.553-7.853 14.553-17.54v-7.657" mask="url(#prefix__l)"/>
            </g>
            <g transform="translate(1) translate(0 2) translate(211.2)">
                <mask id="prefix__n" fill="#fff">
                    <use xlink:href="#prefix__m"/>
                </mask>
                <path stroke="#CCA500" stroke-width="3.018" d="M.04-33.192h32.11c12.222 0 22.128 12.113 22.128 27.055S44.372 20.918 32.15 20.918H22.49" mask="url(#prefix__n)"/>
            </g>
            <path stroke="#CCA500" stroke-width="3.018" d="M298.55 22.306v17.146c0 7.388-5.323 13.377-11.888 13.377h-9.279M74.984 32.018v12.016c0 8.689 5.923 15.733 13.229 15.733M56.464 116.651V98.23c0-10.608 6.775-19.494 15.875-21.813M233.729 48.667h18.776c10.812 0 19.869 10.067 22.233 23.586" transform="translate(1) translate(0 2)"/>
            <path stroke="#CCA500" stroke-width="3.018" d="M272.093 24.156c0-5.62 3.85-10.175 8.598-10.175 4.748 0 8.599 4.555 8.599 10.175v7.4c0 5.62-3.85 10.174-8.6 10.174-4.748 0-8.597-4.555-8.597-10.174v-7.4z" transform="translate(1) translate(0 2)"/>
            <g transform="translate(1) translate(0 2) translate(82.8)">
                <mask id="prefix__p" fill="#fff">
                    <use xlink:href="#prefix__o"/>
                </mask>
                <path stroke="#CCA500" stroke-width="3.018" d="M13.35 34.792V-8.227c0-8.423-5.922-15.252-13.228-15.252" mask="url(#prefix__p)"/>
            </g>
            <g transform="translate(1) translate(0 2) translate(211.2)">
                <mask id="prefix__r" fill="#fff">
                    <use xlink:href="#prefix__q"/>
                </mask>
                <path stroke="#CCA500" stroke-width="3.018" d="M5.332-4.055c2.922 0 5.29 3.106 5.29 6.937 0 3.83-2.368 6.937-5.29 6.937C2.409 9.82.04 6.712.04 2.882c0-3.831 2.369-6.937 5.292-6.937z" mask="url(#prefix__r)"/>
            </g>
            <g transform="translate(1) translate(0 2) translate(199.2)">
                <mask id="prefix__t" fill="#fff">
                    <use xlink:href="#prefix__s"/>
                </mask>
                <path stroke="#CCA500" stroke-width="3.018" d="M16.67 20.918c9.132 0 16.536-8.696 16.536-19.423 0-10.729-7.404-19.425-16.536-19.425C7.538-17.93.134-9.234.134 1.495" mask="url(#prefix__t)"/>
            </g>
            <path stroke="#CCA500" stroke-width="3.018" d="M160.97 130.1c-4.383 0-7.936 4.133-7.936 9.23 0 5.1 3.553 9.232 7.937 9.232 4.383 0 7.937-4.133 7.937-9.232v-28.229M69.693 11.206c0 10.728-7.403 19.424-16.536 19.424-9.133 0-16.536-8.696-16.536-19.424" transform="translate(1) translate(0 2)"/>
            <g transform="translate(1) translate(0 2) translate(66)">
                <mask id="prefix__v" fill="#fff">
                    <use xlink:href="#prefix__u"/>
                </mask>
                <path stroke="#CCA500" stroke-width="3.018" d="M15.599 20.918V-2.64c0-4.613-3.257-8.353-7.276-8.353S1.047-7.253 1.047-2.64v3.647" mask="url(#prefix__v)"/>
            </g>
            <path stroke="#CCA500" stroke-width="3.018" d="M41.25 40.342c2.558 0 4.63 2.485 4.63 5.55 0 3.066-2.072 5.55-4.63 5.55-2.556 0-4.629-2.484-4.629-5.55 0-3.065 2.073-5.55 4.63-5.55z" transform="translate(1) translate(0 2)"/>
            <g transform="translate(1) translate(0 2) translate(44.4)">
                <mask id="prefix__x" fill="#fff">
                    <use xlink:href="#prefix__w"/>
                </mask>
                <path stroke="#CCA500" stroke-width="3.018" d="M.158 8.458v-23.639c0-4.583 3.258-8.299 7.276-8.299s7.275 3.716 7.275 8.3V8.457c0 4.583-3.257 8.299-7.275 8.299-4.018 0-7.276-3.716-7.276-8.3z" mask="url(#prefix__x)"/>
            </g>
            <path stroke="#CCA500" stroke-width="3.018" d="M205.949 20.918H189.92c-10.143 0-18.366 9.939-18.366 22.199" transform="translate(1) translate(0 2)"/>
            <g transform="translate(1) translate(0 2) translate(0 13.832)">
                <mask id="prefix__z" fill="#fff">
                    <use xlink:href="#prefix__y"/>
                </mask>
                <path stroke="#CCA500" stroke-width="3.018" d="M-1.742 16.026c3.653 0 6.614-3.554 6.614-7.939C4.872 3.704 1.911.15-1.742.15s-6.615 3.555-6.615 7.938V59.81" mask="url(#prefix__z)"/>
            </g>
            <path stroke="#CCA500" stroke-width="3.018" d="M221.162 62.541c-4.019 0-7.276 3.727-7.276 8.326 0 4.597 3.257 8.324 7.276 8.324s7.275-3.727 7.275-8.324V62.54M265.477 103.57c0 11.823 8.294 21.406 18.521 21.406 10.228 0 18.52-9.583 18.52-21.406V80.578" transform="translate(1) translate(0 2)"/>
            <path stroke="#CCA500" stroke-width="3.018" d="M254.668 112.489h-.917c-5.211 0-9.439-4.97-9.439-11.1s4.228-11.099 9.44-11.099h28.743c5.213 0 9.44 4.97 9.44 11.1s-4.227 11.099-9.44 11.099h-.282M237.697 62.541h11.94c8.018 0 14.519 7.454 14.519 16.65M117.316 130.526c3.653 0 6.614 3.727 6.614 8.324 0 4.597-2.961 8.324-6.614 8.324s-6.614-3.727-6.614-8.324c0-4.597 2.961-8.324 6.614-8.324z" transform="translate(1) translate(0 2)"/>
            <path stroke="#CCA500" stroke-width="3.018" d="M100.728 133.11c-2.497 11.299 2.905 22.87 12.066 25.848 9.161 2.977 18.612-3.77 21.11-15.07 2.498-11.3-2.905-22.872-12.067-25.849M112.025 120.813H78.686c-6.425-.003-11.636-6.528-11.639-14.575-.003-8.045 5.202-14.564 11.627-14.56 6.426.003 11.637 6.528 11.639 14.574H79.459M112.025 73.641L112.025 111.102" transform="translate(1) translate(0 2)"/>
            <g transform="translate(1) translate(0 2) translate(48 162.208)">
                <mask id="prefix__B" fill="#fff">
                    <use xlink:href="#prefix__A"/>
                </mask>
                <path stroke="#CCA500" stroke-width="3.018" d="M15.74 18.265h6.865c4.61 0 8.348-4.037 8.348-9.019 0-4.98-3.738-9.018-8.348-9.018H8.875C4.265.228.526 4.266.526 9.246" mask="url(#prefix__B)"/>
            </g>
            <g transform="translate(1) translate(0 2) translate(36 148.377)">
                <mask id="prefix__D" fill="#fff">
                    <use xlink:href="#prefix__C"/>
                </mask>
                <path stroke="#CCA500" stroke-width="3.018" d="M.62 18.222C.62 8.262 7.27.186 15.469.186H41.63" mask="url(#prefix__D)"/>
            </g>
            <g transform="translate(1) translate(0 2) translate(26.4 148.377)">
                <mask id="prefix__F" fill="#fff">
                    <use xlink:href="#prefix__E"/>
                </mask>
                <path stroke="#CCA500" stroke-width="3.018" d="M0.961 0.185L0.961 18.222" mask="url(#prefix__F)"/>
            </g>
            <path stroke="#CCA500" stroke-width="3.018" d="M102.764 94.452L102.764 111.102M123.815 51.442c0 4.597-3.231 8.325-7.218 8.325s-7.218-3.728-7.218-8.325c0-4.598 3.23-8.325 7.218-8.325h23.208M149.065 70.172V57.823c0-3.524 2.37-6.381 5.292-6.381 2.922 0 5.29 2.857 5.29 6.381V82.52c0 3.526-2.368 6.383-5.29 6.383s-5.292-2.857-5.292-6.383v-2.982" transform="translate(1) translate(0 2)"/>
            <path stroke="#CCA500" stroke-width="3.018" d="M139.805 51.442v32.407c0 9.688 6.515 17.54 14.551 17.54 8.037 0 14.551-7.852 14.551-17.54v-7.656M141.128 22.306h-7.447c-5.386 0-9.75 4.97-9.75 11.1M149.065 13.981L149.065 43.117M192.72 60.865v2.814c0 3.97-2.676 7.188-5.975 7.188-3.3 0-5.976-3.218-5.976-7.188v-2.331c0-3.938-2.656-7.131-5.93-7.131-3.275 0-5.93 3.193-5.93 7.13v2.87" transform="translate(1) translate(0 2)"/>
            <g transform="translate(1) translate(0 2) translate(0 113.169)">
                <mask id="prefix__H" fill="#fff">
                    <use xlink:href="#prefix__G"/>
                </mask>
                <path stroke="#CCA500" stroke-width="3.018" d="M.903 5.445c-3.653 0-6.614 3.6-6.614 8.038 0 4.437 2.961 8.036 6.614 8.036s6.615-3.599 6.615-8.036V.707" mask="url(#prefix__H)"/>
            </g>
            <path stroke="#CCA500" stroke-width="3.018" d="M8.84 102.777V90.072c0-7.316 4.517-13.444 10.583-15.044M.903 83.353L.903 52.83M18.1 97.735c0-5.645 3.85-10.22 8.6-10.22 4.748 0 8.598 4.575 8.598 10.22v23.958c0 5.644-3.85 10.22-8.598 10.22-4.75 0-8.6-4.576-8.6-10.22V97.735zM180.814 144.543c0-4.675 3.257-8.468 7.276-8.468s7.275 3.793 7.275 8.468v9.569M210.579 123.588c4.018 0 7.275 3.727 7.275 8.325 0 4.598-3.257 8.325-7.275 8.325-4.02 0-7.276-3.727-7.276-8.325 0-4.598 3.257-8.325 7.276-8.325z" transform="translate(1) translate(0 2)"/>
            <g transform="translate(1) translate(0 2) translate(181.2 162.208)">
                <mask id="prefix__J" fill="#fff">
                    <use xlink:href="#prefix__I"/>
                </mask>
                <path stroke="#CCA500" stroke-width="3.018" d="M14.342 8.553c0 4.597-3.002 8.324-6.702 8.324-3.701 0-6.704-3.727-6.704-8.324C.936 3.956 3.94.229 7.64.229h25.046" mask="url(#prefix__J)"/>
            </g>
            <path stroke="#CCA500" stroke-width="3.018" d="M186.106 111.101h24.277c9.241 0 16.732 9.009 16.732 20.118 0 11.11-7.49 20.119-16.732 20.119h-7.302" transform="translate(1) translate(0 2)"/>
            <g transform="translate(1) translate(0 2) translate(222 162.208)">
                <mask id="prefix__L" fill="#fff">
                    <use xlink:href="#prefix__K"/>
                </mask>
                <path stroke="#CCA500" stroke-width="3.018" d="M1.146.228H8.63c7.556 0 13.682 7.686 13.682 17.168v17.517" mask="url(#prefix__L)"/>
            </g>
            <g transform="translate(1) translate(0 2) translate(169.2 162.208)">
                <mask id="prefix__N" fill="#fff">
                    <use xlink:href="#prefix__M"/>
                </mask>
                <path stroke="#CCA500" stroke-width="3.018" d="M1.025 0.228L1.037 7.166" mask="url(#prefix__N)"/>
            </g>
            <g transform="translate(1) translate(0 2) translate(158.4 162.208)">
                <mask id="prefix__P" fill="#fff">
                    <use xlink:href="#prefix__O"/>
                </mask>
                <path stroke="#CCA500" stroke-width="3.018" d="M1.242 0.228L1.254 7.166" mask="url(#prefix__P)"/>
            </g>
            <path stroke="#CCA500" stroke-width="3.018" d="M85.561 145.787L85.573 152.725M6.189 149.95L6.201 156.887M30.001 62.541L30.013 69.478M20.741 47.28L20.753 54.217M94.821 55.604L94.833 62.542M207.266 90.29c.003 2.312.007 4.625.012 6.937M220.494 90.29l.012 6.937M233.723 90.29l.012 6.937" transform="translate(1) translate(0 2)"/>
            <g>
                <g transform="translate(1) translate(0 2) translate(629) translate(267.668 140.832)">
                    <mask id="prefix__R" fill="#fff">
                        <use xlink:href="#prefix__Q"/>
                    </mask>
                    <path stroke="#CCA500" stroke-width="3.018" d="M39.815 36.866v-14.61c0-4.677-1.377-9.004-3.714-12.529M.296 22.255C.296 10.401 9.141.793 20.056.793c3.788 0 7.33 1.158 10.336 3.168" mask="url(#prefix__R)"/>
                </g>
                <g transform="translate(1) translate(0 2) translate(629) translate(301.126)">
                    <mask id="prefix__T" fill="#fff">
                        <use xlink:href="#prefix__S"/>
                    </mask>
                    <path stroke="#CCA500" stroke-width="3.018" d="M14.919 13.981h6.241c4.19 0 7.59-4.038 7.59-9.018 0-4.981-3.4-9.019-7.59-9.019H8.678c-4.192 0-7.59 4.038-7.59 9.019" mask="url(#prefix__T)"/>
                </g>
                <g transform="translate(1) translate(0 2) translate(629) translate(187.606)">
                    <mask id="prefix__V" fill="#fff">
                        <use xlink:href="#prefix__U"/>
                    </mask>
                    <path stroke="#CCA500" stroke-width="3.018" d="M30.3-45.679H18.026c-3.928 0-7.561 1.644-10.521 4.434m10.521 42.74C8.071 1.495.003-9.066.003-22.092c0-4.523.971-8.75 2.66-12.339" mask="url(#prefix__V)"/>
                </g>
                <g transform="translate(1) translate(0 2) translate(629) translate(255.718)">
                    <mask id="prefix__X" fill="#fff">
                        <use xlink:href="#prefix__W"/>
                    </mask>
                    <path stroke="#CCA500" stroke-width="3.018" d="M8.775 2.882c4.099 0 7.422-3.727 7.422-8.325 0-4.597-3.323-8.325-7.422-8.325H.39" mask="url(#prefix__X)"/>
                </g>
                <path stroke="#CCA500" stroke-width="3.018" d="M17.676 41.73c9.458 0 17.125-9.007 17.125-20.118 0-11.11-7.667-20.117-17.125-20.117S.552 10.502.552 21.612" transform="translate(1) translate(0 2) translate(629)"/>
                <g transform="translate(1) translate(0 2) translate(629) translate(125.47)">
                    <mask id="prefix__Z" fill="#fff">
                        <use xlink:href="#prefix__Y"/>
                    </mask>
                    <path stroke="#CCA500" stroke-width="3.018" d="M.226-41.516v32.408c0 9.687 6.487 17.54 14.49 17.54S29.207.579 29.207-9.108v-7.657" mask="url(#prefix__Z)"/>
                </g>
                <g transform="translate(1) translate(0 2) translate(629) translate(229.43)">
                    <mask id="prefix__ab" fill="#fff">
                        <use xlink:href="#prefix__aa"/>
                    </mask>
                    <path stroke="#CCA500" stroke-width="3.018" d="M.332-33.192h31.976c12.168 0 22.033 12.113 22.033 27.055s-9.865 27.055-22.033 27.055h-9.62" mask="url(#prefix__ab)"/>
                </g>
                <path stroke="#CCA500" stroke-width="3.018" d="M316.704 22.306v17.146c0 7.388-5.3 13.377-11.838 13.377h-9.239M94.08 32.018v12.016c0 8.689 5.898 15.733 13.173 15.733M75.637 116.651V98.23c0-10.608 6.747-19.494 15.808-21.813M252.157 48.667h18.696c10.766 0 19.786 10.067 22.14 23.586" transform="translate(1) translate(0 2) translate(629)"/>
                <path stroke="#CCA500" stroke-width="3.018" d="M290.358 24.156c0-5.62 3.834-10.175 8.562-10.175 4.729 0 8.562 4.555 8.562 10.175v7.4c0 5.62-3.833 10.174-8.562 10.174-4.728 0-8.562-4.555-8.562-10.174v-7.4z" transform="translate(1) translate(0 2) translate(629)"/>
                <g transform="translate(1) translate(0 2) translate(629) translate(101.57)">
                    <mask id="prefix__ad" fill="#fff">
                        <use xlink:href="#prefix__ac"/>
                    </mask>
                    <path stroke="#CCA500" stroke-width="3.018" d="M13.586 34.792V-8.227c0-8.423-5.898-15.252-13.173-15.252" mask="url(#prefix__ad)"/>
                </g>
                <g transform="translate(1) translate(0 2) translate(629) translate(229.43)">
                    <mask id="prefix__af" fill="#fff">
                        <use xlink:href="#prefix__ae"/>
                    </mask>
                    <path stroke="#CCA500" stroke-width="3.018" d="M5.601-4.055c2.911 0 5.27 3.106 5.27 6.937 0 3.83-2.359 6.937-5.27 6.937-2.91 0-5.268-3.107-5.268-6.937C.333-.949 2.69-4.055 5.6-4.055z" mask="url(#prefix__af)"/>
                </g>
                <g transform="translate(1) translate(0 2) translate(629) translate(217.48)">
                    <mask id="prefix__ah" fill="#fff">
                        <use xlink:href="#prefix__ag"/>
                    </mask>
                    <path stroke="#CCA500" stroke-width="3.018" d="M16.892 20.918c9.094 0 16.467-8.696 16.467-19.423 0-10.729-7.373-19.425-16.467-19.425C7.8-17.93.426-9.234.426 1.495" mask="url(#prefix__ah)"/>
                </g>
                <path stroke="#CCA500" stroke-width="3.018" d="M179.705 130.1c-4.365 0-7.903 4.133-7.903 9.23 0 5.1 3.538 9.232 7.903 9.232 4.364 0 7.903-4.133 7.903-9.232v-28.229M88.81 11.206c0 10.728-7.372 19.424-16.466 19.424-9.094 0-16.466-8.696-16.466-19.424" transform="translate(1) translate(0 2) translate(629)"/>
                <g transform="translate(1) translate(0 2) translate(629) translate(86.036)">
                    <mask id="prefix__aj" fill="#fff">
                        <use xlink:href="#prefix__ai"/>
                    </mask>
                    <path stroke="#CCA500" stroke-width="3.018" d="M14.63 20.918V-2.64c0-4.613-3.243-8.353-7.244-8.353C3.384-10.993.14-7.253.14-2.64v3.647" mask="url(#prefix__aj)"/>
                </g>
                <path stroke="#CCA500" stroke-width="3.018" d="M60.49 40.342c2.546 0 4.61 2.485 4.61 5.55 0 3.066-2.064 5.55-4.61 5.55-2.549 0-4.611-2.484-4.611-5.55 0-3.065 2.062-5.55 4.61-5.55z" transform="translate(1) translate(0 2) translate(629)"/>
                <g transform="translate(1) translate(0 2) translate(629) translate(63.332)">
                    <mask id="prefix__al" fill="#fff">
                        <use xlink:href="#prefix__ak"/>
                    </mask>
                    <path stroke="#CCA500" stroke-width="3.018" d="M.45 8.458v-23.639c0-4.583 3.243-8.299 7.244-8.299 4.002 0 7.246 3.716 7.246 8.3V8.457c0 4.583-3.244 8.299-7.246 8.299-4 0-7.244-3.716-7.244-8.3z" mask="url(#prefix__al)"/>
                </g>
                <path stroke="#CCA500" stroke-width="3.018" d="M224.493 20.918h-15.96c-10.102 0-18.29 9.939-18.29 22.199M17.676 29.857c3.638 0 6.587-3.553 6.587-7.938 0-4.383-2.95-7.938-6.587-7.938-3.637 0-6.586 3.555-6.586 7.938v51.722M239.641 62.541c-4 0-7.244 3.727-7.244 8.326 0 4.597 3.244 8.324 7.244 8.324 4.002 0 7.245-3.727 7.245-8.324V62.54M283.771 103.57c0 11.823 8.257 21.406 18.443 21.406 10.185 0 18.442-9.583 18.442-21.406V80.578" transform="translate(1) translate(0 2) translate(629)"/>
                <path stroke="#CCA500" stroke-width="3.018" d="M273.006 112.489h-.911c-5.191 0-9.401-4.97-9.401-11.1s4.21-11.099 9.4-11.099h28.623c5.19 0 9.4 4.97 9.4 11.1s-4.21 11.099-9.4 11.099h-.28M256.108 62.541h11.888c7.986 0 14.458 7.454 14.458 16.65M136.234 130.526c3.637 0 6.587 3.727 6.587 8.324 0 4.597-2.95 8.324-6.587 8.324-3.639 0-6.588-3.727-6.588-8.324 0-4.597 2.95-8.324 6.588-8.324z" transform="translate(1) translate(0 2) translate(629)"/>
                <path stroke="#CCA500" stroke-width="3.018" d="M119.716 133.11c-2.488 11.299 2.893 22.87 12.015 25.848 9.122 2.977 18.533-3.77 21.02-15.07 2.487-11.3-2.892-22.872-12.015-25.849M130.964 120.813H97.766c-6.398-.003-11.587-6.528-11.59-14.575-.002-8.045 5.18-14.564 11.578-14.56 6.4.003 11.588 6.528 11.59 14.574H98.536M130.964 73.641L130.964 111.102" transform="translate(1) translate(0 2) translate(629)"/>
                <g transform="translate(1) translate(0 2) translate(629) translate(66.917 162.208)">
                    <mask id="prefix__an" fill="#fff">
                        <use xlink:href="#prefix__am"/>
                    </mask>
                    <path stroke="#CCA500" stroke-width="3.018" d="M15.966 18.265h6.836c4.591 0 8.313-4.037 8.313-9.019 0-4.98-3.722-9.018-8.313-9.018H9.13C4.539.228.816 4.266.816 9.246" mask="url(#prefix__an)"/>
                </g>
                <g transform="translate(1) translate(0 2) translate(629) translate(54.968 148.377)">
                    <mask id="prefix__ap" fill="#fff">
                        <use xlink:href="#prefix__ao"/>
                    </mask>
                    <path stroke="#CCA500" stroke-width="3.018" d="M.911 18.222C.911 8.262 7.53.186 15.696.186h26.051" mask="url(#prefix__ap)"/>
                </g>
                <g transform="translate(1) translate(0 2) translate(629) translate(45.408 148.377)">
                    <mask id="prefix__ar" fill="#fff">
                        <use xlink:href="#prefix__aq"/>
                    </mask>
                    <path stroke="#CCA500" stroke-width="3.018" d="M1.25 0.185L1.25 18.222" mask="url(#prefix__ar)"/>
                </g>
                <path stroke="#CCA500" stroke-width="3.018" d="M121.743 94.452L121.743 111.102M142.706 51.442c0 4.597-3.218 8.325-7.189 8.325-3.97 0-7.187-3.728-7.187-8.325 0-4.598 3.218-8.325 7.187-8.325h23.11M167.849 70.172V57.823c0-3.524 2.36-6.381 5.268-6.381 2.911 0 5.27 2.857 5.27 6.381V82.52c0 3.526-2.359 6.383-5.27 6.383-2.908 0-5.268-2.857-5.268-6.383v-2.982" transform="translate(1) translate(0 2) translate(629)"/>
                <path stroke="#CCA500" stroke-width="3.018" d="M158.628 51.442v32.407c0 9.688 6.487 17.54 14.49 17.54 8.002 0 14.49-7.852 14.49-17.54v-7.656M159.945 22.306h-7.416c-5.362 0-9.709 4.97-9.709 11.1M167.849 13.981L167.849 43.117M211.32 60.865v2.814c0 3.97-2.664 7.188-5.95 7.188s-5.95-3.218-5.95-7.188v-2.331c0-3.938-2.645-7.131-5.905-7.131-3.262 0-5.907 3.193-5.907 7.13v2.87M20.311 118.614c-3.638 0-6.587 3.599-6.587 8.037 0 4.438 2.949 8.037 6.587 8.037s6.587-3.6 6.587-8.037v-12.775M28.215 102.777V90.072c0-7.316 4.498-13.444 10.538-15.044M20.311 83.353L20.311 52.83M37.436 97.735c0-5.645 3.834-10.22 8.562-10.22 4.729 0 8.563 4.575 8.563 10.22v23.958c0 5.644-3.834 10.22-8.563 10.22-4.728 0-8.562-4.576-8.562-10.22V97.735zM199.463 144.543c0-4.675 3.245-8.468 7.245-8.468 4.002 0 7.247 3.793 7.247 8.468v9.569M229.104 123.588c4.002 0 7.244 3.727 7.244 8.325 0 4.598-3.242 8.325-7.244 8.325s-7.245-3.727-7.245-8.325c0-4.598 3.243-8.325 7.245-8.325z" transform="translate(1) translate(0 2) translate(629)"/>
                <g transform="translate(1) translate(0 2) translate(629) translate(200.75 162.208)">
                    <mask id="prefix__at" fill="#fff">
                        <use xlink:href="#prefix__as"/>
                    </mask>
                    <path stroke="#CCA500" stroke-width="3.018" d="M13.379 8.553c0 4.597-2.989 8.324-6.674 8.324C3.018 16.877.03 13.15.03 8.553.03 3.956 3.018.229 6.705.229h24.94" mask="url(#prefix__at)"/>
                </g>
                <path stroke="#CCA500" stroke-width="3.018" d="M204.733 111.101h24.175c9.203 0 16.661 9.009 16.661 20.118 0 11.11-7.458 20.119-16.66 20.119h-7.272" transform="translate(1) translate(0 2) translate(629)"/>
                <g transform="translate(1) translate(0 2) translate(629) translate(241.38 162.208)">
                    <mask id="prefix__av" fill="#fff">
                        <use xlink:href="#prefix__au"/>
                    </mask>
                    <path stroke="#CCA500" stroke-width="3.018" d="M.239.228h7.453c7.524 0 13.623 7.686 13.623 17.168v17.517" mask="url(#prefix__av)"/>
                </g>
                <g transform="translate(1) translate(0 2) translate(629) translate(187.606 162.208)">
                    <mask id="prefix__ax" fill="#fff">
                        <use xlink:href="#prefix__aw"/>
                    </mask>
                    <path stroke="#CCA500" stroke-width="3.018" d="M1.314 0.228L1.326 7.166" mask="url(#prefix__ax)"/>
                </g>
                <g transform="translate(1) translate(0 2) translate(629) translate(176.852 162.208)">
                    <mask id="prefix__az" fill="#fff">
                        <use xlink:href="#prefix__ay"/>
                    </mask>
                    <path stroke="#CCA500" stroke-width="3.018" d="M1.53 0.228L1.541 7.166" mask="url(#prefix__az)"/>
                </g>
                <path stroke="#CCA500" stroke-width="3.018" d="M104.612 145.787L104.624 152.725M25.574 149.95L25.586 156.887M49.285 62.541L49.297 69.478M40.064 47.28L40.076 54.217M113.834 55.604L113.845 62.542M225.804 90.29l.012 6.937M238.977 90.29l.012 6.937M252.15 90.29l.012 6.937" transform="translate(1) translate(0 2) translate(629)"/>
            </g>
            <g>
                <g transform="translate(1) translate(0 2) translate(295) translate(22.704)">
                    <mask id="prefix__aB" fill="#fff">
                        <use xlink:href="#prefix__aA"/>
                    </mask>
                    <path stroke="#CCA500" stroke-width="3.018" d="M.57-10.99V3.617c0 4.676 1.377 9.002 3.714 12.526M40.09 3.618c0 11.852-8.846 21.459-19.76 21.459-3.788 0-7.329-1.158-10.335-3.167" mask="url(#prefix__aB)"/>
                </g>
                <g transform="translate(1) translate(0 2) translate(295) translate(0 152.125)">
                    <mask id="prefix__aD" fill="#fff">
                        <use xlink:href="#prefix__aC"/>
                    </mask>
                    <path stroke="#CCA500" stroke-width="3.018" d="M15.37.575H8.832C4.442.575.88 4.612.88 9.592c0 4.98 3.56 9.017 7.95 9.017H21.91c4.391 0 7.952-4.037 7.952-9.017" mask="url(#prefix__aD)"/>
                </g>
                <g transform="translate(1) translate(0 2) translate(295) translate(59.747 163.44)">
                    <mask id="prefix__aF" fill="#fff">
                        <use xlink:href="#prefix__aE"/>
                    </mask>
                    <path stroke="#CCA500" stroke-width="3.018" d="M7.215.358C3.458.358.412 4.084.412 8.682c0 4.597 3.046 8.323 6.803 8.323h7.688" mask="url(#prefix__aF)"/>
                </g>
                <g transform="translate(1) translate(0 2) translate(295) translate(295.148 124.466)">
                    <mask id="prefix__aH" fill="#fff">
                        <use xlink:href="#prefix__aG"/>
                    </mask>
                    <path stroke="#CCA500" stroke-width="3.018" d="M17.27.49C8.177.49.805 9.497.805 20.606c0 11.109 7.372 20.115 16.465 20.115 9.094 0 16.466-9.006 16.466-20.115" mask="url(#prefix__aH)"/>
                </g>
                <g transform="translate(1) translate(0 2) translate(295) translate(176.85 158.167)">
                    <mask id="prefix__aJ" fill="#fff">
                        <use xlink:href="#prefix__aI"/>
                    </mask>
                    <path stroke="#CCA500" stroke-width="3.018" d="M29.528 50.023V17.62c0-9.685-6.489-17.537-14.491-17.537C7.035.083.547 7.935.547 17.62v7.656" mask="url(#prefix__aJ)"/>
                </g>
                <g transform="translate(1) translate(0 2) translate(295) translate(45.407 145.594)">
                    <mask id="prefix__aL" fill="#fff">
                        <use xlink:href="#prefix__aK"/>
                    </mask>
                    <path stroke="#CCA500" stroke-width="3.018" d="M54.27 54.272H22.295C10.127 54.272.26 42.162.26 27.222c0-14.94 9.866-27.05 22.034-27.05h9.619" mask="url(#prefix__aL)"/>
                </g>
                <path stroke="#CCA500" stroke-width="3.018" d="M14.053 144.378v-17.144c0-7.386 5.3-13.374 11.838-13.374h9.24M236.674 134.667v-12.014c0-8.687-5.898-15.73-13.172-15.73M256.434 50.047v18.42c0 10.606-6.747 19.49-15.808 21.809M78.6 118.02H59.903c-10.766 0-19.784-10.065-22.138-23.583" transform="translate(1) translate(0 2) translate(295)"/>
                <path stroke="#CCA500" stroke-width="3.018" d="M39.082 142.528c0 5.619-3.834 10.172-8.563 10.172-4.728 0-8.561-4.553-8.561-10.172v-7.399c0-5.618 3.833-10.172 8.561-10.172 4.729 0 8.563 4.554 8.563 10.172v7.4z" transform="translate(1) translate(0 2) translate(295)"/>
                <g transform="translate(1) translate(0 2) translate(295) translate(215.087 131.765)">
                    <mask id="prefix__aN" fill="#fff">
                        <use xlink:href="#prefix__aM"/>
                    </mask>
                    <path stroke="#CCA500" stroke-width="3.018" d="M.51.128V43.14c0 8.424 5.899 15.25 13.173 15.25" mask="url(#prefix__aN)"/>
                </g>
                <g transform="translate(1) translate(0 2) translate(295) translate(89.62 155.897)">
                    <mask id="prefix__aP" fill="#fff">
                        <use xlink:href="#prefix__aO"/>
                    </mask>
                    <path stroke="#CCA500" stroke-width="3.018" d="M6.105 14.838c-2.91 0-5.268-3.106-5.268-6.937 0-3.83 2.357-6.936 5.268-6.936 2.91 0 5.27 3.106 5.27 6.936 0 3.831-2.36 6.937-5.27 6.937z" mask="url(#prefix__aP)"/>
                </g>
                <g transform="translate(1) translate(0 2) translate(295) translate(78.865 145.594)">
                    <mask id="prefix__aR" fill="#fff">
                        <use xlink:href="#prefix__aQ"/>
                    </mask>
                    <path stroke="#CCA500" stroke-width="3.018" d="M17.519.17C8.425.17 1.053 8.867 1.053 19.592c0 10.727 7.372 19.422 16.466 19.422 9.092 0 16.465-8.695 16.465-19.422" mask="url(#prefix__aR)"/>
                </g>
                <path stroke="#CCA500" stroke-width="3.018" d="M150.393 36.599c4 0 7.244-4.132 7.244-9.228 0-5.097-3.244-9.23-7.244-9.23-4.002 0-7.245 4.133-7.245 9.23v28.224M243.261 155.475c0-10.726 7.372-19.42 16.465-19.42 9.095 0 16.468 8.694 16.468 19.42" transform="translate(1) translate(0 2) translate(295)"/>
                <g transform="translate(1) translate(0 2) translate(295) translate(228.232 145.594)">
                    <mask id="prefix__aT" fill="#fff">
                        <use xlink:href="#prefix__aS"/>
                    </mask>
                    <path stroke="#CCA500" stroke-width="3.018" d="M.539.17v23.555c0 4.613 3.244 8.352 7.245 8.352 4.001 0 7.246-3.739 7.246-8.352V20.08" mask="url(#prefix__aT)"/>
                </g>
                <path stroke="#CCA500" stroke-width="3.018" d="M270.265 126.344c-2.546 0-4.61-2.485-4.61-5.55 0-3.064 2.064-5.548 4.61-5.548 2.547 0 4.61 2.484 4.61 5.548 0 3.065-2.063 5.55-4.61 5.55z" transform="translate(1) translate(0 2) translate(295)"/>
                <g transform="translate(1) translate(0 2) translate(295) translate(252.13 149.611)">
                    <mask id="prefix__aV" fill="#fff">
                        <use xlink:href="#prefix__aU"/>
                    </mask>
                    <path stroke="#CCA500" stroke-width="3.018" d="M14.842 8.613v23.635c0 4.582-3.244 8.296-7.245 8.296-4.002 0-7.245-3.714-7.245-8.296V8.613C.352 4.03 3.595.315 7.597.315c4 0 7.245 3.715 7.245 8.298z" mask="url(#prefix__aV)"/>
                </g>
                <path stroke="#CCA500" stroke-width="3.018" d="M107.58 145.765h15.347c9.713 0 17.586-9.937 17.586-22.195M313.077 136.828c-3.638 0-6.586 3.552-6.586 7.936 0 4.383 2.948 7.936 6.586 7.936 3.638 0 6.587-3.553 6.587-7.936V93.051M91.114 104.148c4.002 0 7.245-3.726 7.245-8.323 0-4.596-3.243-8.323-7.245-8.323-4.002 0-7.243 3.727-7.243 8.323v8.323M48.303 63.125c0-11.82-8.258-21.402-18.442-21.402-10.185 0-18.442 9.583-18.442 21.402v22.99" transform="translate(1) translate(0 2) translate(295)"/>
                <path stroke="#CCA500" stroke-width="3.018" d="M57.75 54.208h.913c5.19 0 9.399 4.97 9.399 11.098 0 6.13-4.21 11.098-9.4 11.098H30.04c-5.19 0-9.4-4.969-9.4-11.098 0-6.129 4.21-11.098 9.4-11.098h.281M75.965 104.148H64.077c-7.985 0-14.458-7.453-14.458-16.646M194.521 36.174c-3.637 0-6.586-3.726-6.586-8.322 0-4.597 2.949-8.325 6.586-8.325 3.638 0 6.587 3.728 6.587 8.325 0 4.596-2.95 8.322-6.587 8.322z" transform="translate(1) translate(0 2) translate(295)"/>
                <path stroke="#CCA500" stroke-width="3.018" d="M211.04 33.59c2.486-11.297-2.894-22.867-12.017-25.844-9.121-2.976-18.532 3.77-21.019 15.069-2.488 11.297 2.892 22.869 12.015 25.845M198.474 45.885h33.197c6.398.004 11.587 6.529 11.59 14.572.002 8.045-5.18 14.564-11.58 14.56-6.397-.005-11.585-6.528-11.588-14.572h10.809M199.79 93.051L199.79 55.595" transform="translate(1) translate(0 2) translate(295)"/>
                <g transform="translate(1) translate(0 2) translate(295) translate(231.816)">
                    <mask id="prefix__aX" fill="#fff">
                        <use xlink:href="#prefix__aW"/>
                    </mask>
                    <path stroke="#CCA500" stroke-width="3.018" d="M16.055-13.765H9.22C4.63-13.765.906-9.73.906-4.748c0 4.98 3.722 9.017 8.313 9.017h13.673c4.59 0 8.312-4.037 8.312-9.017" mask="url(#prefix__aX)"/>
                </g>
                <g transform="translate(1) translate(0 2) translate(295) translate(233.011)">
                    <mask id="prefix__aZ" fill="#fff">
                        <use xlink:href="#prefix__aY"/>
                    </mask>
                    <path stroke="#CCA500" stroke-width="3.018" d="M41.864.107c0 9.958-6.62 18.034-14.785 18.034H1.03" mask="url(#prefix__aZ)"/>
                </g>
                <g transform="translate(1) translate(0 2) translate(295) translate(283.198)">
                    <mask id="prefix__bb" fill="#fff">
                        <use xlink:href="#prefix__ba"/>
                    </mask>
                    <path stroke="#CCA500" stroke-width="3.018" d="M0.898 18.141L0.898 0.107" mask="url(#prefix__bb)"/>
                </g>
                <path stroke="#CCA500" stroke-width="3.018" d="M209.011 72.242L209.011 55.596M188.741 115.246c0-4.597 3.36-8.323 7.501-8.323 4.143 0 7.5 3.726 7.5 8.323 0 4.598-3.357 8.324-7.5 8.324h-24.114M162.907 96.519v12.346c0 3.525-2.36 6.381-5.27 6.381-2.91 0-5.268-2.856-5.268-6.381V84.17c0-3.524 2.359-6.38 5.268-6.38 2.91 0 5.27 2.856 5.27 6.38v2.984" transform="translate(1) translate(0 2) translate(295)"/>
                <path stroke="#CCA500" stroke-width="3.018" d="M172.128 115.246V82.843c0-9.686-6.488-17.537-14.49-17.537-8.003 0-14.49 7.851-14.49 17.537v7.655M169.493 144.378h7.987c5.774 0 10.456-4.969 10.456-11.098M162.907 152.701L162.907 123.569M118.12 105.824v-2.814c0-3.968 2.812-7.185 6.28-7.185 3.467 0 6.282 3.217 6.282 7.185v2.331c0 3.938 2.79 7.131 6.232 7.131s6.233-3.193 6.233-7.13v-2.87M310.442 48.084c3.638 0 6.587-3.598 6.587-8.036 0-4.437-2.95-8.035-6.587-8.035-3.637 0-6.586 3.598-6.586 8.035v12.774M302.539 63.919v12.703c0 7.315-4.5 13.442-10.538 15.042M310.442 83.34L310.442 113.859M293.318 68.96c0 5.644-3.834 10.218-8.563 10.218-4.728 0-8.562-4.574-8.562-10.218V45.006c0-5.644 3.834-10.219 8.562-10.219 4.73 0 8.563 4.575 8.563 10.219V68.96zM131.292 22.159c0 4.676-3.244 8.466-7.244 8.466-4.003 0-7.246-3.79-7.246-8.466v-9.566M101.653 43.11c-4.002 0-7.245-3.726-7.245-8.323s3.243-8.323 7.245-8.323c4.002 0 7.245 3.726 7.245 8.323s-3.243 8.324-7.245 8.324z" transform="translate(1) translate(0 2) translate(295)"/>
                <g transform="translate(1) translate(0 2) translate(295) translate(97.984)">
                    <mask id="prefix__bd" fill="#fff">
                        <use xlink:href="#prefix__bc"/>
                    </mask>
                    <path stroke="#CCA500" stroke-width="3.018" d="M18.641-4.055c0-4.596 2.989-8.324 6.675-8.324 3.685 0 6.674 3.728 6.674 8.324 0 4.597-2.989 8.323-6.674 8.323H.376" mask="url(#prefix__bd)"/>
                </g>
                <path stroke="#CCA500" stroke-width="3.018" d="M124.705 55.596h-24.174c-9.202 0-16.661-9.007-16.661-20.116 0-11.107 7.459-20.114 16.66-20.114h7.272" transform="translate(1) translate(0 2) translate(295)"/>
                <g transform="translate(1) translate(0 2) translate(295) translate(65.721)">
                    <mask id="prefix__bf" fill="#fff">
                        <use xlink:href="#prefix__be"/>
                    </mask>
                    <path stroke="#CCA500" stroke-width="3.018" d="M23.418 4.268h-7.92c-7.995 0-14.475-7.684-14.475-17.165V-30.41" mask="url(#prefix__bf)"/>
                </g>
                <g transform="translate(1) translate(0 2) translate(295) translate(141.002)">
                    <mask id="prefix__bh" fill="#fff">
                        <use xlink:href="#prefix__bg"/>
                    </mask>
                    <path stroke="#CCA500" stroke-width="3.018" d="M0.834 4.268L0.822 -2.668" mask="url(#prefix__bh)"/>
                </g>
                <g transform="translate(1) translate(0 2) translate(295) translate(151.756)">
                    <mask id="prefix__bj" fill="#fff">
                        <use xlink:href="#prefix__bi"/>
                    </mask>
                    <path stroke="#CCA500" stroke-width="3.018" d="M0.618 4.268L0.606 -2.668" mask="url(#prefix__bj)"/>
                </g>
                <path stroke="#CCA500" stroke-width="3.018" d="M227.459 20.915L227.447 13.979M305.18 16.754L305.168 9.817M281.468 104.148L281.456 97.212M290.689 119.408L290.677 112.472M215.604 111.084L215.592 104.148M104.952 76.404l-.012-6.936M91.78 76.404l-.012-6.936M78.606 76.404l-.012-6.936" transform="translate(1) translate(0 2) translate(295)"/>
            </g>
            <g>
                <g transform="translate(1) translate(0 2) translate(943) translate(22.714)">
                    <mask id="prefix__bl" fill="#fff">
                        <use xlink:href="#prefix__bk"/>
                    </mask>
                    <path stroke="#CCA500" stroke-width="3.018" d="M.864-10.99V3.617c0 4.676 1.377 9.002 3.715 12.526M40.4 3.618c0 11.852-8.85 21.459-19.768 21.459-3.79 0-7.334-1.158-10.34-3.167" mask="url(#prefix__bl)"/>
                </g>
                <g transform="translate(1) translate(0 2) translate(943) translate(0 152.125)">
                    <mask id="prefix__bn" fill="#fff">
                        <use xlink:href="#prefix__bm"/>
                    </mask>
                    <path stroke="#CCA500" stroke-width="3.018" d="M15.67.575H9.13c-4.393 0-7.955 4.037-7.955 9.017 0 4.98 3.562 9.017 7.955 9.017h13.083c4.392 0 7.955-4.037 7.955-9.017" mask="url(#prefix__bn)"/>
                </g>
                <g transform="translate(1) translate(0 2) translate(943) translate(59.774 163.44)">
                    <mask id="prefix__bp" fill="#fff">
                        <use xlink:href="#prefix__bo"/>
                    </mask>
                    <path stroke="#CCA500" stroke-width="3.018" d="M7.511.358C3.751.358.705 4.084.705 8.682c0 4.597 3.046 8.323 6.806 8.323h7.69" mask="url(#prefix__bp)"/>
                </g>
                <g transform="translate(1) translate(0 2) translate(943) translate(295.282 124.466)">
                    <mask id="prefix__br" fill="#fff">
                        <use xlink:href="#prefix__bq"/>
                    </mask>
                    <path stroke="#CCA500" stroke-width="3.018" d="M17.571.49C8.474.49 1.099 9.497 1.099 20.606c0 11.109 7.375 20.115 16.472 20.115 9.098 0 16.474-9.006 16.474-20.115" mask="url(#prefix__br)"/>
                </g>
                <g transform="translate(1) translate(0 2) translate(943) translate(176.93 158.167)">
                    <mask id="prefix__bt" fill="#fff">
                        <use xlink:href="#prefix__bs"/>
                    </mask>
                    <path stroke="#CCA500" stroke-width="3.018" d="M29.833 50.023V17.62c0-9.685-6.49-17.537-14.497-17.537C7.33.083.84 7.935.84 17.62v7.656" mask="url(#prefix__bt)"/>
                </g>
                <g transform="translate(1) translate(0 2) translate(943) translate(45.428 145.594)">
                    <mask id="prefix__bv" fill="#fff">
                        <use xlink:href="#prefix__bu"/>
                    </mask>
                    <path stroke="#CCA500" stroke-width="3.018" d="M54.586 54.272h-31.99c-12.173 0-22.043-12.11-22.043-27.05 0-14.94 9.87-27.05 22.044-27.05h9.624" mask="url(#prefix__bv)"/>
                </g>
                <path stroke="#CCA500" stroke-width="3.018" d="M14.352 144.378v-17.144c0-7.386 5.302-13.374 11.843-13.374h9.244M237.074 134.667v-12.014c0-8.687-5.9-15.73-13.177-15.73M256.842 50.047v18.42c0 10.606-6.75 19.49-15.815 21.809M78.929 118.02H60.223c-10.77 0-19.794-10.065-22.15-23.583" transform="translate(1) translate(0 2) translate(943)"/>
                <path stroke="#CCA500" stroke-width="3.018" d="M39.392 142.528c0 5.619-3.835 10.172-8.566 10.172-4.73 0-8.566-4.553-8.566-10.172v-7.399c0-5.618 3.836-10.172 8.566-10.172s8.566 4.554 8.566 10.172v7.4z" transform="translate(1) translate(0 2) translate(943)"/>
                <g transform="translate(1) translate(0 2) translate(943) translate(215.185 131.765)">
                    <mask id="prefix__bx" fill="#fff">
                        <use xlink:href="#prefix__bw"/>
                    </mask>
                    <path stroke="#CCA500" stroke-width="3.018" d="M.804.128L.803 43.14c0 8.424 5.9 15.25 13.179 15.25" mask="url(#prefix__bx)"/>
                </g>
                <g transform="translate(1) translate(0 2) translate(943) translate(89.66 155.897)">
                    <mask id="prefix__bz" fill="#fff">
                        <use xlink:href="#prefix__by"/>
                    </mask>
                    <path stroke="#CCA500" stroke-width="3.018" d="M6.4 14.838c-2.911 0-5.271-3.106-5.271-6.937 0-3.83 2.36-6.936 5.272-6.936 2.912 0 5.27 3.106 5.27 6.936 0 3.831-2.358 6.937-5.27 6.937z" mask="url(#prefix__bz)"/>
                </g>
                <g transform="translate(1) translate(0 2) translate(943) translate(80.097 145.594)">
                    <mask id="prefix__bB" fill="#fff">
                        <use xlink:href="#prefix__bA"/>
                    </mask>
                    <path stroke="#CCA500" stroke-width="3.018" d="M16.623.17C7.527.17.151 8.867.151 19.592c0 10.727 7.376 19.422 16.472 19.422 9.098 0 16.474-8.695 16.474-19.422" mask="url(#prefix__bB)"/>
                </g>
                <path stroke="#CCA500" stroke-width="3.018" d="M150.753 36.599c4.004 0 7.248-4.132 7.248-9.228 0-5.097-3.244-9.23-7.248-9.23s-7.247 4.133-7.247 9.23v28.224M243.663 155.475c0-10.726 7.376-19.42 16.474-19.42 9.099 0 16.474 8.694 16.474 19.42" transform="translate(1) translate(0 2) translate(943)"/>
                <g transform="translate(1) translate(0 2) translate(943) translate(228.335 145.594)">
                    <mask id="prefix__bD" fill="#fff">
                        <use xlink:href="#prefix__bC"/>
                    </mask>
                    <path stroke="#CCA500" stroke-width="3.018" d="M.832.17v23.555c0 4.613 3.246 8.352 7.248 8.352 4.004 0 7.25-3.739 7.25-8.352V20.08" mask="url(#prefix__bD)"/>
                </g>
                <path stroke="#CCA500" stroke-width="3.018" d="M270.68 126.344c-2.548 0-4.613-2.485-4.613-5.55 0-3.064 2.065-5.548 4.613-5.548 2.547 0 4.612 2.484 4.612 5.548 0 3.065-2.065 5.55-4.612 5.55z" transform="translate(1) translate(0 2) translate(943)"/>
                <g transform="translate(1) translate(0 2) translate(943) translate(252.245 149.611)">
                    <mask id="prefix__bF" fill="#fff">
                        <use xlink:href="#prefix__bE"/>
                    </mask>
                    <path stroke="#CCA500" stroke-width="3.018" d="M15.142 8.613v23.635c0 4.582-3.246 8.296-7.249 8.296S.645 36.83.645 32.248V8.613C.645 4.03 3.89.315 7.893.315s7.249 3.715 7.249 8.298z" mask="url(#prefix__bF)"/>
                </g>
                <path stroke="#CCA500" stroke-width="3.018" d="M107.923 145.765h15.353c9.716 0 17.594-9.937 17.594-22.195" transform="translate(1) translate(0 2) translate(943)"/>
                <g transform="translate(1) translate(0 2) translate(943) translate(306.04 93.035)">
                    <mask id="prefix__bH" fill="#fff">
                        <use xlink:href="#prefix__bG"/>
                    </mask>
                    <path stroke="#CCA500" stroke-width="3.018" d="M7.47 43.792c-3.639 0-6.59 3.553-6.59 7.937 0 4.383 2.951 7.936 6.59 7.936 3.64 0 6.59-3.553 6.59-7.936V.015" mask="url(#prefix__bH)"/>
                </g>
                <path stroke="#CCA500" stroke-width="3.018" d="M91.449 104.148c4.003 0 7.247-3.726 7.247-8.323 0-4.596-3.244-8.323-7.247-8.323-4.004 0-7.249 3.727-7.249 8.323v8.323M48.617 63.125c0-11.82-8.26-21.402-18.45-21.402s-18.45 9.583-18.45 21.402v22.99" transform="translate(1) translate(0 2) translate(943)"/>
                <path stroke="#CCA500" stroke-width="3.018" d="M58.069 54.208h.912c5.193 0 9.405 4.97 9.405 11.098 0 6.13-4.212 11.098-9.405 11.098H30.347c-5.194 0-9.406-4.969-9.406-11.098 0-6.129 4.212-11.098 9.406-11.098h.28M76.293 104.148H64.399c-7.99 0-14.464-7.453-14.464-16.646M194.902 36.174c-3.64 0-6.59-3.726-6.59-8.322 0-4.597 2.95-8.325 6.59-8.325 3.64 0 6.59 3.728 6.59 8.325 0 4.596-2.95 8.322-6.59 8.322z" transform="translate(1) translate(0 2) translate(943)"/>
                <path stroke="#CCA500" stroke-width="3.018" d="M211.428 33.59c2.488-11.297-2.896-22.867-12.022-25.844-9.125-2.976-18.54 3.77-21.028 15.069-2.49 11.297 2.893 22.869 12.019 25.845M198.857 45.885h33.212c6.4.004 11.593 6.529 11.595 14.572.003 8.045-5.182 14.564-11.584 14.56-6.4-.005-11.591-6.528-11.594-14.572H231.3M200.173 93.051L200.173 55.595" transform="translate(1) translate(0 2) translate(943)"/>
                <g transform="translate(1) translate(0 2) translate(943) translate(233.117)">
                    <mask id="prefix__bJ" fill="#fff">
                        <use xlink:href="#prefix__bI"/>
                    </mask>
                    <path stroke="#CCA500" stroke-width="3.018" d="M15.16-13.765H8.32C3.727-13.765.003-9.73.003-4.748c0 4.98 3.724 9.017 8.317 9.017h13.678c4.593 0 8.317-4.037 8.317-9.017" mask="url(#prefix__bJ)"/>
                </g>
                <g transform="translate(1) translate(0 2) translate(943) translate(234.312)">
                    <mask id="prefix__bL" fill="#fff">
                        <use xlink:href="#prefix__bK"/>
                    </mask>
                    <path stroke="#CCA500" stroke-width="3.018" d="M40.98.107c0 9.958-6.622 18.034-14.792 18.034H.126" mask="url(#prefix__bL)"/>
                </g>
                <g transform="translate(1) translate(0 2) translate(943) translate(283.327)">
                    <mask id="prefix__bN" fill="#fff">
                        <use xlink:href="#prefix__bM"/>
                    </mask>
                    <path stroke="#CCA500" stroke-width="3.018" d="M1.192 18.141L1.192 0.107" mask="url(#prefix__bN)"/>
                </g>
                <path stroke="#CCA500" stroke-width="3.018" d="M209.399 72.242L209.399 55.596M189.12 115.246c0-4.597 3.36-8.323 7.503-8.323 4.146 0 7.505 3.726 7.505 8.323 0 4.598-3.36 8.324-7.505 8.324h-24.125M163.273 96.519v12.346c0 3.525-2.361 6.381-5.271 6.381-2.912 0-5.272-2.856-5.272-6.381V84.17c0-3.524 2.36-6.38 5.272-6.38 2.91 0 5.27 2.856 5.27 6.38v2.984" transform="translate(1) translate(0 2) translate(943)"/>
                <path stroke="#CCA500" stroke-width="3.018" d="M172.498 115.246V82.843c0-9.686-6.49-17.537-14.496-17.537-8.007 0-14.498 7.851-14.498 17.537v7.655M169.863 144.378h7.99c5.777 0 10.46-4.969 10.46-11.098M163.273 152.701L163.273 123.569M118.465 105.824v-2.814c0-3.968 2.814-7.185 6.283-7.185 3.47 0 6.285 3.217 6.285 7.185v2.331c0 3.938 2.792 7.131 6.235 7.131 3.444 0 6.236-3.193 6.236-7.13v-2.87" transform="translate(1) translate(0 2) translate(943)"/>
                <g transform="translate(1) translate(0 2) translate(943) translate(303.65 31.43)">
                    <mask id="prefix__bP" fill="#fff">
                        <use xlink:href="#prefix__bO"/>
                    </mask>
                    <path stroke="#CCA500" stroke-width="3.018" d="M7.226 16.654c3.64 0 6.59-3.599 6.59-8.037 0-4.436-2.95-8.035-6.59-8.035-3.639 0-6.59 3.599-6.59 8.035v12.774" mask="url(#prefix__bP)"/>
                </g>
                <path stroke="#CCA500" stroke-width="3.018" d="M302.969 63.919v12.703c0 7.315-4.501 13.442-10.543 15.042M310.876 83.34L310.876 113.859M293.742 68.96c0 5.644-3.835 10.218-8.565 10.218-4.732 0-8.567-4.574-8.567-10.218V45.006c0-5.644 3.835-10.219 8.567-10.219 4.73 0 8.565 4.575 8.565 10.219V68.96zM131.644 22.159c0 4.676-3.246 8.466-7.248 8.466-4.004 0-7.25-3.79-7.25-8.466v-9.566M101.992 43.11c-4.004 0-7.248-3.726-7.248-8.323s3.244-8.323 7.248-8.323 7.247 3.726 7.247 8.323-3.243 8.324-7.247 8.324z" transform="translate(1) translate(0 2) translate(943)"/>
                <g transform="translate(1) translate(0 2) translate(943) translate(98.029)">
                    <mask id="prefix__bR" fill="#fff">
                        <use xlink:href="#prefix__bQ"/>
                    </mask>
                    <path stroke="#CCA500" stroke-width="3.018" d="M18.943-4.055c0-4.596 2.99-8.324 6.678-8.324 3.687 0 6.676 3.728 6.676 8.324 0 4.597-2.99 8.323-6.676 8.323H.669" mask="url(#prefix__bR)"/>
                </g>
                <path stroke="#CCA500" stroke-width="3.018" d="M125.055 55.596h-24.187c-9.206 0-16.668-9.007-16.668-20.116 0-11.107 7.462-20.114 16.668-20.114h7.276" transform="translate(1) translate(0 2) translate(943)"/>
                <g transform="translate(1) translate(0 2) translate(943) translate(66.946)">
                    <mask id="prefix__bT" fill="#fff">
                        <use xlink:href="#prefix__bS"/>
                    </mask>
                    <path stroke="#CCA500" stroke-width="3.018" d="M22.526 4.268h-7.924C6.604 4.268.122-3.416.122-12.897V-30.41" mask="url(#prefix__bT)"/>
                </g>
                <g transform="translate(1) translate(0 2) translate(943) translate(141.066)">
                    <mask id="prefix__bV" fill="#fff">
                        <use xlink:href="#prefix__bU"/>
                    </mask>
                    <path stroke="#CCA500" stroke-width="3.018" d="M1.127 4.268L1.115 -2.668" mask="url(#prefix__bV)"/>
                </g>
                <g transform="translate(1) translate(0 2) translate(943) translate(151.825)">
                    <mask id="prefix__bX" fill="#fff">
                        <use xlink:href="#prefix__bW"/>
                    </mask>
                    <path stroke="#CCA500" stroke-width="3.018" d="M0.91 4.268L0.898 -2.668" mask="url(#prefix__bX)"/>
                </g>
                <path stroke="#CCA500" stroke-width="3.018" d="M227.855 20.915L227.843 13.979M305.611 16.754L305.599 9.817M281.888 104.148L281.875 97.212M291.113 119.408L291.101 112.472M215.994 111.084L215.982 104.148M105.292 76.404l-.012-6.936M92.113 76.404l-.012-6.936M78.935 76.404l-.012-6.936" transform="translate(1) translate(0 2) translate(943)"/>
            </g>
        </g>
        <g transform="translate(1) translate(1000 2)">
            <mask id="prefix__bZ" fill="#fff">
                <use xlink:href="#prefix__bY"/>
            </mask>
            <path fill="#FFF8EA" d="M260 0v168H63.632C28.49 168 0 133.037 0 89.907 0 40.253 32.797 0 73.257 0H260z" mask="url(#prefix__bZ)"/>
        </g>
        <path fill="#D19C32" d="M0 168H1260V170H0zM0 0H1260V2H0z" transform="translate(1)"/>
        <g>
            <g transform="translate(1) translate(1011) translate(24 58)">
                <mask id="prefix__cb" fill="#fff">
                    <use xlink:href="#prefix__ca"/>
                </mask>
                <path fill="#BDA882" d="M200.7 36.379L141.15 1.626c-3.235-1.889-8.89-1.66-12.632.51L3.54 74.62c-3.74 2.17-4.152 5.459-.917 7.347l59.55 34.753c3.235 1.888 8.89 1.66 12.63-.51l124.98-72.486c3.74-2.17 4.15-5.458.916-7.346" mask="url(#prefix__cb)"/>
            </g>
            <path fill="#FCDDA4" d="M229.077 72.671l-61.726-35.96c-4.335-2.526-11.913-2.22-16.927.683L24.152 110.5c-5.014 2.903-5.564 7.303-1.23 9.829l61.728 35.96c4.334 2.526 11.912 2.22 16.925-.682L227.849 82.5c5.013-2.902 5.563-7.303 1.228-9.829" transform="translate(1) translate(1011)"/>
            <path fill="#5D3908" d="M160.525 35.685c-3.263 0-6.705.798-9.393 2.356L24.675 111.339c-2.53 1.467-3.981 3.387-3.984 5.268 0 1.532.976 2.946 2.755 3.983l61.817 36.055c4.239 2.473 11.688 2.166 16.605-.685l126.457-73.298c2.53-1.467 3.981-3.388 3.984-5.27 0-1.53-.976-2.944-2.755-3.981l-61.816-36.055c-1.922-1.121-4.506-1.67-7.213-1.67M92.475 159c-2.834 0-5.54-.577-7.559-1.753L23.1 121.193c-2-1.168-3.102-2.796-3.099-4.587.003-2.138 1.581-4.276 4.331-5.87l126.457-73.299c5.107-2.96 12.866-3.267 17.296-.683l61.817 36.053c2 1.168 3.102 2.796 3.099 4.587-.003 2.138-1.581 4.277-4.331 5.871l-126.457 73.298c-2.781 1.613-6.35 2.437-9.737 2.437" transform="translate(1) translate(1011)"/>
            <path fill="#5D3908" d="M231.988 78.014c-.038 1.93-1.43 3.956-4.138 5.54l-126.26 73.873c-5.013 2.933-12.59 3.242-16.925.689l-61.72-36.336c-2-1.178-2.945-2.76-2.908-4.41l-.012-.014L20 126.46l.014-.005c-.068 1.674.877 3.283 2.905 4.478l61.72 36.336c4.334 2.553 11.912 2.244 16.924-.689l126.261-73.873c2.83-1.656 4.236-3.795 4.146-5.803l.001.002L232 78l-.012.014" transform="translate(1) translate(1011)"/>
            <path fill="#5D3908" d="M20.691 126.343c.011.034.015.07.015.106-.065 1.595.906 3.061 2.737 4.129l61.81 36.065c4.238 2.475 11.685 2.168 16.603-.685L228.3 92.638c2.617-1.518 4.067-3.501 3.979-5.442-.002-.016-.001-.032 0-.048l.022-6.41c-.71 1.262-1.953 2.445-3.63 3.417l-126.445 73.321c-5.106 2.962-12.864 3.267-17.294.684l-61.81-36.066c-1.078-.628-1.892-1.392-2.413-2.244l-.018 6.493zM92.464 169c-2.833.001-5.54-.577-7.558-1.754l-61.81-36.066c-2.025-1.182-3.117-2.831-3.084-4.657-.008-.027-.012-.056-.012-.085l.025-9.037c0-.145.09-.275.226-.325.137-.052.288-.011.382.1.055.066.097.163.095.248-.038 1.57.935 3.015 2.74 4.068l61.811 36.065c4.238 2.475 11.687 2.167 16.603-.684l126.444-73.321c2.488-1.442 3.935-3.339 3.97-5.205.002-.089.037-.173.1-.237.097-.102.254-.139.383-.086.13.054.221.176.221.318l-.03 8.84v.014c.084 2.2-1.49 4.4-4.325 6.045L102.2 166.562c-2.78 1.613-6.348 2.438-9.736 2.438z" transform="translate(1) translate(1011)"/>
            <path fill="#FFF" d="M224.824 74.138l-59.421-34.855c-3.228-1.894-8.87-1.664-12.604.511l-124.707 72.7c-3.734 2.175-4.143 5.474-.916 7.368l59.422 34.855c3.228 1.894 8.87 1.664 12.603-.511l124.708-72.7c3.732-2.175 4.142-5.474.915-7.368" transform="translate(1) translate(1011)"/>
            <path fill="#FAD5A7" d="M106.303 105.21L71 84.632l10.921-6.366L195.895 54 209 61.672l-74.686 43.539c-8.667 5.052-19.345 5.052-28.011 0" transform="translate(1) translate(1011)"/>
            <path fill="#FCEACE" d="M224.824 74.138l-59.421-34.855c-3.228-1.894-8.87-1.664-12.604.511l-124.707 72.7c-3.734 2.175-4.143 5.474-.916 7.368l59.422 34.855c3.228 1.894 8.87 1.664 12.603-.511l124.708-72.7c3.732-2.175 4.142-5.474.915-7.368" transform="translate(1) translate(1011)"/>
            <path fill="#DEC88A" d="M134.465 105.174L206 63.116l-40.412-23.83c-3.216-1.898-8.839-1.668-12.558.512L74 86.113l16.984 9.985 15.437 9.076c8.677 5.101 19.367 5.101 28.044 0" transform="translate(1) translate(1011)"/>
            <path fill="#DEC88A" d="M174.02 105.071c-6.637 3.905-17.402 3.905-24.04 0-6.64-3.905-6.64-10.238-.001-14.142 6.639-3.905 17.403-3.905 24.042 0 6.639 3.905 6.639 10.237 0 14.142" transform="translate(1) translate(1011)"/>
            <path fill="#5D3908" d="M176.703 93.37c-8.396 5.175-22.01 5.175-30.406 0C142.1 90.783 140 87.391 140 84v3.749c0 3.39 2.1 6.781 6.297 9.37 8.397 5.175 22.01 5.175 30.406 0 4.199-2.588 6.297-5.98 6.297-9.37V84c0 3.391-2.098 6.783-6.297 9.37" transform="translate(1) translate(1011)"/>
            <path fill="#5D3908" d="M139.705 87.672v.28c0 3.257 2.19 6.337 6.164 8.67 8.344 4.895 21.92 4.895 30.262 0 3.976-2.333 6.165-5.413 6.164-8.67v-.279c-.98 2.25-2.962 4.306-5.811 5.977-8.538 5.01-22.43 5.01-30.967 0-2.85-1.673-4.831-3.728-5.812-5.978M161 101c-5.607 0-11.214-1.254-15.483-3.758-4.202-2.466-6.516-5.765-6.517-9.29v-3.594c0-.197.158-.358.352-.358.195 0 .353.161.353.358 0 3.26 2.19 6.34 6.164 8.672 8.344 4.896 21.92 4.895 30.262 0 3.975-2.331 6.164-5.411 6.164-8.671 0-.197.158-.358.353-.358.194 0 .352.16.352.358v3.593c0 3.525-2.313 6.824-6.516 9.29C172.214 99.746 166.607 101 161 101" transform="translate(1) translate(1011)"/>
            <path fill="#F9BF30" d="M176.703 94.34c-8.396 4.88-22.01 4.88-30.406 0-8.396-4.883-8.396-12.797 0-17.679 8.396-4.881 22.01-4.881 30.406 0 8.396 4.882 8.396 12.796 0 17.678" transform="translate(1) translate(1011)"/>
            <path fill="#5D3908" d="M161 73.676c-5.48 0-10.96 1.172-15.13 3.517-3.976 2.235-6.165 5.184-6.165 8.307s2.189 6.072 6.164 8.308c8.344 4.69 21.92 4.689 30.262 0 3.976-2.236 6.164-5.185 6.164-8.307 0-3.123-2.189-6.072-6.164-8.307-4.172-2.344-9.653-3.518-15.132-3.518M161.001 98c-5.608 0-11.215-1.199-15.484-3.598C141.314 92.04 139 88.877 139 85.5c0-3.377 2.314-6.54 6.517-8.9 8.536-4.8 22.428-4.8 30.966 0 4.203 2.36 6.517 5.523 6.517 8.901 0 3.377-2.314 6.54-6.516 8.9-4.27 2.4-9.877 3.599-15.483 3.599" transform="translate(1) translate(1011)"/>
            <g transform="translate(1) translate(1011) translate(0 176)">
                <mask id="prefix__cd" fill="#fff">
                    <use xlink:href="#prefix__cc"/>
                </mask>
            </g>
            <path fill="#E8A200" d="M176.777 76.607c-8.414-4.81-22.054-4.81-30.467 0-8.413 4.809-8.413 12.606 0 17.414 2.468 1.411 5.391 2.395 8.495 2.979L182 81.455c-1.02-1.772-2.758-3.439-5.223-4.848" transform="translate(1) translate(1011)"/>
            <path fill="#FFF" d="M155 87.628l1.373-.72c-.938-.541-1.358-1.09-1.259-1.649.1-.558.732-1.163 1.9-1.814l2.497.962c-.709.381-1.143.7-1.304.955-.161.256-.078.47.249.64.428.225.917.192 1.469-.097.308-.162.536-.34.685-.534.15-.194.236-.382.259-.562.023-.181.014-.413-.028-.695l-.138-.991c-.032-.24-.041-.447-.027-.623.014-.175.065-.367.152-.576.087-.207.242-.407.462-.6.22-.193.508-.382.862-.568.883-.463 1.834-.697 2.855-.702 1.02-.005 2.01.205 2.966.63l1.304-.684.723.38-1.296.68c.28.166.5.337.66.513.157.174.257.337.3.49.04.152.034.31-.018.472-.054.163-.132.308-.235.437-.103.13-.241.265-.414.405-.172.141-.338.263-.497.362-.158.1-.34.208-.54.324l-2.47-.998c.189-.104.343-.19.462-.26.12-.07.241-.148.366-.232.124-.085.214-.159.269-.22.055-.064.094-.129.117-.196.023-.068.01-.131-.038-.19-.048-.06-.13-.117-.245-.173-.225-.112-.487-.152-.786-.119-.299.034-.561.11-.786.228-.216.114-.387.23-.51.35-.125.122-.204.26-.238.416-.035.155-.052.276-.052.363 0 .087.009.227.027.42l.118.959c.027.265.028.506.003.721-.025.217-.09.443-.194.681-.102.238-.275.467-.52.69-.244.221-.556.433-.937.632-.764.4-1.646.616-2.645.646-1 .03-1.935-.14-2.805-.508L155.71 88l-.71-.372z" transform="translate(1) translate(1011)"/>
            <path fill="#BDA882" d="M201.02 166.071c-6.638 3.905-17.402 3.905-24.04 0-6.64-3.905-6.64-10.237-.001-14.142 6.639-3.905 17.403-3.905 24.042 0 6.639 3.906 6.639 10.237 0 14.142" transform="translate(1) translate(1011)"/>
            <path fill="#5D3908" d="M202.703 151.37c-8.396 5.175-22.01 5.175-30.406 0C168.1 148.783 166 145.39 166 142v3.748c0 3.392 2.1 6.782 6.297 9.37 8.397 5.176 22.01 5.176 30.406.001 4.199-2.589 6.297-5.98 6.297-9.371V142c0 3.391-2.1 6.783-6.297 9.37" transform="translate(1) translate(1011)"/>
            <path fill="#5D3908" d="M166.705 145.672v.28c0 3.257 2.19 6.337 6.164 8.67 8.345 4.895 21.92 4.895 30.262 0 3.975-2.333 6.164-5.411 6.164-8.67v-.28c-.98 2.25-2.962 4.307-5.811 5.978-8.539 5.01-22.43 5.009-30.967 0-2.85-1.673-4.831-3.728-5.812-5.978M188.001 159c-5.608 0-11.215-1.254-15.484-3.758-4.202-2.466-6.516-5.765-6.517-9.29v-3.594c0-.197.158-.358.352-.358.195 0 .353.161.353.358 0 3.26 2.19 6.34 6.164 8.672 8.344 4.896 21.92 4.896 30.262 0 3.975-2.332 6.164-5.412 6.164-8.672 0-.197.158-.358.353-.358.194 0 .352.161.352.358v3.594c0 3.525-2.314 6.824-6.516 9.29-4.269 2.504-9.876 3.758-15.483 3.758" transform="translate(1) translate(1011)"/>
            <path fill="#D19C32" d="M202.703 152.34c-8.396 4.88-22.01 4.88-30.406-.002-8.396-4.88-8.396-12.795 0-17.677 8.396-4.881 22.01-4.881 30.406 0 8.396 4.882 8.396 12.796 0 17.678" transform="translate(1) translate(1011)"/>
            <path fill="#5D3908" d="M188 131.677c-5.48 0-10.96 1.171-15.13 3.516-3.976 2.234-6.164 5.184-6.165 8.307 0 3.122 2.189 6.073 6.164 8.307 8.344 4.69 21.92 4.69 30.262 0 3.975-2.234 6.164-5.185 6.164-8.306 0-3.123-2.189-6.073-6.164-8.308-4.172-2.345-9.653-3.516-15.132-3.516m.002 24.323c-5.608 0-11.215-1.199-15.484-3.599-4.203-2.361-6.517-5.524-6.517-8.9 0-3.379 2.314-6.54 6.517-8.901 8.536-4.8 22.428-4.8 30.966 0 4.203 2.361 6.517 5.523 6.517 8.9 0 3.38-2.314 6.54-6.516 8.901-4.27 2.4-9.877 3.599-15.483 3.599" transform="translate(1) translate(1011)"/>
            <g transform="translate(1) translate(1011) translate(0 176)">
                <mask id="prefix__cf" fill="#fff">
                    <use xlink:href="#prefix__ce"/>
                </mask>
            </g>
            <path fill="#FFF" d="M181 147.627l1.373-.72c-.938-.54-1.358-1.09-1.259-1.648.099-.558.732-1.163 1.9-1.815l2.497.963c-.709.381-1.143.7-1.304.955-.161.256-.078.47.249.64.427.225.916.192 1.469-.097.308-.162.536-.34.685-.534.15-.194.236-.382.259-.562.023-.181.014-.413-.028-.695l-.138-.991c-.032-.24-.041-.447-.027-.623.014-.175.065-.368.152-.576.087-.207.242-.407.462-.6.22-.193.508-.382.862-.568.883-.463 1.834-.697 2.855-.702 1.02-.005 2.01.205 2.966.63l1.303-.684.724.38-1.296.68c.28.166.5.337.66.512.157.175.257.338.3.49.04.152.034.31-.018.473-.054.163-.132.308-.235.437-.104.13-.241.265-.414.405-.172.141-.338.263-.497.362-.158.1-.34.208-.54.324l-2.47-.998c.189-.104.343-.19.462-.261.12-.07.241-.147.366-.231.124-.085.214-.159.269-.221.055-.063.094-.129.117-.196.023-.068.01-.13-.038-.19-.048-.059-.13-.116-.245-.172-.225-.113-.487-.152-.786-.119-.299.034-.561.11-.786.228-.217.114-.387.23-.511.35-.124.122-.203.26-.237.416-.035.155-.052.276-.052.363 0 .087.009.227.027.42l.118.959c.027.265.028.505.003.721-.025.217-.09.442-.194.68-.102.238-.275.468-.52.69-.244.222-.556.433-.938.633-.763.4-1.645.616-2.644.646-1 .03-1.935-.14-2.805-.508l-1.386.727-.71-.373z" transform="translate(1) translate(1011)"/>
            <path fill="#5D3908" d="M224.205 66L164 32 231.868 35.126 236.084 39.068 237 44.982 236.328 49 234.311 53.882 232.295 57.705 230.035 60.571z" transform="translate(1) translate(1011)"/>
            <path fill="#5D3908" d="M165.748 32.733l58.182 32.52 5.587-5.151 2.205-2.772 1.964-3.697 1.97-4.723.65-3.851-.882-5.633-3.998-3.7-65.678-2.993zM223.98 66c-.059 0-.118-.015-.172-.045l-59.636-33.332c-.138-.077-.204-.235-.159-.382.045-.148.186-.252.347-.24l67.226 3.065c.083.003.163.037.223.092l4.176 3.865c.055.05.09.118.102.19l.908 5.798c.005.034.005.07 0 .104l-.667 3.939c-.004.024-.01.049-.02.071l-1.997 4.787-2.01 3.775-2.274 2.861-5.809 5.36c-.066.06-.151.092-.238.092z" transform="translate(1) translate(1011)"/>
            <path fill="#FCE0A8" d="M174.293.983c-.101-.063-.206-.123-.31-.18l-.02-.01h-.001c-2.392-1.285-5.639-1.051-9.214 1.02L83 49.147c.348.262.655.576.94.917l3.1-1.794 16.542 36.055 8.563 11.724 5.587 1.95 32.795-17.694 53.9-30.91 19.768-11.91 5.162-1.645 4.643-.276L174.293.983z" transform="translate(1) translate(1011)"/>
            <g transform="translate(1) translate(1011) translate(82)">
                <mask id="prefix__ch" fill="#fff">
                    <use xlink:href="#prefix__cg"/>
                </mask>
                <path fill="#5D3908" d="M30.099 95.995l5.33 1.857 32.583-17.564 53.766-30.805 19.716-11.868c.023-.013.048-.025.073-.033l5.15-1.64c.027-.008.055-.013.084-.015l3.483-.207-58.57-33.894-.008-.004c-.096-.06-.193-.116-.293-.17l-.02-.011C89.014.368 85.87.725 82.536 2.653L1.408 49.588c.137.127.273.267.411.42l2.845-1.645c.084-.05.184-.06.277-.03.093.029.169.095.21.184L21.64 84.424l8.459 11.571zm5.359 2.581c-.039 0-.077-.006-.113-.02l-5.575-1.94c-.066-.025-.124-.068-.165-.123L21.06 84.805c-.013-.02-.025-.04-.035-.06L4.681 49.15 1.918 50.75c-.144.084-.33.052-.438-.077-.3-.36-.589-.641-.88-.86-.093-.07-.144-.181-.138-.298.007-.115.072-.22.173-.279L82.19 2.054C85.73.006 89.104-.359 91.699 1.021c.013.005.025.012.038.019.113.062.22.124.327.19l59.563 34.468c.132.076.199.23.163.379-.035.149-.163.257-.315.265l-4.59.274-5.07 1.614-19.687 11.85-53.78 30.813-32.726 17.642c-.051.027-.107.041-.164.041z" mask="url(#prefix__ch)"/>
            </g>
            <path fill="#5D3908" d="M63.265 31C55.95 35.283 50 45.737 50 54.304c0 4.136 1.39 7.083 3.648 8.547l.003.004.036.021c.134.086.271.166.41.241L113.617 98l-3.645-6.68.425-6.672 1.152-3.75 1.757-3.997s1.455-2.736 1.546-2.798c.091-.06 2.152-2.766 2.152-2.766l2.004-2.122 2.179-1.413L123 65.999 63.265 31z" transform="translate(1) translate(1011)"/>
            <path fill="#5D3908" d="M54.22 62.063c.157.098.28.17.404.237l58.697 34.408-3.055-5.6c-.032-.06-.046-.126-.042-.194l.426-6.699c.002-.028.007-.056.014-.083l1.157-3.767 1.78-4.053c1.513-2.848 1.588-2.899 1.676-2.959.093-.107 1.331-1.719 2.08-2.702l2.036-2.158c.019-.02.04-.038.063-.053l2.158-1.402 1.47-1.46-59.416-34.819c-7.17 4.309-12.974 14.575-12.974 23 0 3.879 1.244 6.823 3.503 8.289.008.004.015.009.023.015M114.23 98c-.06 0-.12-.016-.174-.048L54.288 62.915c-.137-.074-.282-.158-.424-.248l-.04-.028v.001C51.357 61.041 50 57.887 50 53.758c0-8.716 6.054-19.352 13.493-23.71.108-.064.24-.064.347 0L123.826 65.2c.095.054.158.15.171.26.014.11-.023.22-.101.296l-1.822 1.81c-.017.017-.035.031-.055.045l-2.154 1.398-1.983 2.1c-1.6 2.102-2.016 2.62-2.151 2.765-.111.152-.86 1.529-1.508 2.748l-1.753 3.99-1.13 3.69-.417 6.554 3.61 6.62c.075.138.051.311-.06.42-.067.068-.155.103-.244.103" transform="translate(1) translate(1011)"/>
            <path fill="#5D3908" d="M223.73 67.14v-1.485c6.622-3.904 12.01-13.434 12.01-21.243 0-7.808-5.388-10.985-12.01-7.08L122.27 97.155c-7.318 4.314-13.27.805-13.27-7.824s5.952-19.158 13.27-23.472v1.487c-6.623 3.904-12.01 13.432-12.01 21.241 0 7.81 5.387 10.986 12.01 7.081l101.46-59.823c7.318-4.314 13.27-.805 13.27 7.824 0 8.628-5.952 19.158-13.27 23.472" transform="translate(1) translate(1011)"/>
            <g transform="translate(1) translate(1011) translate(109 33)">
                <mask id="prefix__cj" fill="#fff">
                    <use xlink:href="#prefix__ci"/>
                </mask>
                <path fill="#5D3908" d="M13.383 32.791C6.417 37.205.834 47.244.834 55.51c0 4.018 1.317 7.005 3.71 8.41 2.39 1.407 5.592 1.075 9.011-.936l101.22-59.48c3.305-1.942 6.434-2.246 8.812-.847 2.376 1.396 3.685 4.305 3.685 8.19 0 7.81-5.358 17.323-11.98 21.323v.657c6.965-4.413 12.548-14.454 12.548-22.718 0-4.018-1.317-7.005-3.71-8.41-2.39-1.406-5.59-1.073-9.01.935L13.9 62.113c-3.306 1.944-6.436 2.245-8.813.847-2.377-1.396-3.685-4.305-3.685-8.19 0-7.809 5.358-17.322 11.98-21.322v-.657zM7.826 65.48c-1.322 0-2.545-.316-3.627-.951C1.584 62.99.145 59.788.145 55.509c0-8.691 6.015-19.296 13.41-23.641.106-.063.239-.063.345 0 .106.062.173.177.173.303v1.478c0 .125-.067.24-.173.303C7.39 37.78 2.091 47.118 2.091 54.77c0 3.625 1.187 6.318 3.341 7.583 2.155 1.267 5.04.966 8.123-.846l101.22-59.48c3.64-2.14 7.086-2.474 9.7-.937 2.615 1.537 4.055 4.74 4.055 9.02 0 8.69-6.016 19.296-13.41 23.64-.107.064-.24.064-.345 0-.107-.062-.173-.178-.173-.303v-1.478c0-.126.066-.242.173-.304 6.51-3.826 11.808-13.164 11.808-20.817 0-3.625-1.187-6.317-3.341-7.583-2.155-1.267-5.041-.965-8.122.847L13.9 63.59c-2.135 1.254-4.202 1.888-6.074 1.888z" mask="url(#prefix__cj)"/>
            </g>
            <path fill="#5D3908" d="M138 42.16l6.196-3.953-1.566-.58.983-.627c1.05.335 1.844.487 2.382.455l1.005.642L139.316 43 138 42.16zM144.975 44.434c-.7-.422-1.023-.85-.97-1.286.054-.435.434-.865 1.14-1.291l.28-.168 1.345.81-.218.13c-.392.243-.632.452-.723.627-.088.174.004.343.278.508.12.072.244.122.372.15.127.028.249.037.363.028.116-.008.244-.038.382-.09.138-.051.27-.108.392-.17.124-.063.268-.144.432-.243.417-.251.666-.482.747-.695.082-.213-.036-.428-.355-.642l-.1-.064-.098-.061 1.127-.679c.1.06.161.096.184.106.356.203.69.295 1 .275.312-.02.664-.149 1.059-.387.347-.208.554-.397.622-.566.068-.167-.032-.332-.3-.494-.114-.069-.231-.117-.354-.144-.12-.028-.238-.038-.351-.03-.115.008-.235.032-.365.074-.128.043-.252.091-.367.147-.115.057-.244.125-.386.206l-.264.16-1.345-.81.364-.219c.669-.403 1.366-.608 2.088-.616.723-.007 1.41.186 2.064.58.659.396.986.81.982 1.24-.005.431-.34.847-1.006 1.247-.445.27-.912.435-1.401.497-.489.063-.94.025-1.349-.112.221.274.264.562.13.863-.134.302-.459.607-.973.916-.747.451-1.496.704-2.244.76-.748.055-1.474-.131-2.182-.557M150.002 47.484c-.397-.216-.675-.429-.836-.638-.16-.211-.205-.417-.132-.62.073-.203.22-.399.442-.588.22-.19.528-.392.92-.606l1.36.741c-.22.12-.396.225-.526.314-.13.088-.24.184-.33.286-.088.101-.115.199-.08.293.037.094.136.183.298.268.101.055.208.094.32.116.112.022.215.034.31.038.098.001.213-.014.348-.049.135-.034.25-.067.343-.1.094-.03.221-.086.38-.164.16-.078.289-.143.388-.196.099-.051.243-.128.432-.231.205-.112.37-.207.499-.286.129-.079.25-.166.364-.26.113-.093.185-.177.214-.25.029-.072.022-.148-.02-.228-.043-.08-.13-.155-.263-.228-.192-.104-.418-.157-.68-.158-.262-.002-.524.04-.788.123l-1.189-.648L156.33 42 160 44.001l-1.263.689-2.486-1.356-1.989.994c.225-.005.469.024.731.087.264.064.514.157.752.28.327.164.554.34.677.529.123.186.146.38.066.577-.08.197-.236.397-.468.598-.233.202-.542.407-.928.617-.358.196-.694.36-1.008.494-.314.134-.647.246-1 .338-.356.092-.694.142-1.017.151-.324.008-.664-.03-1.02-.112-.356-.083-.704-.216-1.045-.403M154.088 50.763l.783-.455c-1.268-.79-1.151-1.661.35-2.616l1.532.583c-1.025.63-1.25 1.11-.677 1.444.221.128.451.184.692.168.24-.018.474-.092.7-.224.17-.098.305-.2.403-.302.1-.102.168-.213.205-.333.036-.12.057-.232.06-.334.003-.102-.005-.233-.024-.394l-.135-1.134c-.038-.334.013-.63.151-.886.14-.256.427-.51.863-.763.589-.343 1.223-.515 1.902-.517.678-.002 1.329.157 1.949.478l.74-.43.418.242-.74.43c.291.196.488.393.59.592.103.2.116.396.04.59-.077.193-.2.375-.369.546-.167.17-.39.348-.664.534l-1.489-.581c.154-.097.283-.184.387-.26.103-.078.199-.162.285-.253.087-.092.14-.175.16-.25.023-.075.009-.153-.04-.234-.048-.08-.14-.154-.278-.223-.227-.118-.463-.172-.706-.162-.243.01-.473.077-.691.204-.257.15-.417.3-.48.452-.065.153-.086.347-.063.584l.134 1.128c.016.192.016.368-.002.529-.018.16-.062.33-.134.508-.073.178-.192.35-.358.519-.166.166-.376.324-.63.471-.531.31-1.13.474-1.795.497-.666.023-1.29-.102-1.868-.372l-.793.461-.408-.237z" transform="translate(1) translate(1011)"/>
            <path fill="#BDA882" d="M52.226 87.318L23.744 71.416c-1.136-.633-3.11-.532-4.406.226l-16.274 9.52c-1.297.758-1.426 1.886-.29 2.52l28.482 15.902c1.137.633 3.11.532 4.406-.227l16.274-9.519c1.297-.758 1.426-1.886.29-2.52" transform="translate(1) translate(1011)"/>
            <path fill="#5D3908" d="M31.15 94.528L1.916 78.372c-.578-.32-.854-.752-.868-1.208l-.015.012L1 73.982s1.026.827 1.631 1.31l18.215-10.564c1.483-.86 3.737-.974 5.036-.257l27.943 15.443 2.137-1.24.038 3.223-.012-.01c-.009.552-.405 1.135-1.203 1.598L36.186 94.272c-1.482.86-3.737.974-5.036.256" transform="translate(1) translate(1011)"/>
            <path fill="#5D3908" d="M31.285 93.878c1.185.67 3.263.557 4.631-.255l18.368-10.896c.642-.379 1.014-.861 1.02-1.322.002-.028.004-.054.011-.08l-.03-2.562-1.601.95c-.107.061-.236.063-.342.004L25.747 64.12c-1.185-.669-3.264-.555-4.63.256l-17.99 10.67c-.123.073-.279.06-.39-.031l-1.047-.859.024 2.383c.01.028.016.059.017.09.014.458.38.76.684.932l28.87 16.316zM33.228 95c-.846 0-1.655-.172-2.278-.525L2.08 78.159c-.604-.342-.964-.83-1.023-1.388-.016-.036-.024-.075-.025-.115L1 73.43c-.001-.133.074-.255.194-.313.12-.056.261-.039.364.045l1.427 1.171 17.783-10.548c1.583-.937 3.916-1.052 5.315-.262l27.423 15.498 1.941-1.152c.106-.062.235-.064.342-.003.106.06.172.172.173.294L56 81.416c0 .04-.006.078-.018.114-.057.672-.532 1.303-1.35 1.789L36.265 94.213c-.877.52-1.986.787-3.037.787z" transform="translate(1) translate(1011)"/>
            <path fill="#D19C32" d="M55.115 75.628l-29.25-16.156c-1.3-.718-3.556-.604-5.039.256L2.216 70.515c-1.482.86-1.63 2.14-.33 2.857l29.25 16.156c1.3.718 3.555.604 5.038-.256l18.609-10.787c1.483-.86 1.631-2.14.332-2.857" transform="translate(1) translate(1011)"/>
            <path fill="#5D3908" d="M23.792 58.685c-.933 0-1.927.236-2.696.693L2.718 70.27c-.662.393-1.04.882-1.035 1.345.006.458.384.768.701.948L31.27 88.878c1.186.67 3.265.557 4.634-.255l18.378-10.895c.662-.392 1.039-.882 1.034-1.342-.005-.46-.384-.769-.7-.948L25.73 59.122c-.52-.293-1.21-.437-1.938-.437M33.213 90c-.846 0-1.655-.172-2.278-.525L2.048 73.16c-.669-.38-1.042-.926-1.048-1.539-.007-.713.492-1.42 1.37-1.94l18.377-10.895c1.583-.939 3.92-1.052 5.318-.262L54.95 74.841c.67.379 1.043.924 1.049 1.536.007.714-.492 1.421-1.37 1.942L36.254 89.213c-.878.52-1.987.787-3.04.787" transform="translate(1) translate(1011)"/>
            <path fill="#FFF" d="M24.278 72.541c.97-.596.961-1.545-.02-2.12-.983-.576-2.566-.559-3.537.038-.97.596-.96 1.545.022 2.121.982.575 2.565.557 3.535-.039M30.279 75.541c.97-.596.96-1.546-.022-2.12-.982-.576-2.565-.559-3.535.038-.97.596-.961 1.545.02 2.121.983.575 2.566.558 3.537-.039M35.278 78.541c.97-.596.961-1.545-.02-2.12-.983-.576-2.566-.559-3.536.038-.971.596-.961 1.545.021 2.121.982.575 2.565.558 3.535-.039" transform="translate(1) translate(1011)"/>
            <path fill="#DEC88A" d="M86.02 135.071c-6.638 3.905-17.402 3.905-24.04 0-6.64-3.905-6.64-10.237 0-14.142 6.638-3.906 17.401-3.905 24.04 0 6.64 3.905 6.64 10.238 0 14.142" transform="translate(1) translate(1011)"/>
            <path fill="#5D3908" d="M92 117v-3.503h-.981c-.88-1.561-2.347-3.032-4.438-4.275-7.225-4.296-18.939-4.296-26.164 0-2.091 1.243-3.557 2.714-4.438 4.275H55v3.474c-.011 2.825 1.793 5.652 5.417 7.807 7.225 4.296 18.94 4.296 26.165 0C90.194 122.631 92 119.815 92 117" transform="translate(1) translate(1011)"/>
            <path fill="#5D3908" d="M55.674 114.296v3.175c-.011 2.863 1.87 5.57 5.297 7.618 7.185 4.295 18.874 4.295 26.057 0 3.416-2.043 5.298-4.737 5.298-7.59v-3.203h-.652c-.12 0-.232-.067-.292-.175-.9-1.604-2.364-3.02-4.354-4.21-7.184-4.297-18.872-4.297-26.057 0-1.99 1.19-3.456 2.606-4.355 4.21-.06.108-.171.175-.291.175h-.65zM74 129c-4.84 0-9.68-1.102-13.366-3.306-3.646-2.18-5.647-5.1-5.633-8.225L55 113.946c0-.093.036-.181.098-.247.064-.065.15-.102.24-.102h.795c.965-1.638 2.478-3.082 4.5-4.292 7.37-4.406 19.362-4.408 26.732 0 2.022 1.21 3.535 2.653 4.5 4.292h.798c.187 0 .337.157.337.35v3.552c0 3.112-2 6.023-5.634 8.195C83.68 127.898 78.84 129 74 129z" transform="translate(1) translate(1011)"/>
            <path fill="#F9BF30" d="M86.582 121.778c-7.226 4.296-18.938 4.296-26.164 0-7.224-4.296-7.224-11.26 0-15.556 7.225-4.296 18.938-4.296 26.163 0 7.225 4.296 7.225 11.261 0 15.556" transform="translate(1) translate(1011)"/>
            <path fill="#5D3908" d="M74 103.69c-4.718 0-9.435 1.073-13.028 3.221-3.416 2.043-5.298 4.737-5.298 7.59 0 2.85 1.882 5.546 5.298 7.59 7.185 4.295 18.874 4.295 26.057 0 3.416-2.043 5.297-4.74 5.297-7.59 0-2.853-1.882-5.547-5.298-7.59-3.592-2.148-8.31-3.222-13.028-3.222zm.001 22.31c-4.84 0-9.68-1.101-13.366-3.306C57 120.521 55 117.612 55 114.5c0-3.11 2.001-6.021 5.635-8.194 7.369-4.407 19.36-4.41 26.73 0C91 108.48 93 111.39 93 114.5c0 3.112-2 6.021-5.634 8.196C83.68 124.899 78.84 126 74 126z" transform="translate(1) translate(1011)"/>
            <path fill="#FFF" d="M64.507 118.747c-.323-.163-.508-.383-.507-.614l.02-6.269c0-.478.778-.865 1.735-.864.958 0 1.731.388 1.73.867l-.015 5.198 17.436-1.847c.937-.1 1.856.2 2.056.667.199.468-.401.928-1.336 1.027l-19.533 2.07c-.513.053-1.046-.01-1.452-.175l-.134-.06" transform="translate(1) translate(1011)"/>
        </g>
    </g>
</svg>
