<svg xmlns="http://www.w3.org/2000/svg" width="64" height="60" viewBox="0 0 64 60">
    <g fill="none">
        <path fill="#D19C32" d="M36 2v26l-17.07-1.067L6 18.603C10.629 7.396 21.628 0 33.984 0 35.097 0 36 .896 36 2z"/>
        <path fill="#CCA500" d="M64 30c0 15.91-12.566 28.907-28.48 29.933-.672.044-1.35.067-2.034.067A30.862 30.862 0 0119 56.41l4.055-16.277L35.52 28h26.445c1.123 0 2.034.896 2.034 2z"/>
        <path fill="#5D3908" d="M64 30.004C64 45.948 51.645 58.971 36 60V28h26c1.104 0 2 .898 2 2.004z"/>
        <path fill="#7C6617" d="M36 27.304l-17.267 30.74a1.98 1.98 0 01-2.757.645C6.269 52.501 0 41.57 0 29.34c0-3.742.584-7.426 1.736-10.946.35-1.066 1.483-1.644 2.53-1.288L36 27.304z"/>
    </g>
</svg>
