<svg xmlns="http://www.w3.org/2000/svg" width="90" height="80" viewBox="0 0 90 80">
    <g fill="none" fill-rule="evenodd">
        <path fill="#FFF" d="M0 0H90V80H0z"/>
        <g fill-rule="nonzero">
            <path fill="#D19C32" d="M66 44.936v9.704c0 .751-.608 1.36-1.357 1.36H41V44.936A5.931 5.931 0 0146.927 39h13.146A5.931 5.931 0 0166 44.936z" transform="translate(12 10)"/>
            <path fill="#84601A" d="M50 45.179V56h-9V44.936C41 41.657 43.55 39 46.697 39h1.09A9.64 9.64 0 0150 45.179z" transform="translate(12 10)"/>
            <path fill="#564023" d="M54 42c-1.104 0-2-.824-2-1.84V35h4v5.16c0 1.016-.896 1.84-2 1.84z" transform="translate(12 10)"/>
            <path fill="#1E1E1E" d="M42.767 27h20.465l.54-2.826C65.17 16.854 59.96 10 53 10c-6.96 0-12.17 6.854-10.772 14.174l.54 2.826z" transform="translate(12 10)"/>
            <path fill="#664C2B" d="M65 28.5a2.5 2.5 0 11-5 0 2.5 2.5 0 015 0z" transform="translate(12 10)"/>
            <path fill="#846237" d="M47 28.5a2.5 2.5 0 11-5 0 2.5 2.5 0 015 0z" transform="translate(12 10)"/>
            <path fill="#5D3908" d="M47 28.256a4.485 4.485 0 01-2.463.744A4.5 4.5 0 0142 28.207C42.28 26.94 43.29 26 44.495 26c1.22 0 2.24.964 2.505 2.256z" transform="translate(12 10)"/>
            <path fill="#916D3F" d="M45 20l.926 7.59.35 2.88C46.733 34.2 49.83 37 53.5 37c3.671 0 6.769-2.8 7.223-6.53L62 20H45z" transform="translate(12 10)"/>
            <path fill="#5D3908" d="M50 23.595c0 2.081-1.67 3.843-3.95 4.405L45 21h4.035c.609.74.965 1.633.965 2.595z" transform="translate(12 10)"/>
            <path fill="#000" d="M50.005 29c-.537 0-.978-.355-.993-.803l-.012-.35c-.015-.455.418-.834.967-.847.55-.014 1.006.347 1.021.803l.012.35c.015.455-.418.834-.967.847h-.028zM58.006 29c-.537 0-.979-.355-.994-.803l-.012-.35c-.015-.455.418-.834.967-.847.55-.014 1.006.347 1.021.803l.012.35c.015.455-.418.834-.967.847h-.027zM46 57c-.552 0-1-.444-1-.991v-9.017A.996.996 0 0146 46c.552 0 1 .444 1 .992v9.017A.995.995 0 0146 57z" transform="translate(12 10)"/>
            <path fill="#84601A" d="M62 46.991V56h-2v-9.009A.996.996 0 0161 46c.553 0 1 .444 1 .991z" transform="translate(12 10)"/>
            <path fill="#AF834B" d="M25 44.936V56H1.357C.607 56 0 55.391 0 54.64v-9.704A5.931 5.931 0 015.927 39h13.146A5.931 5.931 0 0125 44.936z" transform="translate(12 10)"/>
            <path fill="#6D522F" d="M25 44.936V56h-9V45.179c0-2.36.834-4.52 2.213-6.179h1.09C22.449 39 25 41.657 25 44.936z" transform="translate(12 10)"/>
            <path fill="#564023" d="M12 42c-1.105 0-2-.824-2-1.84V35h4v5.16c0 1.016-.896 1.84-2 1.84z" transform="translate(12 10)"/>
            <path fill="#1E1E1E" d="M2.767 27h20.465l.54-2.826C25.17 16.854 19.961 10 13 10 6.04 10 .83 16.854 2.228 24.174L2.768 27z" transform="translate(12 10)"/>
            <path fill="#664C2B" d="M24 28.5a2.5 2.5 0 11-5 0 2.5 2.5 0 015 0z" transform="translate(12 10)"/>
            <path fill="#5D3908" d="M24 28.257a4.496 4.496 0 01-2.462.743c-.926 0-1.795-.29-2.538-.793C19.28 26.94 20.29 26 21.495 26c1.22 0 2.242.964 2.505 2.257z" transform="translate(12 10)"/>
            <path fill="#61492A" d="M6 28.5a2.5 2.5 0 11-5 0 2.5 2.5 0 015 0z" transform="translate(12 10)"/>
            <path fill="#916D3F" d="M4 20l1.277 10.47C5.733 34.2 8.828 37 12.5 37c3.672 0 6.767-2.8 7.223-6.53l.355-2.905L21 20H4z" transform="translate(12 10)"/>
            <path fill="#5D3908" d="M16.65 20a4.394 4.394 0 00-.65 2.286c0 2.208 1.68 4.083 3.992 4.714L21 20h-4.35z" transform="translate(12 10)"/>
            <path fill="#000" d="M9.005 29c-.536 0-.978-.355-.993-.803L8 27.847c-.015-.455.418-.834.967-.847.551-.014 1.006.347 1.021.803l.012.35c.015.455-.418.834-.967.847h-.028zM17.005 29c-.536 0-.978-.355-.993-.803l-.012-.35c-.015-.455.418-.834.967-.847.552-.014 1.006.347 1.021.803l.012.35c.015.455-.418.834-.967.847h-.028z" transform="translate(12 10)"/>
            <path fill="#6D522F" d="M6 46.991V56H4v-9.009A.995.995 0 015 46c.552 0 1 .444 1 .991z" transform="translate(12 10)"/>
            <path fill="#000" d="M20 57c-.552 0-1-.444-1-.991v-9.017A.996.996 0 0120 46c.552 0 1 .444 1 .992v9.017A.996.996 0 0120 57z" transform="translate(12 10)"/>
            <path fill="#D19C32" d="M49 45.683v12.981c0 .738-.59 1.336-1.319 1.336H18.319A1.327 1.327 0 0117 58.664V45.683C17 41.439 20.396 38 24.587 38h16.826C45.603 38 49 41.44 49 45.683z" transform="translate(12 10)"/>
            <path fill="#7C6617" d="M23 42.228v2.095c0 .486.351.88.785.88.522 0 .9.563.753 1.126l-.631 2.438a.969.969 0 00.125.772L27 54V38l-3.724 3.558a.927.927 0 00-.276.67zM44 42.228v2.095c0 .486-.351.88-.785.88-.523 0-.9.563-.753 1.126l.63 2.438a.967.967 0 01-.124.772L40 54V38l3.724 3.558a.927.927 0 01.276.67z" transform="translate(12 10)"/>
            <path fill="#5D3908" d="M27 38L39 38 39 60 27 60z" transform="translate(12 10)"/>
            <path fill="#7C6617" d="M49 45.681v12.983c0 .738-.58 1.336-1.297 1.336H46.46V45.683C46.459 41.44 43.119 38 39 38h2.543C45.66 38 49 41.439 49 45.681z" transform="translate(12 10)"/>
            <path fill="#916C3D" d="M33.5 43c-1.38 0-2.5-1.177-2.5-2.628V33h5v7.372C36 41.823 34.88 43 33.5 43z" transform="translate(12 10)"/>
            <path fill="#000" d="M20.012 22h26.976l.712-3.657C49.542 8.871 42.675 0 33.5 0c-9.176 0-16.042 8.87-14.2 18.343L20.012 22z" transform="translate(12 10)"/>
            <path fill="#AF834B" d="M48 22.5a3.5 3.5 0 11-7 0 3.5 3.5 0 017 0zM25 22.5a3.5 3.5 0 11-7 0 3.5 3.5 0 017 0z" transform="translate(12 10)"/>
            <path fill="#AF834B" d="M23.034 17.919l1.083 8.736C24.708 31.422 28.731 35 33.5 35c4.77 0 8.792-3.578 9.383-8.345l1.083-8.736C44.29 15.307 42.268 13 39.656 13H27.345c-2.613 0-4.635 2.307-4.31 4.919z" transform="translate(12 10)"/>
            <path fill="#000" d="M28.007 23c-.535 0-.977-.336-.992-.76L27 21.803c-.015-.432.417-.79.965-.803.544-.012 1.005.329 1.02.76l.015.436c.015.432-.417.792-.965.804h-.028zM38.007 23c-.536 0-.977-.336-.992-.76L37 21.803c-.015-.432.417-.79.965-.803.543-.012 1.004.329 1.02.76l.015.436c.015.432-.417.792-.965.804h-.028z" transform="translate(12 10)"/>
            <path fill="#7C6617" d="M24 52.01V60h-2v-7.99c0-.557.448-1.01 1-1.01s1 .453 1 1.01zM44 52.01V60h-2v-7.99c0-.557.448-1.01 1-1.01s1 .453 1 1.01z" transform="translate(12 10)"/>
        </g>
    </g>
</svg>
