<svg xmlns="http://www.w3.org/2000/svg" width="90" height="80" viewBox="0 0 90 80">
    <g fill="none" fill-rule="evenodd">
        <path fill="#FFF" d="M0 0H90V80H0z"/>
        <g fill-rule="nonzero" transform="translate(10 10)">
            <path fill="#DBD9DC" d="M65.056 34.312l-5.987-2.35H37.817l-5.988 2.35a5.783 5.783 0 00-3.67 5.613l.728 18.109a1.93 1.93 0 001.93 1.85H66.07a1.93 1.93 0 001.93-1.85l.727-18.109a5.783 5.783 0 00-3.67-5.613z"/>
            <path fill="#5D5360" d="M47.032 38.679L45.796 59.885 51.089 59.885 49.853 38.679z"/>
            <path fill="#4B3F4E" d="M49.266 39.643H47.62c-.613 0-1.11-.496-1.11-1.107v-2.749h3.865v2.75c0 .61-.497 1.106-1.11 1.106z"/>
            <path fill="#B48764" d="M41.681 24.22H55.205999999999996V35.787H41.681z"/>
            <path fill="#966D50" d="M41.68 27.82a11.562 11.562 0 0013.525 0v-3.6H41.68v3.6z"/>
            <path fill="#000" d="M48.443.153c-4.823.26-7.567 2.892-7.567 2.892s-4.026 0-4.026 4.82c0 3.855.966 7.68.966 7.68h22.219C61.967 4.943 57.379-.329 48.443.153z"/>
            <path fill="#000" d="M42.647 11.568c-3.549-4.427-1.771-8.523-1.771-8.523s-4.025 0-4.025 4.82c0 3.855.966 7.68.966 7.68h4.83v-3.977z"/>
            <path fill="#C39772" d="M59.069 14.582h-.966l-1.273-2.318a.972.972 0 00-1.03-.479c-6.363 1.161-10.544-.314-12.128-1.053a.951.951 0 00-1.176.306 20.373 20.373 0 01-2.704 3.03c-.359.33-.825.514-1.313.514h-.695-.002a1.893 1.893 0 00-.324.034c-.94.181-1.573 1.078-1.573 2.034v.698c0 .922.591 1.792 1.491 2.002.203.047.4.06.589.045.48-.038.9.31.986.784a9.647 9.647 0 009.492 7.897 9.647 9.647 0 009.492-7.897.938.938 0 01.935-.778h.2A1.93 1.93 0 0061 17.473v-.964a1.93 1.93 0 00-1.932-1.927z"/>
            <path fill="#B48764" d="M42.647 18.437V10.89c-.053.047-.109.089-.151.148a20.373 20.373 0 01-2.704 3.03c-.359.33-.825.514-1.313.514h-.695-.002a1.893 1.893 0 00-.324.034c-.94.181-1.573 1.078-1.573 2.034v.698c0 .922.591 1.792 1.491 2.002.203.047.4.06.589.045.48-.038.9.31.986.784a9.647 9.647 0 009.492 7.897 9.69 9.69 0 001.915-.196c-4.4-.9-7.711-4.786-7.711-9.443z"/>
            <g fill="#EDEBED">
                <path d="M10.722 6.484L3.674.33a.967.967 0 00-1.32.044L.095 2.628l4.49 6.719a1.935 1.935 0 002.973.294l3.164-3.157z" transform="translate(37.721 29.334)"/>
                <path d="M10.722 6.484L17.77.33a.967.967 0 011.319.044l2.259 2.254-4.49 6.719a1.935 1.935 0 01-2.973.294l-3.163-3.157zM25.944 11.537l4.202-4.193c.587.954.906 2.075.859 3.248L30.278 28.7a1.93 1.93 0 01-1.93 1.851h-4.102V15.627c0-1.534.61-3.005 1.698-4.09zM1.205 18.02h4.543c.613 0 1.11-.495 1.11-1.106v-.679c0-.61-.497-1.106-1.11-1.106H1.205c-.613 0-1.11.495-1.11 1.106v.679c0 .61.497 1.106 1.11 1.106z" transform="translate(37.721 29.334)"/>
            </g>
            <path fill="#5D5360" d="M31.3 39.985l-5.212-2.27H8.689l-5.212 2.27A5.782 5.782 0 00.005 45.53L.537 58.04a1.93 1.93 0 001.93 1.846H32.31a1.93 1.93 0 001.93-1.846l.532-12.509a5.783 5.783 0 00-3.473-5.545z"/>
            <path fill="#E6AF78" d="M12.558 30.968H22.218V40.607H12.558z"/>
            <path fill="#D29B6E" d="M12.558 33.768a11.572 11.572 0 009.66 0v-2.8h-9.66v2.8z"/>
            <ellipse cx="17.388" cy="5.906" fill="#555" rx="5.796" ry="5.784"/>
            <ellipse cx="17.388" cy="16.027" fill="#000" rx="11.593" ry="11.085"/>
            <path fill="#000" d="M13.524 17.473c-3.864-3.855-4.441-7.18-4.35-9.265-2.087 2.004-3.378 4.767-3.378 7.82 0 2.09.608 4.042 1.661 5.708l6.067-4.263z"/>
            <path fill="#F0C087" d="M28.403 19.441c-.078-.025-.554-.04-.554-.04a1.934 1.934 0 01-1.366-.565l-.834-.832a1.918 1.918 0 00-1.25-.56c-1.88-.106-7.094-.572-11.236-2.6-.443-.217-.983-.099-1.248.315-1.085 1.695-2.428 3.04-3.18 3.732-.359.329-.824.51-1.31.51h-.696-.001a1.91 1.91 0 00-.324.034c-.94.182-1.574 1.079-1.574 2.034v.698c0 .922.592 1.792 1.492 2.002.202.047.4.06.588.045.48-.038.9.31.986.784a9.647 9.647 0 009.492 7.897 9.647 9.647 0 009.492-7.897c.087-.473.506-.822.987-.784.188.015.386.002.588-.045.9-.21 1.492-1.08 1.492-2.002v-.878c0-.907-.68-1.568-1.544-1.848z"/>
            <path fill="#E6AF78" d="M11.592 23.257v-7.62a20.266 20.266 0 01-2.858 3.254c-.358.329-.823.51-1.31.51H6.73h-.001a1.893 1.893 0 00-.324.035c-.94.18-1.574 1.078-1.574 2.033v.699c0 .922.592 1.791 1.492 2.001.202.047.4.06.588.046.48-.039.9.31.986.783a9.647 9.647 0 009.493 7.897c.656 0 1.295-.071 1.915-.196-4.401-.9-7.712-4.785-7.712-9.442z"/>
            <g fill="#6F6571">
                <path d="M5.195 10.384l-3.53-4.226a5.761 5.761 0 00-1.66 4.279l.531 12.508a1.93 1.93 0 001.93 1.846h4.296V14.704a6.738 6.738 0 00-1.567-4.32zM29.582 10.384l3.53-4.226a5.761 5.761 0 011.66 4.279l-.532 12.508a1.93 1.93 0 01-1.93 1.846h-4.295V14.703c0-1.578.554-3.106 1.567-4.319zM23.868.412a.968.968 0 00-1.367 0l-4.67 4.66a.628.628 0 01-.886 0l-4.67-4.66a.968.968 0 00-1.366 0l-2.215 2.21L12.27 8.41a.967.967 0 001.45.227l2.141-1.824a.34.34 0 01.562.259v17.718h1.933V7.073c0-.29.34-.447.561-.259l2.143 1.824a.967.967 0 001.45-.227l3.574-5.79-2.215-2.21z" transform="translate(0 35.093)"/>
                <path d="M9.803 17.08h3.578c.613 0 1.11-.495 1.11-1.107v-.678c0-.611-.497-1.106-1.11-1.106H9.803c-.612 0-1.109.495-1.109 1.106v.678c0 .612.497 1.107 1.11 1.107z" transform="translate(0 35.093)"/>
            </g>
        </g>
    </g>
</svg>
