<svg xmlns="http://www.w3.org/2000/svg" width="215" height="121" viewBox="0 0 215 121">
    <g fill="none">
        <g opacity=".387" transform="translate(144 25)">
            <circle cx="35.5" cy="35.5" r="35.5" fill="#F1B949"/>
            <g>
                <path fill="#BC8740" d="M25.698.075H3.795C1.712.075.024 1.746.024 3.808v42.847c0 2.062 1.688 3.733 3.771 3.733h31.137c2.083 0 3.771-1.672 3.771-3.733V12.946L25.698.075z" transform="translate(16.43 10.562)"/>
                <path fill="#78572A" d="M25.698.075H19.38v50.313h15.552c2.083 0 3.771-1.671 3.771-3.733V12.946L25.698.075z" transform="translate(16.43 10.562)"/>
                <path fill="#BC8740" d="M25.698 9.213c0 2.062 1.689 3.733 3.772 3.733h9.233L25.698.075v9.138z" transform="translate(16.43 10.562)"/>
            </g>
            <g>
                <path fill="#FFF" d="M.111.001L21.599.001 21.599 4.23.111 4.23zM.111 13.961L21.599 13.961 21.599 18.19.111 18.19zM.111 20.942L9.67 20.942 9.67 25.171.111 25.171zM.111 6.981L21.599 6.981 21.599 11.21.111 11.21z" transform="translate(24.645 30.512)"/>
                <path fill="#E9EDF5" d="M10.872.001L21.599.001 21.599 4.23 10.872 4.23zM10.872 13.961L21.599 13.961 21.599 18.19 10.872 18.19zM10.872 6.981L21.599 6.981 21.599 11.21 10.872 11.21z" transform="translate(24.645 30.512)"/>
            </g>
        </g>
        <g opacity=".387" transform="translate(0 25)">
            <circle cx="35.5" cy="35.5" r="35.5" fill="#F1B949"/>
            <g>
                <path fill="#BC8740" d="M25.698.075H3.795C1.712.075.024 1.746.024 3.808v42.847c0 2.062 1.688 3.733 3.771 3.733h31.137c2.083 0 3.771-1.672 3.771-3.733V12.946L25.698.075z" transform="translate(16.43 10.562)"/>
                <path fill="#78572A" d="M25.698.075H19.38v50.313h15.552c2.083 0 3.771-1.671 3.771-3.733V12.946L25.698.075z" transform="translate(16.43 10.562)"/>
                <path fill="#BC8740" d="M25.698 9.213c0 2.062 1.689 3.733 3.772 3.733h9.233L25.698.075v9.138z" transform="translate(16.43 10.562)"/>
            </g>
            <g>
                <path fill="#FFF" d="M.111.001L21.599.001 21.599 4.23.111 4.23zM.111 13.961L21.599 13.961 21.599 18.19.111 18.19zM.111 20.942L9.67 20.942 9.67 25.171.111 25.171zM.111 6.981L21.599 6.981 21.599 11.21.111 11.21z" transform="translate(24.645 30.512)"/>
                <path fill="#E9EDF5" d="M10.872.001L21.599.001 21.599 4.23 10.872 4.23zM10.872 13.961L21.599 13.961 21.599 18.19 10.872 18.19zM10.872 6.981L21.599 6.981 21.599 11.21 10.872 11.21z" transform="translate(24.645 30.512)"/>
            </g>
        </g>
        <g transform="translate(46)">
            <circle cx="60.5" cy="60.5" r="60.5" fill="#F1B949"/>
            <g>
                <path fill="#BC8740" d="M43.796.128H6.468C2.918.128.04 2.976.04 6.489v73.022c0 3.513 2.878 6.361 6.428 6.361h53.064c3.55 0 6.427-2.848 6.427-6.361V22.064L43.796.128z" transform="translate(28 18)"/>
                <path fill="#78572A" d="M43.796.128H33.028v85.744h26.504c3.55 0 6.427-2.848 6.427-6.361V22.064L43.796.128z" transform="translate(28 18)"/>
                <path fill="#BC8740" d="M43.796 15.702c0 3.513 2.878 6.361 6.428 6.361h15.735L43.796.128v15.574z" transform="translate(28 18)"/>
            </g>
            <g>
                <path fill="#FFF" d="M.19.002L36.81.002 36.81 7.208.19 7.208zM.19 23.793L36.81 23.793 36.81 31 .19 31zM.19 35.69L16.48 35.69 16.48 42.896.19 42.896zM.19 11.898L36.81 11.898 36.81 19.104.19 19.104z" transform="translate(42 52)"/>
                <path fill="#E9EDF5" d="M18.528.002L36.81.002 36.81 7.208 18.528 7.208zM18.528 23.793L36.81 23.793 36.81 31 18.528 31zM18.528 11.898L36.81 11.898 36.81 19.104 18.528 19.104z" transform="translate(42 52)"/>
            </g>
        </g>
    </g>
</svg>
