<svg xmlns="http://www.w3.org/2000/svg" width="42" height="59" viewBox="0 0 42 59">
    <g fill="none" fill-rule="nonzero">
        <path fill="#5D3908" d="M38.231 44.54l-9.222-2.755a2.661 2.661 0 0 1-1.884-2.558V35h-12.25v4.227a2.662 2.662 0 0 1-1.884 2.558l-9.222 2.756C1.534 45.208 0 47.29 0 49.657v6.676C0 57.806 1.175 59 2.625 59h36.75C40.825 59 42 57.806 42 56.333v-6.676c0-2.366-1.534-4.449-3.769-5.116z"/>
        <path fill="#CCA500" d="M38.231 44.04l-9.222-2.851a2.546 2.546 0 0 1-.444-.189L21 42.446 13.435 41c-.141.075-.288.14-.444.189l-9.222 2.85C1.534 44.73 0 46.887 0 49.335v6.907C0 57.765 1.175 59 2.625 59h36.75C40.825 59 42 57.765 42 56.24v-6.906c0-2.448-1.534-4.604-3.769-5.294z"/>
        <path fill="#5D3908" d="M10.724 44.268l4.305 3.857c.63.564 1.432.875 2.26.875 1.063 0 2.052-.497 2.716-1.363L21 46.336l.995 1.3C22.66 48.503 23.648 49 24.71 49c.829 0 1.631-.31 2.26-.875l4.306-3.857c.349-.313.59-.712.724-1.144l-3.047-.937a2.535 2.535 0 0 1-.441-.187L21 43.428 13.488 42c-.14.074-.286.139-.44.187L10 43.124c.135.432.375.831.724 1.144z"/>
        <path fill="#382204" d="M15 36.674c1.8.841 3.843 1.326 6 1.326s4.2-.485 6-1.326V35H15v1.674z"/>
        <path fill="#87520B" d="M33.734 21.822h-.453V12H9.72v9.821h-.453c-1.252 0-2.266 1-2.266 2.233 0 1.232 1.014 2.232 2.266 2.232h.499C10.229 32.278 15.299 37 21.5 37c6.2 0 11.271-4.722 11.735-10.714h.5c1.25 0 2.265-1 2.265-2.232 0-1.233-1.014-2.232-2.266-2.232z"/>
        <path fill="#5D3908" d="M29 13.786V12H10.52v9.821h-.3c-1.099 0-2.1.84-2.21 2.002-.125 1.336.859 2.463 2.09 2.463h.462C10.992 32.278 15.692 37 21.44 37c.575 0 1.135-.06 1.685-.15-5.234-.86-9.245-5.654-9.245-11.457v-6.25c0-1.973 1.504-3.572 3.36-3.572h10.08c.928 0 1.68-.799 1.68-1.785z"/>
        <g fill="#CCA500">
            <path d="M21.762 43.132l-7.272-3.96a.908.908 0 0 0-1.24.377l-1.128 2.21a.695.695 0 0 0 .175.85l4.456 3.744c.772.648 1.94.54 2.575-.238l2.434-2.983zM21.762 43.132l7.273-3.96a.908.908 0 0 1 1.24.377l1.128 2.21c.148.289.075.64-.175.85l-4.456 3.744a1.823 1.823 0 0 1-2.575-.238l-2.435-2.983z"/>
        </g>
        <g fill="#000">
            <path d="M15.976 23.746a.904.904 0 0 1-.908-.9v-.902c0-.497.406-.9.908-.9s.908.403.908.9v.901c0 .498-.406.901-.908.901zM26.874 23.746a.904.904 0 0 1-.908-.9v-.902c0-.497.406-.9.908-.9s.908.403.908.9v.901c0 .498-.406.901-.908.901z"/>
        </g>
        <g fill="#5D3908" transform="translate(21 50)">
            <ellipse cx=".858" cy=".913" rx="1" ry="1"/>
            <ellipse cx=".858" cy="5.89" rx="1" ry="1"/>
        </g>
        <path fill="#000" d="M21.172 0C7.43 0 6.674 12.225 7.074 14.964L8.102 22l2.007-.251a1.805 1.805 0 0 0 1.569-1.8v-4.743c0-1.002.8-1.814 1.787-1.814h16.088c.987 0 1.788.812 1.788 1.814v4.743c0 .915.673 1.687 1.568 1.8l2.007.251 1.028-7.037C36.344 12.225 34.916 0 21.172 0z"/>
        <g fill="#5D3908">
            <path d="M7.703 51.023v7.825H5.047v-5.217c0-1.44 1.19-2.608 2.656-2.608zM34.262 51.023v7.825h2.656v-5.217c0-1.44-1.19-2.608-2.656-2.608z"/>
        </g>
    </g>
</svg>
