<svg xmlns="http://www.w3.org/2000/svg" width="80" height="80" viewBox="0 0 80 80">
    <g fill="none">
        <circle cx="40" cy="40" r="40" fill="#F6CB76"/>
        <g>
            <path fill="#AF834B" d="M11.784 46.927H2.877c-1.448 0-2.622-1.197-2.622-2.673V4.519c0-1.476 1.174-2.673 2.622-2.673h8.907c1.448 0 2.622 1.197 2.622 2.673v39.735c0 1.476-1.174 2.673-2.622 2.673z" transform="translate(15 17)"/>
            <path fill="#EBF0F3" d="M3.085 17.79V6.044c0-.729.604-1.32 1.349-1.32h5.793c.745 0 1.349.591 1.349 1.32v11.748c0 .729-.604 1.32-1.349 1.32H4.434c-.745 0-1.349-.591-1.349-1.32z" transform="translate(15 17)"/>
            <path fill="#64798A" d="M8.696 44.05H5.022c-1.07 0-1.937-.882-1.937-1.97v-3.735c0-1.087.867-1.969 1.937-1.969h3.674c1.07 0 1.937.882 1.937 1.97v3.735c0 1.087-.868 1.969-1.937 1.969z" transform="translate(15 17)"/>
            <path fill="#3A556A" d="M9.959 43.225H5.778c-.99 0-1.792-.806-1.792-1.801v-4.205c0-.306.083-.59.218-.843-.656.268-1.119.913-1.119 1.668v4.204c0 .995.803 1.802 1.792 1.802h4.181c.685 0 1.273-.391 1.575-.959-.209.085-.435.134-.674.134z" transform="translate(15 17)"/>
            <g fill="#64798A">
                <path d="M.114 3.838H5.6419999999999995V5.739H.114zM.114.035H5.6419999999999995V1.936H.114zM.114 7.64H5.6419999999999995V9.541H.114z" transform="translate(15 17) translate(4.029 7.6)"/>
            </g>
            <path fill="#44C4A1" d="M46.69 46.927h-8.907c-1.448 0-2.622-1.197-2.622-2.673V4.519c0-1.476 1.174-2.673 2.622-2.673h8.906c1.449 0 2.623 1.197 2.623 2.673v39.735c0 1.476-1.174 2.673-2.623 2.673z" transform="translate(15 17)"/>
            <path fill="#EBF0F3" d="M37.991 17.79V6.044c0-.729.604-1.32 1.349-1.32h5.793c.745 0 1.349.591 1.349 1.32v11.748c0 .729-.604 1.32-1.349 1.32H39.34c-.745 0-1.349-.591-1.349-1.32z" transform="translate(15 17)"/>
            <path fill="#64798A" d="M43.602 44.05h-3.675c-1.069 0-1.936-.882-1.936-1.97v-3.735c0-1.087.867-1.969 1.936-1.969h3.675c1.07 0 1.936.882 1.936 1.97v3.735c0 1.087-.867 1.969-1.936 1.969z" transform="translate(15 17)"/>
            <path fill="#3A556A" d="M44.865 43.225h-4.181c-.99 0-1.792-.806-1.792-1.801v-4.205c0-.306.083-.59.217-.843-.655.268-1.118.913-1.118 1.668v4.204c0 .995.802 1.802 1.792 1.802h4.18c.686 0 1.274-.391 1.575-.959-.208.085-.435.134-.673.134z" transform="translate(15 17)"/>
            <g fill="#64798A">
                <path d="M.055 3.838H5.582999999999999V5.739H.055zM.055.035H5.582999999999999V1.936H.055zM.055 7.64H5.582999999999999V9.541H.055z" transform="translate(15 17) translate(38.934 7.6)"/>
            </g>
            <path fill="#E56353" d="M24.385 46.886l-8.758-1.576c-1.424-.256-2.375-1.642-2.124-3.096L20.26 3.095c.252-1.453 1.61-2.424 3.034-2.168l8.758 1.577c1.424.256 2.375 1.642 2.124 3.095L27.42 44.72c-.251 1.453-1.61 2.423-3.034 2.167z" transform="translate(15 17)"/>
            <path fill="#EBF0F3" d="M21.972 16.551l1.875-11.685c.116-.725.745-1.21 1.405-1.082l5.133.995c.66.128 1.1.82.984 1.545l-1.875 11.685c-.116.725-.746 1.21-1.406 1.081l-5.132-.994c-.66-.128-1.1-.82-.984-1.545z" transform="translate(15 17)"/>
            <path fill="#64798A" d="M22.687 44.018l-3.78-.677c-1.1-.198-1.834-1.264-1.64-2.382l.667-3.843c.194-1.118 1.243-1.865 2.343-1.667l3.778.677c1.1.197 1.835 1.264 1.64 2.382l-.666 3.842c-.194 1.119-1.242 1.865-2.342 1.668z" transform="translate(15 17)"/>
            <path fill="#3A556A" d="M24.075 43.352l-4.248-.748c-1.006-.177-1.677-1.133-1.5-2.137l.75-4.239c.054-.309.189-.58.37-.81-.713.152-1.299.72-1.433 1.48l-.75 4.24c-.177 1.003.495 1.96 1.5 2.136l4.249.748c.696.122 1.363-.167 1.77-.685-.226.048-.465.057-.708.015z" transform="translate(15 17)"/>
            <g fill="#64798A">
                <path d="M2.405 2.343L4.164 2.36 4.209 7.297 2.45 7.28z" transform="translate(15 17) translate(23.84 6.642) rotate(99.997 3.307 4.82)"/>
                <path d="M3.047 -1.117L4.807 -1.1 4.851 3.837 3.092 3.82z" transform="translate(15 17) translate(23.84 6.642) rotate(99.997 3.95 1.36)"/>
                <path d="M1.762 5.803L3.521 5.819 3.565 10.756 1.806 10.739z" transform="translate(15 17) translate(23.84 6.642) rotate(99.997 2.664 8.28)"/>
            </g>
        </g>
    </g>
</svg>
