<svg xmlns="http://www.w3.org/2000/svg" width="280" height="309" viewBox="0 0 280 309">
    <defs>
        <linearGradient id="a" x1="52.292%" x2="47.379%" y1="115.326%" y2="-23.862%">
            <stop offset="0%" stop-color="#FFF4C5"/>
            <stop offset="100%" stop-color="#FFFFF0"/>
        </linearGradient>
        <linearGradient id="b" x1="174.171%" x2="30.843%" y1="-13.219%" y2="61.238%">
            <stop offset="0%" stop-color="#5D3908"/>
            <stop offset="100%" stop-color="#B97C28"/>
        </linearGradient>
        <linearGradient id="c" x1="174.172%" x2="30.843%" y1="-7.34%" y2="60.193%">
            <stop offset="0%" stop-color="#5D3908"/>
            <stop offset="100%" stop-color="#B97C28"/>
        </linearGradient>
        <linearGradient id="d" x1="174.171%" x2="30.843%" y1="17.472%" y2="55.782%">
            <stop offset="0%" stop-color="#5D3908"/>
            <stop offset="100%" stop-color="#B97C28"/>
        </linearGradient>
        <linearGradient id="e" x1="174.172%" x2="30.843%" y1="31.399%" y2="53.306%">
            <stop offset="0%" stop-color="#5D3908"/>
            <stop offset="100%" stop-color="#B97C28"/>
        </linearGradient>
        <linearGradient id="f" x1="73.891%" x2="46.314%" y1="-72.894%" y2="71.846%">
            <stop offset="0%" stop-color="#5D3908"/>
            <stop offset="100%" stop-color="#B97C28"/>
        </linearGradient>
        <linearGradient id="g" x1="174.171%" x2="30.843%" y1="40.574%" y2="51.676%">
            <stop offset="0%" stop-color="#5D3908"/>
            <stop offset="100%" stop-color="#B97C28"/>
        </linearGradient>
        <linearGradient id="h" x1="174.171%" x2="30.843%" y1="29.723%" y2="53.604%">
            <stop offset="0%" stop-color="#5D3908"/>
            <stop offset="100%" stop-color="#B97C28"/>
        </linearGradient>
        <linearGradient id="i" x1="174.171%" x2="30.843%" y1="-8.066%" y2="60.322%">
            <stop offset="0%" stop-color="#5D3908"/>
            <stop offset="100%" stop-color="#B97C28"/>
        </linearGradient>
        <linearGradient id="j" x1="174.171%" x2="30.843%" y1="34.847%" y2="52.694%">
            <stop offset="0%" stop-color="#5D3908"/>
            <stop offset="100%" stop-color="#B97C28"/>
        </linearGradient>
        <linearGradient id="k" x1="55.21%" x2="49.196%" y1="-72.894%" y2="71.846%">
            <stop offset="0%" stop-color="#5D3908"/>
            <stop offset="100%" stop-color="#B97C28"/>
        </linearGradient>
        <linearGradient id="l" x1="161.061%" x2="32.866%" y1="-72.894%" y2="71.846%">
            <stop offset="0%" stop-color="#5D3908"/>
            <stop offset="100%" stop-color="#B97C28"/>
        </linearGradient>
        <linearGradient id="m" x1="138.898%" x2="36.285%" y1="-72.894%" y2="71.846%">
            <stop offset="0%" stop-color="#5D3908"/>
            <stop offset="100%" stop-color="#B97C28"/>
        </linearGradient>
        <linearGradient id="n" x1="99.912%" x2="42.3%" y1="-72.894%" y2="71.846%">
            <stop offset="0%" stop-color="#5D3908"/>
            <stop offset="100%" stop-color="#B97C28"/>
        </linearGradient>
        <linearGradient id="o" x1="49.373%" x2="51.762%" y1="13.48%" y2="147.397%">
            <stop offset="0%" stop-color="#6DE19D"/>
            <stop offset="100%" stop-color="#5975AD"/>
        </linearGradient>
        <linearGradient id="p" x1="49.629%" x2="50.232%" y1="-1.011%" y2="101.134%">
            <stop offset="0%" stop-color="#42363F"/>
            <stop offset="100%" stop-color="#594469"/>
        </linearGradient>
        <linearGradient id="q" x1="-6.373%" x2="88.42%" y1="-25.617%" y2="114.423%">
            <stop offset="0%" stop-color="#6DE19D"/>
            <stop offset="100%" stop-color="#5975AD"/>
        </linearGradient>
        <linearGradient id="r" x1="14.737%" x2="83.968%" y1="-1.193%" y2="102.289%">
            <stop offset="0%" stop-color="#42363F"/>
            <stop offset="100%" stop-color="#594469"/>
        </linearGradient>
        <linearGradient id="s" x1="61.723%" x2="25.01%" y1="15.364%" y2="153.773%">
            <stop offset="0%" stop-color="#6DE19D"/>
            <stop offset="100%" stop-color="#5975AD"/>
        </linearGradient>
        <linearGradient id="t" x1="61.015%" x2="40.082%" y1="-1.207%" y2="102.085%">
            <stop offset="0%" stop-color="#42363F"/>
            <stop offset="100%" stop-color="#594469"/>
        </linearGradient>
        <linearGradient id="u" x1="36.979%" x2="60.538%" y1="62.983%" y2="36.734%">
            <stop offset="0%" stop-color="#FFEECB"/>
            <stop offset="99.163%" stop-color="#FFFAE3"/>
        </linearGradient>
        <linearGradient id="v" x1="38.99%" x2="51.659%" y1="43.436%" y2="50.773%">
            <stop offset="0%" stop-color="#FFE472"/>
            <stop offset="100%" stop-color="#FFF8D9"/>
        </linearGradient>
        <linearGradient id="w" x1="45.483%" x2="109.602%" y1="35.94%" y2="190.8%">
            <stop offset="0%" stop-color="#42363F"/>
            <stop offset="100%" stop-color="#594469"/>
        </linearGradient>
        <linearGradient id="x" x1="52.482%" x2="47.427%" y1="11.469%" y2="110.587%">
            <stop offset="0%" stop-color="#FFFBEA"/>
            <stop offset="100%" stop-color="#EEE7C8"/>
        </linearGradient>
        <linearGradient id="y" x1="63.19%" x2="41.708%" y1="-41.11%" y2="118.67%">
            <stop offset="0%" stop-color="#EFEAD5"/>
            <stop offset="100%" stop-color="#EFEAD7"/>
        </linearGradient>
    </defs>
    <g fill="none" fill-rule="evenodd">
        <g fill-rule="nonzero">
            <path fill="#E3DAB4" d="M270.621 234.286c0 1.152-16.724 2.073-37.232 2.073-20.606 0-37.231-.921-37.231-2.073 0-1.151 16.724-2.072 37.231-2.072 20.508 0 37.232.92 37.232 2.072z"/>
            <path fill="#311E03" d="M266.09 70.058c0-3.902-3.14-7.104-7.063-7.004l-56.107.5c-3.825 0-6.964 3.202-6.866 7.204l.098 12.307h-.098c-.687 0-1.177.6-1.177 1.2v4.203c0 .7.589 1.2 1.177 1.2h.098v2.202h-.098c-.687 0-1.177.6-1.177 1.2l.098 9.705c0 .7.589 1.201 1.177 1.201h.098v2.802h-.098c-.686 0-1.177.6-1.177 1.2l.098 9.705c0 .7.589 1.201 1.177 1.201h.098l.785 85.445c0 3.902 3.139 7.104 7.062 7.004l56.107-.5c3.825 0 6.964-3.202 6.866-7.204l-1.079-133.57z"/>
            <path fill="#232F62" d="M242.058 72.06l-21.874.2c-.785 0-1.373-.601-1.373-1.401s.588-1.401 1.373-1.401l21.874-.2c.784 0 1.373.6 1.373 1.4 0 .7-.589 1.401-1.373 1.401z"/>
            <path fill="#FFF" d="M236.957 202.228c0 2.902-2.354 5.303-5.297 5.403-2.942 0-5.395-2.301-5.395-5.303 0-2.901 2.354-5.303 5.297-5.403 2.943 0 5.395 2.302 5.395 5.303z"/>
            <path fill="#5D3908" d="M236.663 202.228c0 2.702-2.158 5.003-4.905 5.003-2.746 0-5.002-2.201-5.002-4.903 0-2.701 2.158-5.002 4.904-5.002 2.649-.1 4.905 2.1 5.003 4.902z"/>
            <path fill="url(#a)" d="M68.466 131.27l-62.09.5-.981-115.862 62.09-.5z" transform="translate(194.779 62.254)"/>
        </g>
        <g transform="translate(10 36)">
            <ellipse cx="76.642" cy="201.785" fill="#E4DAAF" fill-rule="nonzero" rx="75.943" ry="2.335"/>
            <path stroke="#FBD286" stroke-width=".332" d="M131.83 126.612c3.11-2.257 6.22-4.514 9.484-6.537 8.861-5.603 19.355-9.728 29.77-8.016"/>
            <path fill="#FBD286" fill-rule="nonzero" d="M176.76 111.048c.465.233.932.545 1.01 1.011.077.467-.311 1.012-.778 1.168-.466.233-1.01.155-1.477.155-1.01-.077-7.85-.077-5.44-2.256 1.476-1.401 4.974-.779 6.684-.078zM159.892 105.99c.155-.467.466-.934.855-1.168.466-.155.855.078 1.01.467.156.39.156.856.156 1.323 0 .934 0 7.237-1.944 5.525-1.166-1.09-.7-4.513-.077-6.147zM139.604 122.098c0-.389.155-.934.466-1.167.311-.234.7-.156.933.155.233.312.389.7.466 1.09.234.778 1.788 5.992-.155 5.058-1.321-.7-1.866-3.58-1.71-5.136zM140.304 114.472c0-.39 0-.856.31-1.167.234-.234.622-.234.933 0 .233.233.389.622.544.933.311.7 2.332 5.37.389 4.747-1.321-.389-2.099-3.035-2.176-4.513zM166.499 104.044c.544-.7 1.399-1.323 2.098-.934.467.234.7.778.778 1.323 0 .545-.156 1.012-.311 1.557-.622 1.79-1.244 3.657-2.332 5.291-1.4 1.946-1.788-1.79-1.788-2.646 0-1.712.544-3.268 1.555-4.59zM149.476 108.168c.155-.7.622-1.556 1.399-1.556.466 0 .855.39 1.088.778.233.39.233.856.311 1.323.155 1.712.389 3.424 0 5.136-.466 2.101-2.099-.778-2.41-1.478-.621-1.323-.777-2.802-.388-4.203z"/>
            <path fill="#FBD286" fill-rule="nonzero" d="M169.686 115.094c.388.623.855 1.323 1.088 2.024.233.778.31 1.556-.078 2.256-.078.078-.078.156-.155.234-.156.156-.389.078-.622 0-1.322-.545-2.332-1.712-2.876-3.035-.544-1.323-.7-2.802-.622-4.202.233-2.49 2.954 2.179 3.265 2.723zM160.203 116.495c.155.778.31 1.479.31 2.257 0 .7-.155 1.478-.621 1.868-.078.077-.156.077-.234.155-.155 0-.31-.155-.466-.311-.855-1.09-1.321-2.568-1.4-3.891-.077-1.323.234-2.646.623-3.813.777-2.024 1.632 3.113 1.788 3.735zM164.944 115.717c.156.778.311 1.478.389 2.257 0 .7-.156 1.4-.544 1.867-.078.078-.078.078-.156.078-.155 0-.31-.155-.466-.311-.855-1.09-1.322-2.568-1.477-3.891-.156-1.323.078-2.568.466-3.735.622-2.024 1.633 3.112 1.788 3.735zM145.822 121.086c.078.545.156 1.09.078 1.635-.078.544-.31 1.09-.7 1.4-.077.078-.155.078-.155.078a.593.593 0 0 1-.389-.155c-.7-.7-.932-1.712-.932-2.724.077-1.012.388-1.946.855-2.802.855-1.634 1.166 2.102 1.243 2.568zM150.408 119.53a8.8 8.8 0 0 1 0 2.023c-.077.623-.31 1.245-.7 1.557-.077.078-.077.078-.155.078-.155 0-.233-.156-.31-.312-.622-1.09-.856-2.412-.778-3.657.078-1.245.467-2.257.933-3.269.777-1.712.933 2.957 1.01 3.58zM156.705 112.993c.621-1.245.7-2.646.31-3.969-.155-.466-.388-.856-.777-1.167a1.176 1.176 0 0 0-1.321-.078c-.544.39-.467 1.168-.233 1.79.233.934.621 1.79 1.088 2.646.155.234.31.545.544.623.233.155.622.077.7-.156M146.755 116.729c.622-1.246.7-2.646.311-3.97-.155-.466-.389-.855-.777-1.166a1.176 1.176 0 0 0-1.322-.078c-.544.389-.466 1.167-.233 1.79.233.933.622 1.79 1.088 2.645.156.234.311.545.544.623.234.156.622.078.778-.156M156.005 120.62c0 .389-.078.856-.389 1.011-.388.156-.777-.078-1.088-.389-.622-.856-.7-1.945-.7-3.035v-3.502c0-1.478.622-.934 1.089.078.7 1.868 1.088 3.891 1.088 5.837z"/>
            <g>
                <path stroke="#FBD286" stroke-width=".279" d="M102.526 85.212c1.71-2.568 3.343-5.058 4.82-7.704 4.042-7.237 6.607-15.72 3.964-23.89"/>
                <path fill="#FBD286" fill-rule="nonzero" d="M111.543 49.026c-.233-.39-.544-.7-1.01-.778-.467-.078-.855.311-.933.622-.155.39-.078.779 0 1.168.155.856.933 6.225 2.565 4.28 1.088-1.168.233-3.97-.622-5.292zM117.84 62.255c.388-.155.777-.389.932-.7.078-.311-.155-.7-.544-.778-.389-.156-.777-.078-1.166-.078-.855.078-6.452.311-4.664 1.712 1.088.856 4.042.389 5.441-.156zM105.713 78.909c.39 0 .778-.156 1.01-.39.156-.233.079-.544-.232-.778-.233-.155-.622-.233-1.01-.311-.7-.156-5.52-1.245-4.431.311.621 1.012 3.264 1.323 4.663 1.168zM112.398 78.052c.389 0 .778-.077 1.01-.233.234-.233.156-.545-.077-.7a2.593 2.593 0 0 0-.933-.39c-.7-.233-5.052-1.634-4.197-.077.466.934 2.876 1.4 4.197 1.4zM118.85 56.886c.544-.467 1.01-1.168.622-1.712-.233-.39-.778-.545-1.244-.545-.466 0-.933.156-1.321.311-1.555.545-3.11 1.09-4.431 2.024-1.555 1.167 1.71 1.4 2.487 1.322 1.477-.077 2.876-.544 3.887-1.4zM117.062 70.582c.622-.156 1.322-.545 1.244-1.167-.078-.39-.389-.7-.778-.856-.388-.156-.855-.156-1.243-.234-1.555-.078-3.11-.156-4.509.156-1.787.389.933 1.634 1.555 1.867a6.107 6.107 0 0 0 3.731.234z"/>
                <path fill="#FBD286" fill-rule="nonzero" d="M108.745 54.785c-.622-.312-1.244-.623-1.943-.779-.7-.155-1.4-.155-2.021.156-.078 0-.156.078-.234.156-.077.155 0 .311.078.467.622 1.011 1.788 1.79 2.954 2.179 1.244.389 2.565.466 3.809.31 2.254-.31-2.099-2.256-2.643-2.49zM108.512 62.333c-.7-.078-1.4-.156-2.021-.156-.622 0-1.244.234-1.633.545-.077.078-.077.078-.077.156 0 .155.155.233.31.311 1.089.623 2.41.934 3.654 1.012 1.244 0 2.332-.234 3.265-.623 1.71-.622-2.954-1.167-3.498-1.245zM108.745 58.598c-.7-.078-1.4-.234-2.021-.234-.622 0-1.244.156-1.555.467-.077.078-.077.078-.077.156 0 .155.155.233.31.311 1.089.623 2.41.934 3.576 1.012 1.244.078 2.254-.156 3.265-.467 1.71-.545-2.954-1.167-3.498-1.245zM105.947 73.928a4.7 4.7 0 0 0-1.477 0c-.467.078-.933.234-1.166.623 0 .077-.078.077-.078.155s.078.234.233.312c.7.544 1.633.7 2.488.622.855-.078 1.71-.389 2.41-.778 1.32-.778-2.022-.934-2.41-.934zM106.88 70.27c-.622 0-1.244 0-1.788.078-.545.078-1.089.312-1.322.623 0 .078-.078.078-.078.156 0 .077.156.233.311.233 1.01.467 2.255.545 3.343.467 1.088-.078 2.02-.467 2.798-.856 1.4-.7-2.798-.7-3.265-.7zM112.01 64.979c1.01-.545 2.332-.7 3.497-.39.39.079.856.234 1.089.546.31.31.388.7.155 1.011-.31.39-1.01.39-1.554.311a10.2 10.2 0 0 1-2.488-.778 1.692 1.692 0 0 1-.622-.389c-.155-.233-.155-.467.078-.622M109.755 73.072c1.01-.545 2.332-.7 3.498-.389.389.078.855.233 1.089.545.31.311.388.7.155 1.011-.31.39-1.01.39-1.555.312a10.2 10.2 0 0 1-2.487-.779 1.692 1.692 0 0 1-.622-.389c-.155-.233-.155-.467.078-.622M105.247 65.835c-.31 0-.777.078-.855.389-.155.311.155.623.466.856.778.467 1.866.467 2.799.467 1.01-.078 2.098-.078 3.109-.156 1.321-.078.777-.544-.233-.856a15.222 15.222 0 0 0-5.286-.7z"/>
            </g>
            <g>
                <path stroke="#FBD286" stroke-width=".332" d="M125.38 119.53c1.243-3.657 2.487-7.237 3.964-10.817 4.041-9.727 10.182-19.143 19.588-23.735"/>
                <path fill="#FBD286" fill-rule="nonzero" d="M153.051 80.854c.467-.078 1.089-.078 1.4.233.388.39.31 1.012.077 1.401-.233.467-.7.7-1.088 1.012-.855.545-6.452 4.436-5.752 1.323.389-2.024 3.576-3.58 5.363-3.969zM136.34 86.457c-.156-.467-.234-1.09.077-1.479.233-.389.7-.389 1.088-.233.389.233.622.622.855 1.012.544.778 4.12 5.914 1.633 5.603-1.633-.156-3.187-3.191-3.654-4.903zM129.188 111.359c-.233-.39-.466-.856-.31-1.167.077-.39.466-.545.854-.467.389.078.7.389 1.01.622.622.545 4.898 3.814 2.721 4.203-1.399.233-3.498-1.868-4.275-3.191zM125.302 104.744c-.234-.31-.467-.7-.467-1.089.078-.39.389-.545.777-.545.311.078.7.234 1.01.467.623.39 4.976 3.035 3.032 3.658-1.243.389-3.42-1.401-4.352-2.49zM140.614 81.087c0-.856.39-1.867 1.166-2.023.544-.078 1.01.234 1.4.623.31.389.466.934.621 1.4.544 1.868 1.166 3.736 1.166 5.681 0 2.413-2.487-.389-2.953-1.09-.933-1.4-1.477-3.034-1.4-4.59zM129.11 94.239c-.31-.7-.388-1.634.234-2.101a1.334 1.334 0 0 1 1.32 0c.39.233.7.544 1.011.934 1.166 1.322 2.255 2.568 2.954 4.202.855 1.945-2.176.622-2.798.155-1.166-.7-2.177-1.867-2.72-3.19z"/>
                <path fill="#FBD286" fill-rule="nonzero" d="M149.631 88.169c.7.311 1.477.623 2.099 1.012.622.467 1.166 1.09 1.321 1.867v.312c-.077.233-.31.31-.466.31-1.4.312-2.876-.077-4.042-.777-1.244-.779-2.177-1.868-2.876-3.113-1.477-2.023 3.42.156 3.964.389zM142.713 94.861c.544.545 1.166 1.09 1.555 1.635.388.622.7 1.323.544 1.867 0 .078 0 .156-.078.234a.663.663 0 0 1-.544 0c-1.321-.39-2.565-1.323-3.42-2.335-.855-1.09-1.322-2.257-1.71-3.424-.544-2.101 3.187 1.634 3.653 2.023zM146.056 91.437c.544.545 1.166 1.012 1.554 1.635.467.544.7 1.245.622 1.79 0 .077 0 .155-.078.233-.077.078-.31.078-.544 0-1.321-.39-2.565-1.323-3.42-2.335-.855-1.011-1.4-2.179-1.788-3.268-.544-2.023 3.187 1.556 3.654 1.945zM133.619 106.923c.388.39.777.779 1.01 1.245.233.467.389 1.012.233 1.557 0 .078-.077.155-.077.233-.078.078-.234.078-.389.078-.933-.156-1.788-.856-2.332-1.712-.544-.856-.777-1.79-.933-2.801-.233-1.79 2.177 1.011 2.488 1.4zM136.417 102.955c.466.544.855 1.09 1.166 1.634.31.545.466 1.167.31 1.712 0 .078-.077.155-.077.155-.155.078-.31 0-.466-.077a7 7 0 0 1-2.72-2.49c-.623-1.012-.934-2.102-1.167-3.191-.233-1.868 2.643 1.867 2.954 2.257zM137.816 94.005c-.233-1.323-.933-2.568-2.099-3.424a2.11 2.11 0 0 0-1.321-.467c-.466 0-.933.234-1.088.7-.156.623.31 1.246.855 1.635.7.623 1.554 1.09 2.41 1.556.233.156.544.234.854.234.311-.078.545-.311.467-.623M131.83 102.799c-.232-1.323-.932-2.568-2.098-3.424a2.11 2.11 0 0 0-1.321-.467c-.467 0-.933.233-1.088.7-.156.623.31 1.245.855 1.635.7.622 1.554 1.089 2.41 1.556.232.156.543.233.854.233.311-.077.544-.31.467-.622M141.703 100.698c.233.311.388.7.233 1.09-.156.388-.7.388-1.088.31-1.01-.31-1.71-1.245-2.332-2.1-.7-.934-1.4-1.868-2.021-2.802-.855-1.245 0-1.09.932-.545 1.633 1.012 3.11 2.413 4.276 4.047z"/>
            </g>
            <g fill-rule="nonzero">
                <g fill="#AC9F87">
                    <path d="M10.183 202.33H5.286l4.43-30.506 8.24.312zM57.598 202.33h4.897l-4.43-30.506-8.24.312z"/>
                </g>
                <path fill="#F5D390" d="M.389 3.424h68.558v187.544H.389z"/>
                <path fill="#FFF3DC" d="M5.83 147h57.287v15.486H5.83zM5.83 168.167h57.287v15.486H5.83zM5.83 125.367h57.287v15.486H5.83zM5.83 107h57.287v12.14H5.83z"/>
                <g fill="#F4F7FB">
                    <path d="M5.83 35.719h21.998v2.879H5.83zM38.554 35.719h21.998v2.879H38.554z"/>
                </g>
                <g fill="#F4F7FB">
                    <path d="M5.83 59.453h21.998v2.88H5.83zM38.554 59.453h21.998v2.88H38.554z"/>
                </g>
                <path fill="#F4F7FB" d="M5.83 10.195h57.287v92.449H5.83z" opacity=".28"/>
                <path fill="#F4F7FB" d="M5.83 9.96v92.45h26.117V9.96H5.83zm21.998 88.403H9.95V13.93h17.955v84.433h-.077zM37 9.96v92.45h26.117V9.96H37zm21.997 88.403H41.042V13.93h17.955v84.433z"/>
                <g fill="#FBD286" transform="translate(10.882 130.736)">
                    <ellipse cx="2.332" cy="2.335" rx="1.71" ry="1.712"/>
                    <path d="M46.56 2.335c0 .933-.777 1.712-1.71 1.712-.932 0-1.71-.779-1.71-1.712 0-.934.778-1.712 1.71-1.712.933 0 1.71.778 1.71 1.712z"/>
                </g>
                <g fill="#FBD286">
                    <path d="M15.002 154.47c0 .935-.777 1.713-1.71 1.713-.933 0-1.71-.778-1.71-1.712 0-.934.777-1.712 1.71-1.712.933 0 1.71.778 1.71 1.712zM57.443 154.47c0 .935-.777 1.713-1.71 1.713-.933 0-1.71-.778-1.71-1.712 0-.934.777-1.712 1.71-1.712.933 0 1.71.778 1.71 1.712z"/>
                </g>
                <g fill="#B8D6F9">
                    <path d="M15.002 175.949c0 .934-.777 1.712-1.71 1.712-.933 0-1.71-.778-1.71-1.712 0-.934.777-1.712 1.71-1.712.933 0 1.71.778 1.71 1.712zM57.443 175.949c0 .934-.777 1.712-1.71 1.712-.933 0-1.71-.778-1.71-1.712 0-.934.777-1.712 1.71-1.712.933 0 1.71.778 1.71 1.712z"/>
                </g>
                <path fill="#FFB934" d="M29.46 54.318a2.091 2.091 0 0 1-2.099 2.1 2.091 2.091 0 0 1-2.099-2.1c0-1.168.933-2.101 2.1-2.101 1.165 0 2.098.933 2.098 2.1zM43.53 54.318a2.091 2.091 0 0 1-2.1 2.1 2.091 2.091 0 0 1-2.098-2.1c0-1.168.932-2.101 2.098-2.101s2.1.933 2.1 2.1z"/>
            </g>
            <g>
                <g fill-rule="nonzero">
                    <path fill="#AA9F8A" d="M68.014 202.252h-4.197l9.016-50.35h6.84zM141.625 202.252l5.052.078-17.256-49.182-6.685 1.012zM47.571 201.551l-4.197-.856 22.153-58.286 6.685 1.4z"/>
                    <path fill="#ADB8ED" d="M119.16 190.657l4.276.077-8.006-50.582-6.84-.078z"/>
                    <g>
                        <path fill="#987020" d="M48.97 70.504s-4.664 1.167-3.109 9.26c1.555 8.172 15.468 56.186 18.5 61.244 3.11 5.058 20.054 12.762 32.413 12.762 12.36 0 27.517-4.124 28.683-14.163 1.166-10.038 2.954-41.244 3.342-50.115.389-8.95.778-18.599-2.332-20.544-3.109-1.946-9.25-.779-31.247 4.669-21.998 5.447-34.746-4.28-39.954-4.436-5.13-.233-6.296 1.323-6.296 1.323z"/>
                        <path fill="#AA7E26" d="M143.568 117.74s-1.554-2.334-8.006.234-10.027 5.291-11.893 7.237c-8.084 8.638-14.69 22.567-9.794 25.68 4.897 3.113 18.034-3.58 23.242-11.517 2.02-3.035 7.462-9.027 8.239-12.685.777-3.501-1.788-8.949-1.788-8.949z"/>
                        <path fill="#FFFF43" d="M113.72 94.083c0 1.168-.933 2.101-2.021 2.101-1.166 0-2.021-.933-2.021-2.1 0-1.168.932-2.102 2.02-2.102 1.089.078 2.022 1.012 2.022 2.101z"/>
                        <path fill="#77AAEC" d="M115.818 119.92c0 1.166-.932 2.1-2.02 2.1-1.167 0-2.022-.934-2.022-2.1 0-1.168.933-2.102 2.021-2.102 1.089.078 2.021 1.012 2.021 2.101z"/>
                        <g fill="#77AAEC">
                            <path d="M74.621 95.173c0 1.167-.933 2.1-2.02 2.1-1.167 0-2.022-.933-2.022-2.1 0-1.168.933-2.101 2.021-2.101 1.088 0 2.021.933 2.021 2.1zM80.762 120.464c0 1.167-.933 2.101-2.021 2.101-1.166 0-2.021-.934-2.021-2.101 0-1.167.933-2.101 2.021-2.101 1.088 0 2.021.934 2.021 2.1z"/>
                        </g>
                        <path fill="#D19C32" d="M57.365 126.222c-.389-1.867 1.088-3.735 3.032-3.58 2.254.156 4.974.857 6.762 2.958 2.254 2.801 7.23 11.517 10.105 16.731 1.477 2.724 4.042 4.591 7.074 5.292 3.886.856 9.56 2.023 13.991 2.49 7.695.778 16.479.545 20.599-2.568 4.12-3.113 11.815-15.72 15.157-21.945 3.342-6.226 6.063-9.494 8.162-8.95 2.02.545 3.653-.622 4.197 4.592.544 5.136-6.218 27.392-8.706 31.439-3.808 6.225-20.443 11.595-28.138 11.984-10.571.545-30.859-2.88-35.756-6.459-4.897-3.58-9.56-14.708-13.137-22.49a48.78 48.78 0 0 1-3.342-9.494z"/>
                    </g>
                </g>
                <g fill-rule="nonzero">
                    <path fill="#AF834B" d="M151.73 193.536c1.088 4.436 2.254 8.015 3.265 10.194 1.399 3.035 1.632 4.358 6.063 1.479-3.81-10.661-4.276-11.128-4.353-20.544-.078-7.16-9.25-8.016-4.975 8.871z"/>
                    <path fill="#AF834B" d="M171.94 200.54l-13.448-1.012-3.109 5.68 5.053 1.713 12.514-4.98z"/>
                    <path fill="#2E3E80" d="M170.074 200.384c1.71 2.646-7.773 4.358-10.416 4.358-2.487 0-4.042.233-4.042.233-.077 0-.155.078-.31.078v.234c.544 1.556.544 3.89 3.186 3.035l16.324-5.214c13.37-4.203-4.82-2.802-4.742-2.724z"/>
                    <path fill="url(#b)" d="M7.073 11.673l-4.586 3.735-.621-1.945z" transform="translate(150.02 179.762)"/>
                    <path fill="#5D3908" d="M135.562 155.327c-.466-1.868-1.555-15.953-.622-25.136.078-2.957 11.193-3.969 11.97-3.58 2.877 1.48 5.364 24.825 10.96 61.789.312 1.868-7.772 5.058-8.083 3.969-5.053-15.642-9.95-19.144-14.225-37.042z"/>
                    <path fill="url(#c)" d="M27.128 62.722l-12.592 5.603-2.332-4.046 13.758-6.148z" transform="translate(134.474 126.067)"/>
                    <path fill="#5D3908" d="M145.045 125.833c-32.025-3.968-40.886-5.914-46.25-4.98-5.44.934-14.302 2.023-12.592 12.529.933 5.758 15.468 14.085 24.874 13.385 11.348-.778 30.315-3.736 35.367-8.483 2.254-2.179 3.809-11.828-1.399-12.45z"/>
                </g>
                <path fill="#5D3908" fill-rule="nonzero" d="M132.375 129.024c-32.025-3.969-45.24-6.459-50.603-5.525-5.44.934-7.85 4.669-6.063 15.252.933 5.759 9.017 11.362 18.423 10.662 11.348-.779 34.667-3.191 39.72-7.938 2.254-2.101 3.73-11.828-1.477-12.451z"/>
                <g fill-rule="nonzero">
                    <path fill="#AF834B" d="M115.274 196.026c-.544 4.514-.855 8.171-.7 10.584.234 3.346-.077 4.59 5.053 3.424.389-11.206.078-11.751 3.498-20.545 2.565-6.77-5.674-10.66-7.85 6.537z"/>
                    <path fill="#AF834B" d="M131.52 209.255l-12.204-5.525-4.974 4.28 4.12 3.269 13.447-.467z"/>
                    <path fill="#2E3E80" d="M129.81 208.4c.622 3.034-8.861 1.478-11.271.622-2.332-.856-3.809-1.09-3.809-1.09h-.31c0 .078-.078.156-.078.234-.078 1.634-.933 3.813 1.865 3.89l17.1.623c13.915.39-3.497-4.357-3.497-4.28z"/>
                    <path fill="url(#d)" d="M1.477 14.474l5.363.467-5.596 2.413z" transform="translate(113.486 183.653)"/>
                    <path fill="#5D3908" d="M113.564 157.584c.233-1.868 4.353-15.409 8.628-23.58 1.166-2.723 11.815.39 12.437 1.09 2.099 2.412-4.12 25.058-12.437 61.555-.388 1.867-9.016 1.79-8.939.7 1.01-16.498-2.254-21.556.311-39.765z"/>
                    <path fill="url(#e)" d="M14.225 66.69L.545 65.525l-.156-4.67L15.39 62.1z" transform="translate(111.155 132.292)"/>
                </g>
                <g stroke="#FFF" stroke-width=".332">
                    <path d="M88.146 134.393c10.65 3.58 20.677-.077 30.704-1.867 1.788-.311 3.886-.623 5.052.7.933 1.012.933 2.49.855 3.891-.466 6.537-5.208 14.864-6.607 22.256-2.176 11.907-3.653 20.311-2.72 32.373M81.15 137.04c2.41-.156 4.587-2.18 4.898-4.514"/>
                </g>
                <g>
                    <g fill-rule="nonzero">
                        <path fill="url(#f)" d="M4.042.156c.155.389 10.805 27.703 11.349 30.35.544 2.723.855 4.046.233 4.59-.622.467-7.23-2.023-7.23-2.023S2.333 12.918.934 9.027C-.622 5.214 4.042.156 4.042.156z" transform="translate(94.054 86.38)"/>
                        <path fill="url(#g)" d="M29.46 36.808c-5.286 1.012-21.92 0-22.464-3.112-.855-1.946.544-5.681 9.872-3.736 11.348 2.335 5.363.934 9.794 2.257 1.01.234 6.14 1.556 8.783 2.412-.233.934-1.4 2.024-2.099 2.724-1.01-.233-2.565-.311-3.886-.545z" transform="translate(94.054 86.38)"/>
                        <path fill="#CCA500" d="M98.64 112.526l-9.483-21.711c-.389-.856-.622-1.79-.777-2.802-.311-2.957 1.166-5.836 3.886-7.081.078 0 .156-.078.156-.078l.544-.233c2.254-.934 4.897.155 5.83 2.412l11.892 28.56-12.048.933z"/>
                        <path fill="url(#h)" d="M46.56 41.088l.7.545c.467 0 .933.078 1.4.234 1.01.31 2.176.778 2.642 1.011.777.39 4.275 2.88 4.275 2.88s-1.554.155-2.953-.856c-.234-.156-.545-.312-.856-.467 1.866 2.1 2.488 3.112 2.488 3.112s-1.4 0-2.643-1.712c-.622-.856-1.244-1.556-1.943-2.023.933 1.167 2.565 3.58 2.565 3.58s-1.477-.39-2.487-1.868c-.545-.778-1.166-1.478-1.866-2.023l-2.099-.39s0 .079-.077.156c-.078.078-.078.234-.156.39v.311s0 .078.078.078l.078.077h.077c.078 0 .078.078.156.078.233.078.466.078.7.156.077 0 .155 0 .232.078.156.077.234.077.39.155.077 0 .155.078.155.078.155.078.31.078.466.156h.078c.077.078.233.078.31.155 0 0 .078 0 .078.078.078.078.156.078.234.156 0 0 .077 0 .077.078.156.155.311.233.389.311.078.078.078.078.078.156a.776.776 0 0 1 .077.31s-1.01-.31-3.109-.622c-1.244-.155-5.519-2.256-8.628-2.568-.233 0-.544-.078-.855-.078 0-1.011.078-1.945.156-2.957 1.243.234 2.254.39 2.876.312 2.098-.234 6.918.933 6.918.933z" transform="translate(87.835 80.154)"/>
                        <path fill="#FFF" d="M75.243 131.825s15.857-10.816 27.983-10.972l-5.985-19.455 2.798-3.113c1.866-2.256 1.477-7.548 0-10.038l-4.197-7.237c-.156-.623-6.374-3.814-8.706-4.67-3.964-1.478-3.11-2.1-6.53-2.178l-8.394 3.89c-6.063 2.49-10.727-1.167-9.173 12.918l12.204 40.855z"/>
                        <g>
                            <path fill="#FFF" d="M113.409 100.62l-3.265-1.167c-.31-.078-.855.155-1.088.467l-5.908 7.937c-.233.311-.155.7.156.778l2.72.856c.311.078.778-.077 1.01-.389l6.53-7.626c.233-.311.156-.7-.155-.856z"/>
                            <path fill="#283570" d="M106.49 109.958l-2.72-.856c-.31-.078-.388-.467-.155-.778l5.985-7.937c.31-.39.777-.623 1.088-.467l2.72.856c.312.077.312.467.078.856l-5.907 7.937c-.31.311-.777.467-1.088.39z"/>
                            <path fill="#FFF" d="M111.465 101.554a.673.673 0 0 1-.544.311c-.155-.078-.155-.233 0-.467a.673.673 0 0 1 .544-.311c.156 0 .156.233 0 .467z"/>
                            <path fill="url(#i)" d="M46.56 24.902c-.155-.078-.699-.078-.854 0-.7.467-1.011 1.167-1.4 1.946-.466.856-.932 2.568-1.166 3.501.545 1.168 1.477 1.401 2.643 1.868 1.322-.311 2.643-.7 3.965-1.245l.466-.233c.233-.156.622-.39.777-.467.544-.545 2.488-4.28 2.876-4.98-.7.466-1.71 1.556-3.886 4.201l-2.643-1.09c-.622-.155-1.01-.7-1.01-.933.077-.467-.078-1.245 0-1.556 0 .155 1.01.622 1.165.7.467.234.855.078 1.4-.156-.467-.466-1.866-1.245-2.332-1.556z" transform="translate(57.52 79.375)"/>
                            <path fill="url(#j)" d="M39.643 30.505c-4.042.467-17.8 2.257-26.817 5.292-2.721.778-7.23 1.712-7.385 4.202-.7 2.023 1.088 5.603 10.183 2.88 11.115-3.27 17.8-5.76 21.609-7.55.933-.31 5.985-2.1 8.55-3.112-.31-.934-1.554-1.945-2.332-2.568-1.01.311-2.565.467-3.808.856z" transform="translate(57.52 79.375)"/>
                            <path fill="url(#k)" d="M5.363 5.603c0 .39-1.166 29.727-.777 32.45.389 2.724.544 4.125 1.322 4.358.777.234 6.14-4.28 6.14-4.28s-.933-21.089-.777-25.213c.155-4.124-5.908-7.315-5.908-7.315z" transform="translate(57.52 79.375)"/>
                            <g>
                                <path fill="#CCA500" d="M70.657 107.78l1.477-18.6c.078-.933 0-1.945-.156-2.879-.466-7.548-5.363-6.38-5.363-6.38-2.41-.156-4.508 2.412-4.975 5.524l-3.73 25.136-.312 4.825h12.36l.699-7.627z"/>
                                <path fill="#7B6400" d="M71.823 92.916l-.622 22.023-1.788.622z"/>
                            </g>
                        </g>
                    </g>
                    <path fill="url(#l)" fill-rule="nonzero" d="M21.298 48.56c4.042 2.49 6.84 2.8 4.664 5.602-1.866 2.957-9.328 9.183-23.552-4.513 1.243-.856 6.374-2.724 7.617-5.214 1.633-3.347 1.71-7.704 1.244-11.907.078-.31.31.545.544.545 1.555.234 3.032.467 4.586.778.233.078 3.187 1.09 2.254 2.49-.855 3.891-1.632 9.572 2.643 12.218z" transform="translate(69.18 28.793)"/>
                    <path fill="#000" fill-rule="nonzero" d="M84.104 31.283c-1.943-1.945-3.808-2.801-5.596-2.179-1.788.623-3.964 3.424-3.265 5.214-.622 1.79-3.187.778-4.43 1.79-1.244 1.012-2.022 2.802-1.322 4.28.622 1.323 2.254 2.023 3.731 2.023 1.477 0 2.954-.389 4.43-.622 3.81-.467 7.307-1.167 11.505-3.19 1.632-.779 3.73-6.07 1.71-7.783-2.72-2.334-5.208 2.024-6.763.467z"/>
                    <path fill="#2D2D2D" fill-rule="nonzero" d="M82.083 58.209c-.466.7-1.243 1.09-2.098 1.245-2.643.544-5.52-1.168-6.297-3.736-.544-1.712-.233-3.58.39-5.291 1.243-3.346 3.963-6.381 7.461-7.237 1.322-.312 2.799-.312 4.042.31 1.244.623 2.099 2.024 1.944 3.347-.234 1.712-1.866 2.88-2.566 4.436-.544 1.167-1.399 2.023-2.02 3.035-.545 1.245-.078 2.723-.856 3.89z"/>
                    <path fill="url(#m)" fill-rule="nonzero" d="M23.397 37.664c.078-.155.233-.233.31-.389 0-.077.079-.077.079-.155.155-.156.233-.312.388-.467 0-.078.078-.078.078-.156.078-.156.155-.233.233-.389.078-.078.078-.156.156-.233.077-.078.155-.234.233-.312.077-.078.077-.155.155-.233l.233-.467c.078-.156.156-.234.156-.39.078-.077.078-.233.155-.31.078-.078.078-.234.156-.312.078-.078.078-.155.155-.311 0-.078.078-.156.078-.233.622-1.401 1.866-8.25 1.555-11.751-.078-.39-.39-.856-.933-.934-3.576-.467-12.204.234-13.68 2.724-.156.311-2.022 6.38-2.022 6.77l-.077 1.945c.388 4.903 4.275 7.627 7.15 8.171 1.633.312 3.42-.544 4.975-2.1v-.078l.39-.39c0 .078.077.078.077 0z" transform="translate(69.18 28.793)"/>
                    <path stroke="#E9E9E9" stroke-width=".348" d="M90.4 64.279c-1.01.622-2.331.233-2.875-.856"/>
                    <path fill="#FF6772" fill-rule="nonzero" d="M87.525 63.345c.077 0 .155.078.233.155 0 .078 0 .156-.156.234-.077 0-.155-.078-.233-.156 0-.155.078-.233.156-.233zM90.556 64.123c.078.078.078.156 0 .233-.078.078-.155.078-.233 0-.078-.077-.078-.155 0-.233.078-.078.155-.078.233 0z"/>
                    <path fill="#0E0E0E" fill-rule="nonzero" d="M94.21 57.275c.077.078.077.233.077.311 0 .311 0 .545-.078.856-.077.234-.233.545-.466.623-.233.155-.544.077-.777-.156-.234-.233-.311-.545-.311-.856 0-.311.077-.7.233-.934l.233-.233a.236.236 0 0 1 .311 0c.389-.078.7.078.777.389z"/>
                    <path stroke="#000" stroke-linecap="round" stroke-linejoin="round" stroke-width=".523" d="M90.711 57.353c0 1.245-.077 2.49-.077 3.813a1.566 1.566 0 0 1-1.322.155"/>
                    <path fill="#000" fill-rule="nonzero" d="M95.064 55.407c-.233.156-.466.156-.7.156-.621 0-1.243 0-1.865-.078-.233 0-.544-.078-.544-.311 0-.234.233-.312.467-.39.388-.077.855-.155 1.243-.233.467-.078 2.488.156 1.4.856z"/>
                    <g fill-rule="nonzero">
                        <path fill="#0E0E0E" d="M86.747 55.485c0 .078.078.233.078.311 0 .312 0 .545-.078.856-.078.234-.233.545-.466.623-.233.155-.544 0-.777-.156-.234-.233-.311-.545-.311-.856 0-.311.077-.7.233-.934l.233-.233c.078-.078.233 0 .31 0 .312 0 .623.078.778.389z"/>
                        <path fill="#000" d="M87.447 54.707c-.389.078-.778-.156-1.088-.311a8.476 8.476 0 0 1-.855-.467c-.234-.156-.467-.234-.622-.467-.078-.156-.156-.312 0-.39h.155c.777 0 1.4.39 2.099.701.155.078.7.311.855.467.078.233-.233.467-.544.467z"/>
                    </g>
                    <path fill="#2D2D2D" fill-rule="nonzero" d="M84.493 54.396c-1.477.155-3.031.233-4.43-.234 1.243-3.346 3.808-7.393 7.228-8.327 1.555-.389 8.24-2.412 7.307 2.18-.31 1.79-1.4 2.8-3.342 3.968-1.944 1.167-4.509 2.101-6.763 2.413z"/>
                    <path fill="#2D2D2D" fill-rule="nonzero" d="M83.56 34.863c4.198-.078 7.54 1.323 10.572 5.214.777 1.011 1.554 3.502 4.586 4.747.855.311-3.032-.078-3.731.545-1.788 1.4-3.81 2.801-6.063 2.957-2.332.077-4.509-1.168-6.84-1.245-2.255-.078-5.286 2.178-7.23.856-1.554-1.09-2.487-3.425-2.02-5.292 1.165-4.28 6.762-7.704 10.726-7.782z"/>
                    <path fill="#2D2D2D" fill-rule="nonzero" d="M71.9 53.695c-.233-.856-.31-3.346.39-3.89.31-.234.777-.312 1.088-.623.388-.39.31-1.012.077-1.479-.233-.467-.622-.856-.932-1.245-.856-1.245-.933-3.035-.156-4.358.233-.389.544-.7.933-.934 1.088-.467 2.176.7 2.643 1.79.622 1.479.7 3.113.233 4.67-.467 1.478-1.322 3.034-.7 4.513.778 1.867 3.654 2.023 4.586 3.813.389.7.545 1.478.389 2.257-.389 1.556-.389 3.112-.155 4.124.155.7-2.255.7-3.81-2.101-1.165-1.79-3.653-3.268-4.585-6.537z"/>
                    <path fill="url(#n)" fill-rule="nonzero" d="M12.204 25.758c-.544 2.412-.933 3.813-1.089 3.735-.544-.31-1.321-1.011-1.787-1.79-.7-1.089-.467-2.412.077-3.112.778-.856 3.11-.078 2.799 1.167z" transform="translate(69.18 28.793)"/>
                    <path fill="#2D2D2D" fill-rule="nonzero" d="M98.251 44.279c1.01.156 1.866.078 2.643.778 1.088.934 1.632 2.49 1.244 3.891-.311 1.245-1.244 2.413-1.01 3.658.077.467.388.933.31 1.4 0 .545-.466 1.012-.932 1.323-.7.39-1.633.545-2.332.234-.778-.311-1.4-1.012-1.477-1.79-.078-.467.077-.856-.078-1.323-.233-.623-.933-.856-1.555-.934-.621-.078-1.243.078-1.865 0-1.322-.233-2.41-1.323-3.032-2.568-.7-1.323-1.088-2.88-.932-4.358.155-1.478 1.01-2.957 2.331-3.735 1.166-.7 1.633-.778 2.799 0 1.01.778 1.865 3.19 3.886 3.424z"/>
                    <path fill="#2D2D2D" fill-rule="nonzero" d="M97.785 44.824c.933-.312 1.788-.856 2.72-.778 1.011.077 1.866.933 2.177 1.945.233 1.012 0 2.101-.466 2.957-.156.234-.311.467-.545.7-.388.312-.855.39-1.321.467-1.632.156-3.42-.466-4.586-1.634-.622-.622-1.866-2.256-1.4-3.19.467-1.012 2.41-.156 3.42-.467z"/>
                </g>
            </g>
            <g>
                <g transform="translate(153.906 54.473)">
                    <ellipse cx="11.582" cy="11.751" fill="#FFE7C7" fill-rule="nonzero" rx="11.038" ry="11.05"/>
                    <ellipse cx="11.582" cy="11.751" fill="#FBD286" fill-rule="nonzero" rx="8.395" ry="8.404"/>
                    <text fill="#FFF" font-family="Helvetica" font-size="13.837">
                        <tspan x="7.035" y="15.276">?</tspan>
                    </text>
                </g>
                <g fill-rule="nonzero" transform="translate(90.167)">
                    <ellipse cx="11.582" cy="11.206" fill="#E0F2E3" rx="11.038" ry="11.05"/>
                    <ellipse cx="11.582" cy="11.206" fill="#A5DDAF" rx="8.395" ry="8.404"/>
                    <g fill="#FFF">
                        <path d="M9.405 12.996c1.477 1.79 3.498 2.412 4.664 2.1 1.01-.233 1.633-.622.156-1.867-.778-.622-.933-.544-1.944-.078-.777.39-1.476-.077-2.098-.856"/>
                        <path d="M9.405 12.996c-1.476-1.79-1.71-3.891-1.243-4.98.388-.934.932-1.48 1.865.155.467.856.389 1.012-.233 1.945-.544.7-.155 1.479.466 2.18"/>
                    </g>
                </g>
                <g fill-rule="nonzero">
                    <path fill="#CCA500" d="M131.364 49.882c4.898 2.101 10.416 2.335 15.78 2.023 3.73-.233 7.462-.7 10.882-2.179 7.307-3.035 12.67-11.439 10.26-18.987-1.71-5.137-6.529-8.716-11.737-10.117-8.006-2.179-23.474-1.4-30.004 4.591-8.861 7.86-5.44 20.233 4.82 24.669z"/>
                    <path fill="#CCA500" d="M150.564 47.08l-19.51 13.463 7.15-16.575z"/>
                    <g fill="#FFF" transform="translate(131.364 31.906)">
                        <path d="M6.374 3.813a3.12 3.12 0 0 1-3.11 3.113A3.12 3.12 0 0 1 .156 3.813 3.12 3.12 0 0 1 3.265.7c1.71 0 3.109 1.401 3.109 3.113z"/>
                        <ellipse cx="14.225" cy="3.813" rx="3.109" ry="3.113"/>
                        <path d="M27.439 3.813a3.12 3.12 0 0 1-3.11 3.113 3.12 3.12 0 0 1-3.109-3.113A3.12 3.12 0 0 1 24.33.7c1.71 0 3.109 1.401 3.109 3.113z"/>
                    </g>
                </g>
            </g>
        </g>
        <g fill="#FFFF43" fill-rule="nonzero" transform="translate(124.264 129.383)">
            <ellipse cx="3.42" cy="1.167" rx="1.088" ry="1.089"/>
            <path d="M1.321 5.68a.532.532 0 0 1-.544.546.532.532 0 0 1-.544-.545c0-.311.233-.545.544-.545.311 0 .544.234.544.545z"/>
        </g>
        <g>
            <path fill="url(#o)" fill-rule="nonzero" d="M5.236 58.785C3.021 42.5-4.29 9.485 5.236 1.23c9.526-8.254 12.627 27.438 12.406 41.492-.222 14.054.221 20.97.221 20.97" transform="translate(71.639 193.938)"/>
            <path stroke="url(#p)" stroke-linecap="round" stroke-linejoin="round" stroke-width=".5" d="M7.008 9.485c-1.772 12.269 4.21 50.192 4.21 50.192" opacity=".25" transform="translate(71.639 193.938)"/>
            <path fill="url(#q)" fill-rule="nonzero" d="M33.285 50.862C22.208 38.592-2.825 16.062.277 3.792c2.88-12.269 25.919 15.17 33.894 26.547 7.975 11.6 12.184 16.953 12.184 16.953" transform="translate(53.78 224.169)"/>
            <path stroke="url(#r)" stroke-linecap="round" stroke-linejoin="round" stroke-width=".5" d="M6.48 9.815C12.018 20.746 38.6 48.408 38.6 48.408" opacity=".25" transform="translate(53.78 224.169)"/>
            <path fill="url(#s)" fill-rule="nonzero" d="M13.292 56.492C20.823 41.77 38.989 13.438 33.007 2.285 27.027-8.87 11.741 23.7 7.31 36.862 2.658 50.023 0 56.492 0 56.492" transform="translate(189.853 200.692)"/>
            <path stroke="url(#t)" stroke-linecap="round" stroke-linejoin="round" stroke-width=".5" d="M28.355 9.87C25.92 21.914 7.31 55.376 7.31 55.376" opacity=".25" transform="translate(189.853 200.692)"/>
            <path fill="url(#u)" fill-rule="nonzero" d="M256.583 162.785c-9.304 4.462-79.75-3.123-82.408 1.339-2.437 4.461 37.881 2.9 47.628 4.238 9.526 1.339 11.298 15.392-10.19 14.723-21.488-.446-49.843-3.123-46.964 2.008 2.88 5.13 27.913 2.23 26.805 11.6-1.108 9.37-54.052 6.915-83.737 7.138-29.684.224-37.66-10.038-14.399-12.492 23.26-2.454 39.432-4.015 29.906-6.915-9.304-2.9-104.339 4.907-102.345-8.031 1.994-12.939 33.672-3.123 30.57-8.477-3.1-5.354-48.292 1.338-51.172-11.377-1.107-5.13 35.444-7.585 80.857-8.477 36.109-.67 77.977-.446 110.099-.223 26.583.223 46.741.892 52.28.892 20.38.893 22.374 9.37 13.07 14.054z" transform="translate(5.045 104.66)"/>
            <path fill="url(#v)" fill-rule="nonzero" d="M191.676 150.293c-1.108 9.37-54.053 6.915-83.737 7.138-21.488.223-31.678-5.13-26.583-9.146 36.108-.669 77.977-.446 110.098-.223.222.67.222 1.339.222 2.23z" transform="translate(5.045 104.66)"/>
            <path fill="url(#w)" fill-rule="nonzero" d="M99.964 1.946L99.742.608c.222.446.222.892.222 1.338z" transform="translate(5.045 104.66)"/>
            <path fill="url(#x)" fill-rule="nonzero" d="M1.76 23.628c.22-1.167.22-2.334.66-3.5.44-1.167 1.1-2.334 1.76-3.268 1.761-1.867 3.962-3.267 6.382-4.2 1.98-.7 4.181-.934 6.162-.467 1.1.233 1.98.7 2.86 1.167.88.467 1.54 1.633 2.42 1.867.88-3.734.88-7.468 3.301-10.501 1.54-2.1 3.961-3.5 6.382-4.2a9.3 9.3 0 0 1 6.161 0c2.64.933 4.621 3.033 5.941 5.6.66 1.167 1.1 2.567 1.54 3.967.44 1.4.44 3.034 1.1 4.2 1.101-.7 1.761-1.633 3.082-2.1 1.32-.467 2.64-.467 3.96-.233 2.42.466 4.401 2.333 5.282 4.667.66 1.4.66 3.267.22 4.667-.22 1.167-1.32 2.334 0 2.567H0c.22.467.44-.933 1.76-.233z"/>
            <path fill="url(#y)" fill-rule="nonzero" d="M278.24 50.108c-.22-1.167-.22-2.333-.66-3.5-.44-1.167-1.1-2.334-1.76-3.267-1.761-1.867-3.962-3.267-6.382-4.2-1.98-.7-4.181-.934-6.162-.468-1.1.234-1.98.7-2.86 1.167-.88.467-1.54 1.634-2.42 1.867-.88-3.734-.88-7.467-3.301-10.501-1.54-2.1-3.961-3.5-6.382-4.2a9.3 9.3 0 0 0-6.161 0c-2.64.933-4.621 3.033-5.941 5.6-.66 1.167-1.1 2.567-1.54 3.967-.44 1.4-.44 3.034-1.1 4.2-1.101-.7-1.761-1.633-3.082-2.1-1.32-.466-2.64-.466-3.96-.233-2.42.467-4.401 2.334-5.282 4.667-.66 1.4-.66 3.267-.22 4.668.22 1.166 1.32 2.333 0 2.567H280c0 .466-.22-.934-1.76-.234z"/>
        </g>
    </g>
</svg>
