<svg xmlns="http://www.w3.org/2000/svg" width="259" height="245" viewBox="0 0 259 245">
    <defs>
        <linearGradient id="a" x1="36.979%" x2="60.538%" y1="62.988%" y2="36.728%">
            <stop offset="0%" stop-color="#FFEECB"/>
            <stop offset="99.163%" stop-color="#FFFAE3"/>
        </linearGradient>
        <linearGradient id="b" x1="38.99%" x2="51.659%" y1="43.433%" y2="50.773%">
            <stop offset="0%" stop-color="#FFE472"/>
            <stop offset="100%" stop-color="#FFF8D9"/>
        </linearGradient>
        <linearGradient id="c" x1="45.486%" x2="109.575%" y1="35.94%" y2="190.8%">
            <stop offset="0%" stop-color="#42363F"/>
            <stop offset="100%" stop-color="#594469"/>
        </linearGradient>
        <linearGradient id="d" x1="52.482%" x2="47.427%" y1="11.451%" y2="110.615%">
            <stop offset="0%" stop-color="#FFFBEA"/>
            <stop offset="100%" stop-color="#EEE7C8"/>
        </linearGradient>
        <linearGradient id="e" x1="63.19%" x2="41.708%" y1="-41.152%" y2="118.701%">
            <stop offset="0%" stop-color="#EFEAD5"/>
            <stop offset="100%" stop-color="#EFEAD7"/>
        </linearGradient>
        <path id="f" d="M253.486.25a34.475 34.475 0 0 0-5.582.474c-37.153 6.133-57.72 46.669-106.312 56.442C50.116 75.565.325 155.489.325 155.489l299.809 1.476s9.973-23.885 3.492-65.804C297.484 51.432 286.308.266 253.53.25h-.043z"/>
        <path id="g" d="M0 .113h334.93v8.354H0z"/>
    </defs>
    <g fill="none" fill-rule="evenodd">
        <g fill-rule="nonzero">
            <path fill="url(#a)" d="M203.433 129.095c-7.376 3.538-63.23-2.477-65.337 1.061-1.932 3.539 30.034 2.3 37.762 3.362 7.553 1.061 8.958 12.206-8.08 11.676-17.036-.354-39.518-2.477-37.235 1.592 2.284 4.069 22.13 1.769 21.253 9.2-.878 7.43-42.856 5.483-66.392 5.66-23.535.177-29.858-7.96-11.416-9.907 18.442-1.946 31.264-3.184 23.711-5.484-7.377-2.3-82.726 3.892-81.145-6.369 1.58-10.26 26.697-2.476 24.238-6.722-2.459-4.246-38.289 1.061-40.572-9.023-.878-4.068 28.102-6.014 64.108-6.722 28.629-.53 61.825-.354 87.292-.177 21.077.177 37.06.708 41.45.708 16.16.707 17.74 7.43 10.363 11.145z" transform="translate(32 83)"/>
            <path fill="url(#b)" d="M151.971 119.188c-.878 7.43-42.855 5.484-66.391 5.661-17.037.177-25.116-4.069-21.077-7.253 28.63-.53 61.825-.354 87.293-.177.175.53.175 1.061.175 1.769z" transform="translate(32 83)"/>
            <path fill="url(#c)" d="M79.257 1.544L79.081.482c.176.354.176.708.176 1.062z" transform="translate(32 83)"/>
            <path fill="url(#d)" d="M1.396 18.738c.174-.926.174-1.85.523-2.776.35-.926.872-1.85 1.396-2.591 1.396-1.48 3.14-2.591 5.06-3.331 1.57-.555 3.314-.74 4.884-.37.873.185 1.57.555 2.268.925.698.37 1.222 1.295 1.92 1.48.697-2.96.697-5.922 2.617-8.327 1.22-1.666 3.14-2.776 5.06-3.332a7.372 7.372 0 0 1 4.884 0c2.094.74 3.664 2.406 4.71 4.442.524.925.873 2.036 1.222 3.146.349 1.11.349 2.406.872 3.331.873-.555 1.396-1.295 2.443-1.665 1.047-.37 2.093-.37 3.14-.185 1.92.37 3.49 1.85 4.187 3.7.524 1.111.524 2.592.175 3.702-.175.925-1.047 1.85 0 2.036H0c.174.37.349-.74 1.396-.185z" transform="translate(28)"/>
            <path fill="url(#e)" d="M220.604 39.738c-.174-.926-.174-1.85-.523-2.776a12.001 12.001 0 0 0-1.396-2.591c-1.396-1.48-3.14-2.591-5.06-3.331-1.57-.555-3.314-.74-4.884-.37-.873.185-1.57.555-2.268.925-.698.37-1.222 1.295-1.92 1.48-.697-2.96-.697-5.922-2.617-8.327-1.22-1.666-3.14-2.776-5.06-3.332a7.372 7.372 0 0 0-4.884 0c-2.094.74-3.664 2.406-4.71 4.442-.524.925-.873 2.036-1.222 3.146-.349 1.11-.349 2.406-.872 3.331-.873-.555-1.396-1.295-2.443-1.665-1.047-.37-2.093-.37-3.14-.185-1.92.37-3.49 1.85-4.187 3.7-.524 1.111-.524 2.592-.175 3.702.175.925 1.047 1.85 0 2.036H222c0 .37-.174-.74-1.396-.185z" transform="translate(28)"/>
        </g>
        <path fill="#9E5C00" d="M218.904 93.707s-.271-5.099-1.592-5.099c-2.769 0-7.7 14.038-7.844 16.098-.243 3.47 2.144 3.677 4.484 3.959 2.29.275 2.715-4.75 2.715-4.75l2.237-10.208z"/>
        <path fill="#1D1B22" d="M220.69 192.794l-.07 4.3.48.014.616-4.903z"/>
        <path fill="#AF834B" d="M217.378 154.972s.513 6.726 1.337 8.735c.824 2.009-.649 28.571-1.348 30.714-.155.475-.365.899-.583 1.271-.764 1.305-.936 1.572.087 1.575 1.315.005 2.467-.245 2.722-.784.442-.929.831-4.13 1.731-4.128 0 0 .615-1.193.461-1.822-.23-.945-.873-.46-.87-1.774.006-1.314 4.364-21.294 3.681-24.202-.682-2.908-1.165-3.256-1.154-6.715.011-3.46-6.064-2.87-6.064-2.87"/>
        <path fill="#393644" d="M221.011 189.442c-.404 2.404-1.959 7.028-2.918 7.156-1.245 0-1.318-.065-1.31-.906-.763 1.305-2.215 2.145-1.192 2.149 1.316.004 3.955-.082 4.21-.62.441-.929.692-4.45 1.592-4.447l-.294 4.334.478.015s.728-5.967.574-6.563c-.21-.819-.886-.971-1.14-1.118"/>
        <path fill="#8D693B" d="M220.137 148.133s-4.908 9.348-4.594 12.117c.314 2.768 1.35 5.004.46 8.783-.89 3.78-7.928 17.486-8.096 19.991-.071 1.057.25 1.156.25 1.156-.014 1.82-.582 3.77-.96 4.146-.486.483-1.034 2.882-1.496 2.88-.46-.001-4.36.416-4.36.416-.1-.89 1.092-.175 1.79-2.018.7-1.843 1.123-4.609 2.013-8.342.89-3.733 4.536-20.768 4.55-24.688.013-3.921-.347-3.94.26-6.522.61-2.58 2.887-7.416 2.887-7.416l7.296-.503z"/>
        <path fill="#393644" d="M202.58 196.518c-1.171.533-2.324.61-2.243 1.322 0 0 4.92-.07 5.382-.069.461.001.991-2.963 1.478-3.445.486-.483.035 3.46.035 3.46l.604-.007s.378-4.049.845-5.57c.371-1.211-.15-1.722-.523-2.03-1.524 2.891-1.762 7.03-5.578 6.34"/>
        <path fill="#5D3908" d="M203.763 183.345s20.02 1.326 22.466-2.454c0 0 .052-9.589.44-16.827.543-10.13 3.513-32.679-1.032-43-.747-1.695-3.388-6.313-3.388-6.313l-7.556-1.753s-5.372 30.734-6.018 40.718c-.646 9.985-4.912 29.629-4.912 29.629"/>
        <path fill="#DB9533" d="M217.312 88.608s1.769-.724 9.983 1.259l-.323 7.896s-4.291 13.975-3.612 17.463c0 0-4.1 2.708-10.192-.29 0 0 1.528-10.239.974-12.683-.554-2.445-1.66-4.662-.09-7.199 1.57-2.536 3.26-6.446 3.26-6.446"/>
        <path fill="#E9BF85" d="M213.995 108.236c.027-1.094.153-3.545.034-5.148-.185-2.337-2.193-4.985-.133-8.267 1.127-1.83 2.424-4.304 3.404-6.218l.003-.006c.46-.086.027-.004.014.023l.007-.006c-3.096 8.303-4.646 6.79-3.371 11.873.47 1.884.857 2.397.042 7.749"/>
        <path fill="#8D693B" d="M221.958 105.844c-.933.65-1.54 1.593-3.554 2.164 1.179.92 2.528 1.874 3.814 2.62.306-1.629.526-2.973.563-4.602-.045.018-.776-.196-.823-.182"/>
        <path fill="#E4B066" d="M229.651 92.64c-.597-1.89-2.356-2.773-2.356-2.773-2.032-.235-2.719 9.985-2.719 9.985l-.808 5.898c-.165.177-.77.004-.987.094-.037 1.628-.257 3.155-.563 4.784 2.009 1.165 3.863 1.818 4.665 1.016 1.824-1.821 3.37-17.111 2.768-19.004"/>
        <path fill="#9E5C00" d="M220.73 109.927s.883.588 1.228.933c.346.346 1.842 1.034 2.357.794.516-.24.81-1.953.568-4.357-.242-2.404-1.489-1.82-2.034-1.645-.545.175-1.012.192-1.012.192s-1.644 2.854-1.107 4.083M214.257 104.65s-.951-1.244-1.35-1.642c-.397-.398-.917-.104-1.522.242-.606.346-.312-.398-1.489.467s-1.47 2.335-1.02 3.321c.449.986 2.171 2.257 3.114 1.314.944-.942 2.267-3.701 2.267-3.701"/>
        <path fill="#8D693B" d="M209.596 101.91c-.207.103-.41.206-.59.302.175-.165.317-.53.562-.706.505-.356 1.266-.556 1.38-.442.135.138-.626.493-1.352.847m2.81-1.8c-.797-.17-3.283.693-3.283.693s-.66.916-.66 1.505c0 .1.056.15.148.138-.172.125-.256.228-.186.297.33.329 2.927-.919 3.082-.764.155.155-2.952.661-2.7 1.223.105.235 1.299-.138 2.049-.398-.653.254-1.609.667-1.609.916 0 .382 2.708-.205 3.301-.205.221 0 .581.234.991.492.183-.033.307.053.385.029 0 0 2.027-.045 4.607.276-2.818-1.686-5.908-4.154-6.124-4.201"/>
        <path fill="#AF834B" d="M224.232 102.365c-.137.654-.373 2.63-.424 3.096 0 0-.337-.237-.447-.122h-.003c-1.104.588-2.663 2.207-5.704 2.854-2.988.625-7.064.949-7.064-1.08 0-2.024 2.04-3.135 3.334-3.135 0 0 2.027.014 4.607.335h.006c2.578.324 5.426-2.153 5.695-1.948"/>
        <path fill="#E9BF85" d="M227.295 89.867c-1.926-.043-1.92 8.542-3.487 15.594.134-2.506.508-5.582.53-5.935.134-1.978 1.01-10.03 2.957-9.66"/>
        <path fill="#000" d="M229.085 90.534l-1.65-.589-3.609-.836-.685-6.817 5.636 4.517z"/>
        <path fill="#000" d="M219.502 74.697s-1.466 7.278-3.995 8.651c-2.529 1.372-2.792 1.238-3.413.85 0 0 .094 1.334 1.313 1.781.083.03.17.057.263.078 1.47.338-.434 1.054-1.265 1.095-.83.04 2.126 2.245 3.817 2.337 1.692.091 6.262.35 7.435-5.533 1.174-5.884-4.155-9.26-4.155-9.26"/>
        <path fill="#8D693B" d="M221.758 84.018l-2.237 6.209s-.85 3.872.39 4.549c1.239.676 4.622-3.443 4.622-4.304 0-.86.747-8.88.747-8.88l-3.522 2.426z"/>
        <path fill="#AF834B" d="M218.745 73.136c-.665 1.396-.173 3.326-.539 4.56-.365 1.233.187 7.786 3.452 7.243 3.264-.544 4.357-5.083 4.654-6.085.297-1.002-.064-4.882-1.52-6.193-1.458-1.312-4.109-1.425-4.109-1.425s-1.272.503-1.938 1.9z"/>
        <path fill="#000" d="M220.34 77.414s.316-.66.888-1.04c.572-.379 1.764-.105 1.764-.105s-1.186-.058-1.558.21c-.372.269-.633.737-.633.737l-.46.198zM219.562 77.71s-.325-.553-.784-.768c-.459-.215-.988.26-.988.26s.559-.266.862-.105c.301.16.558.543.558.543l.352.07z"/>
        <path fill="#FFF" d="M222.002 82.114c-.971.11-1.475.362-2.597-.028.782.568 1.912.517 2.597.028"/>
        <path fill="#000" d="M221.371 78.15c0 .304.172.55.386.551.214 0 .388-.245.39-.548 0-.304-.173-.55-.386-.55-.214-.001-.389.245-.39.548"/>
        <path fill="#000" d="M223.14 78.333c-1.45-1.457-2.004-.372-2.48-.29.388.018.826-.405 1.253-.299.35.083.875.396 1.228.59M218.333 78.632c.027.241.184.417.35.393.166-.023.28-.238.253-.478-.027-.24-.184-.417-.35-.394-.166.024-.28.238-.253.48"/>
        <path fill="#000" d="M219.521 78.882c-.898-1.56-1.593-.57-2.008-.54.32.059.776-.304 1.11-.157.274.116.645.473.898.697"/>
        <path fill="#000" d="M219.488 78.277a20.1 20.1 0 0 1 .126 2.49c.266.082.6.097.89-.004-.438.279-.986.102-1.018.103-.02-.642-.083-1.495.002-2.59"/>
        <path fill="#2B2B2B" d="M219.91 71.806c0-.087 1.667-2.312 4.052-2.01 2.854.36 5.47 3.337 5.641 6.374.17 3.037.129 6.431 2.588 8.008 2.458 1.576 1.776 5.682.201 7.92-1.575 2.237-3.96.84-3.96.84s1.983-.907 1.687-1.45c0 0-2.34 1.974-3.711 1.374-1.486-.65-1.906-1.875-1.906-1.875s2.767.077 1.61-1.68c-.806-1.223-.922-1.796-1.285-4.039-.319-1.96 1.017-5.56.792-8.692-.167.073-.402.115-.744.051-1.483-.275-.517-1.132-1.423-3.106-1.958-2.018-3.385-1.663-3.542-1.715"/>
        <path fill="#000" d="M222.59 70.262s-1.606-.468-3.14.364c-1.533.832-2.56 5.6-1.936 6.538.623.938-2.507.723-.75 1.243 1.759.52 7.35-7.515 5.826-8.145"/>
        <path fill="#AF834B" d="M225.079 77.512s.339-1.351 1-1.033c.663.32.88 1.374.28 2.163-.6.788-1.725.026-1.28-1.13"/>
        <path fill="#76581E" d="M151.986 110.781s1.527-.919 2.468-.864c1.2.07 3.594-.241 4.187-.805.592-.566 4.017-2.207 4.017-2.207l2.403 1.854s-11.466 6.816-12.362 6.764c-.896-.051 2.543-1.75 2.341-1.962-.201-.212-3.62 2.593-3.964 1.904-.344-.69 3.63-2.09 3.625-2.59-.005-.499-4.029 2.496-4.566 1.933-.538-.564 4.363-2.605 4.363-2.605s-.207-.35-1.615.118c-1.407.468-2.7.996-2.704.562-.005-.436 3.869-1.342 3.862-2.005 0 0-1.929.401-2.055-.097"/>
        <path fill="#896F01" d="M182.886 86.098s-8.323 12.022-10.05 13.748c-1.725 1.725-12.92 7.311-12.92 7.311l1.907 4.003 13.429-6.857 8.174-7.493-.54-10.712z"/>
        <path fill="#1D1C22" d="M192.987 192.645l-.071 4.423.492.014.635-5.042z"/>
        <path fill="#9C7323" d="M189.582 153.756s.527 6.916 1.375 8.981c.847 2.066-.668 29.379-1.387 31.582-.16.488-.375.925-.598 1.307-.786 1.342-.964 1.616.088 1.62 1.353.004 2.537-.253 2.8-.807.453-.956.854-4.248 1.78-4.244 0 0 .632-1.227.474-1.874-.237-.972-.899-.472-.894-1.824.004-1.351 4.486-21.896 3.784-24.886-.702-2.99-1.199-3.348-1.187-6.905.012-3.557-6.235-2.95-6.235-2.95M186.524 146.514s-5.047 9.612-4.724 12.458c.323 2.847 1.388 5.146.473 9.032-.914 3.886-8.152 17.979-8.325 20.556-.072 1.086.259 1.187.259 1.187-.015 1.872-.6 3.877-.988 4.264-.5.496-1.063 2.963-1.538 2.962-.475-.002-4.484.427-4.484.427-.104-.914 1.124-.18 1.841-2.075.718-1.895 1.155-4.739 2.07-8.577.913-3.839 4.665-21.355 4.678-25.386.013-4.032-.357-4.051.269-6.706.625-2.653 2.967-7.625 2.967-7.625l7.502-.517z"/>
        <path fill="#76581E" d="M181.8 158.973c-.323-2.847 4.724-12.46 4.724-12.46l-7.502.518s-2.342 4.972-2.967 7.626c-.46 1.946-.382 2.476-.314 4.211 1.434.308 3.665.759 6.213 1.17-.06-.35-.113-.703-.154-1.065M195.817 156.707c.012-3.558-6.235-2.951-6.235-2.951s.336 4.41.903 7.238c2.114.102 4.112.06 5.76-.211-.273-1.04-.435-2.028-.428-4.076"/>
        <path fill="#5C1145" d="M181.256 113.563s-.88 13.54-1.544 16.764c-.664 3.225-4.46 26.084-4.46 26.084s16.912 1.423 20.993 0c0 0 .456-29.332-.505-33.103-.96-3.77-5.162-10.631-5.162-10.631l-9.322.886z"/>
        <path fill="#E469A6" d="M182.886 86.098s2.338-1.798 10.254-.012c.215.049.412 8.634.412 8.634s-3.672 14.37-2.974 17.957c0 0-4.199 3.54-10.462.458 0 0 .814-11.285.245-13.798-.57-2.514-1.707-4.793-.094-7.401 1.613-2.61 2.619-5.838 2.619-5.838"/>
        <path fill="#CCA500" d="M182.886 86.098s2.338-1.798 10.254-.012c.215.049.412 8.634.412 8.634s-3.672 14.37-2.974 17.957c0 0-4.199 3.54-10.462.458 0 0 .814-11.285.245-13.798-.57-2.514-1.707-4.793-.094-7.401 1.613-2.61 2.619-5.838 2.619-5.838"/>
        <path fill="#76581E" d="M193.505 116.179c.128-.128 1.25-1.78 1.49-1.541.24.24-.994 1.763-.994 1.763s1.431-1.447 1.714-1.164c.282.283-1.912 2.236-2.143 2.236-.231 0-.067-1.294-.067-1.294"/>
        <path fill="#9C7323" d="M191.566 114.546s-.605.923-.159 1.368c.446.446.207.907.51 1.21.302.301 1.655.35 1.655.35s.095-1.305.764-2.8c.123-.278.519-.821 1.08-1.537a18.322 18.322 0 0 0-1.868-1.068c-1.118 1.452-1.961 2.44-1.982 2.477"/>
        <path fill="#E5B900" d="M193.136 86.1s-.785 6.237 0 7.955c.765 1.672 5.232 3.601 5.998 6.989.573 2.531-3.156 7.872-5.586 11.025.609.608 1.593 1.613 2.192 2.007 2.473-3.145 7.863-10.552 8.019-12.29.191-2.133-7.302-15.908-10.623-15.686"/>
        <path fill="#828AC3" d="M193.136 86.1a68.559 68.559 0 0 0-.239 4.33c-.024 2.62.134 3.447.712 4.104 1.344 1.556 4.938 3.456 5.525 6.51-.836-3.027-4.313-4.712-5.717-6.347-.529-.61-.632-1.263-.697-2.09-.143-1.935.12-4.56.416-6.507"/>
        <path fill="#3A3745" d="M193.314 189.189c-.417 2.472-1.806 6.734-2.76 7.134-1.584.332-1.593.167-1.583-.697-.785 1.342-1.674 2.028-.622 2.032 1.353.005 3.462.094 3.725-.46.453-.956.711-4.576 1.637-4.573l-.303 4.457.491.015s.749-6.135.59-6.749c-.215-.841-.915-1.008-1.175-1.16M168.548 196.196c-1.102.681-2.466.696-2.383 1.43 0 0 5.191-.206 5.666-.205.475.002.887-2.914 1.388-3.41.499-.496.178 3.415.178 3.415l.512.002s.355-4.03.835-5.593c.382-1.246-.154-1.772-.537-2.088-1.568 2.973-1.735 7.16-5.66 6.45"/>
        <path fill="#3C1247" d="M190.785 74.653s3.184.58 3.184 2.838-.489 1.238-1 2.85c-.512 1.613-.036 2.991-2.184 2.991s-1.775.14-2.847.791c-1.07.651-3.184-.442-3.412-2.77-.23-2.326 3.699-2.164 3.699-3.862s2.56-2.838 2.56-2.838"/>
        <path fill="#9C7323" d="M184.525 80.025s1.088 1.593.954 3.418c-.074.987-.26 2.228-.556 2.95-.63 1.536 1.12 2.174 2.242 1.744.922-.354 2.321-1.01 2.747-2.039.284-.688-2.292-8.471-2.292-8.471l-3.095 2.398z"/>
        <path fill="#76581E" d="M184.525 80.025l3.095-2.398s.303.915.69 2.145c-.727 1.098-1.692 2.16-2.888 2.571a6.44 6.44 0 0 0-.897-2.318"/>
        <path fill="#9C7323" d="M182.346 69.562s-1 .676-1.31 2.016c-.31 1.34.477 2.929.394 4.07-.082 1.142 1.626 6.745 4.335 5.661 2.707-1.083 3.338-5.326 3.405-6.254.067-.928-1.518-4.151-3.019-5.021-1.501-.87-3.805-.472-3.805-.472"/>
        <path fill="#501F5E" d="M183.349 75.229a18.822 18.822 0 0 1-.26 2.295c.228.116.528.182.806.136-.44.186-.909-.06-.938-.065.078-.59.15-1.38.392-2.366M184.598 74.074s.531-.413 1.157-.486c.625-.074 1.489.653 1.489.653s-.947-.545-1.363-.48c-.416.065-.824.342-.824.342l-.46-.03zM183.094 74.091s-.467-.413-.995-.489c-.528-.074-1.217.647-1.217.647s.768-.54 1.12-.474c.353.066.708.344.708.344l.384-.028z"/>
        <path fill="#FFF" d="M185.216 78.723c-1.345.505-1.846.47-2.31.367.667.538 1.81.227 2.31-.367"/>
        <path fill="#501F5E" d="M185 75.004c.054.218.253.357.443.31.191-.047.302-.262.248-.48-.054-.22-.252-.358-.442-.311-.191.047-.302.263-.248.481"/>
        <path fill="#42124A" d="M186.616 75.071c-1.424-1.257-1.86-.218-2.29-.113.357-.007.73-.426 1.128-.355.325.055.827.311 1.162.468"/>
        <path fill="#501F5E" d="M182.015 75.16c.05.219.213.365.361.325.15-.04.229-.25.178-.468-.05-.22-.212-.365-.362-.325-.149.04-.228.249-.177.468"/>
        <path fill="#42124A" d="M183.141 75.225c-1.15-1.202-1.546-.155-1.908-.037.298-.018.622-.447.952-.39.27.044.681.282.956.427"/>
        <path fill="#501F5E" d="M182.207 69.534c.157-.44.775-1.72 2.691-1.84l.19-.012c1.178-.048 2.36-.175 3.525.086.681.152 1.367.454 1.903.912.659.56 1.287 1.204 1.374 2.036.158 1.52-.542 3.18-.036 4.647l.011.03c.56 1.597-.188 3.35-1.745 4.012-.893.38-1.624.505-2.11-.299.07-.825 2.112-3.47.237-5.45-.13.094-.056.794-.361.802-.743.021-1.226-1.59-1.311-2.26-.146-.644-.524-1.256-1.302-1.819-.984-.63-1.729-.8-2.244-.813a4.567 4.567 0 0 0-.53.042c-.185.035-.298.08-.338.075a.488.488 0 0 1 .046-.149"/>
        <path fill="#501F5E" d="M183 68.587s-1.471-.108-2.634.903c-1.164 1.012-.994 4.648-.28 5.348.713.7-2.183 1.925-.568 1.93 2.291.005 4.913-7.919 3.482-8.181"/>
        <path fill="#6D2A81" d="M182.597 69.13c-2.164.102-3.376 1.97-2.655 3.745.123.3.31.598.618.686l.088-.45c-.118-.003-.291-.292-.344-.4-.767-1.532.247-3.327 2.293-3.582"/>
        <path fill="#9C7323" d="M187.877 74.14s.126-1.15 1.042-.83c.917.323.534 3.121-.275 2.847-.808-.274-.767-2.016-.767-2.016M144.939 133.491s2.206 6.684 2.599 7.371c.394.687.403 3.824-.225 4.25-.63.427-.171-1.272-.338-2.17-.167-.897-.987-2.093-.987-2.093s.68.929.902 2.054c.17.864-.05 1.961-.344 2.131-.68.392-.123-.658-.356-1.91-.234-1.252-.918-1.84-.918-1.84s.568 2.334-.034 2.667c-.602.333-2.689-9.09-2.689-9.09l2.39-1.37z"/>
        <path fill="#5D3908" d="M137.12 87.697s3.594 5.28 4.095 11.586c.208 2.627.024 15.643 1.296 21.06 1.646 7.015 3.939 13.722 3.939 13.722l-5.33 3.224-4.192-16.714-1.14-11.905 1.332-20.973z"/>
        <path fill="#000" d="M132.866 143.64l-7.327 53.936 3.478-.611 5.972-29.237s3.935-27.134 3.935-36.931l-6.058 12.843z"/>
        <path fill="#432C47" d="M113.81 200.812h6.766l-4.239-2.749.462-2.181c-.968 0-1.202.688-2.18.688-.275 1.605-.809 4.242-.809 4.242M125.965 200.431h6.626l-4.238-2.749.46-2.181c-.967 0-1.2.688-2.178.688-.276 1.604-.67 4.242-.67 4.242"/>
        <path fill="#000" d="M138.681 122.852c-7.207.166-10.224 4.516-16.92 6.508l.263 2.049-.462 34.525s-6.922 24.332-8.313 32.413c0 0 3.956-.254 3.729-.254l11.64-28.867 5.256-26.37 4.305-10.253.502-9.751z"/>
        <path fill="#555" d="M133.874 142.855l-6.296 25.996-10.6 29.242 11.64-28.867z"/>
        <path fill="#000" d="M127.802 83.668l-.257 4.038 9.575-1.088-2.238-2.74z"/>
        <path fill="#FFFF43" d="M140.255 114.65c0-13.7-2.125-27.327-5.12-29.06 0 0-3.481-.24-5.272-.3-2.672-.09-4.751 1.26-6.97 8.816-1.4 4.764-2.77 16.262-2.62 26.283.066 4.443-.61 8.595-.515 11.74 7.548 0 13.068-.25 20.392-.25.113-2.39.105-12.922.105-17.228"/>
        <path fill="#4D2F06" d="M131.503 101.81c.021.164-4.451-16.118-4.451-16.118s-1.501.41-3.494 1.475c-1.994 1.065-2.883 9.135-2.883 9.135s-1.19 16.67-1.19 17.993c0 .712-1.434 11.361-2.759 21.053l16.329 1.25c-.246-13.519-1.552-34.789-1.552-34.789"/>
        <path fill="#5D3908" d="M135.135 85.59s4.052 1.812 5.292 13.984c1.24 12.172 2.947 37.025 2.947 37.025h-5.643s-.611-35.504-.611-37.938c0-2.434-1.985-13.071-1.985-13.071"/>
        <path fill="#AF834B" d="M134.882 83.878l2.23 17.501.79-8.75-.782-.95v-5.06z"/>
        <path fill="#FC7575" d="M125.114 102.84l-.011-.012c.102-.008.095-.003.011.012"/>
        <path fill="#9C7323" d="M155.559 108.843s-1.68.594-2.235 1.355c-.71.97-3.575 2.73-4.387 2.828-.813.099-3.127.748-3.127.748l-.12 3.875s11.248-3.412 13.08-5.243c.635-.634-2.968.85-3.004.56-.035-.29 4.304-1.146 3.99-1.85-.314-.704-3.92 1.473-4.303 1.152-.383-.321 4.487-1.524 4.393-2.297-.093-.772-4.785 1.714-4.785 1.714s-.138-.382 1.118-1.171c1.255-.79 2.485-1.452 2.152-1.732-.333-.28-3.495 2.134-4.002 1.708 0 0 1.534-1.234 1.23-1.647"/>
        <path fill="#AF834B" d="M131.503 101.81l-3.7-18.142-3.825 2.971 3.346 6.212-.248 1.945z"/>
        <path fill="#000" d="M127.767 75.183s-1.371-3.838-.485-4.488c.886-.65 2.991-2.903 4.836-2.944 1.846-.041 3.084.512 3.249.617.165.105.805 1.443.518 3.965-.286 2.521-5.896 8.068-5.896 8.068-.166-.106-2.222-5.218-2.222-5.218z"/>
        <path fill="#9C7323" d="M134.644 80.17c-.219.653-.124 5.315-.297 6.488-.171 1.159-5.464 2.955-5.568-1.26-.103-4.215.313-9.172.313-9.172l5.552 3.944z"/>
        <path fill="#543D11" d="M134.644 80.17l-1.843-1.31-3.71-2.634v.013l-.008.099c-.012.153-.036.459-.065.883v.001l-.02.271v.019c-.02.306-.043.658-.065 1.046l-.003.065-.016.282v.003l-.008.15-.001.016-.004.058v.021l-.006.1c.69 2.26 3.295 4.713 5.549 5.005.004-.156.013-.313.024-.471.029-1.584.052-3.246.176-3.618"/>
        <path fill="#9C7323" d="M128.883 72.364c-.677 1.686-.713 4.768.903 7.1 1.615 2.33 3.846 3.532 5.444 2.357 1.598-1.176 2.055-8.553.9-10.451-1.154-1.899-6.213-1.574-7.247.994"/>
        <path fill="#000" d="M128.885 79.445s-.359-2.413-1.285-3c-.927-.589-1.344-.947-1.512-1.799-.167-.852-.007-3.442 1.954-5.24 1.96-1.797 5.228-1.797 5.228-1.797s3.077-.677 3.85.836c.773 1.513.1 2.256-.586 2.395-.686.139-.56 0-1.105 0-.547 0-.547-.287-1.468-.287-.921 0-1.815-.398-2.414 0a5.638 5.638 0 0 0-2.29 2.96"/>
        <path fill="#9C7323" d="M129.417 75.01s-1.011-1.725-1.537-.975c-.527.75-.093 2.99 1.022 3.013 1.115.022.515-2.038.515-2.038"/>
        <path fill="#000" d="M134.578 74.674c.194.455.325.935.406 1.424.16 1.059-.01 1.511-.016 1.578-.122-.023-.45-.071-.883-.185.279-.008.556-.001.831.015l-.093.068c.047-.959-.141-1.92-.245-2.9M133.211 74.93c.06.3-.072.578-.292.622-.22.045-.446-.162-.505-.461-.059-.3.072-.58.292-.624.22-.044.446.162.505.462M136.24 74.5c.058.3-.072.578-.292.622-.22.045-.447-.162-.505-.461-.06-.3.071-.579.291-.624.22-.044.447.163.506.462M131.49 74.17s.465-.816 1.24-.973c.775-.156.54.495.36.532-.181.036-1.63.288-1.6.441M135.185 72.82s.918.272 1.092.694c0 0-.972-.081-1.147-.309-.175-.227.055-.384.055-.384"/>
        <path fill="#FFF" d="M132.134 78.78s2.37.89 3.654.034c0 0-.36 1.193-.687 1.408-.69.452-2.385.109-2.967-1.442"/>
        <path fill="#9C7323" d="M22.568 92.376s-4 4.655-2.005 10.7c2.81 8.516 4.13 15.167 5.984 16.697 1.856 1.53 11.134-5.901 12.834-8.306 0 0 2.403-.32 3.549-.1.417.08.802-.318.874-.904a2.739 2.739 0 0 0-.016-.84s.29-.888-.038-1.571c0 0 .135-.984-.02-1.421-.155-.438-1.083-.443-2.61.135-.44.168-2.077 2.037-2.57 2.734-.493.696-8.214 5.464-10.147 4.781-1.661-.587-5.605-21.905-5.835-21.905"/>
        <path fill="#503356" d="M37.574 108.528c-2.243 1.539-7.605 6.307-9.17 5.753-1.662-.587-5.606-21.905-5.836-21.905 0 0-4 4.655-2.004 10.7 2.81 8.516 3.814 16.834 5.67 18.364 1.492 1.23 8.131-2.305 11.422-5.39.055-1.032.008-6.504-.082-7.522"/>
        <path fill="#0F1D5B" d="M17.263 137.336l6.401 35.913-6.4 25.64-.582 2.712h10.194c.18-1.539-4.53-1.067-5.394-3.054-.811-1.867 10.474-24.426 10.474-25.007 0-.582-3.767-34.256-3.767-34.256l-10.926-1.948z"/>
        <path fill="#1B2B80" d="M7.226 130.793l-.582 9.887 6.982 56.995-1.163 3.926h11.201c.324-2.205-7.273-2.181-7.856-4.216-.581-2.036 4.365-60.339 4.365-60.339l-12.947-6.253z"/>
        <path fill="#A066AC" d="M21.734 91.21s4.493 5.428 5.802 12.697c.59 3.278-.887 11.385-.672 19.371.261 9.73 2.146 19.248 2.146 19.248s-9.929.325-15.965-5.708c-6.037-6.035-6.401 3.863-6.401 3.863s-1.002-5.09-1.002-9.888.44-37.392 10.056-39.371c4.257-.876 6.036-.212 6.036-.212"/>
        <path fill="#9C7323" d="M12.863 138.469l.327 4.6-3.656-.833s1.528-3.22.492-4.255c-.013-.014 2.823.44 2.823.44l.014.048"/>
        <path fill="#0F1D5B" d="M15.654 144.956c.216-.282-.314-.457-.664-.783-2.41-1.847-4.546-1.858-6.497-2.425a.217.217 0 0 0-.261.163c-.091.389.471.251 2.863.893 2.511.586 3.86 1.939 4.253 2.192.04.03.233.056.306-.04"/>
        <path fill="#B385BD" d="M15.238 92.23c2.723 2.721 2.535 11.292-.63 16.854-3.164 5.56-5.074 7.676-5.074 11.318 0 3.517 4.026 17.186 4.27 18.02H9.78c-1.089-1.293-7.222-14.606-8.946-19.504-1.745-4.962 10.607-30.483 14.403-26.688"/>
        <path fill="#C6A3CD" d="M15.238 92.23c2.64 3.081 1.747 10.37.17 14.42-1.912 4.93-6.06 8.803-5.874 13.752.472-6.822 7.786-10.223 7.843-21.025.016-2.323-.447-5.588-2.14-7.147"/>
        <path fill="#9C7323" d="M16.038 81.934s-.623 5.824-.174 9.647a3.095 3.095 0 0 0 1.479 2.293c1.652.992 4.528 2.455 5.608 1.351l-1.38-9.112-5.533-4.179z"/>
        <path fill="#543D11" d="M16.038 81.934l5.534 4.18.7 4.622c-2.17.282-4.762-2.63-5.683-6.468a11.057 11.057 0 0 0-.603-1.799c.031-.34.052-.535.052-.535"/>
        <path fill="#9C7323" d="M23.35 73.639c.082.063.182.184.287.356.484.79 1.101 2.657.946 4.952-.19 2.798-.35 8.66-2.397 9.022-2.047.363-5.282-1.951-6.095-5.247-.812-3.294-2.519-4.712-1.755-7.488.764-2.776 9.013-1.595 9.013-1.595"/>
        <path fill="#9C7323" d="M23.35 73.638s-8.25-1.18-9.014 1.596c-.764 2.776.943 4.194 1.755 7.488.733-.195 1.891-.292 1.252-4.28.625-2.136 1.862-1.922 2.077-2.862 1.914.418 2.14 1.418 2.264 1.53.868 1.421 1.794 2.19 2.844 2.713.028-.461.03-.503.055-.876.163-2.403-.609-4.836-1.234-5.309"/>
        <path fill="#FD5E5A" d="M16.092 82.722c-.139-.328.086.353 0 0"/>
        <path fill="#5D3908" d="M22.248 76.29c1.093 1.772 3.75.115 3.75-1.61 0-1.723-2.025-3.963-5.866-3.963-3.842 0-3.559.678-5.019 2.103-1.46 1.425-1.366 4.606-.507 6.051.859 1.445 1.347 3.968 1.347 3.968s2.032.101 1.261-4.246c0 0 3.94-4.075 5.034-2.303z"/>
        <path fill="#9C7323" d="M15.936 78.06c.098-.842 1.058-1.108 1.576-.448.428.546.75 1.257.325 1.915-.851 1.318-2.013.234-1.924-1.194.005-.096.014-.187.023-.273"/>
        <path fill="#000" d="M22.458 83.704l1.162-.206-.541-3.056c-.012-.066-.071-.11-.132-.1-.061.011-.101.074-.09.14l.5 2.817-.941.167c-.061.01-.102.072-.09.139.012.066.071.11.132.1M21.036 80.404c.061.346.324.588.588.54.264-.046.427-.363.366-.709-.062-.345-.325-.587-.588-.54-.263.046-.427.364-.366.71M23.536 80.34c.057.318.284.544.508.504.224-.04.36-.33.304-.647-.057-.318-.284-.544-.508-.504-.224.04-.36.33-.304.647M22.074 86.118c.234-.042.376-.114.38-.116.051-.028.072-.095.045-.151a.107.107 0 0 0-.142-.053c-.041.024-.995.498-2.05-.538a.101.101 0 0 0-.149.005.12.12 0 0 0 .01.16c.752.74 1.48.768 1.906.693M22.1 78.63s-.649-.5-1.313-.382c-.664.117-1.031 1.042-1.031 1.042s.379-.763.97-.745c.593.018 1.445.481 1.445.481l-.07-.397z"/>
        <path fill="#363A68" d="M235.766 97.568s-1.091 6.524-4.515 10.916c-2.559 3.283-7.912 6.943-7.912 6.943l3.032 3.32 8.36-6.896 1.035-14.283z"/>
        <path fill="#260E0D" d="M240.344 91.466h6.705l-.216 22.04-8.902.6zM232.83 197.063c-3.777 0-3.685 1.552-3.685 1.552H240.2s-.55-4.77-.634-5.897h-2.596c-.286 1.38-1.239 4.345-4.14 4.345M251.309 197.632c-3.44 0-4.142-4.166-4.24-4.914h-2.484l-.002.363c0 .516-.644 6.103-.644 6.103h11.054s.092-1.552-3.684-1.552"/>
        <path fill="#7C6617" d="M250.323 167.633l3.53-29.83-.997-8.827H233.43l-.138 7.779-2.04 30.309s5.068 25.237 4.982 25.654h3.668c-.007-.092-1.037-27.671-1.037-27.671l4.191-24.568 1.64 25.787s-.745 23.245-.756 26.452h3.452c-.01-.073 2.932-25.085 2.932-25.085"/>
        <path fill="#0E0E0E" d="M252.987 130.136l-.13-1.16h-19.428l-.018 1.016 4.077 1.386a17.08 17.08 0 0 0 10.228.261l5.271-1.503z"/>
        <path fill="#F1A97E" d="M254.203 97.328c-2.113-2.372-7.002-6.157-12.391-5.243l-5.631 2.499-1.656 12.146-1.482 23.137 20.079.23 1.91-22.522s1.283-7.875-.83-10.247"/>
        <path fill="#9C7323" d="M241.127 86.633s-.058 4.746-.512 7.164c-.175.936.254 1.893 1.048 2.236.586.254 1.361.404 2.334.22 2.527-.482 2.612-3.32 2.612-3.32l-.852-8.655-4.63 2.355z"/>
        <path fill="#543D11" d="M245.757 84.278l-4.63 2.355s-.022 1.753-.14 3.67c1.208.06 2.726-.625 4.337-2.69.24-.308.463-.612.671-.913l-.238-2.422z"/>
        <path fill="#9C7323" d="M241.427 74.465s-1.585 1.347-2.27 3.607c-.686 2.26-1.285 3.896-1.285 3.896l.728.481s-.58 3.155-.129 4.232c.685 1.636 3.577 2.958 6.853-.721 3.277-3.68 3.555-6.926 2.998-8.513-.557-1.587-5.61-3.799-6.895-2.982"/>
        <path fill="#000" d="M242.797 77.215c-2.099.578-2.805-.312-2.398-.769 0 0-1.842.048-2.527-1.635-.686-1.684 1.363-3.098 4.618-2.136 3.255.962 6.51 3.499 6.51 3.499s1.078 2.677.564 4.696c-.514 2.02-3.537 5.186-3.537 6.148 0 0-.746-1.29-.146-3.262.6-1.971.6-3.126-.043-3.126-.642 0 .514-2.645.514-2.645s-1.456-1.347-3.555-.77z"/>
        <path fill="#9C7323" d="M245.426 81.935s.21-1.66.674-1.66c.466 0 .9.18.788 1.119-.113.937-.595 1.983-1.205 1.55-.61-.432-.257-1.01-.257-1.01"/>
        <path fill="#000" d="M241.054 79.475c0 .408-.16.739-.359.739-.197 0-.358-.331-.358-.74 0-.408.16-.739.358-.739.199 0 .359.331.359.74M241.86 78.745c-.795-.73-1.654-.255-1.662-.25l-.135-.532c.039-.023.952-.531 1.848.29l-.051.492z"/>
        <path fill="#555DA2" d="M239.675 92.305l-1.497 44.908h-9.314l2.746-20.398 1.8-12.402s.874-8.339 2.771-9.83c1.897-1.49 3.494-2.278 3.494-2.278M247.151 92.06l-.98 45.153h9.975s.376-35.788-.728-39.53c-1.105-3.74-8.267-5.623-8.267-5.623"/>
        <path fill="#777EB5" d="M236.053 93.974l4.291-2.508-1.28 22.325-2.458-12.663.83-.571zM246.748 113.79l.302-22.324 3.823 1.737-2.083 7.338.529.413z"/>
        <path fill="#1E3340" d="M229.145 120.145l-13.828-10.568 14.645-1.358 11.074 11.926z"/>
        <path fill="#9C7323" d="M236.847 115.659s1.503.343 2.058.95c.709.776 2.391 2.034 3.098 2.034.708 0 3.719.301 3.719.301l.505 3.382s-11.235-2.626-11.764-3.204c-.53-.579 2.635.429 2.635.172 0-.258-3.81-.548-3.615-1.197.197-.65 3.517.875 3.812.552.294-.322-4.008-.859-4.008-1.546s4.282.994 4.282.994.08-.35-1.08-.908c-1.159-.558-2.283-1.008-2.026-1.288.257-.28 3.22 1.498 3.61 1.072l-1.226-1.314z"/>
        <path fill="#777EB5" d="M252.67 96.81s-1.634 3.05-1.308 7.442c.326 4.391.882 11.126-.032 13.322-.914 2.196-7.61 0-7.61 0v5.197s9.71 4.027 12.522 2.709c2.813-1.318 2.545-12.664 2.545-18.227 0-5.563-4.324-14.434-6.118-10.443"/>
        <path fill="#EEF1F9" d="M252.67 96.81c-.807 1.767-1.337 4.383-1.167 7.1.302 4.088 1.255 12.961-.489 14.31-1.682 1.057-5.484.004-7.295-.646 1.777.481 6.807 1.666 7.46-.08.557-1.396.468-4.771.415-6.272-.202-6.486-.981-8.774.361-12.732a10.34 10.34 0 0 1 .714-1.68"/>
        <path fill="#FFF" d="M239.236 85.05l.129.817c1.622-.184 2.425-1.589 2.425-1.589-.963.983-2.554.773-2.554.773"/>
        <path fill="#9C7323" d="M225.074 115.523s-.196.243-.505.99c-.3.723.535 1.466.7 1.622.311.299.871.703 1.22.907.35.203.574.306.91.381.495.11 1.603-1.686 1.45-1.858-.102-.116-.226-.206-.341-.17-.122.038-1.351 1.019-1.351 1.019s1.11-1.414.983-1.835c-.126-.42-.364-.368-.46-.262-.097.107-1.508 1.434-1.508 1.434s.951-1.689.87-1.963c-.083-.274-.467-.467-.903.213-.245.382-.887 1.003-.887 1.003s.535-1.274.412-1.685c-.124-.412-.59.204-.59.204"/>
        <path fill="#000" d="M83.164 88.707l1.432-.966s-3.739-6.146-3.353-11.441c.203-2.796-4.383-6.916-5.602-6.278-.073-.029-4.071.088-4.427 9.216l-.85 10.696 4.32 3.824s2.722-4.666 6.185-2.615c3.464 2.05 4.526 1.99 4.526 1.99s-2.231-3.442-2.231-4.426"/>
        <path fill="#411026" d="M80.207 87.966s-3.822-1.902-6.876.157l.289 2.274 3.15 6.7 3.011-.676 1.458-7.07-1.032-1.385z"/>
        <path fill="#673F0A" d="M62.986 157.898s13.84-5.403 26.702-.16l-5.91-50.705-11.314 2.55-9.478 48.315z"/>
        <path fill="#8D693B" d="M95.506 198.492c-.715-1.906-1.144-4.765-2.05-8.624-.106-.454-.252-1.102-.425-1.89-1.062-.332-2.388.27-3.375.8.388 1.044.911 2.448.94 2.9.07 1.091-.264 1.192-.264 1.192.009 1.881.59 3.897.979 4.288.5.5 1.058 2.98 1.535 2.98.476 0 4.503.444 4.503.444.107-.918-1.128-.184-1.843-2.09M74.881 197.412c-.21-.654-.42-3.506-.587-7.254-1.05-.014-2.228-.374-3.34-.153.084.515.28 1.405.28 1.546 0 1.358-.662.854-.904 1.83-.16.648.47 1.883.47 1.883.93 0 1.322 3.31 1.775 4.271.261.557 1.45.82 2.81.82 1.056 0 .878-.276.094-1.628a6.775 6.775 0 0 1-.598-1.315"/>
        <path fill="#434118" d="M88.593 157.61c-.133-.575-3.833-31.892-5.218-43.447l-7.468-.26-4.127 17.086 9.82 30.937c-.334 2.86-.205 5.165.7 9.072.748 3.226 3.814 14.006 5.648 18.935.987-.53 4.011-1.583 5.083-1.955-4.177-25.86-3.033-24.323-4.438-30.368"/>
        <path fill="#646225" d="M75.346 160.81l6.254-35.117-.754-12.023h-6.12s-6.13 6.622-7.508 15.008c-1.379 8.387 1.179 32.282 1.179 32.282s-.268 3.002-.881 5.575c-.64 2.691.492 19.561 1.224 24.01 1.112-.223 4.999-.334 6.05-.319-.402-8.952-1.061-23.087-.456-24.548.397-.961.75-2.979 1.012-4.868"/>
        <path fill="#646225" d="M83.59 115.408l-10.119-.219 1.256-1.52h8.862z"/>
        <path fill="#5D3908" d="M90.332 103.928l-.023-.02c.194-.483.476-1.057-.132-1.48-.83-.578-.8-.16-.8-1.442 0-1.197-.322-1.372-1.242-1.666a36.025 36.025 0 0 1-.098-.327c-1.154-3.944-4.685-9.943-5.786-10.413-1.1-.47-1.382 2.522-1.382 2.522l3.625 11.478s.903 1.594 2.177 3.394c.263.49.525.855.77 1.045.25.328.511.655.777.972l2.748-1.873-.634-2.19z"/>
        <path fill="#1D1B22" d="M71.455 195.72l.056 4.442-.494.014-.621-5.068z"/>
        <path fill="#7F71A4" d="M81.96 88.707s-2.247-1.74-9.815-.151c-.37.078-.93 8.779-.93 8.779s2.523 13.603 1.81 17.204c0 0 5.324 4.417 11.627 1.341 0 0-.78-11.34-.2-13.863.582-2.524 1.731-4.81.119-7.437-1.612-2.626-2.612-5.873-2.612-5.873"/>
        <path fill="#FD5E5A" d="M85.192 115.22s-.155.274-.412.53c-.256.257-2.413.971-2.413.971l1.287-.75s1.538-.965 1.538-.75"/>
        <path fill="#393644" d="M71.156 192.192c.41 2.485 1.64 6.433 2.967 6.992 1.412.272 1.363.411 1.356-.457.785 1.351 1.676 2.044.618 2.044-1.359 0-3.478.083-3.74-.475-.452-.96-.7-4.598-1.63-4.598l.29 4.477-.494.014s-.731-6.167-.57-6.783c.22-.844.941-1.063 1.203-1.214M96.008 199.382c.944.883 2.463.694 2.377 1.43 0 0-5.215-.223-5.691-.223-.477 0-.883-2.931-1.383-3.431s-.19 3.43-.19 3.43h-.514s-.345-4.05-.822-5.622c-.379-1.252.16-1.78.547-2.096 1.565 2.992 1.73 7.213 5.676 6.512"/>
        <path fill="#90590F" d="M73.332 88.123s5.002 49.344-.286 63.698c-3.085 8.373-6.105 9.046-8.088 8.153-1.447-.652-2.311-2.162-2.296-3.749.054-5.458.517-23.077 4.148-35.338 4.405-14.87 2.255-16.72 2.255-19.18 0-4.259.661-10.44 1.663-12.868.139-.336 2.604-.716 2.604-.716"/>
        <path fill="#ABA399" d="M76.418 87.654c.85-.015 1.815.28 3.399.453.146.016.231-.158.39-.141-1.631-1.56-7.823-2.39-8.18.263-2.44 18.088 3.53 51.97 1.019 63.592 5.758-11.669 4.566-43.374 1.169-61.517-.297-1.586.589-2.622 2.203-2.65"/>
        <path fill="#90590F" d="M80.207 87.966c3.482 3.933 4.916 68.27 9.48 69.772 0 0-.252-18.796-.252-23.52s-2.076-35.97-3.069-38.594c-.991-2.624-4.115-7.044-4.115-7.044l-2.044-.614z"/>
        <path fill="#ABA399" d="M80.207 87.966c-.051-.052-.567-.296-.529-.213 1.996 4.257 2.941 42.963 7.64 62.817-.636-8.25-3.103-58.439-7.11-62.604"/>
        <path fill="#7C5B31" d="M87.65 106.278s.23 7.648-3.669 9.23c-3.898 1.582-4.613 3.306-4.304 3.498.309.19.632-.73 1.016-.746.384-.015.21.707-.402 1.013-.612.306-1.625.114-1.53.363.096.249 1.377.382 2.295-.267.918-.65.287.115-.096.267-.382.153-1.773.148-1.53.392.244.244 2.167.276 2.937-.211s3.981-3.424 4.731-4.173c.75-.75 3.92-7.436 3.92-9.156 0-1.72-3.235-2.523-3.369-.21"/>
        <path fill="#6B4F2B" d="M79.065 118.69l.292-.208s1.212.012 1.72-.237c.508-.25 1.13-.24.9 0-.23.241-1.379.502-1.149 1.125.23.623-1.763-.68-1.763-.68"/>
        <path fill="#8D693B" d="M83.414 119.029c-.217.134-.68.188-1.158.352-.479.165 2.167-1 2.167-1.384 0-.384-2.216.79-2.86 1.064-.733.312-1.898-.231-2.206-.579 0 0-9.13-3.06-11.555-4.778-.218-.154-.78-.944-.712-1.538-1.559.14-3.091.468-4.48 1.214.017.956-.255 2.123 0 2.594 1.584 2.913 11.889 4.004 14.055 4.004 2.166 0 4.288.517 4.89.517.603 0 3.404-1.533 3.487-2.25.078-.673-1.343.607-1.628.784"/>
        <path fill="#5D3908" d="M68.094 104.21c1.583-1.784 2.132-6.532 2.132-9.867 0-3.335-.522-5.503-.522-5.503s-3.513-.14-5.469 3.617c-2.052 3.943-4.833 7.996-2.199 20.677 1.388-.746 3.495-.828 5.053-.968.358-3.191-.33-6.45 1.005-7.955"/>
        <path fill="#90590F" d="M61.761 112.242s-.316 1.01 0 1.341c.316.332-.07 1.086.14 1.507.212.422 3.653-.678 5.281-1.14 1.629-.463.618-1.025.424-1.628-.193-.603.027-.914-.347-1.306-.373-.392-5.21.12-5.498 1.226"/>
        <path fill="#DEADC3" d="M62.183 113.704c1.24-.497 3.577-1.303 4.892-1.11.206.03.155.36-.051.316-.034 0-.684-.21-2.43.148-.812.164-1.618.385-2.411.646"/>
        <path fill="#8D693B" d="M79.02 81.696c.173.174-.532 5.203.165 6.597 0 0 1.835 7.19.589 7.338-1.084.13-5.012-5.8-5.228-6.793-.29-1.336 0-8.013 0-8.013l4.473.871z"/>
        <path fill="#5E4729" d="M78.947 83.778c-1.654 1.496-3.214.816-4.47-1.06.03-.946.066-1.838.069-1.893l4.473.872c.072.07-.005.96-.072 2.08"/>
        <path fill="#8D693B" d="M78.497 70.395s2.096.4 2.345 2.195c.25 1.796.599 3.292.25 5.387-.35 2.094-1.597 4.888-3.643 5.336-2.046.45-4.192-2.942-4.192-4.787 0-1.846-.748-4.938.649-6.834 1.397-1.895 4.591-1.297 4.591-1.297"/>
        <path fill="#FFF" d="M76.13 80.055c1.104.48 2.737.493 2.737.493s-.115.223-.315.465c-.478-.026-1.413-.112-2.183-.386a3.59 3.59 0 0 1-.239-.572"/>
        <path fill="#000" d="M76.37 80.627c.77.274 1.704.36 2.182.386-.78.93-1.609.705-2.183-.386"/>
        <path fill="#172866" d="M78.517 78.848a16.329 16.329 0 0 1-.089-1.724c.128.732.158 1.264.201 1.796-.305.083-.67.253-1.13.08.35.067.698-.033 1.018-.152"/>
        <path fill="#000" d="M77.382 77.07a1.141 1.141 0 0 0-.772-.75c-.684-.178-1.102.808-1.571.798.337.173.876-.403 1.247-.55.2-.081.378-.025.576.069.193.1.366.253.52.433"/>
        <path fill="#000" d="M76.142 76.773c0 .208.15.377.334.377.184 0 .333-.169.333-.377s-.15-.376-.333-.376c-.184 0-.334.168-.334.376M78.904 77.284a1.14 1.14 0 0 1 .804-.713c.692-.148 1.065.855 1.534.867-.344.157-.857-.442-1.22-.606-.198-.09-.378-.041-.58.043a1.793 1.793 0 0 0-.538.409"/>
        <path fill="#000" d="M80.155 77.044c-.009.208-.166.37-.35.36-.183-.007-.324-.182-.315-.39.01-.208.166-.37.35-.362.183.009.325.184.315.392M77.625 75.474c.074-.049-.523-.65-1.24-.717-.716-.067-1.49.717-1.49.717s1.055-.63 1.5-.427c.446.204.817.694 1.23.427"/>
        <path fill="#000" d="M76.645 68.875c-1.527.174-3.948-.2-5.075 2.294-.666 1.415-2.03 4.143-2.03 8.991 0 7.223-6.972 10.42-6.972 10.42l3.056 1.476 1.824-1.475-1.244 2.652 5.01.5.214-3.46 1.035 3.935 2.342-.475s-.922-11.82-1.024-16.284l.025.029s-.02-.575-.022-1.314v-.005c.012-.217.013-.44.005-.664.013-.71.05-1.458.142-1.957.224-1.222.673-1.845 1.772-2.37 1.097-.523 5.029.969 5.029.969-.136-2.274-2.56-3.437-4.087-3.262"/>
        <path fill="#000" d="M78.69 69.287c1.922.423 2.502 3.378 4.073 4.949 1.573 1.571 1.173 3.84.425 5.337-.75 1.496-1.949.523-1.949.523s.626.35 1.026-.897c.4-1.247-.3-2.22-2.42-2.918-2.122-.698-4.142-5.112-4.142-5.112-.053-.863 1.067-2.306 2.988-1.882"/>
        <path fill="#8D693B" d="M74.206 77.702s-.534-2.315-1.423-1.756c-.889.56.065 3.123.894 3.123.828 0 .53-1.367.53-1.367"/>
        <path fill="#5D3908" d="M51.742 145.241s4.496 45.942 5.62 50.845v3.098h8.623s-.522-1.033-1.496-1.033-3.437-1.118-4.111-1.893c-.675-.774.424-64.266.424-64.266h-10.71l1.65 13.25z"/>
        <path fill="#90590F" d="M59.011 135.941l-2.846 4.769s-10.643 42.535-10.119 56.489c0 0 1.01 1.654 4.572 2.633.192.053.374.702.374.702H41.7l.524-2.809s.3-47.479.3-53.008c0-5.528 1.499-12.725 1.499-12.725H59.61l-.6 3.95z"/>
        <path fill="#692204" d="M43.01 89.332s-1.87.578-2.663 3.491c-1.134 4.16-.263 22.352 4.263 25.402.177.12 7.573-4.52 7.573-4.52l-4.313-4.787 2.52-3.237-7.38-16.349zM62.21 90.69s1.405.9 2.463 5.192c1.059 4.293 2.303 18.696 1.681 19.318-.622.622-3.86 0-3.86 0L60.97 94.793l1.24-4.102z"/>
        <path fill="#000" d="M44.38 95.602s2.74 12.443 2.117 15.678c-.623 3.235-4.607 21.9-4.607 21.9h21.414s.747-20.531 0-25.26c-.747-4.728-.373-14.931-.996-17.047-.623-2.114-17.75-2.382-19.297-1.541l1.37 6.27z"/>
        <path fill="#9C7323" d="M57.41 109.167l2.615.08s.623-.87.996-1.015c.374-.146 1.453.04 1.889.798.435.757.602 1.933.726 2.39.124.456-1.059.233-1.785.233s-5.001.5-5.001.5l.56-2.986zM48.27 110.285l-.181-.157a56.657 56.657 0 0 1-2.558-2.363c-1.198-1.198-2.863-2.582-2.863-1.96 0 .622 3.14 2.968 2.863 3.244-.275.275-3.579-1.78-3.36-1.081.217.699 3.568 1.974 3.044 2.192-.524.218-2.391-.87-2.391-.31s3.672 1.803 4.762 1.803c1.089 0 .684-1.368.684-1.368"/>
        <path fill="#692204" d="M53.842 114.515c.374 0 11.64 1.991 12.512.685 0 0 .604-2.551.116-3.547-.49-.995-9.017-.466-9.017-.466l-3.61 3.328z"/>
        <path fill="#692204" d="M43.268 112.991s.022-.078.071-.211c.246-.666 1.168-2.7 3.415-3.148 2.698-.54 11.288-1.286 11.288-1.286v3.899s-11.163 6.1-12.989 6.1c-1.826 0-1.785-5.354-1.785-5.354"/>
        <path fill="#9C7323" d="M57.233 83.585l-.669 6.8c-.138 1.397-1.144 2.422-2.304 2.36a9.445 9.445 0 0 1-.911-.092c-1.553-.236-3.005-1.55-2.69-3.405.404-2.38 1.326-6.34 1.309-8.43-.028-3.419 5.265 1.023 5.265 2.767"/>
        <path fill="#543D11" d="M51.968 80.819c-.028-3.42 5.265 1.022 5.265 2.766l-.391 3.975c-.534-.088-1.675-.312-2.714-.744-1.416-.587-2.428-2.922-2.473-2.96.188-1.159.32-2.236.313-3.037"/>
        <path fill="#9C7323" d="M59.266 76.643s1.887-1.392 1.569-.172c-.318 1.22-1.263 3.84-2.255 2.807-.993-1.034.686-2.635.686-2.635"/>
        <path fill="#9C7323" d="M55.76 70.717c.255.251 3.054.052 3.97 2.925.916 2.873-.136 9.448-1.917 11.212-1.782 1.764-3.817.656-5.395-2.318-1.578-2.974-4.646-6.796-2.392-9.626 1.198-1.503 5.734-2.193 5.734-2.193"/>
        <path fill="#000" d="M58.756 72.444c4.015.077 1.932-2.73.813-3.234-1.12-.503-4.605-1.037-4.605-1.037s-2.46 1.327-4.124 2.133c-1.664.806-1.155 2.678-1.613 4.745-.458 2.066 1.177 5.576 1.177 5.576s1.302 3.522 2.065 1.405c.764-2.117 0-5.266 0-6.88 0-1.959.294-2.635 1.117-3.24.612-.45 1.155.456 5.17.532z"/>
        <path fill="#9C7323" d="M52.093 77.465s1.227 2.394.359 2.208c-.869-.187-2.581-1.42-2.204-3.127.378-1.706 1.845.919 1.845.919"/>
        <path fill="#000" d="M55.615 76.57c0 .41.246.743.55.743.302 0 .548-.333.548-.743 0-.411-.246-.744-.549-.744-.303 0-.549.333-.549.744M58.814 76.57c0 .41.246.743.55.743.303 0 .548-.333.548-.743 0-.411-.245-.744-.548-.744-.304 0-.55.333-.55.744"/>
        <path fill="#FFF" d="M56.178 82.21c-.68-.351-.998-.985-.98-.96-.09-.15-.332-.012-.229.134.306.43.647.744 1.14.953.709.31 1.487.292 1.485.25 0-.01-.008-.016-.017-.017-.161-.022-.707.008-1.399-.36"/>
        <path fill="#000" d="M56.164 74.006l.167.475s-.812-.269-1.367.396c0 0 .533-.981 1.2-.87M59.913 75.05s-.588-.38-.993-.38l.217-.359s.776.329.776.74M58.48 80.848c-.002-.026.735-2.106-.191-5.365-.046-.16-.306-.096-.26.065.008.03.804 2.887.255 5.002-.789-.118-1.082-.316-1.131-.099-.05.22.301.146 1.326.397"/>
        <path fill="#794A0A" d="M143.888 113.54l3.955-.514.872 3.892-4.254.94z"/>
        <path fill="#794A0A" d="M123.558 87.167c-1.66.497-4.601 7.498-3.809 11.475.793 3.977 6.684 18.474 8.447 20.236 1.762 1.762 18.254-1.198 18.254-1.198l-.612-5.003s-10.703 0-10.956-.608c-1.195-2.87-9.666-25.399-11.324-24.902"/>
    </g>
</svg>
