<svg xmlns="http://www.w3.org/2000/svg" width="30" height="30" viewBox="0 0 30 30">
    <g fill="none" fill-rule="evenodd" stroke="#000" stroke-linecap="round" stroke-linejoin="round" transform="translate(6 6)">
        <circle cx="9" cy="9" r="4.2"/>
        <path d="M17.072 7.5c-.415-.004-.778-.279-.893-.677-.143-.47-.331-.924-.563-1.356-.201-.364-.14-.816.152-1.113.361-.363.361-.95 0-1.313l-.808-.81c-.363-.36-.95-.36-1.313 0-.297.292-.75.354-1.113.152-.432-.231-.886-.42-1.356-.562-.398-.115-.674-.478-.678-.893-.001-.512-.416-.927-.928-.928H8.428c-.512.001-.927.416-.928.928-.004.415-.279.778-.677.893-.47.143-.924.331-1.356.563-.364.201-.816.14-1.113-.152-.363-.361-.95-.361-1.313 0l-.808.81c-.362.363-.362.95 0 1.313.29.297.352.75.151 1.113-.232.432-.42.886-.562 1.356-.116.398-.48.673-.894.676-.512.001-.927.416-.928.928v1.143c0 .513.416.928.928.929.415.004.778.279.893.677.143.47.331.924.563 1.356.201.364.14.816-.152 1.113-.361.363-.361.95 0 1.313l.81.81c.363.361.95.361 1.313 0 .297-.291.75-.353 1.113-.152.432.232.886.42 1.356.563.397.115.672.478.676.892.001.512.416.927.928.928h1.143c.513 0 .928-.416.929-.928.004-.415.279-.778.677-.893.47-.143.924-.331 1.356-.563.364-.201.816-.14 1.113.152.363.361.95.361 1.313 0l.81-.809c.361-.363.361-.95 0-1.313-.291-.296-.353-.749-.152-1.113.232-.432.42-.886.563-1.355.115-.398.477-.674.892-.678.512-.001.927-.416.928-.928V8.428c-.001-.512-.416-.927-.928-.928z"/>
    </g>
</svg>
