<svg xmlns="http://www.w3.org/2000/svg" xmlns:xlink="http://www.w3.org/1999/xlink" width="223" height="190" viewBox="0 0 223 190">
    <defs>
        <path id="prefix__a" d="M0 0.013L1.401 0.013 1.401 0.357 0 0.357z"/>
    </defs>
    <g fill="none" fill-rule="evenodd">
        <circle cx="111" cy="95" r="95" fill="#E4E4E4"/>
        <path fill="#FAFAFA" d="M81 116L207 116 207 31 81 31z"/>
        <path fill="#ECECEC" d="M81 39L207 39 207 30 81 30z"/>
        <g fill="#FAFAFA">
            <path d="M2.283 1.467c0 .65-.458 1.178-1.023 1.178S.236 2.118.236 1.467C.236.817.695.29 1.26.29s1.023.528 1.023 1.178M5.586 1.467c0 .65-.458 1.178-1.024 1.178-.565 0-1.023-.527-1.023-1.178C3.54.817 3.997.29 4.562.29c.566 0 1.024.528 1.024 1.178M8.889 1.467c0 .65-.459 1.178-1.024 1.178s-1.023-.527-1.023-1.178C6.842.817 7.3.29 7.865.29S8.89.817 8.89 1.467" transform="translate(83 33)"/>
        </g>
        <g>
            <path fill="#D19C32" d="M8.19 46.116C1.573 41.455.07 32.803.333 25.026c.044-1.297-.098-2.666.514-3.805.613-1.139 2.042-1.917 3.195-1.37.956.453 1.373 1.575 1.908 2.502.711 1.234 1.772 2.255 3.02 2.908.82.429 1.834.691 2.643.241 1.111-.617 1.242-2.165 1.234-3.456l-.045-7.218c-.008-1.292-.012-2.61.386-3.835.399-1.225 1.28-2.364 2.497-2.708 1.219-.344 2.725.364 2.982 1.628.107.526.001 1.072.036 1.608.036.536.284 1.129.789 1.278.51.151 1.023-.215 1.406-.593 1.322-1.303 2.219-2.983 3.057-4.653.838-1.67 1.652-3.38 2.85-4.801 1.2-1.422 2.86-2.549 4.693-2.654 1.835-.104 3.788 1.037 4.252 2.852.464 1.82-.589 3.667-1.735 5.14-1.7 2.186-3.712 4.12-5.952 5.72-.403.29-.84.6-.995 1.08-.278.86.53 1.715 1.374 1.998.954.32 1.99.22 2.988.34.999.118 2.08.561 2.458 1.513.525 1.32-.57 2.703-1.647 3.609-2.157 1.814-4.62 3.247-7.247 4.217-.942.348-1.934.653-2.693 1.32-.76.668-1.218 1.828-.76 2.737.46.91 1.638 1.202 2.625 1.017.986-.184 1.87-.724 2.81-1.082 1.76-.67 4.032-.548 5.16.986.74 1.008.806 2.411.43 3.613-.373 1.201-1.133 2.236-1.94 3.19-2.821 3.337-6.432 6.023-10.515 7.45-4.082 1.427-7.864 1.814-11.921.318" transform="translate(187 80)"/>
            <path fill="#1A2E35" d="M8.088 51.881c.28-3.08.95-6.719 2.093-10.64 1.135-3.925 2.733-8.123 4.554-12.456.46-1.081.914-2.15 1.36-3.203.45-1.05.895-2.092 1.392-3.083.988-1.989 2.087-3.824 3.185-5.533 1.097-1.71 2.2-3.293 3.242-4.766 1.045-1.47 2.046-2.823 3.01-4.016 1.92-2.395 3.693-4.138 4.959-5.284.63-.576 1.136-1.006 1.482-1.293l.395-.324c.09-.072.137-.107.14-.104.002.003-.04.045-.125.123l-.38.342c-.335.299-.83.74-1.452 1.325-1.244 1.166-2.992 2.921-4.89 5.322-.954 1.197-1.944 2.552-2.98 4.026-1.035 1.476-2.13 3.06-3.22 4.77-1.09 1.708-2.18 3.54-3.16 5.518-.493.987-.933 2.02-1.383 3.073l-1.358 3.202c-1.82 4.329-3.42 8.514-4.564 12.423-1.15 3.907-1.835 7.527-2.134 10.595" transform="translate(187 80)"/>
            <path fill="#1A2E35" d="M17.555 22.49c-.016.002-.06-.194-.125-.551-.068-.357-.148-.876-.238-1.52-.18-1.285-.37-3.069-.573-5.036-.202-1.969-.416-3.745-.616-5.024-.099-.64-.184-1.157-.246-1.514-.061-.357-.088-.556-.072-.56.016-.004.073.19.16.541.092.352.202.866.321 1.504.243 1.276.485 3.057.687 5.027l.504 5.041.163 1.527c.038.36.051.562.035.564" transform="translate(187 80)"/>
            <path fill="#1A2E35" d="M34.019 19.387c0 .017-.234.044-.656.08-.423.037-1.035.089-1.788.177-1.508.164-3.583.464-5.858.897-2.275.436-4.317.92-5.784 1.312-.736.191-1.326.362-1.736.478-.408.117-.637.174-.642.158-.005-.016.214-.103.615-.248.402-.143.987-.339 1.719-.552 1.46-.436 3.503-.947 5.785-1.385 2.281-.433 4.368-.708 5.885-.83.758-.066 1.373-.092 1.799-.1.425-.008.66-.004.661.013M10.383 40.935c-.007.004-.046-.066-.113-.202l-.281-.6c-.243-.523-.574-1.289-.97-2.24-.794-1.901-1.81-4.563-2.89-7.515-1.082-2.953-2.071-5.62-2.825-7.536l-.9-2.267c-.096-.247-.176-.45-.24-.618-.054-.142-.078-.219-.07-.223.007-.002.046.067.113.204l.281.6c.242.522.573 1.287.97 2.239.794 1.901 1.81 4.563 2.89 7.516 1.082 2.953 2.071 5.62 2.825 7.536l.9 2.266.24.618c.053.142.077.219.07.222" transform="translate(187 80)"/>
            <path fill="#1A2E35" d="M32.262 33.826c.002.008-.073.039-.217.09l-.636.215-2.343.765c-1.978.647-4.7 1.572-7.706 2.598-3.008 1.027-5.74 1.928-7.733 2.533-.995.303-1.804.54-2.366.693l-.648.171c-.148.037-.228.052-.23.044-.002-.008.073-.039.217-.09l.636-.215 2.342-.765c1.978-.647 4.7-1.572 7.708-2.599 3.006-1.026 5.739-1.926 7.73-2.532.997-.303 1.805-.54 2.367-.693l.648-.171c.149-.037.228-.052.23-.044" transform="translate(187 80)"/>
        </g>
        <g>
            <path fill="#1A2E35" d="M50.6 3.459c0 .074-.552.135-1.233.135s-1.234-.06-1.234-.135c0-.075.553-.136 1.234-.136.681 0 1.234.06 1.234.136M51.911.137c.076 0 .137.554.137 1.239 0 .684-.061 1.239-.137 1.239-.075 0-.136-.555-.136-1.24 0-.684.06-1.238.136-1.238M53.307 3.38c0-.076.552-.136 1.233-.136.682 0 1.234.06 1.234.135 0 .074-.552.135-1.234.135-.681 0-1.233-.06-1.233-.135M51.996 6.7c-.075 0-.136-.554-.136-1.238 0-.685.06-1.24.136-1.24.076 0 .137.555.137 1.24 0 .684-.061 1.239-.137 1.239M53.99 5.276c-.057.048-.3-.146-.543-.433-.242-.287-.391-.559-.334-.607.058-.047.302.146.544.433.242.288.391.56.334.607M53.875 1.509c.054.053-.107.299-.358.55-.252.25-.5.412-.553.36-.053-.053.107-.3.359-.55.251-.252.499-.412.552-.36M51.047 2.469c-.048.057-.281-.056-.52-.254-.24-.197-.395-.403-.347-.46.048-.058.281.055.52.253.24.197.396.403.347.46M50.936 4.129c.056.05-.084.292-.312.54-.229.248-.459.408-.515.358-.055-.05.084-.292.313-.54.228-.248.458-.408.514-.358" transform="translate(0 68)"/>
            <g transform="translate(0 68) translate(0 39.934)">
                <mask id="prefix__b" fill="#fff">
                    <use xlink:href="#prefix__a"/>
                </mask>
                <path fill="#1A2E35" d="M1.4.185c0 .043-.313.077-.7.077-.386 0-.7-.034-.7-.077C0 .143.314.108.7.108c.387 0 .7.035.7.077" mask="url(#prefix__b)"/>
            </g>
            <path fill="#1A2E35" d="M2.145 38.234c.043 0 .077.315.077.703 0 .389-.034.704-.077.704s-.078-.315-.078-.704c0-.388.035-.703.078-.703M2.937 40.074c0-.042.314-.076.7-.076.387 0 .7.034.7.076 0 .043-.313.077-.7.077-.386 0-.7-.034-.7-.077M2.193 41.96c-.043 0-.077-.315-.077-.703 0-.389.034-.704.077-.704s.078.315.078.704c0 .388-.035.703-.078.703M3.325 41.151c-.033.028-.17-.083-.308-.246-.138-.163-.222-.317-.19-.344.033-.027.171.083.309.246.138.163.222.317.19.344M3.26 39.013c.03.03-.06.17-.204.312-.142.142-.283.234-.313.204-.03-.03.06-.17.203-.312.143-.143.284-.234.314-.204M1.654 39.558c-.027.032-.16-.032-.295-.144-.136-.112-.224-.23-.197-.262.027-.032.16.032.296.144.136.112.224.229.196.262M1.591 40.5c.032.029-.047.166-.177.307-.13.14-.26.231-.292.203-.032-.029.048-.166.177-.307.13-.14.26-.231.292-.203M53.87 33.957l.08.191c.14.334.41.598.748.734l.21.085-.202.08c-.343.138-.615.408-.754.749l-.057.139-.085-.175c-.154-.318-.428-.564-.764-.686l-.182-.066.239-.114c.3-.145.537-.393.666-.698l.1-.239zM16.441 9.425l.08.19c.141.334.41.599.75.735l.209.084-.202.081c-.343.138-.615.408-.754.748l-.057.14-.085-.176c-.154-.318-.428-.564-.763-.685l-.183-.066.239-.115c.3-.144.537-.392.666-.698l.1-.238z" transform="translate(0 68)"/>
        </g>
        <g>
            <path fill="#1A2E35" d="M140.326 91.849H11.4c-2.781 0-5.036-2.244-5.036-5.012V5.388C6.364 2.62 8.619.376 11.4.376h128.926c2.781 0 5.036 2.244 5.036 5.012v81.449c0 2.768-2.255 5.012-5.036 5.012" transform="translate(51 47)"/>
            <path fill="#1A2E35" d="M144.992 93.087H6.705c-3.399 0-6.154-2.742-6.154-6.124v-1.88h150.594v1.88c0 3.382-2.755 6.124-6.153 6.124" transform="translate(51 47)"/>
            <path fill="#375A64" d="M10.095 81.257L141.243 81.257 141.243 4.01 10.095 4.01zM62.161 85.083L64.029 88.041 90.325 88.041 92.06 85.083z" transform="translate(51 47)"/>
            <path fill="#ECECEC" d="M137.68 81.01H13.928c-.625 0-1.132-.504-1.132-1.126V7.751c0-.621.507-1.126 1.132-1.126H137.68c.625 0 1.13.505 1.13 1.126v72.134c0 .62-.505 1.125-1.13 1.125" transform="translate(51 47)"/>
            <path fill="#FAFAFA" d="M12.796 81.01L138.811 81.01 138.811 12.076 12.796 12.076z" transform="translate(51 47)"/>
            <path fill="#1A2E35" d="M23.131 9.498c0 .553-.45 1.002-1.006 1.002s-1.006-.449-1.006-1.002c0-.553.45-1.001 1.006-1.001s1.006.448 1.006 1.001M17.032 9.498c0 .553-.45 1.002-1.007 1.002-.555 0-1.006-.449-1.006-1.002 0-.553.45-1.001 1.006-1.001s1.007.448 1.007 1.001M19.96 9.498c0 .553-.45 1.002-1.007 1.002-.556 0-1.006-.449-1.006-1.002 0-.553.45-1.001 1.006-1.001s1.007.448 1.007 1.001" transform="translate(51 47)"/>
            <path fill="#375A64" d="M144.168 85.083c0 .05-30.85.09-68.899.09-38.061 0-68.905-.04-68.905-.09 0-.05 30.844-.09 68.905-.09 38.048 0 68.899.04 68.899.09" transform="translate(51 47)"/>
            <path fill="#E1E1E1" d="M21.529 48.716L50.286 48.716 50.286 46.802 21.529 46.802zM58.672 22.138L87.428 22.138 87.428 20.224 58.672 20.224zM130.197 27.353c0 .05-16.013.09-35.761.09-19.755 0-35.764-.04-35.764-.09 0-.05 16.009-.09 35.764-.09 19.748 0 35.76.04 35.76.09M130.197 31.533c0 .05-16.013.09-35.761.09-19.755 0-35.764-.04-35.764-.09 0-.05 16.009-.09 35.764-.09 19.748 0 35.76.04 35.76.09M130.197 35.713c0 .05-16.013.09-35.761.09-19.755 0-35.764-.04-35.764-.09 0-.05 16.009-.09 35.764-.09 19.748 0 35.76.04 35.76.09M130.197 39.893c0 .05-16.013.09-35.761.09-19.755 0-35.764-.04-35.764-.09 0-.05 16.009-.09 35.764-.09 19.748 0 35.76.04 35.76.09M130.197 44.073c0 .05-16.013.09-35.761.09-19.755 0-35.764-.04-35.764-.09 0-.05 16.009-.09 35.764-.09 19.748 0 35.76.04 35.76.09M86.592 48.253c0 .05-6.251.09-13.96.09-7.711 0-13.96-.04-13.96-.09 0-.05 6.249-.09 13.96-.09 7.709 0 13.96.04 13.96.09M129.674 56.366c0 .05-10.525.09-23.505.09-12.984 0-23.507-.04-23.507-.09 0-.05 10.523-.09 23.507-.09 12.98 0 23.505.04 23.505.09M129.674 60.803c0 .05-10.525.09-23.505.09-12.984 0-23.507-.04-23.507-.09 0-.05 10.523-.09 23.507-.09 12.98 0 23.505.04 23.505.09M129.674 65.24c0 .05-10.525.09-23.505.09-12.984 0-23.507-.04-23.507-.09 0-.05 10.523-.09 23.507-.09 12.98 0 23.505.04 23.505.09M129.674 69.678c0 .05-10.525.09-23.505.09-12.984 0-23.507-.04-23.507-.09 0-.05 10.523-.09 23.507-.09 12.98 0 23.505.04 23.505.09M50.358 55.941c0 .05-6.274.09-14.011.09-7.74 0-14.013-.04-14.013-.09 0-.05 6.272-.09 14.013-.09 7.737 0 14.011.04 14.011.09M50.358 59.426c0 .05-6.274.09-14.011.09-7.74 0-14.013-.04-14.013-.09 0-.05 6.272-.09 14.013-.09 7.737 0 14.011.04 14.011.09M50.358 62.91c0 .05-6.274.09-14.011.09-7.74 0-14.013-.04-14.013-.09 0-.049 6.272-.089 14.013-.089 7.737 0 14.011.04 14.011.09M50.358 66.396c0 .05-6.274.09-14.011.09-7.74 0-14.013-.04-14.013-.09 0-.05 6.272-.09 14.013-.09 7.737 0 14.011.04 14.011.09M50.358 69.88c0 .05-6.274.09-14.011.09-7.74 0-14.013-.04-14.013-.09 0-.05 6.272-.09 14.013-.09 7.737 0 14.011.04 14.011.09" transform="translate(51 47)"/>
            <path fill="#F5F5F5" d="M58.654 73.892L79.057 73.892 79.057 54.249 58.654 54.249z" transform="translate(51 47)"/>
            <path fill="#ECECEC" d="M60.236 72.211L65.88 62.103 70.496 68.564 73.301 65.133 77.475 72.211zM72.463 60.137c0 .807-.657 1.46-1.468 1.46-.811 0-1.469-.653-1.469-1.46 0-.807.658-1.461 1.469-1.461.81 0 1.468.654 1.468 1.46" transform="translate(51 47)"/>
            <path fill="#ECECEC" d="M77.475 72.266c-.002-.002-.003-.03-.005-.08l-.005-.23-.01-.884-.02-3.336-.044-11.86.084.083-17.237.013c-.023.02.182-.182.095-.094v4.41l-.003 4.233-.01 7.744-.084-.084 12.464.043 3.515.022.933.01.242.005c.055.001.083.003.085.005.002.001-.024.003-.076.005-.06 0-.135.002-.232.004l-.916.01-3.497.022-12.518.043h-.084v-.085l-.01-7.744-.002-4.233-.001-2.187v-2.223c-.087.085.118-.12.099-.1l17.237.014h.083v.083l-.042 11.914-.022 3.317-.01.868-.004.22c-.002.05-.003.073-.005.072" transform="translate(51 47)"/>
            <path fill="#F5F5F5" d="M22.071 43.598L49.743 43.598 49.743 16.955 22.071 16.955z" transform="translate(51 47)"/>
            <path fill="#E1E1E1" d="M24.217 41.317L31.872 27.608 38.133 36.371 41.938 31.717 47.598 41.317zM40.8 24.941c0 1.095-.891 1.982-1.991 1.982s-1.992-.887-1.992-1.982c0-1.094.892-1.982 1.992-1.982s1.991.888 1.991 1.982" transform="translate(51 47)"/>
            <path fill="#E1E1E1" d="M47.598 41.392c-.002-.002-.004-.04-.006-.11l-.007-.31-.013-1.199-.03-4.525-.057-16.086.113.112-23.379.019c-.031.028.248-.247.13-.127V22.18c0 .998 0 1.987-.002 2.967 0 1.957-.001 3.874-.003 5.74l-.012 10.504-.115-.114 16.905.058 4.768.03 1.265.014.328.006c.074.002.113.004.115.007.002.002-.032.004-.102.006l-.316.007-1.242.013-4.743.03-16.978.058h-.115v-.115l-.013-10.503-.003-5.741V22.18 19.92l-.001-.38V19.167c-.118.115.16-.165.134-.135l23.379.018h.114v.113l-.059 16.158-.03 4.5-.012 1.176-.007.3c-.002.065-.004.098-.006.096" transform="translate(51 47)"/>
        </g>
        <g>
            <path fill="#1A2E35" d="M32.305 20.335l-2.81-.039.107-7.443c0-5.47-4.592-9.937-10.235-9.937S9.132 7.382 9.132 12.872l-.107 7.463-2.81-.039.107-7.443C6.322 5.875 12.174.182 19.367.182s13.046 5.693 13.046 12.69l-.108 7.463z" transform="translate(108 63)"/>
            <path fill="#AF834B" d="M32.565 53.724h-26.1c-3.548 0-6.424-2.798-6.424-6.25V22.957c0-3.452 2.876-6.25 6.424-6.25h26.1c3.549 0 6.425 2.798 6.425 6.25v24.517c0 3.452-2.876 6.25-6.425 6.25" transform="translate(108 63)"/>
            <path fill="#000" d="M23.398 33.263c0-2.086-1.738-3.777-3.883-3.777-2.144 0-3.882 1.691-3.882 3.777 0 1.356.736 2.541 1.839 3.208l-.994 4.473h6.368s-.716-2.81-1.166-4.545c1.036-.678 1.718-1.829 1.718-3.136" transform="translate(108 63)"/>
            <path fill="#FFF" d="M2.534 42.5c-.253-.005-.364-4.324-.25-9.645.115-5.323.413-9.633.665-9.628.252.006.365 4.323.25 9.647-.115 5.321-.413 9.632-.665 9.626M2.563 46.782c-.253.003-.463-.417-.47-.938-.007-.522.192-.948.444-.95.253-.004.463.416.47.938.007.521-.192.947-.444.95M14.781 41.55c-.201-.065.273-2.032 1.102-4.652l.102.433c-.374-.363-.765-.744-1.173-1.163-.68-.755-1.004-1.671-1.05-2.514-.05-.848.2-1.598.519-2.134.32-.542.701-.891.988-1.085.289-.194.48-.245.515-.198.091.109-.504.566-.922 1.56-.204.492-.34 1.115-.26 1.792.075.673.372 1.41.888 1.982l1.13 1.162.19.194-.087.24c-.925 2.587-1.74 4.447-1.942 4.383M30.86 19.279c-.001.123-1.557.222-4.07.285-2.515.061-5.987.085-9.822.057-1.918-.014-3.745-.04-5.407-.075-1.663-.018-3.165-.133-4.363-.012-1.207.11-2.113.502-2.666.877-.557.371-.787.684-.849.641-.044-.021.088-.414.626-.911.526-.495 1.505-1.03 2.8-1.23.644-.108 1.352-.147 2.097-.16l2.362-.025c1.661-.01 3.489-.009 5.407.005 3.834.028 7.306.104 9.819.203 2.513.1 4.067.222 4.066.345" transform="translate(108 63)"/>
        </g>
        <g>
            <path fill="#D19C32" d="M5.433 106.347l-.244.917s-3.33 5.414-2.935 5.92c.394.505 1.15 1.01 2.308.72 1.159-.29 6.048-4.93 6.048-4.93l.28-.743-5.457-1.884z" transform="translate(5 56)"/>
            <path fill="#000" d="M2.585 111.958s1.443-.638 2.274 1.223c0 0 .625-.232 2.353-1.678 1.728-1.447 3.398-2.861 3.398-2.861s.179-.142.125 0c-.053.142-.125.391-.125.391l-3.337 2.942s-1.999 1.712-2.5 1.85c-.502.137-1.007.304-1.645.02-.638-.285-.95-.737-.95-.823 0-.086.407-1.064.407-1.064" transform="translate(5 56)"/>
            <path fill="#1A2E35" d="M5.052 113.79c-.017.005-.053-.183-.176-.46-.12-.275-.346-.638-.698-.932-.353-.296-.75-.453-1.042-.523-.294-.072-.486-.074-.485-.093-.001-.011.193-.037.5.018.306.053.727.206 1.096.515.37.309.594.695.7.986.108.294.117.488.105.49" transform="translate(5 56)"/>
            <path fill="#1A2E35" d="M10.888 108.406c.002.003-.024.03-.076.078l-.233.209-.869.75-2.893 2.447c-.567.472-1.099.944-1.665 1.266-.562.324-1.164.461-1.656.392-.496-.067-.842-.314-1.022-.517-.183-.208-.222-.36-.222-.36.01-.007.065.138.253.33.183.19.524.417 1 .471.474.057 1.052-.082 1.597-.403.55-.317 1.078-.79 1.646-1.262l2.913-2.422.89-.724.246-.193c.057-.043.089-.065.091-.062M5.614 110.683c-.02.024-.282-.166-.616-.383-.333-.218-.612-.382-.598-.41.012-.026.318.098.657.32.34.22.576.451.557.473M6.329 109.904c-.015.027-.344-.133-.756-.313-.412-.182-.752-.316-.742-.346.008-.027.368.063.785.247.418.183.728.387.713.412M6.991 109.237c-.021.024-.323-.24-.76-.453-.435-.217-.828-.295-.823-.327.002-.027.417.005.87.23.455.222.734.532.713.55M7.378 108.442c-.02.025-.3-.18-.686-.35-.385-.174-.724-.247-.718-.278.002-.027.361 0 .762.18.401.178.661.427.642.448M7.21 107.69c-.007.01-.178-.076-.412-.275-.117-.1-.248-.228-.377-.386-.064-.079-.128-.165-.189-.257-.03-.046-.064-.095-.086-.158-.024-.062-.02-.154.036-.214.12-.113.269-.085.377-.043.11.044.202.113.275.189.147.155.219.337.253.488.034.152.036.278.034.363-.003.086-.012.133-.02.133-.019.002-.01-.192-.088-.477-.041-.14-.115-.303-.25-.437-.067-.067-.149-.125-.243-.16-.085-.039-.206-.04-.258.016-.054.054-.002.154.059.242.058.09.118.175.178.253.12.157.243.287.35.392.216.209.37.317.36.331" transform="translate(5 56)"/>
            <path fill="#1A2E35" d="M7.137 107.596c-.006-.003.002-.051.037-.132.034-.081.096-.195.198-.318.103-.12.247-.25.436-.347.095-.048.197-.089.313-.117.06-.012.124-.018.193 0 .07.014.142.075.158.155.024.161-.074.268-.143.353-.077.087-.163.16-.251.22-.177.119-.363.18-.52.206-.157.026-.287.017-.374.001-.087-.014-.133-.034-.131-.04.002-.02.195.03.49-.036.147-.033.317-.098.478-.213.08-.057.158-.126.227-.207.07-.079.134-.179.119-.26-.015-.08-.126-.097-.225-.075-.101.023-.201.06-.29.102-.178.086-.319.201-.424.31-.207.22-.273.406-.291.398M9.941 107.972c-.003.018-.187-.081-.469.025-.274.1-.616.37-.839.763-.226.396-.257.825-.222 1.119.035.297.114.472.097.478-.01.006-.116-.16-.173-.467-.056-.303-.036-.762.204-1.182.238-.418.605-.694.91-.784.315-.096.507.042.492.048M7.968 110.154c.02.023-.233.269-.563.55-.33.28-.614.49-.633.467-.02-.023.233-.269.563-.55.33-.28.614-.49.633-.467" transform="translate(5 56)"/>
            <path fill="#1A2E35" d="M8.63 109.802c.029-.002.07.068.088.157.019.09.01.17-.017.18-.029.01-.068-.06-.089-.157-.02-.097-.012-.178.017-.18M8.714 109.12c.028.01.034.092.013.18-.021.09-.063.16-.092.157-.03-.003-.036-.084-.014-.18.023-.097.065-.167.093-.157M9.08 108.54c.022.024-.02.088-.072.165-.054.073-.12.12-.145.104-.026-.015.001-.092.061-.172.056-.083.137-.116.155-.097M9.664 108.181c.01.029-.05.084-.133.123-.083.039-.163.05-.18.024-.016-.024.044-.08.134-.122.09-.042.17-.053.179-.025M10.346 108.101c-.004.03-.081.055-.173.055-.09 0-.168-.023-.172-.052-.005-.03.072-.055.172-.056.1 0 .177.024.173.053" transform="translate(5 56)"/>
            <path fill="#B86958" d="M51.353 20.612c-.212.258-.519 3.002-.519 3.002s-5.064 8.623-5.77 8.756c-.705.132-3.775-5.992-3.775-5.992l-3.156 2.903s1.645 7.717 6.79 9.04c2.428.626 6.662-7.07 9.492-13.462.045-.102 1.509-3.583 1.509-3.583l-4.57-.664z" transform="translate(5 56)"/>
            <path fill="#B86958" d="M55.869 21.571c.005.007-.002.038-.017.088-.133.413-.916 2.122-1.158 2.103-.273-.022-.801-.415-.742-.66.06-.244 1.05-2.12 1.05-2.12s.176-.287.722-.135c.338.094.145.724.145.724" transform="translate(5 56)"/>
            <path fill="#B86958" d="M55.109 20.498c.005.007-.001.038-.017.087-.132.413-.916 2.123-1.158 2.104-.272-.022-.801-.415-.742-.66.06-.244 1.051-2.12 1.051-2.12s.176-.287.722-.135c.337.094.144.724.144.724" transform="translate(5 56)"/>
            <path fill="#B86958" d="M54.235 19.745c.005.006-.001.037-.018.087-.132.412-.915 2.122-1.158 2.103-.272-.021-.8-.415-.741-.66.06-.244 1.05-2.12 1.05-2.12s.176-.287.722-.135c.338.094.145.725.145.725" transform="translate(5 56)"/>
            <path fill="#B86958" d="M53.358 19.012c.005.006-.001.037-.017.087-.132.413-.916 2.122-1.159 2.103-.271-.021-.8-.415-.74-.66.058-.244 1.05-2.12 1.05-2.12s.176-.286.721-.134c.338.094.145.724.145.724" transform="translate(5 56)"/>
            <path fill="#8C4231" d="M54.166 22.596c.03.01.232-.349.45-.802.217-.453.369-.83.338-.84-.03-.011-.232.348-.45.801-.217.454-.369.83-.338.84M53.148 22.155c.03.014.308-.5.621-1.149.314-.648.545-1.185.515-1.2-.03-.013-.307.5-.621 1.149-.314.648-.544 1.185-.515 1.2M52.155 21.615c.029.015.307-.5.62-1.148.315-.648.545-1.185.515-1.2-.029-.014-.307.5-.62 1.149-.314.648-.545 1.185-.515 1.2" transform="translate(5 56)"/>
            <path fill="#B86958" d="M51.363 24.015l-.346-1.516c-.15-.662-.04-1.357.31-1.94l.268-.445 3.309 1.67s-.826 1.077-1.658.443l.607 1.307-2.49.481z" transform="translate(5 56)"/>
            <path fill="#8C4231" d="M53.556 23.65c-.02-.002.015-.175-.031-.47-.046-.287-.198-.717-.595-1.036l-.316-.255.387.126.858.277-.019-.004c.358.04.786-.065.993-.412.015-.026.032-.057.04-.077l.047.113c-.956-.433-1.813-.838-2.415-1.166-.602-.325-.955-.556-.944-.576.013-.023.387.17 1.002.465.612.297 1.474.681 2.431 1.113l.078.035-.03.077c-.016.042-.034.073-.054.109-.126.206-.324.354-.536.427-.212.077-.43.08-.629.061h-.01l-.008-.003-.852-.297.071-.13c.427.367.563.838.587 1.142.022.314-.045.485-.055.481" transform="translate(5 56)"/>
            <path fill="#8C4231" d="M54.428 22.188c.034.004-.03.184.012.43.026.115.115.253.251.263.143.014.296-.09.403-.254.22-.349.443-.666.577-.898.137-.234.208-.39.233-.381.022.007-.007.18-.12.438-.113.263-.313.582-.542.945-.12.183-.338.35-.572.314-.245-.04-.34-.263-.355-.406-.015-.155.023-.269.05-.343.027-.074.05-.111.063-.108" transform="translate(5 56)"/>
            <path fill="#375A64" d="M40.07 44.271s-2.82-6.934-2.807-7.063l.73-2.58.296-1.494.952 1.107 4.657-4.862c.085.117-2.108-3.066-4.33-6.182-1.55-2.172-3.227-2.649-4.207-2.718-.74-.217-1.247-.255-1.247-.255l-8.014-.068s-2.488-.13-4.782 1.752c-.37.303-3.44 4.383-5.532 8.416l6.444 4.65 1.063-1.868.004.037c.09.633.47 2.48.597 3.107.39 1.946.513 4.288-.435 5.895 0 0-1.067 2.572-1.846 5.51h19.77s-.638-1.715-1.314-3.384" transform="translate(5 56)"/>
            <path fill="#B86958" d="M24.159 41.373l-.68-.545-.005-.062-.028.035-4.475-3.594 1.92-3.16-4.632-3.382c.021.225-4.3 6.621-3.715 7.878.827 1.776 6.437 5.327 8.734 6.727-.244.035-1.337.194-1.855.365-.585.192 1.323.697 1.784.79.181.037.55-.25.945-.63l.106.063.124-.292c.535-.55 1.06-1.193 1.177-1.373.095-.15.09-.825.056-1.536l.544-1.284z" transform="translate(5 56)"/>
            <path fill="#D19C32" d="M48.94 108.226l-.025-.654-6.628.191.058 2.157.41.013c1.823.045 9.275.11 10.482-.266 1.346-.419-4.297-1.441-4.297-1.441" transform="translate(5 56)"/>
            <path fill="#000" d="M44.736 109.807c-.11-.51-.432-.977-.883-1.284-.451-.307-1-.46-1.556-.405l.052 1.714 2.387-.025z" transform="translate(5 56)"/>
            <path fill="#000" d="M51.7 108.816s1.981.474 1.745.782c-.236.306-7.769.505-11.1.322l.006-.138 8.79-.16s.175-.78.559-.806" transform="translate(5 56)"/>
            <path fill="#1A2E35" d="M42.247 109.781c0 .003.04.006.114.009l.326.01 1.201.016c1.014.007 2.415 0 3.962-.04 1.547-.04 2.946-.103 3.958-.163l1.198-.077.325-.027c.075-.007.114-.011.113-.014 0-.002-.04-.003-.114 0l-.326.012-1.199.054c-1.012.046-2.411.102-3.958.141-1.545.04-2.945.055-3.959.061l-1.2.008-.327.004c-.074.002-.114.004-.114.006" transform="translate(5 56)"/>
            <path fill="#1A2E35" d="M51.142 109.717c.024.002.035-.265.207-.538.168-.276.41-.42.396-.438-.005-.018-.284.105-.465.4-.184.294-.158.58-.138.576M49.167 108.85c.019.01.109-.097.2-.24.093-.144.152-.269.133-.28-.019-.01-.11.098-.201.241-.092.143-.151.269-.132.279M48.625 108.602c.015.014.117-.053.228-.151.11-.098.188-.189.173-.204-.015-.015-.117.052-.228.15s-.188.19-.173.205M48.27 108.032c0 .02.154.035.345.032.19-.004.344-.023.344-.043 0-.02-.155-.035-.345-.032-.19.003-.345.022-.345.043M48.141 107.627c-.007.018.163.084.387.093.224.011.4-.04.396-.059-.005-.021-.18-.005-.392-.015-.213-.008-.384-.04-.391-.02" transform="translate(5 56)"/>
            <path fill="#1A2E35" d="M49.375 108.31c0 .007.163.022.423-.014.13-.019.284-.051.449-.105.082-.03.168-.052.255-.105.042-.028.087-.065.102-.126.015-.06-.02-.124-.07-.155-.41-.185-.81.037-.955.236-.08.102-.114.2-.13.267-.015.067-.012.106-.008.106.015.005.024-.155.183-.34.079-.091.199-.181.356-.229.148-.045.361-.062.506.019.069.044.045.119-.029.162-.068.044-.158.072-.235.101-.16.055-.308.093-.434.117-.252.049-.414.053-.413.065" transform="translate(5 56)"/>
            <path fill="#1A2E35" d="M49.485 108.326c.006.004.066-.098.04-.275-.012-.087-.05-.189-.124-.285-.078-.085-.177-.203-.36-.191-.097.014-.142.12-.124.185.01.07.045.127.077.174.066.097.14.175.208.233.136.118.242.161.247.153.007-.01-.086-.068-.207-.19-.06-.06-.126-.138-.185-.231-.06-.082-.105-.23 0-.251.106-.013.218.082.285.16.07.083.109.174.128.252.037.16 0 .263.015.266M42.331 108.1c.002.014.189-.021.488.004.296.022.71.124 1.076.379.365.255.585.597.691.855.109.26.124.437.139.435.004-.001.005-.045-.004-.124-.01-.08-.033-.193-.082-.329-.095-.27-.315-.63-.696-.896-.381-.266-.815-.363-1.12-.373-.154-.006-.279.004-.363.018-.085.014-.13.027-.129.032M45.548 109.188c-.002.02.43.074.966.063.536-.008.965-.078.963-.097-.004-.021-.434.014-.965.023-.531.01-.963-.01-.964.01" transform="translate(5 56)"/>
            <path fill="#1A2E35" d="M44.254 109.22c-.015.016.038.084.085.175.048.09.073.171.096.17.021-.002.031-.099-.024-.203-.055-.105-.143-.157-.157-.142M43.75 108.67c-.015.014.03.077.1.14.07.062.139.1.154.086.016-.015-.029-.078-.1-.14-.07-.063-.139-.101-.154-.087M43.045 108.43c.005.021.093.018.19.047.1.027.17.076.187.061.017-.012-.041-.098-.163-.132-.121-.035-.222.005-.214.024M42.545 108.322c-.008.02.031.05.086.068.056.018.107.017.114-.002.007-.02-.031-.05-.087-.068-.055-.019-.106-.018-.113.002" transform="translate(5 56)"/>
            <path fill="#000" d="M29.524 3.885c-.757-.67-1.966-.763-2.818-.218-.425.271-.76.68-1.22.89-.762.35-1.66.076-2.489.21-1.223.196-2.198 1.401-2.133 2.638.034.664.32 1.378-.005 1.958-.285.511-.923.69-1.377 1.058-.773.628-.907 1.904-.273 2.672.242.293.572.512.778.831.326.507.28 1.155.362 1.752.082.596.428 1.27 1.03 1.309.484.032.919-.375 1.403-.335.679.055.956.868 1.35 1.425.495.703 1.398 1.096 2.252.98.617-.084 1.228-.41 1.832-.257.759.193 1.215 1.082 1.99 1.193.577.083 1.111-.3 1.54-.696.428-.396.864-.846 1.438-.95.69-.123 1.355.294 2.05.39.898.123 1.848-.354 2.286-1.147.382-.691.38-1.54.738-2.246.239-.472.625-.852.922-1.29.296-.439.506-.994.332-1.494-.126-.359-.43-.63-.578-.98-.22-.525-.059-1.12.002-1.687.06-.566-.058-1.253-.578-1.487-.213-.096-.466-.097-.665-.221-.404-.251-.382-.828-.42-1.302-.054-.691-.376-1.4-.98-1.741-.605-.341-1.499-.175-1.806.447" transform="translate(5 56)"/>
            <path fill="#D19C32" d="M25.656 10.267c-.617-1.134-.712-2.54-.253-3.747.459-1.208 1.463-2.196 2.678-2.635.862-.311 1.797-.353 2.712-.316.783.031 1.582.123 2.284.468.703.345 1.3.985 1.414 1.759" transform="translate(5 56)"/>
            <path fill="#B86958" d="M29.97 24.238c1.796.138 3.347-1.244 3.416-3.043.066-1.727.125-3.473.125-3.473s2.619-.246 2.809-2.836c.19-2.591.103-8.572.103-8.572-2.924-1.472-6.417-1.248-9.129.587l-.403.273.147 13.933c.018 1.646 1.29 3.005 2.932 3.131" transform="translate(5 56)"/>
            <path fill="#1A2E35" d="M35.19 10.873c-.146-.149-.143-.388.006-.533.15-.145.388-.143.534.007.146.148.143.387-.006.533-.15.145-.389.143-.534-.007" transform="translate(5 56)"/>
            <path fill="#1A2E35" d="M36.2 10.436c-.043.042-.286-.17-.643-.193-.357-.028-.628.146-.664.097-.018-.021.027-.1.145-.179.117-.079.313-.15.535-.133.222.016.406.115.51.21.105.095.139.18.118.198M31.803 10.385c.17.12.211.355.092.526-.12.17-.355.211-.526.092-.171-.12-.212-.356-.092-.526.12-.17.355-.212.526-.092" transform="translate(5 56)"/>
            <path fill="#1A2E35" d="M32.303 10.519c-.009-.001-.218-.254-.644-.193-.357-.028-.627.145-.664.097-.018-.021.027-.1.146-.179.116-.079.312-.15.534-.133.223.016.406.114.51.209.105.096.139.18.118.199M33.573 13.292c-.001-.029.222-.06.585-.088.094-.004.168-.02.178-.07.02-.056-.01-.158-.05-.272l-.239-.743c-.327-1.057-.549-1.928-.495-1.944.054-.017.363.827.69 1.884l.223.748c.028.11.085.24.027.391-.03.075-.107.127-.17.14-.063.014-.116.01-.16.01-.364-.009-.589-.028-.59-.056" transform="translate(5 56)"/>
            <path fill="#8C4231" d="M33.517 17.684s-1.648.034-3.323-1.166c0 0 .685 1.914 3.288 1.838l.035-.672z" transform="translate(5 56)"/>
            <path fill="#000" d="M29.258 5.416c.098 1.07 1.01 2.01 2.078 2.137.637.076 1.327-.1 1.9.188.413.208.678.617.97.975.293.357.686.702 1.148.686.223-.007.433-.099.65-.153.216-.054.465-.065.643.069.284-.773.502-1.6.383-2.414-.119-.815-.642-1.614-1.432-1.85-.515-.153-1.072-.055-1.601-.146-.437-.075-.84-.276-1.244-.458-.673-.304-1.407-.566-2.138-.456-.73.11-1.435.713-1.416 1.451" transform="translate(5 56)"/>
            <path fill="#000" d="M27.073 12.508c.94.755 2.072-1.2 2.575-2.427.503-1.227.658-2.582.73-3.92.023-.437.026-.918-.228-1.262-.27-.363-.39.083-.682-.258-.576-.67-1.642-.309-2.167-.081-.874.379-1.421 1.355-1.594 2.346-.172.991-.031 2.01.11 3.008l.193 1.366c.045.322.096.656.27.923.175.266.515.44.793.305" transform="translate(5 56)"/>
            <path fill="#B86958" d="M27.038 10.377c-.002-.21-.165-.387-.375-.392-.484-.013-1.275.18-1.349 1.514-.104 1.907 1.73 1.43 1.737 1.376.005-.043-.007-1.757-.013-2.498" transform="translate(5 56)"/>
            <path fill="#8C4231" d="M26.63 12.125c-.008-.006-.034.022-.092.045-.056.021-.152.034-.249-.009-.197-.085-.35-.414-.34-.758.005-.174.05-.337.12-.471.065-.136.16-.229.263-.241.102-.018.171.046.191.102.023.054.009.092.019.095.005.006.042-.03.031-.109-.005-.038-.025-.084-.068-.123-.044-.04-.11-.063-.181-.059-.148.002-.288.13-.364.277-.084.146-.139.33-.144.525-.009.385.168.755.44.85.132.042.246.008.306-.034.062-.044.075-.086.068-.09M32.66 13.75c-.13.225-.05.546.17.683.22.138.544.07.69-.145.145-.215.09-.54-.12-.694-.21-.153-.538-.109-.699.095" transform="translate(5 56)"/>
            <path fill="#1A2E35" d="M33.85 14.121c.01.046-.37.132-.808-.027-.44-.154-.68-.462-.643-.491.036-.038.307.184.703.322.394.144.745.144.749.196" transform="translate(5 56)"/>
            <path fill="#D19C32" d="M28.984 3.927c-.706-.1-1.21-.788-1.329-1.49-.118-.703.064-1.417.25-2.105.576.401 1.005 1.01 1.189 1.687.183.677.12 1.418-.175 2.055" transform="translate(5 56)"/>
            <path fill="#D19C32" d="M28.977 3.82c-.17-.508.134-1.085.59-1.366.456-.282 1.022-.32 1.556-.275.046.004.094.01.132.036.052.036.071.103.081.165.083.52-.282 1.03-.744 1.284s-1.004.31-1.53.359c-.082.008-.17.015-.244-.021-.074-.036-.127-.132-.086-.204" transform="translate(5 56)"/>
            <path fill="#1A2E35" d="M38.424 7.242c-.009.002-.012-.036-.046-.09-.035-.053-.114-.116-.235-.13-.114-.017-.285.026-.33.185-.05.148.035.368.214.46.178.09.442.007.587-.19.15-.193.158-.494.053-.759-.2-.538-.896-.933-1.546-.765l-.106.033-.48.15.394-.305c.243-.19.314-.546.227-.827-.084-.287-.33-.496-.59-.598-.54-.215-1.089-.01-1.458.214-.19.114-.348.248-.51.34-.159.095-.323.143-.456.142-.276 0-.38-.145-.37-.145.007-.016.12.098.367.076.12-.01.262-.06.408-.157.147-.094.298-.234.494-.362.195-.126.426-.245.699-.31.27-.065.586-.067.886.049.296.11.59.347.698.7.106.337.032.768-.285 1.02l-.086-.156.122-.038c.75-.19 1.521.256 1.747.88.116.304.107.664-.09.91-.185.238-.518.343-.764.21-.234-.134-.325-.404-.25-.605.035-.1.117-.177.202-.205.084-.031.166-.03.235-.016.14.028.225.114.254.181.029.069.018.109.015.108M19.44 10.32s.064-.02.186.01c.119.031.296.122.426.326.063.1.118.228.123.378.006.148-.04.319-.16.45-.116.133-.291.224-.486.255-.194.027-.424-.01-.597-.164-.342-.317-.364-.865-.207-1.331.16-.474.536-.924 1.072-1.135.266-.102.546-.141.808-.224.263-.077.502-.222.625-.465.128-.238.139-.537.099-.826-.038-.292-.144-.576-.243-.877-.098-.299-.188-.61-.185-.935-.002-.323.121-.648.332-.882.208-.236.48-.399.767-.484.287-.084.583-.096.86-.062.566.057 1.03.343 1.487.413.227.038.45.01.636-.087.186-.098.338-.247.476-.395.27-.299.527-.6.844-.737.308-.14.606-.162.838-.138.234.024.406.094.515.149.055.027.093.053.119.07.025.019.038.03.036.032-.008.022-.222-.148-.676-.181-.223-.013-.505.018-.789.16-.29.133-.522.419-.793.73-.138.155-.295.317-.506.432-.21.116-.473.152-.722.112-.503-.075-.956-.35-1.483-.395-.516-.066-1.106.068-1.476.497-.184.208-.287.48-.286.768-.002.289.08.583.177.877.097.293.209.594.249.909.041.31.034.644-.12.933-.149.294-.45.468-.73.546-.28.086-.557.123-.8.215-.484.185-.837.595-.99 1.029-.153.427-.128.925.151 1.188.285.253.728.154.923-.065.216-.225.163-.543.052-.724-.11-.193-.268-.287-.377-.327-.11-.039-.176-.036-.176-.046M30.436 12.152c-.046.018-.096.002-.112-.037-.015-.04.01-.087.056-.105.046-.018.096-.002.112.037.015.04-.01.087-.056.105M31.117 12.095c-.05.007-.095-.032-.103-.086-.008-.055.025-.105.075-.112.049-.007.095.032.103.086.008.055-.026.105-.075.112M31.736 12.236c-.05-.006-.083-.062-.075-.124.008-.063.054-.109.104-.102.05.006.083.061.075.124-.008.063-.054.108-.104.102M31.004 12.662c-.05 0-.09-.038-.09-.085 0-.047.04-.085.09-.085.05 0 .09.038.09.085 0 .047-.04.085-.09.085M35.31 12.322c-.049.007-.095-.032-.102-.086-.008-.055.026-.105.075-.112.05-.007.095.032.103.087.007.055-.026.104-.075.111M35.764 12.349c-.047-.016-.066-.086-.043-.156.024-.07.081-.115.129-.1.047.017.066.086.042.157-.024.07-.081.115-.128.099M35.537 12.973c-.05-.008-.083-.058-.074-.113.008-.054.055-.092.104-.085.049.007.082.057.074.112-.009.055-.055.093-.104.086M49.401 107.766L41.602 51.3l-.219-3.645-19.512-.925-.814 3.07c-2.74 9.644-16.573 56.285-16.573 56.285l6.759 2.131L31.36 54.773l9.365 52.898 8.676.095z" transform="translate(5 56)"/>
            <path fill="#375A64" d="M40.388 47.108c-.05.006-.1-.106-.114-.249-.014-.142.015-.262.065-.266.049-.005.1.106.114.249.014.143-.015.262-.065.266M40.593 49.164c-.05.005-.113-.222-.142-.505-.028-.284-.011-.518.038-.523.05-.005.113.221.142.505.028.284.011.517-.038.523M40.806 51.217c-.05.006-.114-.22-.143-.504-.03-.283-.014-.517.035-.522.05-.006.114.22.144.504.03.283.014.517-.036.522M41.028 53.27c-.05.006-.115-.22-.145-.503-.032-.283-.016-.517.033-.523.05-.005.115.22.145.503.031.284.016.518-.033.524M41.257 55.323c-.05.006-.115-.22-.147-.503-.032-.283-.018-.517.031-.523.05-.006.116.22.148.503.032.283.018.517-.032.523M41.494 57.374c-.05.006-.116-.22-.15-.502-.032-.283-.019-.518.03-.523.05-.006.117.219.15.502.032.283.02.517-.03.523M41.737 59.425c-.05.006-.117-.22-.15-.502-.034-.283-.022-.517.027-.523.05-.006.117.218.151.502.034.283.021.517-.028.523M41.986 61.475c-.05.006-.117-.219-.152-.502-.035-.283-.022-.517.027-.523.05-.006.117.218.152.501.034.284.023.518-.027.524M42.24 63.524c-.049.006-.117-.218-.152-.5-.036-.284-.025-.518.025-.524.049-.006.118.218.153.5.035.284.024.518-.025.524M42.5 65.573c-.05.006-.119-.218-.154-.5-.036-.284-.026-.518.024-.524.05-.007.118.218.154.5.036.284.025.517-.024.524M42.764 67.621c-.05.007-.119-.218-.156-.5-.036-.283-.026-.517.023-.524.05-.006.12.218.156.5.036.284.026.518-.023.524M43.031 69.669c-.05.006-.119-.217-.156-.5-.037-.283-.027-.517.022-.524.05-.006.12.218.156.5.037.283.028.517-.022.524M43.302 71.716c-.05.007-.12-.217-.157-.5-.037-.283-.028-.517.021-.523.05-.007.12.217.157.5.038.282.028.517-.021.523M43.575 73.763c-.05.007-.12-.217-.158-.5-.037-.282-.028-.516.021-.523.05-.006.12.217.158.5.038.283.029.517-.02.523M43.85 75.81c-.05.007-.12-.217-.158-.5-.038-.282-.029-.516.02-.523.05-.007.12.217.159.5.038.282.029.517-.02.523M44.127 77.857c-.05.007-.12-.217-.158-.5-.039-.283-.03-.517.02-.523.049-.007.12.217.158.5.038.282.03.516-.02.523M44.404 79.903c-.05.007-.12-.217-.158-.5-.039-.282-.03-.516.02-.523.049-.007.12.217.158.5.038.282.03.516-.02.523M44.689 81.947c-.05.007-.122-.216-.162-.499-.04-.282-.033-.516.016-.523.05-.007.122.216.162.498.04.282.033.516-.016.524M44.991 83.987c-.05.008-.123-.215-.165-.496-.042-.282-.036-.516.013-.523.049-.008.123.214.165.496.042.282.036.516-.013.523M45.298 86.028c-.05.007-.123-.216-.166-.497-.043-.282-.037-.517.012-.524.05-.008.123.215.166.497.043.282.037.516-.012.524M45.607 88.069c-.05.007-.124-.215-.166-.496-.043-.282-.038-.517.011-.524.05-.008.124.215.167.496.042.282.037.516-.012.524M45.916 90.108c-.049.007-.123-.215-.166-.497-.043-.281-.038-.516.012-.523.049-.007.123.215.166.496.043.282.037.516-.012.524M46.226 92.147c-.049.007-.123-.215-.166-.497-.043-.281-.038-.516.011-.523.05-.008.124.215.167.496.043.282.037.516-.012.524M46.537 94.187c-.05.007-.124-.215-.166-.496-.043-.283-.038-.517.01-.525.05-.007.124.215.168.497.042.282.037.517-.012.524M46.848 96.23c-.049.007-.124-.215-.167-.497-.042-.283-.038-.518.012-.525.049-.007.123.215.166.498.043.282.038.517-.01.524M47.159 98.272c-.05.007-.124-.215-.167-.497-.043-.282-.037-.517.012-.524.049-.008.123.215.166.497.043.282.038.516-.011.524M47.469 100.314c-.05.007-.124-.215-.166-.497-.043-.282-.038-.517.011-.524.05-.008.124.215.166.497.043.282.038.516-.011.524M47.778 102.356c-.049.007-.123-.215-.166-.497-.043-.282-.037-.517.012-.524.049-.008.124.215.166.497.043.282.037.517-.012.524M48.086 104.399c-.05.007-.123-.216-.166-.498-.042-.282-.037-.517.012-.524.05-.007.124.216.166.497.043.283.037.518-.012.525M48.39 106.443c-.048.007-.122-.216-.164-.498-.042-.283-.036-.517.013-.524.05-.008.123.215.165.497.042.283.036.518-.013.525M48.613 107.989c-.049.007-.105-.102-.125-.244-.02-.14.004-.261.054-.268.049-.007.105.102.125.244.02.141-.004.261-.054.268M10.764 106.74c.048.015.051.138.008.274s-.116.235-.163.22c-.048-.015-.051-.138-.008-.274s.116-.235.163-.22M11.403 104.74c.047.016.014.252-.075.528-.088.276-.198.487-.246.472-.047-.015-.014-.25.075-.527.088-.276.198-.487.246-.472M12.052 102.745c.047.015.013.251-.077.527-.09.275-.201.486-.249.47-.047-.015-.012-.25.078-.526s.2-.486.248-.471M12.712 100.752c.047.016.011.251-.08.526-.092.275-.204.486-.252.47-.047-.016-.01-.251.08-.527.092-.275.205-.485.252-.469M13.381 98.762c.047.016.01.252-.082.526-.093.275-.206.485-.254.469-.047-.016-.01-.252.083-.527.093-.274.206-.484.253-.468M14.06 96.775c.047.016.009.252-.085.525-.094.275-.209.484-.256.468-.047-.016-.009-.251.085-.525.094-.275.209-.484.256-.468M14.748 94.79c.047.017.007.252-.088.526s-.21.483-.257.466c-.047-.016-.008-.25.087-.525.096-.274.21-.483.258-.466M15.444 92.809c.047.016.007.252-.09.525-.096.274-.212.482-.26.465-.046-.016-.006-.251.09-.525.097-.273.213-.482.26-.465M16.148 90.83c.047.017.006.251-.092.525-.097.273-.214.48-.261.464-.047-.017-.006-.252.092-.525.097-.273.214-.481.26-.464M16.86 88.853c.046.017.004.252-.094.525-.099.273-.216.48-.263.463-.047-.017-.005-.251.093-.524.099-.273.217-.48.263-.464M17.578 86.878c.047.018.004.252-.095.525-.1.272-.218.48-.265.462-.047-.016-.004-.251.095-.524.1-.272.218-.48.265-.463M18.303 84.906c.047.018.003.252-.097.524-.1.273-.22.48-.266.462-.047-.017-.003-.252.097-.524s.22-.479.266-.462M19.034 82.936c.047.017.003.252-.099.524-.1.272-.22.478-.267.461-.047-.017-.002-.252.099-.524.1-.272.22-.479.267-.461M19.77 80.968c.047.017.002.251-.1.523-.101.272-.222.478-.268.46-.047-.017-.002-.251.1-.523.102-.272.222-.478.269-.46M20.512 79.001c.047.018.001.252-.101.523-.103.272-.224.478-.27.46-.047-.017-.001-.252.101-.523.103-.272.224-.477.27-.46M21.259 77.036c.046.018 0 .252-.103.523-.103.272-.224.477-.271.46-.046-.018 0-.253.103-.524s.224-.477.27-.459M22.009 75.073c.046.018 0 .251-.104.523-.103.27-.225.476-.272.458-.046-.018 0-.252.104-.523.104-.27.226-.476.272-.458M22.763 73.11c.046.019 0 .253-.105.524-.104.27-.226.476-.273.458-.046-.018.001-.252.105-.523.105-.27.227-.476.273-.458M23.52 71.15c.046.018 0 .252-.105.523-.105.27-.227.476-.274.458-.046-.018.001-.253.106-.523.104-.27.227-.476.273-.458M24.28 69.19c.046.019-.001.253-.106.523s-.228.475-.274.457c-.047-.018 0-.252.106-.522.105-.27.228-.475.274-.457M25.042 67.232c.046.018-.001.252-.107.522-.105.27-.228.475-.274.457-.047-.018.001-.251.107-.522.105-.27.228-.475.274-.457M25.806 65.275c.046.018-.002.252-.107.522-.106.27-.229.475-.275.456-.046-.018.001-.251.107-.522.105-.27.229-.474.275-.456M26.571 63.318c.046.018-.002.252-.108.522-.105.27-.228.474-.275.456-.046-.018.002-.251.108-.522.106-.27.229-.474.275-.456M27.337 61.362c.047.019-.002.252-.108.522s-.229.474-.275.456c-.046-.018.002-.251.107-.522.106-.27.23-.474.276-.456M28.139 59.42c.045.02-.01.253-.122.52-.113.265-.241.466-.288.448-.045-.02.009-.251.122-.519.113-.267.242-.468.288-.448M29.04 57.524c.044.023-.025.251-.153.51-.129.259-.27.451-.315.43-.045-.021.024-.25.154-.51.13-.261.27-.454.314-.43M30.158 55.746c.038.032-.063.248-.226.484-.163.235-.33.405-.373.38-.043-.026.058-.242.226-.484.167-.241.334-.411.373-.38M31.36 54.773c.013.048-.078.117-.196.18-.12.063-.233.098-.263.057-.029-.04.044-.144.179-.215.134-.072.267-.07.28-.022" transform="translate(5 56)"/>
            <path fill="#D19C32" d="M28.2 25.178l-12.363-.334H3.227c-1.652 0-2.991 1.391-2.991 3.108v8.544c0 5.934 1.345 11.815 4.113 17.006 2.33 4.369 5.936 8.867 11.488 11.726 5.104-1.916 8.914-7.024 11.243-11.392 2.768-5.192 4.113-11.072 4.113-17.006v-8.545c0-1.716-1.34-3.107-2.992-3.107" transform="translate(5 56)"/>
            <path fill="#FFF" d="M15.409 45.175L10.834 41.393 12.377 39.53 15.134 41.81 19.647 36.635 21.471 38.224z" transform="translate(5 56)"/>
            <path fill="#000" d="M27.792 37.462c0 4.695-1.064 9.347-3.254 13.454-1.843 3.456-4.554 7.015-8.946 9.277-4.393-2.262-7.001-5.82-8.844-9.277-2.19-4.107-3.254-8.76-3.254-13.454v-6.76c0-1.359 1.06-2.46 2.367-2.46h19.564c1.307 0 2.367 1.101 2.367 2.46v6.76zm.409-12.284l-12.364-.334H3.227c-1.652 0-2.991 1.391-2.991 3.108v8.544c0 5.934 1.345 11.815 4.113 17.006 2.329 4.369 5.936 8.867 11.488 11.726 5.104-1.916 8.914-7.024 11.243-11.393 2.768-5.191 4.113-11.071 4.113-17.005v-8.545c0-1.716-1.34-3.107-2.992-3.107z" transform="translate(5 56)"/>
        </g>
    </g>
</svg>
