<?xml version="1.0" encoding="UTF-8"?>
<svg width="52px" height="60px" viewBox="0 0 52 60" version="1.1" xmlns="http://www.w3.org/2000/svg" xmlns:xlink="http://www.w3.org/1999/xlink">
    <title>A903C9BB-339E-40E9-8E2D-063912A1851E</title>
    <g id="M-TAX-WEB-V2" stroke="none" stroke-width="1" fill="none" fill-rule="evenodd">
        <g id="E01_MTAX_WEB" transform="translate(-410.000000, -591.000000)" fill-rule="nonzero">
            <g id="pdf" transform="translate(410.000000, 591.000000)">
                <path d="M10.75,0 C8.6875,0 7,1.6875 7,3.75 L7,56.25 C7,58.3125 8.6875,60 10.75,60 L48.25,60 C50.3125,60 52,58.3125 52,56.25 L52,15 L37,0 L10.75,0 Z" id="Path" fill="#E2E5E7"></path>
                <path d="M40.75,15 L52,15 L37,0 L37,11.25 C37,13.3125 38.6875,15 40.75,15 Z" id="Path" fill="#B0B7BD"></path>
                <polygon id="Path" fill="#CAD1D8" points="52 26 40 14 52 14"></polygon>
                <path d="M45,48.0833333 C45,49.1375 44.15625,50 43.125,50 L1.875,50 C0.84375,50 0,49.1375 0,48.0833333 L0,28.9166667 C0,27.8625 0.84375,27 1.875,27 L43.125,27 C44.15625,27 45,27.8625 45,28.9166667 L45,48.0833333 Z" id="Path" fill="#F15642"></path>
                <g id="Group" transform="translate(9.000000, 34.000000)" fill="#FFFFFF">
                    <path d="M0.086304,1.11857778 C0.086304,0.602311111 0.472352,0.0391111111 1.094112,0.0391111111 L4.522144,0.0391111111 C6.452384,0.0391111111 8.1896,1.40017778 8.1896,4.00888889 C8.1896,6.48071111 6.452384,7.85742222 4.522144,7.85742222 L2.044384,7.85742222 L2.044384,9.92248889 C2.044384,10.6108444 1.62864,11 1.094112,11 C0.604128,11 0.086304,10.6108444 0.086304,9.92248889 L0.086304,1.11857778 L0.086304,1.11857778 Z M2.044384,2.00835556 L2.044384,5.90382222 L4.522144,5.90382222 C5.51696,5.90382222 6.303904,4.97884444 6.303904,4.00888889 C6.303904,2.91573333 5.51696,2.00835556 4.522144,2.00835556 L2.044384,2.00835556 Z" id="Shape"></path>
                    <path d="M11.096096,11 C10.606112,11 10.071584,10.7184 10.071584,10.032 L10.071584,1.14986667 C10.071584,0.588622222 10.606112,0.179911111 11.096096,0.179911111 L14.494432,0.179911111 C21.276256,0.179911111 21.127776,11 14.628064,11 L11.096096,11 L11.096096,11 Z M12.03152,2.08853333 L12.03152,9.09333333 L14.494432,9.09333333 C18.501536,9.09333333 18.679712,2.08853333 14.494432,2.08853333 L12.03152,2.08853333 L12.03152,2.08853333 Z" id="Shape"></path>
                    <path d="M23.533152,2.21368889 L23.533152,4.6992 L27.317536,4.6992 C27.852064,4.6992 28.386592,5.2624 28.386592,5.808 C28.386592,6.32426667 27.852064,6.74666667 27.317536,6.74666667 L23.533152,6.74666667 L23.533152,10.0300444 C23.533152,10.5776 23.163808,10.9980444 22.644128,10.9980444 C21.990816,10.9980444 21.591776,10.5776 21.591776,10.0300444 L21.591776,1.14791111 C21.591776,0.586666667 21.992672,0.177955556 22.644128,0.177955556 L27.85392,0.177955556 C28.507232,0.177955556 28.89328,0.586666667 28.89328,1.14791111 C28.89328,1.64853333 28.507232,2.21173333 27.85392,2.21173333 L23.533152,2.21173333 L23.533152,2.21368889 Z" id="Path"></path>
                </g>
                <path d="M43.15,51 L8,51 L8,53 L43.15,53 C44.1675,53 45,52.1 45,51 L45,49 C45,50.1 44.1675,51 43.15,51 Z" id="Path" fill="#CAD1D8"></path>
            </g>
        </g>
    </g>
</svg>