<svg xmlns="http://www.w3.org/2000/svg" width="59" height="59" viewBox="0 0 59 59">
    <g fill="none" fill-rule="nonzero">
        <path fill="#5D3908" d="M35.483 20.094l-9.392 9.398a1.947 1.947 0 0 1-1.269.508c-.471 0-.943-.181-1.305-.508-.69-.726-.69-1.887 0-2.576l9.392-9.399c.689-.69 1.849-.69 2.575 0 .688.726.688 1.887 0 2.577z"/>
        <path fill="#352004" d="M34.523 20.066L29 26v-5.107l3.146-3.38c.636-.684 1.708-.684 2.377 0 .636.719.636 1.87 0 2.553z"/>
        <path fill="#5D3908" d="M19.285 29c-.258 0-.518-.057-.765-.175l-7.572-3.675c-.847-.411-1.19-1.41-.767-2.23.425-.82 1.454-1.155 2.299-.744l7.572 3.675c.847.41 1.19 1.409.767 2.23a1.72 1.72 0 0 1-1.534.919z"/>
        <path fill="#352004" d="M38.766 15a1.75 1.75 0 0 1-1.412-.715 1.797 1.797 0 0 1 .353-2.499l8.47-6.427a1.745 1.745 0 0 1 2.47.357 1.797 1.797 0 0 1-.354 2.5l-8.47 6.426c-.317.241-.688.358-1.057.358z"/>
        <path fill="#D19C32" d="M9 18c-2.767 0-5 2.233-5 5 0 2.766 2.233 5 5 5s5-2.234 5-5c0-2.767-2.233-5-5-5z"/>
        <path fill="#7C6617" d="M23 25c-2.767 0-5 2.233-5 5 0 2.766 2.233 5 5 5s5-2.234 5-5c0-2.767-2.233-5-5-5z"/>
        <path fill="#CCA500" d="M36 11c-2.767 0-5 2.233-5 5 0 2.766 2.233 5 5 5s5-2.234 5-5c0-2.767-2.233-5-5-5z"/>
        <path fill="#5D3908" d="M50 0c-2.767 0-5 2.233-5 5 0 2.766 2.233 5 5 5s5-2.234 5-5c0-2.767-2.233-5-5-5zM55 19.719V57H45V19.719c0-.963.733-1.719 1.667-1.719h6.666c.934 0 1.667.756 1.667 1.719z"/>
        <path fill="#CCA500" d="M41 28.797V57H31V28.797C31 27.79 31.733 27 32.667 27h6.666c.934 0 1.667.79 1.667 1.797z"/>
        <path fill="#7C6617" d="M28 43.725V57H18V43.725c0-.966.733-1.725 1.667-1.725h6.666c.934 0 1.667.759 1.667 1.725z"/>
        <path fill="#D19C32" d="M14 35.733V56H4V35.733C4 34.763 4.733 34 5.667 34h6.666c.934 0 1.667.762 1.667 1.733z"/>
        <path fill="#352004" d="M50 10V0c3.32 0 6 2.233 6 5 0 2.766-2.68 5-6 5zM56 19.719V57h-6V18h4c1.12 0 2 .756 2 1.719z"/>
        <path fill="#A48500" d="M36 21V11c3.32 0 6 2.233 6 5 0 2.766-2.68 5-6 5zM42 28.797V57h-6V27h4c1.12 0 2 .79 2 1.797z"/>
        <path fill="#4E400E" d="M23 35V25c3.32 0 6 2.233 6 5 0 2.766-2.68 5-6 5zM29 43.725V57h-6V42h4c1.12 0 2 .759 2 1.725z"/>
        <path fill="#A47B28" d="M9 28V18c3.32 0 6 2.233 6 5 0 2.766-2.68 5-6 5zM15 35.733V56H9V34h4c1.12 0 2 .762 2 1.733z"/>
        <path fill="#5D3908" d="M59 57.5c0 .84-.76 1.5-1.729 1.5H1.73C.76 59 0 58.34 0 57.5S.76 56 1.729 56H57.27c.969 0 1.729.66 1.729 1.5z"/>
        <path fill="#71460B" d="M59 57.5c0 .84-.773 1.5-1.758 1.5H29v-3h28.242c.985 0 1.758.66 1.758 1.5z"/>
    </g>
</svg>
