<svg xmlns="http://www.w3.org/2000/svg" xmlns:xlink="http://www.w3.org/1999/xlink" width="266" height="177" viewBox="0 0 266 177">
    <defs>
        <path id="prefix__a" d="M0 0L266 0 266 168 0 168z"/>
        <path id="prefix__c" d="M0.442 0.346L202.88 0.346 202.88 118 0.442 118z"/>
        <path id="prefix__e" d="M0.5 0.25L0.75 0.25 0.75 0.5 0.5 0.5z"/>
        <path id="prefix__g" d="M0.5 0.25L0.75 0.25 0.75 0.5 0.5 0.5z"/>
        <path id="prefix__i" d="M0.462 0.199L151.8 0.199 151.8 98.576 0.462 98.576z"/>
        <path id="prefix__k" d="M0.145 0.137L128.53 0.137 128.53 65.479 0.145 65.479z"/>
    </defs>
    <g fill="none" fill-rule="evenodd">
        <g transform="translate(0 2)">
            <mask id="prefix__b" fill="#fff">
                <use xlink:href="#prefix__a"/>
            </mask>
            <path fill="#FFF8EA" d="M260 0v168H63.632C28.49 168 0 133.037 0 89.907 0 40.253 32.797 0 73.257 0H260z" mask="url(#prefix__b)"/>
        </g>
        <g>
            <g transform="translate(11) translate(24 58)">
                <mask id="prefix__d" fill="#fff">
                    <use xlink:href="#prefix__c"/>
                </mask>
                <path fill="#BDA882" d="M200.7 36.379L141.15 1.626c-3.235-1.889-8.89-1.66-12.632.51L3.54 74.62c-3.74 2.17-4.152 5.459-.917 7.347l59.55 34.753c3.235 1.888 8.89 1.66 12.63-.51l124.98-72.486c3.74-2.17 4.15-5.458.916-7.346" mask="url(#prefix__d)"/>
            </g>
            <path fill="#FCDDA4" d="M229.077 72.671l-61.726-35.96c-4.335-2.526-11.913-2.22-16.927.683L24.152 110.5c-5.014 2.903-5.564 7.303-1.23 9.829l61.728 35.96c4.334 2.526 11.912 2.22 16.925-.682L227.849 82.5c5.013-2.902 5.563-7.303 1.228-9.829" transform="translate(11)"/>
            <path fill="#5D3908" d="M160.525 35.685c-3.263 0-6.705.798-9.393 2.356L24.675 111.339c-2.53 1.467-3.981 3.387-3.984 5.268 0 1.532.976 2.946 2.755 3.983l61.817 36.055c4.239 2.473 11.688 2.166 16.605-.685l126.457-73.298c2.53-1.467 3.981-3.388 3.984-5.27 0-1.53-.976-2.944-2.755-3.981l-61.816-36.055c-1.922-1.121-4.506-1.67-7.213-1.67M92.475 159c-2.834 0-5.54-.577-7.559-1.753L23.1 121.193c-2-1.168-3.102-2.796-3.099-4.587.003-2.138 1.581-4.276 4.331-5.87l126.457-73.299c5.107-2.96 12.866-3.267 17.296-.683l61.817 36.053c2 1.168 3.102 2.796 3.099 4.587-.003 2.138-1.581 4.277-4.331 5.871l-126.457 73.298c-2.781 1.613-6.35 2.437-9.737 2.437" transform="translate(11)"/>
            <path fill="#5D3908" d="M231.988 78.014c-.038 1.93-1.43 3.956-4.138 5.54l-126.26 73.873c-5.013 2.933-12.59 3.242-16.925.689l-61.72-36.336c-2-1.178-2.945-2.76-2.908-4.41l-.012-.014L20 126.46l.014-.005c-.068 1.674.877 3.283 2.905 4.478l61.72 36.336c4.334 2.553 11.912 2.244 16.924-.689l126.261-73.873c2.83-1.656 4.236-3.795 4.146-5.803l.001.002L232 78l-.012.014" transform="translate(11)"/>
            <path fill="#5D3908" d="M20.691 126.343c.011.034.015.07.015.106-.065 1.595.906 3.061 2.737 4.129l61.81 36.065c4.238 2.475 11.685 2.168 16.603-.685L228.3 92.638c2.617-1.518 4.067-3.501 3.979-5.442-.002-.016-.001-.032 0-.048l.022-6.41c-.71 1.262-1.953 2.445-3.63 3.417l-126.445 73.321c-5.106 2.962-12.864 3.267-17.294.684l-61.81-36.066c-1.078-.628-1.892-1.392-2.413-2.244l-.018 6.493zM92.464 169c-2.833.001-5.54-.577-7.558-1.754l-61.81-36.066c-2.025-1.182-3.117-2.831-3.084-4.657-.008-.027-.012-.056-.012-.085l.025-9.037c0-.145.09-.275.226-.325.137-.052.288-.011.382.1.055.066.097.163.095.248-.038 1.57.935 3.015 2.74 4.068l61.811 36.065c4.238 2.475 11.687 2.167 16.603-.684l126.444-73.321c2.488-1.442 3.935-3.339 3.97-5.205.002-.089.037-.173.1-.237.097-.102.254-.139.383-.086.13.054.221.176.221.318l-.03 8.84v.014c.084 2.2-1.49 4.4-4.325 6.045L102.2 166.562c-2.78 1.613-6.348 2.438-9.736 2.438z" transform="translate(11)"/>
            <path fill="#FFF" d="M224.824 74.138l-59.421-34.855c-3.228-1.894-8.87-1.664-12.604.511l-124.707 72.7c-3.734 2.175-4.143 5.474-.916 7.368l59.422 34.855c3.228 1.894 8.87 1.664 12.603-.511l124.708-72.7c3.732-2.175 4.142-5.474.915-7.368" transform="translate(11)"/>
            <path fill="#FAD5A7" d="M106.303 105.21L71 84.632l10.921-6.366L195.895 54 209 61.672l-74.686 43.539c-8.667 5.052-19.345 5.052-28.011 0" transform="translate(11)"/>
            <path fill="#FCEACE" d="M224.824 74.138l-59.421-34.855c-3.228-1.894-8.87-1.664-12.604.511l-124.707 72.7c-3.734 2.175-4.143 5.474-.916 7.368l59.422 34.855c3.228 1.894 8.87 1.664 12.603-.511l124.708-72.7c3.732-2.175 4.142-5.474.915-7.368" transform="translate(11)"/>
            <path fill="#DEC88A" d="M134.465 105.174L206 63.116l-40.412-23.83c-3.216-1.898-8.839-1.668-12.558.512L74 86.113l16.984 9.985 15.437 9.076c8.677 5.101 19.367 5.101 28.044 0" transform="translate(11)"/>
            <path fill="#DEC88A" d="M174.02 105.071c-6.637 3.905-17.402 3.905-24.04 0-6.64-3.905-6.64-10.238-.001-14.142 6.639-3.905 17.403-3.905 24.042 0 6.639 3.905 6.639 10.237 0 14.142" transform="translate(11)"/>
            <path fill="#5D3908" d="M176.703 93.37c-8.396 5.175-22.01 5.175-30.406 0C142.1 90.783 140 87.391 140 84v3.749c0 3.39 2.1 6.781 6.297 9.37 8.397 5.175 22.01 5.175 30.406 0 4.199-2.588 6.297-5.98 6.297-9.37V84c0 3.391-2.098 6.783-6.297 9.37" transform="translate(11)"/>
            <path fill="#5D3908" d="M139.705 87.672v.28c0 3.257 2.19 6.337 6.164 8.67 8.344 4.895 21.92 4.895 30.262 0 3.976-2.333 6.165-5.413 6.164-8.67v-.279c-.98 2.25-2.962 4.306-5.811 5.977-8.538 5.01-22.43 5.01-30.967 0-2.85-1.673-4.831-3.728-5.812-5.978M161 101c-5.607 0-11.214-1.254-15.483-3.758-4.202-2.466-6.516-5.765-6.517-9.29v-3.594c0-.197.158-.358.352-.358.195 0 .353.161.353.358 0 3.26 2.19 6.34 6.164 8.672 8.344 4.896 21.92 4.895 30.262 0 3.975-2.331 6.164-5.411 6.164-8.671 0-.197.158-.358.353-.358.194 0 .352.16.352.358v3.593c0 3.525-2.313 6.824-6.516 9.29C172.214 99.746 166.607 101 161 101" transform="translate(11)"/>
            <path fill="#F9BF30" d="M176.703 94.34c-8.396 4.88-22.01 4.88-30.406 0-8.396-4.883-8.396-12.797 0-17.679 8.396-4.881 22.01-4.881 30.406 0 8.396 4.882 8.396 12.796 0 17.678" transform="translate(11)"/>
            <path fill="#5D3908" d="M161 73.676c-5.48 0-10.96 1.172-15.13 3.517-3.976 2.235-6.165 5.184-6.165 8.307s2.189 6.072 6.164 8.308c8.344 4.69 21.92 4.689 30.262 0 3.976-2.236 6.164-5.185 6.164-8.307 0-3.123-2.189-6.072-6.164-8.307-4.172-2.344-9.653-3.518-15.132-3.518M161.001 98c-5.608 0-11.215-1.199-15.484-3.598C141.314 92.04 139 88.877 139 85.5c0-3.377 2.314-6.54 6.517-8.9 8.536-4.8 22.428-4.8 30.966 0 4.203 2.36 6.517 5.523 6.517 8.901 0 3.377-2.314 6.54-6.516 8.9-4.27 2.4-9.877 3.599-15.483 3.599" transform="translate(11)"/>
            <g transform="translate(11) translate(0 176)">
                <mask id="prefix__f" fill="#fff">
                    <use xlink:href="#prefix__e"/>
                </mask>
            </g>
            <path fill="#E8A200" d="M176.777 76.607c-8.414-4.81-22.054-4.81-30.467 0-8.413 4.809-8.413 12.606 0 17.414 2.468 1.411 5.391 2.395 8.495 2.979L182 81.455c-1.02-1.772-2.758-3.439-5.223-4.848" transform="translate(11)"/>
            <path fill="#FFF" d="M155 87.628l1.373-.72c-.938-.541-1.358-1.09-1.259-1.649.1-.558.732-1.163 1.9-1.814l2.497.962c-.709.381-1.143.7-1.304.955-.161.256-.078.47.249.64.428.225.917.192 1.469-.097.308-.162.536-.34.685-.534.15-.194.236-.382.259-.562.023-.181.014-.413-.028-.695l-.138-.991c-.032-.24-.041-.447-.027-.623.014-.175.065-.367.152-.576.087-.207.242-.407.462-.6.22-.193.508-.382.862-.568.883-.463 1.834-.697 2.855-.702 1.02-.005 2.01.205 2.966.63l1.304-.684.723.38-1.296.68c.28.166.5.337.66.513.157.174.257.337.3.49.04.152.034.31-.018.472-.054.163-.132.308-.235.437-.103.13-.241.265-.414.405-.172.141-.338.263-.497.362-.158.1-.34.208-.54.324l-2.47-.998c.189-.104.343-.19.462-.26.12-.07.241-.148.366-.232.124-.085.214-.159.269-.22.055-.064.094-.129.117-.196.023-.068.01-.131-.038-.19-.048-.06-.13-.117-.245-.173-.225-.112-.487-.152-.786-.119-.299.034-.561.11-.786.228-.216.114-.387.23-.51.35-.125.122-.204.26-.238.416-.035.155-.052.276-.052.363 0 .087.009.227.027.42l.118.959c.027.265.028.506.003.721-.025.217-.09.443-.194.681-.102.238-.275.467-.52.69-.244.221-.556.433-.937.632-.764.4-1.646.616-2.645.646-1 .03-1.935-.14-2.805-.508L155.71 88l-.71-.372z" transform="translate(11)"/>
            <path fill="#BDA882" d="M201.02 166.071c-6.638 3.905-17.402 3.905-24.04 0-6.64-3.905-6.64-10.237-.001-14.142 6.639-3.905 17.403-3.905 24.042 0 6.639 3.906 6.639 10.237 0 14.142" transform="translate(11)"/>
            <path fill="#5D3908" d="M202.703 151.37c-8.396 5.175-22.01 5.175-30.406 0C168.1 148.783 166 145.39 166 142v3.748c0 3.392 2.1 6.782 6.297 9.37 8.397 5.176 22.01 5.176 30.406.001 4.199-2.589 6.297-5.98 6.297-9.371V142c0 3.391-2.1 6.783-6.297 9.37" transform="translate(11)"/>
            <path fill="#5D3908" d="M166.705 145.672v.28c0 3.257 2.19 6.337 6.164 8.67 8.345 4.895 21.92 4.895 30.262 0 3.975-2.333 6.164-5.411 6.164-8.67v-.28c-.98 2.25-2.962 4.307-5.811 5.978-8.539 5.01-22.43 5.009-30.967 0-2.85-1.673-4.831-3.728-5.812-5.978M188.001 159c-5.608 0-11.215-1.254-15.484-3.758-4.202-2.466-6.516-5.765-6.517-9.29v-3.594c0-.197.158-.358.352-.358.195 0 .353.161.353.358 0 3.26 2.19 6.34 6.164 8.672 8.344 4.896 21.92 4.896 30.262 0 3.975-2.332 6.164-5.412 6.164-8.672 0-.197.158-.358.353-.358.194 0 .352.161.352.358v3.594c0 3.525-2.314 6.824-6.516 9.29-4.269 2.504-9.876 3.758-15.483 3.758" transform="translate(11)"/>
            <path fill="#D19C32" d="M202.703 152.34c-8.396 4.88-22.01 4.88-30.406-.002-8.396-4.88-8.396-12.795 0-17.677 8.396-4.881 22.01-4.881 30.406 0 8.396 4.882 8.396 12.796 0 17.678" transform="translate(11)"/>
            <path fill="#5D3908" d="M188 131.677c-5.48 0-10.96 1.171-15.13 3.516-3.976 2.234-6.164 5.184-6.165 8.307 0 3.122 2.189 6.073 6.164 8.307 8.344 4.69 21.92 4.69 30.262 0 3.975-2.234 6.164-5.185 6.164-8.306 0-3.123-2.189-6.073-6.164-8.308-4.172-2.345-9.653-3.516-15.132-3.516m.002 24.323c-5.608 0-11.215-1.199-15.484-3.599-4.203-2.361-6.517-5.524-6.517-8.9 0-3.379 2.314-6.54 6.517-8.901 8.536-4.8 22.428-4.8 30.966 0 4.203 2.361 6.517 5.523 6.517 8.9 0 3.38-2.314 6.54-6.516 8.901-4.27 2.4-9.877 3.599-15.483 3.599" transform="translate(11)"/>
            <g transform="translate(11) translate(0 176)">
                <mask id="prefix__h" fill="#fff">
                    <use xlink:href="#prefix__g"/>
                </mask>
            </g>
            <path fill="#FFF" d="M181 147.627l1.373-.72c-.938-.54-1.358-1.09-1.259-1.648.099-.558.732-1.163 1.9-1.815l2.497.963c-.709.381-1.143.7-1.304.955-.161.256-.078.47.249.64.427.225.916.192 1.469-.097.308-.162.536-.34.685-.534.15-.194.236-.382.259-.562.023-.181.014-.413-.028-.695l-.138-.991c-.032-.24-.041-.447-.027-.623.014-.175.065-.368.152-.576.087-.207.242-.407.462-.6.22-.193.508-.382.862-.568.883-.463 1.834-.697 2.855-.702 1.02-.005 2.01.205 2.966.63l1.303-.684.724.38-1.296.68c.28.166.5.337.66.512.157.175.257.338.3.49.04.152.034.31-.018.473-.054.163-.132.308-.235.437-.104.13-.241.265-.414.405-.172.141-.338.263-.497.362-.158.1-.34.208-.54.324l-2.47-.998c.189-.104.343-.19.462-.261.12-.07.241-.147.366-.231.124-.085.214-.159.269-.221.055-.063.094-.129.117-.196.023-.068.01-.13-.038-.19-.048-.059-.13-.116-.245-.172-.225-.113-.487-.152-.786-.119-.299.034-.561.11-.786.228-.217.114-.387.23-.511.35-.124.122-.203.26-.237.416-.035.155-.052.276-.052.363 0 .087.009.227.027.42l.118.959c.027.265.028.505.003.721-.025.217-.09.442-.194.68-.102.238-.275.468-.52.69-.244.222-.556.433-.938.633-.763.4-1.645.616-2.644.646-1 .03-1.935-.14-2.805-.508l-1.386.727-.71-.373z" transform="translate(11)"/>
            <path fill="#5D3908" d="M224.205 66L164 32 231.868 35.126 236.084 39.068 237 44.982 236.328 49 234.311 53.882 232.295 57.705 230.035 60.571z" transform="translate(11)"/>
            <path fill="#5D3908" d="M165.748 32.733l58.182 32.52 5.587-5.151 2.205-2.772 1.964-3.697 1.97-4.723.65-3.851-.882-5.633-3.998-3.7-65.678-2.993zM223.98 66c-.059 0-.118-.015-.172-.045l-59.636-33.332c-.138-.077-.204-.235-.159-.382.045-.148.186-.252.347-.24l67.226 3.065c.083.003.163.037.223.092l4.176 3.865c.055.05.09.118.102.19l.908 5.798c.005.034.005.07 0 .104l-.667 3.939c-.004.024-.01.049-.02.071l-1.997 4.787-2.01 3.775-2.274 2.861-5.809 5.36c-.066.06-.151.092-.238.092z" transform="translate(11)"/>
            <path fill="#FCE0A8" d="M174.293.983c-.101-.063-.206-.123-.31-.18l-.02-.01h-.001c-2.392-1.285-5.639-1.051-9.214 1.02L83 49.147c.348.262.655.576.94.917l3.1-1.794 16.542 36.055 8.563 11.724 5.587 1.95 32.795-17.694 53.9-30.91 19.768-11.91 5.162-1.645 4.643-.276L174.293.983z" transform="translate(11)"/>
            <g transform="translate(11) translate(82)">
                <mask id="prefix__j" fill="#fff">
                    <use xlink:href="#prefix__i"/>
                </mask>
                <path fill="#5D3908" d="M30.099 95.995l5.33 1.857 32.583-17.564 53.766-30.805 19.716-11.868c.023-.013.048-.025.073-.033l5.15-1.64c.027-.008.055-.013.084-.015l3.483-.207-58.57-33.894-.008-.004c-.096-.06-.193-.116-.293-.17l-.02-.011C89.014.368 85.87.725 82.536 2.653L1.408 49.588c.137.127.273.267.411.42l2.845-1.645c.084-.05.184-.06.277-.03.093.029.169.095.21.184L21.64 84.424l8.459 11.571zm5.359 2.581c-.039 0-.077-.006-.113-.02l-5.575-1.94c-.066-.025-.124-.068-.165-.123L21.06 84.805c-.013-.02-.025-.04-.035-.06L4.681 49.15 1.918 50.75c-.144.084-.33.052-.438-.077-.3-.36-.589-.641-.88-.86-.093-.07-.144-.181-.138-.298.007-.115.072-.22.173-.279L82.19 2.054C85.73.006 89.104-.359 91.699 1.021c.013.005.025.012.038.019.113.062.22.124.327.19l59.563 34.468c.132.076.199.23.163.379-.035.149-.163.257-.315.265l-4.59.274-5.07 1.614-19.687 11.85-53.78 30.813-32.726 17.642c-.051.027-.107.041-.164.041z" mask="url(#prefix__j)"/>
            </g>
            <path fill="#5D3908" d="M63.265 31C55.95 35.283 50 45.737 50 54.304c0 4.136 1.39 7.083 3.648 8.547l.003.004.036.021c.134.086.271.166.41.241L113.617 98l-3.645-6.68.425-6.672 1.152-3.75 1.757-3.997s1.455-2.736 1.546-2.798c.091-.06 2.152-2.766 2.152-2.766l2.004-2.122 2.179-1.413L123 65.999 63.265 31z" transform="translate(11)"/>
            <path fill="#5D3908" d="M54.22 62.063c.157.098.28.17.404.237l58.697 34.408-3.055-5.6c-.032-.06-.046-.126-.042-.194l.426-6.699c.002-.028.007-.056.014-.083l1.157-3.767 1.78-4.053c1.513-2.848 1.588-2.899 1.676-2.959.093-.107 1.331-1.719 2.08-2.702l2.036-2.158c.019-.02.04-.038.063-.053l2.158-1.402 1.47-1.46-59.416-34.819c-7.17 4.309-12.974 14.575-12.974 23 0 3.879 1.244 6.823 3.503 8.289.008.004.015.009.023.015M114.23 98c-.06 0-.12-.016-.174-.048L54.288 62.915c-.137-.074-.282-.158-.424-.248l-.04-.028v.001C51.357 61.041 50 57.887 50 53.758c0-8.716 6.054-19.352 13.493-23.71.108-.064.24-.064.347 0L123.826 65.2c.095.054.158.15.171.26.014.11-.023.22-.101.296l-1.822 1.81c-.017.017-.035.031-.055.045l-2.154 1.398-1.983 2.1c-1.6 2.102-2.016 2.62-2.151 2.765-.111.152-.86 1.529-1.508 2.748l-1.753 3.99-1.13 3.69-.417 6.554 3.61 6.62c.075.138.051.311-.06.42-.067.068-.155.103-.244.103" transform="translate(11)"/>
            <path fill="#5D3908" d="M223.73 67.14v-1.485c6.622-3.904 12.01-13.434 12.01-21.243 0-7.808-5.388-10.985-12.01-7.08L122.27 97.155c-7.318 4.314-13.27.805-13.27-7.824s5.952-19.158 13.27-23.472v1.487c-6.623 3.904-12.01 13.432-12.01 21.241 0 7.81 5.387 10.986 12.01 7.081l101.46-59.823c7.318-4.314 13.27-.805 13.27 7.824 0 8.628-5.952 19.158-13.27 23.472" transform="translate(11)"/>
            <g transform="translate(11) translate(109 33)">
                <mask id="prefix__l" fill="#fff">
                    <use xlink:href="#prefix__k"/>
                </mask>
                <path fill="#5D3908" d="M13.383 32.791C6.417 37.205.834 47.244.834 55.51c0 4.018 1.317 7.005 3.71 8.41 2.39 1.407 5.592 1.075 9.011-.936l101.22-59.48c3.305-1.942 6.434-2.246 8.812-.847 2.376 1.396 3.685 4.305 3.685 8.19 0 7.81-5.358 17.323-11.98 21.323v.657c6.965-4.413 12.548-14.454 12.548-22.718 0-4.018-1.317-7.005-3.71-8.41-2.39-1.406-5.59-1.073-9.01.935L13.9 62.113c-3.306 1.944-6.436 2.245-8.813.847-2.377-1.396-3.685-4.305-3.685-8.19 0-7.809 5.358-17.322 11.98-21.322v-.657zM7.826 65.48c-1.322 0-2.545-.316-3.627-.951C1.584 62.99.145 59.788.145 55.509c0-8.691 6.015-19.296 13.41-23.641.106-.063.239-.063.345 0 .106.062.173.177.173.303v1.478c0 .125-.067.24-.173.303C7.39 37.78 2.091 47.118 2.091 54.77c0 3.625 1.187 6.318 3.341 7.583 2.155 1.267 5.04.966 8.123-.846l101.22-59.48c3.64-2.14 7.086-2.474 9.7-.937 2.615 1.537 4.055 4.74 4.055 9.02 0 8.69-6.016 19.296-13.41 23.64-.107.064-.24.064-.345 0-.107-.062-.173-.178-.173-.303v-1.478c0-.126.066-.242.173-.304 6.51-3.826 11.808-13.164 11.808-20.817 0-3.625-1.187-6.317-3.341-7.583-2.155-1.267-5.041-.965-8.122.847L13.9 63.59c-2.135 1.254-4.202 1.888-6.074 1.888z" mask="url(#prefix__l)"/>
            </g>
            <path fill="#5D3908" d="M138 42.16l6.196-3.953-1.566-.58.983-.627c1.05.335 1.844.487 2.382.455l1.005.642L139.316 43 138 42.16zM144.975 44.434c-.7-.422-1.023-.85-.97-1.286.054-.435.434-.865 1.14-1.291l.28-.168 1.345.81-.218.13c-.392.243-.632.452-.723.627-.088.174.004.343.278.508.12.072.244.122.372.15.127.028.249.037.363.028.116-.008.244-.038.382-.09.138-.051.27-.108.392-.17.124-.063.268-.144.432-.243.417-.251.666-.482.747-.695.082-.213-.036-.428-.355-.642l-.1-.064-.098-.061 1.127-.679c.1.06.161.096.184.106.356.203.69.295 1 .275.312-.02.664-.149 1.059-.387.347-.208.554-.397.622-.566.068-.167-.032-.332-.3-.494-.114-.069-.231-.117-.354-.144-.12-.028-.238-.038-.351-.03-.115.008-.235.032-.365.074-.128.043-.252.091-.367.147-.115.057-.244.125-.386.206l-.264.16-1.345-.81.364-.219c.669-.403 1.366-.608 2.088-.616.723-.007 1.41.186 2.064.58.659.396.986.81.982 1.24-.005.431-.34.847-1.006 1.247-.445.27-.912.435-1.401.497-.489.063-.94.025-1.349-.112.221.274.264.562.13.863-.134.302-.459.607-.973.916-.747.451-1.496.704-2.244.76-.748.055-1.474-.131-2.182-.557M150.002 47.484c-.397-.216-.675-.429-.836-.638-.16-.211-.205-.417-.132-.62.073-.203.22-.399.442-.588.22-.19.528-.392.92-.606l1.36.741c-.22.12-.396.225-.526.314-.13.088-.24.184-.33.286-.088.101-.115.199-.08.293.037.094.136.183.298.268.101.055.208.094.32.116.112.022.215.034.31.038.098.001.213-.014.348-.049.135-.034.25-.067.343-.1.094-.03.221-.086.38-.164.16-.078.289-.143.388-.196.099-.051.243-.128.432-.231.205-.112.37-.207.499-.286.129-.079.25-.166.364-.26.113-.093.185-.177.214-.25.029-.072.022-.148-.02-.228-.043-.08-.13-.155-.263-.228-.192-.104-.418-.157-.68-.158-.262-.002-.524.04-.788.123l-1.189-.648L156.33 42 160 44.001l-1.263.689-2.486-1.356-1.989.994c.225-.005.469.024.731.087.264.064.514.157.752.28.327.164.554.34.677.529.123.186.146.38.066.577-.08.197-.236.397-.468.598-.233.202-.542.407-.928.617-.358.196-.694.36-1.008.494-.314.134-.647.246-1 .338-.356.092-.694.142-1.017.151-.324.008-.664-.03-1.02-.112-.356-.083-.704-.216-1.045-.403M154.088 50.763l.783-.455c-1.268-.79-1.151-1.661.35-2.616l1.532.583c-1.025.63-1.25 1.11-.677 1.444.221.128.451.184.692.168.24-.018.474-.092.7-.224.17-.098.305-.2.403-.302.1-.102.168-.213.205-.333.036-.12.057-.232.06-.334.003-.102-.005-.233-.024-.394l-.135-1.134c-.038-.334.013-.63.151-.886.14-.256.427-.51.863-.763.589-.343 1.223-.515 1.902-.517.678-.002 1.329.157 1.949.478l.74-.43.418.242-.74.43c.291.196.488.393.59.592.103.2.116.396.04.59-.077.193-.2.375-.369.546-.167.17-.39.348-.664.534l-1.489-.581c.154-.097.283-.184.387-.26.103-.078.199-.162.285-.253.087-.092.14-.175.16-.25.023-.075.009-.153-.04-.234-.048-.08-.14-.154-.278-.223-.227-.118-.463-.172-.706-.162-.243.01-.473.077-.691.204-.257.15-.417.3-.48.452-.065.153-.086.347-.063.584l.134 1.128c.016.192.016.368-.002.529-.018.16-.062.33-.134.508-.073.178-.192.35-.358.519-.166.166-.376.324-.63.471-.531.31-1.13.474-1.795.497-.666.023-1.29-.102-1.868-.372l-.793.461-.408-.237z" transform="translate(11)"/>
            <path fill="#BDA882" d="M52.226 87.318L23.744 71.416c-1.136-.633-3.11-.532-4.406.226l-16.274 9.52c-1.297.758-1.426 1.886-.29 2.52l28.482 15.902c1.137.633 3.11.532 4.406-.227l16.274-9.519c1.297-.758 1.426-1.886.29-2.52" transform="translate(11)"/>
            <path fill="#5D3908" d="M31.15 94.528L1.916 78.372c-.578-.32-.854-.752-.868-1.208l-.015.012L1 73.982s1.026.827 1.631 1.31l18.215-10.564c1.483-.86 3.737-.974 5.036-.257l27.943 15.443 2.137-1.24.038 3.223-.012-.01c-.009.552-.405 1.135-1.203 1.598L36.186 94.272c-1.482.86-3.737.974-5.036.256" transform="translate(11)"/>
            <path fill="#5D3908" d="M31.285 93.878c1.185.67 3.263.557 4.631-.255l18.368-10.896c.642-.379 1.014-.861 1.02-1.322.002-.028.004-.054.011-.08l-.03-2.562-1.601.95c-.107.061-.236.063-.342.004L25.747 64.12c-1.185-.669-3.264-.555-4.63.256l-17.99 10.67c-.123.073-.279.06-.39-.031l-1.047-.859.024 2.383c.01.028.016.059.017.09.014.458.38.76.684.932l28.87 16.316zM33.228 95c-.846 0-1.655-.172-2.278-.525L2.08 78.159c-.604-.342-.964-.83-1.023-1.388-.016-.036-.024-.075-.025-.115L1 73.43c-.001-.133.074-.255.194-.313.12-.056.261-.039.364.045l1.427 1.171 17.783-10.548c1.583-.937 3.916-1.052 5.315-.262l27.423 15.498 1.941-1.152c.106-.062.235-.064.342-.003.106.06.172.172.173.294L56 81.416c0 .04-.006.078-.018.114-.057.672-.532 1.303-1.35 1.789L36.265 94.213c-.877.52-1.986.787-3.037.787z" transform="translate(11)"/>
            <path fill="#D19C32" d="M55.115 75.628l-29.25-16.156c-1.3-.718-3.556-.604-5.039.256L2.216 70.515c-1.482.86-1.63 2.14-.33 2.857l29.25 16.156c1.3.718 3.555.604 5.038-.256l18.609-10.787c1.483-.86 1.631-2.14.332-2.857" transform="translate(11)"/>
            <path fill="#5D3908" d="M23.792 58.685c-.933 0-1.927.236-2.696.693L2.718 70.27c-.662.393-1.04.882-1.035 1.345.006.458.384.768.701.948L31.27 88.878c1.186.67 3.265.557 4.634-.255l18.378-10.895c.662-.392 1.039-.882 1.034-1.342-.005-.46-.384-.769-.7-.948L25.73 59.122c-.52-.293-1.21-.437-1.938-.437M33.213 90c-.846 0-1.655-.172-2.278-.525L2.048 73.16c-.669-.38-1.042-.926-1.048-1.539-.007-.713.492-1.42 1.37-1.94l18.377-10.895c1.583-.939 3.92-1.052 5.318-.262L54.95 74.841c.67.379 1.043.924 1.049 1.536.007.714-.492 1.421-1.37 1.942L36.254 89.213c-.878.52-1.987.787-3.04.787" transform="translate(11)"/>
            <path fill="#FFF" d="M24.278 72.541c.97-.596.961-1.545-.02-2.12-.983-.576-2.566-.559-3.537.038-.97.596-.96 1.545.022 2.121.982.575 2.565.557 3.535-.039M30.279 75.541c.97-.596.96-1.546-.022-2.12-.982-.576-2.565-.559-3.535.038-.97.596-.961 1.545.02 2.121.983.575 2.566.558 3.537-.039M35.278 78.541c.97-.596.961-1.545-.02-2.12-.983-.576-2.566-.559-3.536.038-.971.596-.961 1.545.021 2.121.982.575 2.565.558 3.535-.039" transform="translate(11)"/>
            <path fill="#DEC88A" d="M86.02 135.071c-6.638 3.905-17.402 3.905-24.04 0-6.64-3.905-6.64-10.237 0-14.142 6.638-3.906 17.401-3.905 24.04 0 6.64 3.905 6.64 10.238 0 14.142" transform="translate(11)"/>
            <path fill="#5D3908" d="M92 117v-3.503h-.981c-.88-1.561-2.347-3.032-4.438-4.275-7.225-4.296-18.939-4.296-26.164 0-2.091 1.243-3.557 2.714-4.438 4.275H55v3.474c-.011 2.825 1.793 5.652 5.417 7.807 7.225 4.296 18.94 4.296 26.165 0C90.194 122.631 92 119.815 92 117" transform="translate(11)"/>
            <path fill="#5D3908" d="M55.674 114.296v3.175c-.011 2.863 1.87 5.57 5.297 7.618 7.185 4.295 18.874 4.295 26.057 0 3.416-2.043 5.298-4.737 5.298-7.59v-3.203h-.652c-.12 0-.232-.067-.292-.175-.9-1.604-2.364-3.02-4.354-4.21-7.184-4.297-18.872-4.297-26.057 0-1.99 1.19-3.456 2.606-4.355 4.21-.06.108-.171.175-.291.175h-.65zM74 129c-4.84 0-9.68-1.102-13.366-3.306-3.646-2.18-5.647-5.1-5.633-8.225L55 113.946c0-.093.036-.181.098-.247.064-.065.15-.102.24-.102h.795c.965-1.638 2.478-3.082 4.5-4.292 7.37-4.406 19.362-4.408 26.732 0 2.022 1.21 3.535 2.653 4.5 4.292h.798c.187 0 .337.157.337.35v3.552c0 3.112-2 6.023-5.634 8.195C83.68 127.898 78.84 129 74 129z" transform="translate(11)"/>
            <path fill="#F9BF30" d="M86.582 121.778c-7.226 4.296-18.938 4.296-26.164 0-7.224-4.296-7.224-11.26 0-15.556 7.225-4.296 18.938-4.296 26.163 0 7.225 4.296 7.225 11.261 0 15.556" transform="translate(11)"/>
            <path fill="#5D3908" d="M74 103.69c-4.718 0-9.435 1.073-13.028 3.221-3.416 2.043-5.298 4.737-5.298 7.59 0 2.85 1.882 5.546 5.298 7.59 7.185 4.295 18.874 4.295 26.057 0 3.416-2.043 5.297-4.74 5.297-7.59 0-2.853-1.882-5.547-5.298-7.59-3.592-2.148-8.31-3.222-13.028-3.222zm.001 22.31c-4.84 0-9.68-1.101-13.366-3.306C57 120.521 55 117.612 55 114.5c0-3.11 2.001-6.021 5.635-8.194 7.369-4.407 19.36-4.41 26.73 0C91 108.48 93 111.39 93 114.5c0 3.112-2 6.021-5.634 8.196C83.68 124.899 78.84 126 74 126z" transform="translate(11)"/>
            <path fill="#FFF" d="M64.507 118.747c-.323-.163-.508-.383-.507-.614l.02-6.269c0-.478.778-.865 1.735-.864.958 0 1.731.388 1.73.867l-.015 5.198 17.436-1.847c.937-.1 1.856.2 2.056.667.199.468-.401.928-1.336 1.027l-19.533 2.07c-.513.053-1.046-.01-1.452-.175l-.134-.06" transform="translate(11)"/>
        </g>
    </g>
</svg>
