<svg xmlns="http://www.w3.org/2000/svg" width="20" height="20" viewBox="0 0 20 20">
    <g fill="none" fill-rule="evenodd" stroke="#D19C32">
        <path d="M8.643 5.757c.193-.707.686-1.586 1.928-1.586 0 0 3.429-1.092 3.429 2.4 0 2.936.664 3.258 1.371 3.965-.899.21-1.819.319-2.742.321v.343c0 .343-.065 1.029 1.65 1.371 1.714.343 1.778 1.715 1.778 1.715h-4.5"/>
        <path d="M10.936 14.114c-1.715-.235-1.715-.857-1.715-1.2v-.193c.437-.404.75-.924.9-1.5.515 0 .643-1.092.643-1.242 0-.15-.043-.772-.278-.836.857-3-1.715-4.286-3.943-2.743-.943 0-1.243 1.371-.9 2.743-.236 0-.279.643-.279.814 0 .172.129 1.243.643 1.243.172.621.643 1.136 1.05 1.5v.214c0 .343-.128.986-1.864 1.2C3.457 14.33 3.2 16 3.2 16h9.429s.021-1.65-1.693-1.886z"/>
    </g>
</svg>
