<svg xmlns="http://www.w3.org/2000/svg" xmlns:xlink="http://www.w3.org/1999/xlink" width="219" height="120" viewBox="0 0 219 120">
    <defs>
        <circle id="prefix__a" cx="35" cy="35" r="35"/>
        <circle id="prefix__c" cx="35" cy="35" r="35"/>
        <circle id="prefix__e" cx="60" cy="60" r="60"/>
    </defs>
    <g fill="none" fill-rule="evenodd">
        <g opacity=".39" transform="translate(149 25)">
            <mask id="prefix__b" fill="#fff">
                <use xlink:href="#prefix__a"/>
            </mask>
            <use fill="#D8D8D8" xlink:href="#prefix__a"/>
            <g fill-rule="nonzero" mask="url(#prefix__b)">
                <ellipse cx="34.842" cy="35.044" fill="#D19C32" rx="34.842" ry="35.044"/>
                <path fill="#BC8740" d="M50.347 19.663V31.31c0 .169-.004.337-.007.506-.008.348-.027.697-.057 1.041-.008.119-.02.237-.035.356-.05.494-.118.98-.205 1.464-.031.16-.062.317-.096.475-.004.034-.011.065-.019.095-.03.161-.069.318-.107.475-.015.084-.038.169-.057.253-.019.073-.038.146-.06.218-.08.314-.172.621-.267.927-.046.146-.091.287-.141.433-.004.015-.012.03-.015.046l-.137.39-.046.12c-.046.122-.091.244-.141.367-.057.15-.118.295-.179.44-.053.13-.11.26-.167.391-.008.023-.02.042-.027.065-.065.138-.125.276-.19.41-.065.141-.134.283-.206.425-.137.28-.286.56-.434.831l-.206.368c-.587 1.015-1.238 1.969-1.946 2.85-.095.126-.194.248-.297.367-.14.172-.286.341-.43.506-.13.145-.26.29-.392.433-.366.394-.74.77-1.12 1.122-.076.077-.156.146-.236.218-.13.119-.259.234-.393.345-.102.092-.209.18-.316.268-.274.226-.548.444-.826.647-.114.088-.232.173-.35.253-.19.138-.385.268-.579.395-.107.072-.217.141-.328.206-.388.242-.78.464-1.169.655-.095.05-.19.096-.285.142-.096.046-.194.092-.297.138-.126.057-.252.11-.377.16-.05.024-.1.043-.149.058-.148.061-.3.119-.45.168-.186.07-.376.126-.562.18-.13.038-.263.073-.393.103-.007.004-.015.008-.026.008-.13.03-.26.062-.389.084-.034.008-.068.016-.102.02-.107.018-.214.038-.32.05-.153.022-.305.041-.457.05-.053.007-.103.01-.156.01-.122.009-.244.012-.362.012h-.011c-.119 0-.237-.003-.354-.011-.046 0-.092-.004-.138-.012-.106-.004-.217-.015-.331-.03-.023 0-.05-.004-.072-.008-.141-.02-.282-.042-.427-.07-.121-.018-.243-.045-.37-.076-.65-.15-1.32-.375-1.998-.678-.579-.257-1.165-.566-1.748-.927-.293-.18-.586-.371-.876-.574-.145-.104-.289-.207-.434-.314-.453-.334-.902-.697-1.344-1.088-.122-.11-.244-.222-.365-.337-.122-.111-.244-.226-.362-.337-.298-.287-.587-.586-.869-.896-.11-.118-.22-.241-.331-.368-.305-.344-.602-.7-.884-1.072-.11-.134-.213-.272-.316-.41-.384-.513-.75-1.05-1.093-1.605-.091-.15-.182-.303-.27-.452-.107-.18-.21-.363-.312-.547-.38-.69-.732-1.406-1.036-2.145-.046-.107-.091-.215-.13-.322-.06-.138-.114-.28-.163-.417-.076-.203-.148-.406-.217-.61-.069-.202-.133-.41-.198-.616-.061-.2-.118-.398-.172-.601-.06-.215-.117-.433-.167-.655-.004-.023-.012-.046-.015-.069-.072-.306-.137-.616-.194-.93-.077-.414-.137-.836-.183-1.26-.02-.135-.03-.269-.042-.403-.015-.142-.026-.28-.034-.421-.02-.257-.03-.517-.039-.778-.003-.169-.007-.337-.007-.505V19.663c0-8.606 6.934-15.584 15.49-15.592h.015c1.181 0 2.33.134 3.435.383 1.01.23 1.98.56 2.902.977 1.256.567 2.425 1.294 3.476 2.164.884.728 1.687 1.547 2.388 2.451 2.069 2.65 3.302 5.986 3.302 9.617z"/>
                <path fill="#BC8740" d="M55.042 74.78v.003H14.644v-.003c0-2.294.377-4.505 1.077-6.561.126-.372.263-.74.412-1.103v-.004c.148-.364.304-.72.471-1.072.667-1.414 1.497-2.735 2.46-3.945.244-.303.492-.598.747-.881.126-.146.259-.288.392-.43.134-.137.267-.275.404-.413.682-.685 1.413-1.313 2.182-1.892.385-.287.773-.555 1.177-.815.404-.257.815-.502 1.234-.732.007-.008.015-.008.015-.008.164-.087.324-.183.484-.283.316-.192.628-.398.925-.62.152-.108.297-.219.442-.337.342-.276.673-.571.99-.881.102-.104.205-.207.308-.314.213-.223.415-.456.61-.694.095-.114.19-.233.277-.352.092-.119.18-.241.267-.364.678-.95 1.222-1.995 1.622-3.11.484-1.356.747-2.815.747-4.34l2.943.016 3.027.015c0 1.505.256 2.949.728 4.29.392 1.118.936 2.163 1.603 3.113.693.988 1.52 1.87 2.456 2.624.141.115.282.226.423.329.137.103.278.203.423.299.03.023.057.042.087.061.137.092.274.184.42.268.155.096.316.192.475.28.027.008.05.02.069.035.335.187.666.383.99.586.156.095.312.195.465.306.316.207.624.425.925.655 0 .004.004.004.004.004h.004c.769.578 1.496 1.21 2.178 1.892 3.67 3.677 5.935 8.755 5.935 14.378z"/>
                <path fill="#C7D4E2" d="M55.042 74.78H14.644c0-2.294.377-4.504 1.078-6.56.125-.372.262-.74.411-1.103-.004-.005 0-.005 0-.005.145-.364.304-.72.472-1.072.666-1.413 1.496-2.734 2.46-3.945.244-.303.491-.597.746-.88.126-.146.26-.288.393-.43.133-.137.266-.275.403-.413.682-.685 1.413-1.314 2.183-1.892.384-.287.773-.555 1.176-.816.404-.26.815-.505 1.234-.735.008-.008.015-.004.015-.004v-.004c.164-.092.324-.184.484-.28.476-.29.933-.612 1.36-.965l.007.008c1.973 2.03 4.718 3.29 7.765 3.297h.03c3.046 0 5.803-1.263 7.783-3.293l.005-.004c.27.226.551.437.841.632.03.022.057.042.087.06.137.093.278.18.42.269.156.096.316.188.475.276.027.007.046.022.069.034.335.188.666.383.99.59.156.095.312.195.465.306.316.203.624.425.925.655h.008c.773.582 1.5 1.214 2.178 1.896 3.67 3.677 5.935 8.756 5.935 14.378z"/>
                <path fill="#000" d="M50.347 31.31c0 .169-.004.337-.007.506-.008.348-.027.697-.057 1.041-.008.119-.02.237-.035.356-.05.494-.118.98-.205 1.464-.031.16-.062.317-.096.475-.004.034-.011.065-.019.095-.03.161-.069.318-.107.475-.019.092-.041.18-.068.268-.012.07-.03.138-.05.203-.08.314-.171.621-.267.927-.045.146-.09.287-.14.433-.005.015-.012.03-.016.046l-.137.39-.046.12c-.045.122-.09.244-.14.367-.057.15-.118.295-.18.44-.053.13-.11.26-.167.391-.007.023-.019.042-.026.065-.065.138-.126.276-.19.41-.065.141-.134.283-.207.425-.137.28-.285.56-.434.831l-.206.368c-.586 1.015-1.237 1.969-1.945 2.85-.096.126-.194.248-.297.367-.141.172-.286.341-.43.506-.13.145-.26.29-.393.433-.365.394-.739.77-1.12 1.122-.075.077-.156.146-.236.218-.129.119-.258.234-.392.345-.103.092-.21.18-.316.268-.274.226-.548.444-.826.647-.115.088-.233.173-.35.253-.19.138-.385.268-.58.395-.106.072-.216.141-.327.206-.389.242-.78.464-1.17.655-.094.05-.19.096-.285.142-.095.046-.194.092-.297.138-.126.057-.251.11-.377.16-.05.024-.099.043-.148.058-.148.061-.301.119-.45.168-.186.07-.377.126-.563.18-.13.038-.262.073-.392.103-.008.004-.015.008-.027.008-.13.03-.259.062-.388.084-.035.008-.068.016-.103.02-.106.018-.213.038-.32.05-.152.022-.304.041-.456.05-.053.007-.103.01-.157.01-.121.009-.243.012-.362.012h-.01c-.119 0-.237-.003-.355-.011-.046 0-.091-.004-.137-.012-.107-.004-.217-.015-.331-.03-.023 0-.05-.004-.073-.008-.14-.02-.281-.042-.426-.07-.122-.018-.244-.045-.37-.076-.65-.15-1.32-.375-1.998-.678-.58-.257-1.166-.566-1.748-.927-.293-.176-.583-.367-.876-.574-.145-.104-.29-.207-.434-.314-.453-.334-.903-.697-1.345-1.088-.121-.11-.243-.222-.365-.337-.122-.111-.243-.226-.362-.337-.297-.287-.586-.586-.868-.896-.11-.118-.22-.241-.332-.368-.304-.344-.601-.7-.883-1.072-.11-.134-.213-.272-.316-.41-.385-.513-.75-1.05-1.093-1.605-.091-.15-.183-.303-.27-.452-.107-.18-.21-.363-.312-.547-.381-.69-.732-1.406-1.036-2.145-.046-.107-.092-.215-.13-.322-.061-.138-.114-.28-.164-.417-.076-.203-.148-.406-.217-.61-.068-.202-.133-.41-.198-.616-.06-.2-.118-.398-.171-.601-.061-.215-.118-.433-.167-.655-.004-.023-.012-.046-.016-.069-.072-.306-.137-.616-.194-.93-.076-.414-.137-.836-.183-1.26-.019-.135-.03-.269-.041-.403-.016-.142-.027-.28-.035-.421-.019-.257-.03-.517-.038-.778-.004-.169-.008-.337-.008-.505l2.476 4.895 4.253 1.865 5.03.456 3.732.34h.023l3.492.319 7.78.705 4.223-8.58zM47.046 10.046c-.758 1.727-1.745 3.332-2.91 4.788-.068.084-.137.168-.209.253-2.387 2.891-5.517 5.14-9.097 6.453-.94.349-1.911.632-2.91.843-.666.141-1.343.253-2.033.333-.792.088-1.599.134-2.417.134-.937 0-1.855-.061-2.757-.18-.884-.11-1.748-.275-2.593-.497-.484-.123-.956-.264-1.425-.422-.46-.153-.91-.322-1.355-.505v-1.582c0-8.606 6.934-15.584 15.49-15.592h.016c1.18 0 2.33.134 3.434.383 1.01.23 1.98.56 2.902.977 1.257.567 2.425 1.295 3.477 2.164.882.726 1.686 1.546 2.387 2.45z"/>
                <path fill="#000" d="M50.347 19.663v3.068c-2.643-2.057-4.832-4.658-6.412-7.63-.004-.003-.004-.011-.008-.015-1.553-2.918-2.517-6.193-2.745-9.655 1.257.567 2.425 1.294 3.477 2.164.883.727 1.687 1.547 2.387 2.45 2.068 2.652 3.301 5.987 3.301 9.618zM21.156 20.866c-.164.287-.313.582-.461.885-.057.118-.114.245-.171.367-.75 1.678-1.128 3.325-1.181 4.81 0 .043-.004.089-.004.131v-6.005c0-.215.008-.426.008-.633.602.158 1.203.31 1.809.445z"/>
                <path fill="#000" d="M48.539 20.866c.23.407.435.824.633 1.252.773 1.73 1.152 3.419 1.184 4.942v-6.008c0-.211-.007-.423-.007-.63-.602.157-1.202.308-1.81.444z"/>
                <path fill="#1A1A1A" d="M48.508 22.413c0-.065-.05-.122-.114-.13-.548-.084-3.016-.426-5.67-.426-3.013 0-6.9.95-7.578.95h-.602c-.316 0-1.328-.206-2.623-.425-1.49-.253-3.347-.525-4.954-.525-1.942 0-3.786.185-4.848.315-.388.046-.674.087-.822.11-.065.008-.115.066-.115.13l-.03 1.628c0 .058.034.108.087.13l.183.066c.27.104.248 5.01 1.702 6.235.865.724 1.634 1.138 4.874 1.138 1.878 0 3.058-.51 4.178-2.03.807-1.092 1.523-3.673 1.523-3.673.217-1.065 1.005-1.15 1.13-1.157h.016c.026 0 .914.015 1.146 1.157 0 0 .716 2.581 1.523 3.673 1.12 1.52 2.3 2.03 4.177 2.03 3.24 0 4.01-.414 4.874-1.138 1.455-1.225 1.432-6.131 1.702-6.235l.183-.065c.053-.023.088-.073.088-.13l-.03-1.628zM32.176 28.22c-.476 1.134-1.706 2.597-3.439 2.685-5.197.264-5.437-1.195-5.773-2.352-.338-1.156-.426-2.171-.293-3.328.137-1.157.427-1.835.949-2.176.224-.149.468-.283 1.093-.379.56-.084 1.424-.134 2.863-.134.834 0 1.614.065 2.311.18 1.85.299 3.1.93 3.1 1.555 0 .426-.107 2.272-.811 3.95zm14.55.333c-.335 1.157-.575 2.616-5.773 2.352-1.733-.088-2.963-1.551-3.439-2.685-.704-1.677-.81-3.523-.81-3.948 0-.858 2.368-1.736 5.41-1.736 3.043 0 3.53.23 3.957.514.522.34.81 1.019.948 2.175.134 1.157.046 2.172-.293 3.328z"/>
                <g fill="#000">
                    <path d="M15.601 7.32l-.004 3.777-.004 1.32v1.039l-.004 3.447v.003l-.003-.003h-.005l-.01-.008L.593 9.228C.59 9.205.583 9.182.58 9.158c-.072-.305-.137-.616-.194-.93-.076-.414-.137-.835-.183-1.26C.183 6.834.172 6.7.16 6.566c-.015-.142-.026-.28-.034-.422-.02-.256-.03-.517-.039-.777C.084 5.198.08 5.03.08 4.86V.285c0 .065.004.13.004.195.03 1.107.205 2.325.544 3.57.263.957.59 1.841.971 2.63v.004c.998 2.088 2.335 3.504 3.564 3.734.077.012.157.02.233.027.476.054.975.084 1.489.084 1.942 0 3.667-1.57 4.752-2.206l.023-.011c.057-.035.114-.07.164-.104.015-.011.03-.019.045-.027.914-.525 2.232-.858 3.702-.861h.03z" transform="translate(19.26 26.449)"/>
                    <path d="M31.091.285l-.003 4.576c0 1.15-.107 2.275-.305 3.367-.08.437-.171.87-.278 1.298l-3.515 5.106-11.4 2.271h-.004l-.004.004v-.004l-.011-9.584h.03c1.47.004 2.791.337 3.705.862.015.008.027.015.042.027.053.034.11.069.168.103.003.004.01.008.018.012 1.09.636 2.81 2.207 4.753 2.207.514 0 1.013-.03 1.489-.084.08-.008.156-.016.236-.027 1.226-.23 2.567-1.647 3.56-3.734V6.68c.38-.789.708-1.674.971-2.631.343-1.264.522-2.497.545-3.62.003-.05.003-.096.003-.145z" transform="translate(19.26 26.449)"/>
                </g>
                <ellipse cx="34.842" cy="38.725" fill="#BC8740" rx="3.798" ry="1.181"/>
                <g fill="#435363">
                    <path d="M1.9.065v21.069H.282V1.252C.5 1.076.716.904.937.74c.316-.237.636-.46.963-.674zM24.082.069L24.082 17.039 24.082 21.134 25.7 21.134 25.7 17.039 25.7 1.256z" transform="translate(21.852 57.74)"/>
                </g>
                <g>
                    <g fill="#141720">
                        <path d="M0.042 0.266L4.472 5.606 8.902 0.266z" transform="translate(26.296 52.898) translate(4.074 3.353)"/>
                        <path d="M4.472 27.73h-2.62L3.745 3.216c.08.312 1.375.312 1.454 0L7.092 27.73h-2.62z" transform="translate(26.296 52.898) translate(4.074 3.353)"/>
                    </g>
                    <g fill="#E7ECF2">
                        <path d="M8.544 3.59l-.01.02-.005.007L6.69 6.723 4.973 9.618.323 3.12c.148-.107.297-.222.438-.34l.008.007C1.7 2.04 2.532 1.162 3.22.182l5.312 3.4.011.008z" transform="translate(26.296 52.898)"/>
                        <path d="M16.77 3.12l-4.65 6.498-1.717-2.895-1.844-3.106-.015-.027L13.891.167c.693.987 1.519 1.868 2.456 2.623.141.115.282.226.423.33z" transform="translate(26.296 52.898)"/>
                    </g>
                </g>
            </g>
        </g>
        <g opacity=".39" transform="translate(0 25)">
            <mask id="prefix__d" fill="#fff">
                <use xlink:href="#prefix__c"/>
            </mask>
            <use fill="#D8D8D8" xlink:href="#prefix__c"/>
            <g fill-rule="nonzero" mask="url(#prefix__d)">
                <ellipse cx="34.842" cy="35.044" fill="#D19C32" rx="34.842" ry="35.044"/>
                <path fill="#BC8740" d="M50.347 19.663V31.31c0 .169-.004.337-.007.506-.008.348-.027.697-.057 1.041-.008.119-.02.237-.035.356-.05.494-.118.98-.205 1.464-.031.16-.062.317-.096.475-.004.034-.011.065-.019.095-.03.161-.069.318-.107.475-.015.084-.038.169-.057.253-.019.073-.038.146-.06.218-.08.314-.172.621-.267.927-.046.146-.091.287-.141.433-.004.015-.012.03-.015.046l-.137.39-.046.12c-.046.122-.091.244-.141.367-.057.15-.118.295-.179.44-.053.13-.11.26-.167.391-.008.023-.02.042-.027.065-.065.138-.125.276-.19.41-.065.141-.134.283-.206.425-.137.28-.286.56-.434.831l-.206.368c-.587 1.015-1.238 1.969-1.946 2.85-.095.126-.194.248-.297.367-.14.172-.286.341-.43.506-.13.145-.26.29-.392.433-.366.394-.74.77-1.12 1.122-.076.077-.156.146-.236.218-.13.119-.259.234-.393.345-.102.092-.209.18-.316.268-.274.226-.548.444-.826.647-.114.088-.232.173-.35.253-.19.138-.385.268-.579.395-.107.072-.217.141-.328.206-.388.242-.78.464-1.169.655-.095.05-.19.096-.285.142-.096.046-.194.092-.297.138-.126.057-.252.11-.377.16-.05.024-.1.043-.149.058-.148.061-.3.119-.45.168-.186.07-.376.126-.562.18-.13.038-.263.073-.393.103-.007.004-.015.008-.026.008-.13.03-.26.062-.389.084-.034.008-.068.016-.102.02-.107.018-.214.038-.32.05-.153.022-.305.041-.457.05-.053.007-.103.01-.156.01-.122.009-.244.012-.362.012h-.011c-.119 0-.237-.003-.354-.011-.046 0-.092-.004-.138-.012-.106-.004-.217-.015-.331-.03-.023 0-.05-.004-.072-.008-.141-.02-.282-.042-.427-.07-.121-.018-.243-.045-.37-.076-.65-.15-1.32-.375-1.998-.678-.579-.257-1.165-.566-1.748-.927-.293-.18-.586-.371-.876-.574-.145-.104-.289-.207-.434-.314-.453-.334-.902-.697-1.344-1.088-.122-.11-.244-.222-.365-.337-.122-.111-.244-.226-.362-.337-.298-.287-.587-.586-.869-.896-.11-.118-.22-.241-.331-.368-.305-.344-.602-.7-.884-1.072-.11-.134-.213-.272-.316-.41-.384-.513-.75-1.05-1.093-1.605-.091-.15-.182-.303-.27-.452-.107-.18-.21-.363-.312-.547-.38-.69-.732-1.406-1.036-2.145-.046-.107-.091-.215-.13-.322-.06-.138-.114-.28-.163-.417-.076-.203-.148-.406-.217-.61-.069-.202-.133-.41-.198-.616-.061-.2-.118-.398-.172-.601-.06-.215-.117-.433-.167-.655-.004-.023-.012-.046-.015-.069-.072-.306-.137-.616-.194-.93-.077-.414-.137-.836-.183-1.26-.02-.135-.03-.269-.042-.403-.015-.142-.026-.28-.034-.421-.02-.257-.03-.517-.039-.778-.003-.169-.007-.337-.007-.505V19.663c0-8.606 6.934-15.584 15.49-15.592h.015c1.181 0 2.33.134 3.435.383 1.01.23 1.98.56 2.902.977 1.256.567 2.425 1.294 3.476 2.164.884.728 1.687 1.547 2.388 2.451 2.069 2.65 3.302 5.986 3.302 9.617z"/>
                <path fill="#BC8740" d="M55.042 74.78v.003H14.644v-.003c0-2.294.377-4.505 1.077-6.561.126-.372.263-.74.412-1.103v-.004c.148-.364.304-.72.471-1.072.667-1.414 1.497-2.735 2.46-3.945.244-.303.492-.598.747-.881.126-.146.259-.288.392-.43.134-.137.267-.275.404-.413.682-.685 1.413-1.313 2.182-1.892.385-.287.773-.555 1.177-.815.404-.257.815-.502 1.234-.732.007-.008.015-.008.015-.008.164-.087.324-.183.484-.283.316-.192.628-.398.925-.62.152-.108.297-.219.442-.337.342-.276.673-.571.99-.881.102-.104.205-.207.308-.314.213-.223.415-.456.61-.694.095-.114.19-.233.277-.352.092-.119.18-.241.267-.364.678-.95 1.222-1.995 1.622-3.11.484-1.356.747-2.815.747-4.34l2.943.016 3.027.015c0 1.505.256 2.949.728 4.29.392 1.118.936 2.163 1.603 3.113.693.988 1.52 1.87 2.456 2.624.141.115.282.226.423.329.137.103.278.203.423.299.03.023.057.042.087.061.137.092.274.184.42.268.155.096.316.192.475.28.027.008.05.02.069.035.335.187.666.383.99.586.156.095.312.195.465.306.316.207.624.425.925.655 0 .004.004.004.004.004h.004c.769.578 1.496 1.21 2.178 1.892 3.67 3.677 5.935 8.755 5.935 14.378z"/>
                <path fill="#C7D4E2" d="M55.042 74.78H14.644c0-2.294.377-4.504 1.078-6.56.125-.372.262-.74.411-1.103-.004-.005 0-.005 0-.005.145-.364.304-.72.472-1.072.666-1.413 1.496-2.734 2.46-3.945.244-.303.491-.597.746-.88.126-.146.26-.288.393-.43.133-.137.266-.275.403-.413.682-.685 1.413-1.314 2.183-1.892.384-.287.773-.555 1.176-.816.404-.26.815-.505 1.234-.735.008-.008.015-.004.015-.004v-.004c.164-.092.324-.184.484-.28.476-.29.933-.612 1.36-.965l.007.008c1.973 2.03 4.718 3.29 7.765 3.297h.03c3.046 0 5.803-1.263 7.783-3.293l.005-.004c.27.226.551.437.841.632.03.022.057.042.087.06.137.093.278.18.42.269.156.096.316.188.475.276.027.007.046.022.069.034.335.188.666.383.99.59.156.095.312.195.465.306.316.203.624.425.925.655h.008c.773.582 1.5 1.214 2.178 1.896 3.67 3.677 5.935 8.756 5.935 14.378z"/>
                <path fill="#000" d="M50.347 31.31c0 .169-.004.337-.007.506-.008.348-.027.697-.057 1.041-.008.119-.02.237-.035.356-.05.494-.118.98-.205 1.464-.031.16-.062.317-.096.475-.004.034-.011.065-.019.095-.03.161-.069.318-.107.475-.019.092-.041.18-.068.268-.012.07-.03.138-.05.203-.08.314-.171.621-.267.927-.045.146-.09.287-.14.433-.005.015-.012.03-.016.046l-.137.39-.046.12c-.045.122-.09.244-.14.367-.057.15-.118.295-.18.44-.053.13-.11.26-.167.391-.007.023-.019.042-.026.065-.065.138-.126.276-.19.41-.065.141-.134.283-.207.425-.137.28-.285.56-.434.831l-.206.368c-.586 1.015-1.237 1.969-1.945 2.85-.096.126-.194.248-.297.367-.141.172-.286.341-.43.506-.13.145-.26.29-.393.433-.365.394-.739.77-1.12 1.122-.075.077-.156.146-.236.218-.129.119-.258.234-.392.345-.103.092-.21.18-.316.268-.274.226-.548.444-.826.647-.115.088-.233.173-.35.253-.19.138-.385.268-.58.395-.106.072-.216.141-.327.206-.389.242-.78.464-1.17.655-.094.05-.19.096-.285.142-.095.046-.194.092-.297.138-.126.057-.251.11-.377.16-.05.024-.099.043-.148.058-.148.061-.301.119-.45.168-.186.07-.377.126-.563.18-.13.038-.262.073-.392.103-.008.004-.015.008-.027.008-.13.03-.259.062-.388.084-.035.008-.068.016-.103.02-.106.018-.213.038-.32.05-.152.022-.304.041-.456.05-.053.007-.103.01-.157.01-.121.009-.243.012-.362.012h-.01c-.119 0-.237-.003-.355-.011-.046 0-.091-.004-.137-.012-.107-.004-.217-.015-.331-.03-.023 0-.05-.004-.073-.008-.14-.02-.281-.042-.426-.07-.122-.018-.244-.045-.37-.076-.65-.15-1.32-.375-1.998-.678-.58-.257-1.166-.566-1.748-.927-.293-.176-.583-.367-.876-.574-.145-.104-.29-.207-.434-.314-.453-.334-.903-.697-1.345-1.088-.121-.11-.243-.222-.365-.337-.122-.111-.243-.226-.362-.337-.297-.287-.586-.586-.868-.896-.11-.118-.22-.241-.332-.368-.304-.344-.601-.7-.883-1.072-.11-.134-.213-.272-.316-.41-.385-.513-.75-1.05-1.093-1.605-.091-.15-.183-.303-.27-.452-.107-.18-.21-.363-.312-.547-.381-.69-.732-1.406-1.036-2.145-.046-.107-.092-.215-.13-.322-.061-.138-.114-.28-.164-.417-.076-.203-.148-.406-.217-.61-.068-.202-.133-.41-.198-.616-.06-.2-.118-.398-.171-.601-.061-.215-.118-.433-.167-.655-.004-.023-.012-.046-.016-.069-.072-.306-.137-.616-.194-.93-.076-.414-.137-.836-.183-1.26-.019-.135-.03-.269-.041-.403-.016-.142-.027-.28-.035-.421-.019-.257-.03-.517-.038-.778-.004-.169-.008-.337-.008-.505l2.476 4.895 4.253 1.865 5.03.456 3.732.34h.023l3.492.319 7.78.705 4.223-8.58zM47.046 10.046c-.758 1.727-1.745 3.332-2.91 4.788-.068.084-.137.168-.209.253-2.387 2.891-5.517 5.14-9.097 6.453-.94.349-1.911.632-2.91.843-.666.141-1.343.253-2.033.333-.792.088-1.599.134-2.417.134-.937 0-1.855-.061-2.757-.18-.884-.11-1.748-.275-2.593-.497-.484-.123-.956-.264-1.425-.422-.46-.153-.91-.322-1.355-.505v-1.582c0-8.606 6.934-15.584 15.49-15.592h.016c1.18 0 2.33.134 3.434.383 1.01.23 1.98.56 2.902.977 1.257.567 2.425 1.295 3.477 2.164.882.726 1.686 1.546 2.387 2.45z"/>
                <path fill="#000" d="M50.347 19.663v3.068c-2.643-2.057-4.832-4.658-6.412-7.63-.004-.003-.004-.011-.008-.015-1.553-2.918-2.517-6.193-2.745-9.655 1.257.567 2.425 1.294 3.477 2.164.883.727 1.687 1.547 2.387 2.45 2.068 2.652 3.301 5.987 3.301 9.618zM21.156 20.866c-.164.287-.313.582-.461.885-.057.118-.114.245-.171.367-.75 1.678-1.128 3.325-1.181 4.81 0 .043-.004.089-.004.131v-6.005c0-.215.008-.426.008-.633.602.158 1.203.31 1.809.445z"/>
                <path fill="#000" d="M48.539 20.866c.23.407.435.824.633 1.252.773 1.73 1.152 3.419 1.184 4.942v-6.008c0-.211-.007-.423-.007-.63-.602.157-1.202.308-1.81.444z"/>
                <path fill="#1A1A1A" d="M48.508 22.413c0-.065-.05-.122-.114-.13-.548-.084-3.016-.426-5.67-.426-3.013 0-6.9.95-7.578.95h-.602c-.316 0-1.328-.206-2.623-.425-1.49-.253-3.347-.525-4.954-.525-1.942 0-3.786.185-4.848.315-.388.046-.674.087-.822.11-.065.008-.115.066-.115.13l-.03 1.628c0 .058.034.108.087.13l.183.066c.27.104.248 5.01 1.702 6.235.865.724 1.634 1.138 4.874 1.138 1.878 0 3.058-.51 4.178-2.03.807-1.092 1.523-3.673 1.523-3.673.217-1.065 1.005-1.15 1.13-1.157h.016c.026 0 .914.015 1.146 1.157 0 0 .716 2.581 1.523 3.673 1.12 1.52 2.3 2.03 4.177 2.03 3.24 0 4.01-.414 4.874-1.138 1.455-1.225 1.432-6.131 1.702-6.235l.183-.065c.053-.023.088-.073.088-.13l-.03-1.628zM32.176 28.22c-.476 1.134-1.706 2.597-3.439 2.685-5.197.264-5.437-1.195-5.773-2.352-.338-1.156-.426-2.171-.293-3.328.137-1.157.427-1.835.949-2.176.224-.149.468-.283 1.093-.379.56-.084 1.424-.134 2.863-.134.834 0 1.614.065 2.311.18 1.85.299 3.1.93 3.1 1.555 0 .426-.107 2.272-.811 3.95zm14.55.333c-.335 1.157-.575 2.616-5.773 2.352-1.733-.088-2.963-1.551-3.439-2.685-.704-1.677-.81-3.523-.81-3.948 0-.858 2.368-1.736 5.41-1.736 3.043 0 3.53.23 3.957.514.522.34.81 1.019.948 2.175.134 1.157.046 2.172-.293 3.328z"/>
                <g fill="#000">
                    <path d="M15.601 7.32l-.004 3.777-.004 1.32v1.039l-.004 3.447v.003l-.003-.003h-.005l-.01-.008L.593 9.228C.59 9.205.583 9.182.58 9.158c-.072-.305-.137-.616-.194-.93-.076-.414-.137-.835-.183-1.26C.183 6.834.172 6.7.16 6.566c-.015-.142-.026-.28-.034-.422-.02-.256-.03-.517-.039-.777C.084 5.198.08 5.03.08 4.86V.285c0 .065.004.13.004.195.03 1.107.205 2.325.544 3.57.263.957.59 1.841.971 2.63v.004c.998 2.088 2.335 3.504 3.564 3.734.077.012.157.02.233.027.476.054.975.084 1.489.084 1.942 0 3.667-1.57 4.752-2.206l.023-.011c.057-.035.114-.07.164-.104.015-.011.03-.019.045-.027.914-.525 2.232-.858 3.702-.861h.03z" transform="translate(19.26 26.449)"/>
                    <path d="M31.091.285l-.003 4.576c0 1.15-.107 2.275-.305 3.367-.08.437-.171.87-.278 1.298l-3.515 5.106-11.4 2.271h-.004l-.004.004v-.004l-.011-9.584h.03c1.47.004 2.791.337 3.705.862.015.008.027.015.042.027.053.034.11.069.168.103.003.004.01.008.018.012 1.09.636 2.81 2.207 4.753 2.207.514 0 1.013-.03 1.489-.084.08-.008.156-.016.236-.027 1.226-.23 2.567-1.647 3.56-3.734V6.68c.38-.789.708-1.674.971-2.631.343-1.264.522-2.497.545-3.62.003-.05.003-.096.003-.145z" transform="translate(19.26 26.449)"/>
                </g>
                <ellipse cx="34.842" cy="38.725" fill="#BC8740" rx="3.798" ry="1.181"/>
                <g fill="#435363">
                    <path d="M1.9.065v21.069H.282V1.252C.5 1.076.716.904.937.74c.316-.237.636-.46.963-.674zM24.082.069L24.082 17.039 24.082 21.134 25.7 21.134 25.7 17.039 25.7 1.256z" transform="translate(21.852 57.74)"/>
                </g>
                <g>
                    <g fill="#141720">
                        <path d="M0.042 0.266L4.472 5.606 8.902 0.266z" transform="translate(26.296 52.898) translate(4.074 3.353)"/>
                        <path d="M4.472 27.73h-2.62L3.745 3.216c.08.312 1.375.312 1.454 0L7.092 27.73h-2.62z" transform="translate(26.296 52.898) translate(4.074 3.353)"/>
                    </g>
                    <g fill="#E7ECF2">
                        <path d="M8.544 3.59l-.01.02-.005.007L6.69 6.723 4.973 9.618.323 3.12c.148-.107.297-.222.438-.34l.008.007C1.7 2.04 2.532 1.162 3.22.182l5.312 3.4.011.008z" transform="translate(26.296 52.898)"/>
                        <path d="M16.77 3.12l-4.65 6.498-1.717-2.895-1.844-3.106-.015-.027L13.891.167c.693.987 1.519 1.868 2.456 2.623.141.115.282.226.423.33z" transform="translate(26.296 52.898)"/>
                    </g>
                </g>
            </g>
        </g>
        <g transform="translate(51)">
            <mask id="prefix__f" fill="#fff">
                <use xlink:href="#prefix__e"/>
            </mask>
            <use fill="#D8D8D8" xlink:href="#prefix__e"/>
            <g fill-rule="nonzero" mask="url(#prefix__f)">
                <ellipse cx="59.73" cy="60.076" fill="#D19C32" rx="59.73" ry="60.076"/>
                <path fill="#BC8740" d="M86.31 33.708v19.966c0 .29-.007.578-.013.867-.013.598-.046 1.195-.098 1.786-.013.203-.033.406-.06.61-.084.847-.201 1.68-.352 2.509-.052.275-.104.544-.164.814-.006.058-.019.111-.032.164-.053.276-.118.545-.183.814-.026.144-.065.289-.098.434-.033.124-.065.25-.104.374-.137.538-.294 1.064-.457 1.589-.079.25-.157.492-.242.742-.007.026-.02.052-.026.078l-.235.67c-.026.065-.052.13-.078.203-.078.21-.157.42-.242.63-.097.257-.202.506-.306.756-.092.224-.19.446-.287.67-.013.04-.033.072-.046.111-.111.236-.215.473-.326.703-.111.242-.229.486-.353.729-.235.479-.49.958-.745 1.425-.117.21-.234.42-.353.63-1.005 1.74-2.12 3.375-3.335 4.885-.164.216-.332.426-.509.63-.242.295-.49.584-.738.866-.222.25-.444.5-.672.742-.627.677-1.267 1.32-1.92 1.925-.13.131-.267.25-.405.374-.221.204-.443.4-.672.59-.176.158-.359.309-.542.46-.47.387-.94.762-1.416 1.11-.196.15-.399.295-.6.433-.327.236-.66.46-.993.676-.183.125-.372.243-.562.355-.666.414-1.338.794-2.004 1.123-.163.084-.326.164-.49.242-.163.079-.332.158-.509.236-.215.099-.43.19-.646.276-.085.04-.17.073-.254.099-.254.105-.516.203-.77.288-.32.118-.647.217-.966.309-.223.066-.45.124-.673.177-.013.007-.026.013-.045.013-.223.052-.444.105-.666.144-.06.014-.117.027-.176.033-.183.033-.366.066-.549.086-.26.04-.522.072-.783.085-.09.013-.176.02-.268.02-.208.013-.417.02-.62.02h-.02c-.202 0-.404-.007-.606-.02-.079 0-.157-.006-.236-.02-.182-.006-.372-.027-.567-.053-.04 0-.085-.006-.124-.013-.242-.032-.483-.072-.731-.118-.209-.032-.418-.079-.633-.131-1.117-.256-2.265-.643-3.427-1.163-.993-.44-1.998-.97-2.996-1.588-.503-.309-1.006-.637-1.502-.985-.248-.178-.496-.355-.744-.538-.777-.572-1.547-1.195-2.305-1.865-.208-.19-.417-.38-.626-.578-.209-.19-.418-.387-.62-.577-.51-.493-1.006-1.005-1.489-1.537-.19-.203-.378-.413-.568-.63-.522-.59-1.031-1.201-1.515-1.839-.19-.23-.365-.466-.542-.702-.659-.88-1.286-1.8-1.873-2.751-.157-.256-.313-.52-.463-.775-.183-.308-.359-.623-.536-.939-.652-1.182-1.254-2.41-1.775-3.677-.079-.184-.157-.368-.223-.55-.104-.237-.196-.48-.28-.717-.13-.348-.254-.696-.372-1.044-.118-.348-.228-.702-.34-1.057-.104-.341-.202-.682-.293-1.03-.105-.368-.202-.742-.287-1.123-.007-.04-.02-.079-.026-.118-.124-.525-.235-1.057-.333-1.595-.13-.71-.235-1.432-.314-2.16-.032-.23-.052-.46-.071-.69-.027-.243-.046-.48-.059-.723-.033-.44-.053-.886-.066-1.333-.006-.289-.013-.578-.013-.866V33.708c0-14.753 11.887-26.715 26.555-26.729h.026c2.024 0 3.995.23 5.888.657 1.73.394 3.395.958 4.975 1.674 2.154.972 4.158 2.22 5.96 3.71 1.514 1.248 2.892 2.653 4.092 4.202 3.547 4.543 5.662 10.262 5.662 16.486z"/>
                <path fill="#BC8740" d="M94.357 128.194v.006H25.103v-.006c0-3.933.647-7.722 1.848-11.247.215-.637.45-1.267.705-1.891v-.007c.254-.624.522-1.234.809-1.838 1.143-2.423 2.565-4.688 4.217-6.763.418-.519.842-1.024 1.28-1.51.215-.25.444-.493.672-.735.229-.237.457-.473.692-.71 1.17-1.174 2.422-2.251 3.741-3.243.66-.492 1.325-.952 2.017-1.398.693-.44 1.397-.86 2.115-1.254.014-.013.026-.013.026-.013.281-.151.555-.315.83-.486.542-.328 1.076-.683 1.586-1.064.261-.183.51-.374.757-.577.587-.473 1.155-.979 1.697-1.51.176-.178.353-.355.53-.54.364-.38.71-.78 1.044-1.188.163-.196.327-.4.476-.604.157-.203.307-.413.458-.624 1.161-1.628 2.095-3.42 2.78-5.331.83-2.325 1.28-4.826 1.28-7.44l5.046.027 5.19.026c0 2.58.437 5.055 1.246 7.354.673 1.917 1.606 3.71 2.749 5.338 1.188 1.693 2.604 3.204 4.21 4.497.242.197.483.387.725.564.235.178.476.348.725.512.052.04.097.073.15.106.235.157.47.315.718.46.268.164.542.328.816.48.045.012.085.032.118.058.574.322 1.142.657 1.697 1.005.268.164.536.335.797.526.542.354 1.07.728 1.586 1.122 0 .007.007.007.007.007h.006c1.319.991 2.566 2.074 3.734 3.244 6.29 6.302 10.174 15.008 10.174 24.647z"/>
                <path fill="#C7D4E2" d="M94.358 128.195H25.104c0-3.933.647-7.721 1.848-11.247.215-.638.45-1.267.705-1.891-.007-.007 0-.007 0-.007.248-.624.521-1.235.808-1.838 1.143-2.423 2.566-4.688 4.218-6.763.417-.519.842-1.024 1.28-1.51.215-.25.443-.492.672-.735.228-.236.457-.473.692-.709 1.169-1.175 2.422-2.252 3.74-3.243.66-.493 1.326-.953 2.018-1.399.692-.446 1.397-.867 2.115-1.26.013-.013.026-.007.026-.007v-.006c.28-.158.555-.316.83-.48.815-.499 1.6-1.05 2.33-1.655l.013.013c3.381 3.48 8.088 5.64 13.31 5.653h.053c5.222 0 9.948-2.167 13.343-5.646l.007-.007c.463.387.946.749 1.442 1.083.052.04.098.072.15.105.235.158.476.308.718.46.268.164.542.322.816.472.046.013.078.04.118.06.574.321 1.142.656 1.697 1.01.268.164.536.335.797.526.542.348 1.07.728 1.586 1.122h.013c1.326.998 2.572 2.081 3.734 3.25 6.291 6.304 10.175 15.01 10.175 24.649z"/>
                <path fill="#000" d="M86.31 53.674c0 .29-.007.578-.013.867-.013.598-.046 1.195-.098 1.786-.013.203-.033.406-.06.61-.084.847-.201 1.68-.352 2.509-.052.275-.104.544-.164.814-.006.058-.019.111-.032.164-.053.276-.118.545-.183.814-.033.158-.071.309-.118.46-.019.118-.052.236-.084.348-.138.538-.294 1.064-.458 1.589-.078.25-.156.492-.241.742-.007.026-.02.052-.026.078-.08.223-.157.447-.235.67-.026.065-.052.13-.079.203-.078.21-.156.42-.241.63-.098.257-.202.506-.307.756-.091.224-.19.446-.287.67-.013.04-.033.072-.046.111-.11.236-.215.473-.326.703-.111.242-.229.486-.353.729-.235.479-.49.958-.744 1.425l-.353.63c-1.005 1.74-2.121 3.375-3.335 4.885-.164.216-.333.426-.51.63-.242.295-.49.584-.737.866-.223.25-.444.5-.673.742-.626.677-1.266 1.32-1.92 1.925-.13.131-.267.25-.404.374-.222.204-.443.4-.673.59-.175.158-.358.309-.542.46-.47.387-.94.762-1.416 1.11-.196.15-.398.295-.6.433-.327.236-.66.46-.993.676-.183.125-.372.243-.562.355-.666.414-1.337.794-2.003 1.123-.164.084-.327.164-.49.242-.164.079-.333.158-.51.236-.215.099-.43.19-.645.276-.086.04-.17.073-.255.099-.254.105-.516.203-.77.288-.32.118-.647.217-.966.309-.222.066-.45.124-.672.177-.014.007-.026.013-.046.013-.222.052-.444.105-.666.144-.06.014-.117.027-.176.033-.183.033-.366.066-.549.086-.26.04-.521.072-.782.085-.091.013-.176.02-.268.02-.209.013-.417.02-.62.02h-.02c-.202 0-.405-.007-.607-.02-.078 0-.157-.006-.235-.02-.182-.006-.372-.027-.568-.053-.04 0-.085-.006-.124-.013-.242-.032-.483-.072-.731-.118-.208-.032-.417-.079-.633-.131-1.116-.256-2.265-.643-3.427-1.163-.992-.44-1.997-.97-2.996-1.588-.503-.302-.999-.63-1.502-.985-.248-.178-.495-.355-.744-.538-.777-.572-1.547-1.195-2.304-1.865-.209-.19-.418-.38-.626-.578-.21-.19-.418-.387-.62-.577-.51-.493-1.007-1.005-1.49-1.537-.189-.203-.378-.413-.568-.63-.522-.59-1.031-1.201-1.514-1.839-.19-.23-.366-.466-.542-.702-.66-.88-1.286-1.8-1.874-2.751-.156-.256-.313-.52-.463-.775-.183-.308-.359-.623-.535-.939-.653-1.182-1.254-2.41-1.776-3.677-.078-.184-.157-.368-.222-.55-.105-.237-.196-.48-.28-.717-.131-.348-.255-.696-.373-1.044-.117-.348-.228-.702-.339-1.057-.105-.341-.203-.682-.294-1.03-.105-.368-.202-.742-.287-1.123-.007-.04-.02-.079-.026-.118-.124-.525-.235-1.057-.333-1.595-.13-.71-.235-1.432-.313-2.16-.033-.23-.052-.46-.072-.69-.026-.243-.045-.48-.059-.723-.033-.44-.052-.886-.066-1.333-.006-.289-.013-.578-.013-.866l4.244 8.391 7.291 3.198 8.623.781 6.398.585h.039l5.986.545 13.337 1.208 7.24-14.708zM80.65 17.222c-1.3 2.961-2.99 5.712-4.988 8.207-.117.145-.235.29-.359.434-4.092 4.957-9.458 8.811-15.594 11.063-1.613.598-3.277 1.083-4.988 1.444-1.142.243-2.304.434-3.485.572-1.359.15-2.742.23-4.145.23-1.606 0-3.18-.106-4.726-.309-1.515-.19-2.997-.472-4.446-.853-.829-.21-1.638-.453-2.442-.722-.79-.263-1.56-.552-2.323-.867V33.71c0-14.753 11.887-26.715 26.555-26.729h.026c2.024 0 3.995.23 5.888.657 1.73.394 3.395.958 4.974 1.674 2.155.972 4.159 2.22 5.96 3.71 1.514 1.245 2.892 2.65 4.093 4.2z"/>
                <path fill="#000" d="M86.31 33.708v5.259c-4.531-3.526-8.284-7.984-10.993-13.079-.007-.006-.007-.02-.014-.026-2.662-5.003-4.314-10.617-4.706-16.552 2.155.971 4.159 2.219 5.96 3.71 1.515 1.247 2.893 2.652 4.093 4.201 3.545 4.544 5.66 10.263 5.66 16.487zM36.267 35.77c-.28.492-.536.998-.79 1.517-.097.203-.196.42-.294.63-1.285 2.876-1.932 5.699-2.024 8.247 0 .072-.007.15-.007.223V36.092c0-.368.014-.73.014-1.084 1.031.27 2.063.532 3.1.762z"/>
                <path fill="#000" d="M83.209 35.77c.395.698.747 1.413 1.086 2.146 1.325 2.965 1.974 5.861 2.03 8.473v-10.3c0-.362-.013-.725-.013-1.078-1.03.267-2.06.526-3.103.759z"/>
                <path fill="#1A1A1A" d="M83.157 38.423c0-.112-.085-.21-.196-.224-.94-.144-5.17-.729-9.72-.729-5.164 0-11.829 1.628-12.99 1.628h-1.032c-.542 0-2.278-.354-4.498-.728-2.552-.434-5.738-.9-8.492-.9-3.33 0-6.49.315-8.31.538-.666.08-1.156.151-1.41.19-.112.014-.197.112-.197.224l-.052 2.79c0 .099.06.184.15.224l.313.111c.464.178.425 8.588 2.918 10.69 1.482 1.24 2.8 1.949 8.356 1.949 3.218 0 5.242-.873 7.161-3.48 1.384-1.87 2.61-6.296 2.61-6.296.373-1.825 1.724-1.97 1.94-1.983h.026c.045 0 1.567.026 1.965 1.983 0 0 1.227 4.425 2.61 6.296 1.92 2.607 3.944 3.48 7.161 3.48 5.556 0 6.874-.709 8.356-1.95 2.494-2.1 2.455-10.511 2.918-10.689l.314-.111c.09-.04.15-.125.15-.224l-.051-2.79zm-27.998 9.953c-.816 1.943-2.925 4.452-5.895 4.602-8.91.453-9.322-2.048-9.896-4.031-.581-1.983-.731-3.723-.503-5.706.235-1.983.731-3.145 1.626-3.73.385-.256.803-.485 1.873-.65.96-.144 2.442-.23 4.909-.23 1.43 0 2.768.112 3.962.309 3.173.512 5.314 1.596 5.314 2.666 0 .73-.183 3.894-1.39 6.77zm24.942.57c-.574 1.984-.985 4.485-9.896 4.032-2.97-.15-5.079-2.659-5.895-4.602-1.207-2.876-1.39-6.04-1.39-6.77 0-1.47 4.061-2.974 9.276-2.974 5.216 0 6.051.394 6.783.88.894.585 1.39 1.747 1.625 3.73.229 1.983.079 3.723-.503 5.705z"/>
                <g fill="#000">
                    <path d="M26.745 12.549l-.007 6.474-.007 2.265v1.779l-.007 5.909v.006l-.006-.006h-.007l-.019-.013L1.018 15.819c-.007-.04-.02-.079-.026-.118-.123-.525-.235-1.057-.332-1.596-.131-.709-.235-1.431-.314-2.16-.032-.23-.052-.46-.072-.69-.026-.242-.045-.48-.058-.722C.183 10.093.163 9.647.15 9.2c-.007-.289-.013-.578-.013-.866V.488C.137.6.143.71.143.823c.053 1.897.353 3.985.934 6.119.45 1.64 1.012 3.157 1.665 4.51v.006c1.71 3.58 4.001 6.008 6.11 6.402.13.02.267.032.398.046.816.092 1.671.144 2.553.144 3.328 0 6.286-2.692 8.146-3.782l.04-.02c.097-.059.196-.118.28-.177.026-.02.052-.033.078-.046 1.567-.9 3.826-1.47 6.346-1.477h.052z" transform="translate(33.016 45.34)"/>
                    <path d="M53.3.488l-.007 7.846c0 1.97-.183 3.9-.522 5.771-.137.749-.294 1.49-.476 2.226l-6.026 8.752-19.544 3.894h-.006l-.007.006v-.006l-.02-16.43h.053c2.52.007 4.785.578 6.352 1.477.026.014.045.027.071.046.092.06.19.118.287.178.007.006.02.013.033.02 1.867 1.09 4.817 3.783 8.147 3.783.881 0 1.736-.052 2.552-.144.137-.013.268-.026.405-.046 2.102-.394 4.4-2.823 6.103-6.401v-.007c.652-1.352 1.214-2.869 1.664-4.51.588-2.167.895-4.28.934-6.205.007-.086.007-.165.007-.25z" transform="translate(33.016 45.34)"/>
                </g>
                <ellipse cx="59.73" cy="66.386" fill="#BC8740" rx="6.511" ry="2.024"/>
                <g fill="#435363">
                    <path d="M3.258.111V36.23H.484V2.147c.372-.302.744-.598 1.123-.88C2.149.86 2.697.479 3.257.111zM41.283.118L41.283 29.21 41.283 36.229 44.057 36.229 44.057 29.21 44.057 2.153z" transform="translate(37.46 98.983)"/>
                </g>
                <g>
                    <g fill="#141720">
                        <path d="M0.072 0.455L7.666 9.61 15.261 0.455z" transform="translate(45.08 90.681) translate(6.984 5.747)"/>
                        <path d="M7.666 47.536h-4.49L6.42 5.516c.136.534 2.357.534 2.493 0l3.244 42.02H7.666z" transform="translate(45.08 90.681) translate(6.984 5.747)"/>
                    </g>
                    <g fill="#E7ECF2">
                        <path d="M14.648 6.155l-.02.032-.006.014-3.153 5.324-2.945 4.964L.554 5.347c.254-.184.509-.38.75-.584l.014.013C2.917 3.496 4.34 1.992 5.522.312l9.107 5.83.019.013z" transform="translate(45.08 90.681)"/>
                        <path d="M28.748 5.347l-7.97 11.142-2.945-4.964-3.16-5.324-.026-.046 9.166-5.87C25 1.98 26.417 3.49 28.023 4.782c.242.197.483.388.725.565z" transform="translate(45.08 90.681)"/>
                    </g>
                </g>
            </g>
        </g>
    </g>
</svg>
