<svg xmlns="http://www.w3.org/2000/svg" width="30" height="30" viewBox="0 0 30 30">
    <g fill="none" fill-rule="evenodd" stroke="#000" transform="translate(6 6)">
        <path d="M10.003 11.515c-.973-.295-1.15-.856-1.15-1.18v-.59c.586-.56.996-1.278 1.18-2.066.737 0 1.18-.886 1.18-1.77 0-.237 0-1.181-.59-1.181C12.098.449 7.79-1.174 4.721.892c-1.298 0-1.652 1.947-1.18 3.836-.59 0-.59.944-.59 1.18 0 .885.442 1.77 1.18 1.77.186.789.596 1.506 1.18 2.066v.59c0 .472-.147 1.063-2.537 1.535S0 14.465 0 14.465h9.531M15.344 12.4L13.279 14.761 12.098 13.58"/>
        <circle cx="13.574" cy="13.58" r="4.131"/>
    </g>
</svg>
