<svg xmlns="http://www.w3.org/2000/svg" width="20" height="20" viewBox="0 0 20 20">
    <g fill="none" fill-rule="evenodd" stroke="#FFF">
        <path d="M10.057 13.193c.857-.193.857-.493.857-.707v-.322a1.993 1.993 0 0 1-.621-1.478V9.72a1.5 1.5 0 0 1 2.978 0v.965a1.993 1.993 0 0 1-.642 1.478v.322c0 .193 0 .514.878.707.879.193.836 1.093.836 1.093H9.2c-.012-.523.347-.98.857-1.093z"/>
        <path d="M4.914 5.286H3.2V16h12.857V5.286h-1.714m-6 3H4.914M7.057 10H4.914m3 1.714h-3M6.63 5.286h6"/>
        <path d="M4.914 4H6.63v2.571H4.914V4zm7.715 0h1.714v2.571h-1.714V4z"/>
    </g>
</svg>
