<svg xmlns="http://www.w3.org/2000/svg" width="30" height="30" viewBox="0 0 30 30">
    <g fill="none" fill-rule="evenodd" stroke="#000">
        <path d="M13.938 8.563c.28-1.032 1-2.313 2.812-2.313 0 0 5-1.594 5 3.5 0 4.281.969 4.75 2 5.781a17.688 17.688 0 0 1-4 .469v.5c0 .5-.094 1.5 2.406 2S24.75 21 24.75 21h-6.563"/>
        <path d="M17.281 20.75c-2.5-.344-2.5-1.25-2.5-1.75v-.281a4.562 4.562 0 0 0 1.313-2.188c.75 0 .937-1.593.937-1.812 0-.219-.062-1.125-.406-1.219 1.25-4.375-2.5-6.25-5.75-4-1.375 0-1.813 2-1.313 4-.343 0-.406.938-.406 1.188s.188 1.812.938 1.812c.25.906.937 1.656 1.531 2.188V19c0 .5-.188 1.438-2.719 1.75C6.375 21.063 6 23.5 6 23.5h13.75s.031-2.406-2.469-2.75z"/>
    </g>
</svg>
