<svg xmlns="http://www.w3.org/2000/svg" width="21" height="20" viewBox="0 0 21 20">
    <g fill="none" fill-rule="evenodd" stroke="#D19C32">
        <path d="M8.895 5.757c.192-.707.685-1.586 1.928-1.586 0 0 3.429-1.092 3.429 2.4 0 2.936.664 3.258 1.371 3.965-.899.21-1.82.319-2.743.321v.343c0 .343-.064 1.029 1.65 1.371 1.715.343 1.779 1.715 1.779 1.715h-4.5"/>
        <path d="M11.187 14.114c-1.714-.235-1.714-.857-1.714-1.2v-.193c.437-.404.749-.924.9-1.5.514 0 .643-1.092.643-1.242 0-.15-.043-.772-.279-.836.858-3-1.714-4.286-3.942-2.743-.943 0-1.243 1.371-.9 2.743-.236 0-.279.643-.279.814 0 .172.129 1.243.643 1.243.171.621.643 1.136 1.05 1.5v.214c0 .343-.129.986-1.864 1.2C3.709 14.33 3.452 16 3.452 16h9.428s.022-1.65-1.693-1.886z"/>
    </g>
</svg>
