<svg xmlns="http://www.w3.org/2000/svg" width="443" height="154" viewBox="0 0 443 154">
    <g fill="none" fill-rule="evenodd">
        <g>
            <g>
                <g>
                    <g>
                        <g>
                            <text fill="#000" font-family="HelveticaNeueLTStd-Bd, Helvetica Neue LT Std" font-size="34" font-weight="bold" letter-spacing=".923" transform="translate(-644 -108) translate(-19 -3) translate(148 76.486) translate(0 38.523) translate(518.804)">
                                <tspan x="46.196" y="58.991">Retraite bien préparée,</tspan> <tspan x="46.196" y="94.991">avenir assuré !</tspan>
                            </text>
                            <g transform="translate(-644 -108) translate(-19 -3) translate(148 76.486) translate(0 38.523) translate(518.804)">
                                <ellipse fill="#F8B322" style="mix-blend-mode:darken" cx="73.091" cy="73.591" rx="47" ry="46.5" transform="rotate(26 73.09 73.59)"/>
                                <path stroke="#78AD1A" stroke-dasharray="100 270" stroke-linecap="round" stroke-linejoin="round" stroke-width="5" d="M21.596 93.694c11.482 28.42 43.622 42.235 71.786 30.856 28.163-11.38 41.686-43.643 30.204-72.062-11.482-28.42-43.622-42.235-71.786-30.856-28.164 11.38-41.687 43.642-30.204 72.062z" style="mix-blend-mode:darken"/>
                                <path stroke="#F8B322" stroke-dasharray="0 246" stroke-linecap="round" stroke-linejoin="round" stroke-width="5" d="M96.335 122.938c27.53-12.837 39.44-45.561 26.603-73.091-12.837-27.53-45.561-39.44-73.091-26.603-27.53 12.837-39.44 45.561-26.603 73.09 12.837 27.53 45.561 39.441 73.09 26.604z" style="mix-blend-mode:darken"/>
                            </g>
                        </g>
                    </g>
                </g>
            </g>
        </g>
    </g>
</svg>
