<?xml version="1.0" encoding="UTF-8"?>
<svg width="20px" height="18px" viewBox="0 0 20 18" version="1.1" xmlns="http://www.w3.org/2000/svg" xmlns:xlink="http://www.w3.org/1999/xlink">
    <title>Icon Locked Copy 4</title>
    <g id="M-TAX-WEB-V2" stroke="none" stroke-width="1" fill="none" fill-rule="evenodd">
        <g id="E00_MTAX_WEB" transform="translate(-845.000000, -576.000000)" stroke="#000000">
            <g id="Group-2" transform="translate(530.000000, 495.000000)">
                <g id="Champs-Identification" transform="translate(0.031153, 65.000000)">
                    <g id="Icon/Group/Vue-desactiver" transform="translate(309.968847, 10.000000)">
                        <g id="Orion_hidden" transform="translate(6.000000, 6.000000)">
                            <path d="M7.17,14.19 C7.76975578,14.3309392 8.38390842,14.4014157 9,14.4000209 C14.16,14.4000209 17.85,9.15 17.85,9.15 C17.0317874,8.05916067 16.0735584,7.08075842 15,6.24 M13.05,4.95 C11.8050664,4.27689454 10.4151526,3.91654651 9,3.9 C3.84,3.9 0.15,9.15 0.15,9.15 C1.39665781,10.8098997 2.96867729,12.1981767 4.77,13.23 M9,12.6 C10.9882251,12.6 12.6,10.9882251 12.6,9 M11.55,6.45 C10.1416739,5.04167392 7.85832614,5.04167394 6.45000004,6.45000004 C5.04167394,7.85832614 5.04167392,10.1416739 6.45,11.55" id="Shape"></path>
                            <line x1="18" y1="0" x2="0" y2="18" id="Path"></line>
                        </g>
                    </g>
                </g>
            </g>
        </g>
    </g>
</svg>